<svg width="26" height="26" viewBox="0 0 26 26" fill="none" xmlns="http://www.w3.org/2000/svg">
<path d="M20.4558 5.38281C20.4558 3.61583 19.2996 0.8125 16.1968 0.8125C14.922 0.8125 13.8497 1.4135 13.0001 2.60147C12.1506 1.4135 11.0782 0.8125 9.80346 0.8125C6.70067 0.8125 5.54443 3.61583 5.54443 5.38281C5.54443 8.42933 7.92211 10.335 11.1703 13.1126C11.6476 13.5207 12.1412 13.9427 12.6674 14.3992C12.7628 14.482 12.8815 14.5234 13.0001 14.5234C13.1188 14.5234 13.2374 14.482 13.3329 14.3992C13.8591 13.9427 14.3526 13.5207 14.8299 13.1126C18.2306 10.2047 20.4558 8.36494 20.4558 5.38281ZM13.0001 13.3441C12.5943 12.9939 12.2073 12.663 11.8304 12.3406C8.43201 9.43475 6.56006 7.83402 6.56006 5.38281C6.56006 3.72008 7.64784 1.82812 9.80346 1.82812C10.9284 1.82812 11.8283 2.47406 12.5546 3.8028C12.6436 3.96571 12.8145 4.06707 13.0001 4.06707C13.1858 4.06707 13.3567 3.96571 13.4457 3.8028C14.172 2.47406 15.0719 1.82812 16.1968 1.82812C18.3223 1.82812 19.4402 3.692 19.4402 5.38281C19.4402 7.83402 17.5683 9.43475 14.1699 12.3407C13.7929 12.663 13.4059 12.9939 13.0001 13.3441Z" fill="#3E1A1A"/>
<path d="M3.64904 20.7245L6.09375 21.9467V24.6797C6.09375 24.9601 6.32115 25.1875 6.60156 25.1875H11.9844C12.2648 25.1875 12.4922 24.9601 12.4922 24.6797V18.0502C12.4922 16.4944 11.3251 15.2042 9.78123 15.0494L9.73969 15.0449C8.84609 14.9553 7.26385 14.3441 6.63909 13.7194L5.49864 12.5794C5.11489 12.1957 4.60489 11.9844 4.0625 11.9844V7.92188C4.0625 6.80184 3.15128 5.89062 2.03125 5.89062C0.911219 5.89062 0 6.80184 0 7.92188V14.82C0 17.3191 1.41162 19.6056 3.64904 20.7245ZM1.01562 7.92188C1.01562 7.36186 1.47123 6.90625 2.03125 6.90625C2.59127 6.90625 3.04688 7.36186 3.04688 7.92188V12.2566C2.42755 12.6147 2.03125 13.2824 2.03125 14.0156C2.03125 14.558 2.2426 15.068 2.62636 15.4517L5.22686 18.0527C5.42511 18.2511 5.74666 18.2511 5.94501 18.0528C6.14331 17.8545 6.14336 17.533 5.94506 17.3346L3.34455 14.7336C3.15255 14.5417 3.04688 14.2867 3.04688 14.0156C3.04688 13.5858 3.31891 13.2009 3.72389 13.0578C3.72394 13.0578 3.72404 13.0578 3.72409 13.0577C3.7242 13.0577 3.72435 13.0577 3.72445 13.0576C4.07474 12.9333 4.49023 13.0074 4.78055 13.2977L5.92099 14.4377C7.09841 15.6151 9.67083 16.0581 9.67596 16.0596C10.7025 16.1625 11.4765 17.0183 11.4765 18.0502V24.1719H7.10932V21.6328C7.10932 21.4405 7.0006 21.2646 6.82861 21.1786L4.10323 19.8162C2.19878 18.8637 1.01562 16.9493 1.01562 14.82V7.92188Z" fill="#3E1A1A"/>
<path d="M23.3086 20.0078C23.5891 20.0078 23.8164 19.7805 23.8164 19.5C23.8164 19.2195 23.5891 18.9922 23.3086 18.9922C23.0281 18.9922 22.8008 19.2195 22.8008 19.5C22.8008 19.7805 23.0281 20.0078 23.3086 20.0078Z" fill="#3E1A1A"/>
<path d="M23.9688 5.89062C22.8487 5.89062 21.9375 6.80184 21.9375 7.92188V11.9844C21.3951 11.9844 20.8851 12.1957 20.5015 12.5794L19.3608 13.7195C18.7361 14.3442 17.1539 14.9554 16.2563 15.0453L16.2227 15.049C14.6749 15.2042 13.5078 16.4944 13.5078 18.0502V24.6797C13.5078 24.9601 13.7352 25.1875 14.0156 25.1875H19.3984C19.6789 25.1875 19.9062 24.9601 19.9062 24.6797V21.9467L21.5683 21.1158C21.8191 20.9904 21.9208 20.6854 21.7955 20.4345C21.67 20.1837 21.365 20.0819 21.1142 20.2074L19.1713 21.1786C18.9993 21.2646 18.8906 21.4405 18.8906 21.6328V24.1719H14.5234V18.0502C14.5234 17.0183 15.2975 16.1625 16.3279 16.0592L16.3616 16.0555C17.4631 15.9451 19.2869 15.2298 20.0789 14.4378L21.2195 13.2977C21.5106 13.0064 21.9269 12.934 22.2755 13.0576C22.2756 13.0577 22.2758 13.0577 22.2759 13.0577C22.2759 13.0577 22.276 13.0578 22.2761 13.0578C22.6811 13.2009 22.9531 13.5858 22.9531 14.0156C22.9531 14.2867 22.8474 14.5417 22.6555 14.7337L20.055 17.3347C19.8567 17.533 19.8567 17.8545 20.055 18.0528C20.2532 18.2511 20.5749 18.2511 20.7732 18.0528L23.3737 15.4518C23.7574 15.068 23.9688 14.558 23.9688 14.0156C23.9688 13.2824 23.5725 12.6147 22.9531 12.2566V7.92188C22.9531 7.36186 23.4087 6.90625 23.9688 6.90625C24.5288 6.90625 24.9844 7.36186 24.9844 7.92188V14.82C24.9844 15.7491 24.7499 16.6715 24.3063 17.4874C24.1723 17.7339 24.2634 18.0422 24.5099 18.1761C24.7562 18.3101 25.0647 18.219 25.1986 17.9726C25.7229 17.0082 26 15.918 26 14.82V7.92188C26 6.80184 25.0888 5.89062 23.9688 5.89062Z" fill="#3E1A1A"/>
</svg>
