<svg width="46" height="46" viewBox="0 0 46 46" fill="none" xmlns="http://www.w3.org/2000/svg">
<path fill-rule="evenodd" clip-rule="evenodd" d="M30.3789 4.79303C31.5883 4.79303 32.7958 4.96361 33.9439 5.34886C41.0183 7.64886 43.5675 15.4114 41.438 22.1964C40.2305 25.6636 38.2564 28.828 35.6708 31.4136C31.9697 34.9978 27.9083 38.1795 23.5364 40.9203L23.0572 41.2097L22.5589 40.9011C18.1716 38.1795 14.0872 34.9978 10.3516 31.3945C7.78329 28.8089 5.80721 25.6636 4.58054 22.1964C2.41471 15.4114 4.96387 7.64886 12.115 5.30861C12.6708 5.11695 13.2439 4.98278 13.8189 4.90803H14.0489C14.5875 4.82945 15.1222 4.79303 15.6589 4.79303H15.8697C17.0772 4.82945 18.2464 5.04028 19.3791 5.42553H19.4922C19.5689 5.46195 19.6264 5.5022 19.6647 5.53861C20.0883 5.6747 20.4889 5.82803 20.8722 6.03886L21.6005 6.3647C21.7765 6.45856 21.9741 6.60198 22.1448 6.72593C22.253 6.80447 22.3504 6.87518 22.4247 6.92053C22.456 6.93899 22.4878 6.95755 22.5198 6.97626C22.6842 7.07219 22.8554 7.17212 22.9997 7.28278C25.1291 5.65553 27.7147 4.77386 30.3789 4.79303ZM35.4772 18.593C36.263 18.5719 36.9339 17.9414 36.9914 17.1344V16.9064C37.0489 14.2211 35.4216 11.7889 32.9472 10.8497C32.1614 10.5794 31.2989 11.003 31.0114 11.808C30.743 12.613 31.1647 13.4947 31.9697 13.7803C33.1983 14.2403 34.0205 15.4497 34.0205 16.7894V16.8489C33.9841 17.2878 34.1164 17.7114 34.3847 18.0372C34.653 18.363 35.0555 18.5528 35.4772 18.593Z" fill="white"/>
</svg>
