<svg width="46" height="46" viewBox="0 0 46 46" fill="none" xmlns="http://www.w3.org/2000/svg">
<path fill-rule="evenodd" clip-rule="evenodd" d="M32.6041 27.9856C33.3976 27.9856 34.0416 27.3416 34.0416 26.5481V22.9984C34.0416 22.2049 33.3976 21.5609 32.6041 21.5609H21.6944C21.0734 19.5159 19.1913 18.0132 16.9449 18.0132C14.1964 18.0132 11.9597 20.2499 11.9597 22.9984C11.9597 25.7489 14.1964 27.9856 16.9449 27.9856C19.1913 27.9856 21.0734 26.4829 21.6944 24.4359H25.7424V26.5481C25.7424 27.3416 26.3864 27.9856 27.1799 27.9856C27.9734 27.9856 28.6174 27.3416 28.6174 26.5481V24.4359H31.1666V26.5481C31.1666 27.3416 31.8106 27.9856 32.6041 27.9856ZM14.6928 3.83179H31.3084C37.8021 3.83179 42.1663 8.38962 42.1663 15.1727V30.8261C42.1663 37.6092 37.8021 42.1651 31.3065 42.1651H14.6928C8.19726 42.1651 3.83301 37.6092 3.83301 30.8261V15.1727C3.83301 8.38962 8.19726 3.83179 14.6928 3.83179ZM14.8329 23.0002C14.8329 21.8349 15.7817 20.888 16.9451 20.888C18.1085 20.888 19.0573 21.8349 19.0573 23.0002C19.0573 24.1636 18.1085 25.1105 16.9451 25.1105C15.7817 25.1105 14.8329 24.1636 14.8329 23.0002Z" fill="white"/>
</svg>
