<svg width="151" height="50" viewBox="0 0 151 50" fill="none" xmlns="http://www.w3.org/2000/svg">
<g clip-path="url(#clip0)">
<path d="M34.6812 37.5387C34.4543 37.4536 34.2038 37.4646 33.9848 37.5692C33.7658 37.6739 33.5961 37.8636 33.5131 38.0968C32.8919 39.847 32.1847 41.5637 31.3941 43.2401C30.6509 44.8168 29.8283 46.3677 28.9494 47.8553C28.8237 48.0674 28.7851 48.3221 28.8421 48.5635C28.8991 48.8048 29.0469 49.013 29.2532 49.1422C29.4594 49.2715 29.7072 49.3112 29.9419 49.2526C30.1766 49.194 30.3791 49.042 30.5048 48.8299C31.4139 47.2951 32.2636 45.6905 33.0329 44.0612C33.8504 42.3276 34.5821 40.5526 35.225 38.7429C35.2666 38.6272 35.2855 38.5041 35.2806 38.3808C35.2758 38.2575 35.2473 38.1364 35.1967 38.0245C35.1462 37.9126 35.0746 37.812 34.9861 37.7286C34.8976 37.6453 34.794 37.5807 34.6812 37.5387Z" fill="#0A4D83"/>
<path d="M29.9348 39.7831C29.8261 39.7324 29.7086 39.7042 29.5893 39.7002C29.4699 39.6962 29.351 39.7164 29.2392 39.7596C29.1274 39.8029 29.0251 39.8684 28.9379 39.9523C28.8508 40.0363 28.7806 40.137 28.7313 40.2489C28.0998 41.6989 27.3879 43.1468 26.6175 44.5421C25.8701 45.8977 25.0517 47.2394 24.1739 48.5305C24.0355 48.7345 23.9815 48.9867 24.0239 49.2315C24.0663 49.4764 24.2015 49.6939 24.3999 49.8362C24.5982 49.9786 24.8434 50.034 25.0816 49.9905C25.3197 49.9469 25.5313 49.8078 25.6697 49.6039C26.5747 48.2654 27.4265 46.8755 28.2021 45.4705C29.0016 44.0205 29.7396 42.5265 30.3941 41.027C30.4439 40.9144 30.4715 40.7928 30.4754 40.6692C30.4792 40.5455 30.4592 40.4223 30.4165 40.3067C30.3738 40.191 30.3093 40.0852 30.2266 39.9954C30.1439 39.9055 30.0448 39.8333 29.9348 39.7831Z" fill="#0A4D83"/>
<path d="M27.7555 37.8307C28.3276 36.3839 28.838 34.8898 29.2733 33.3904C29.3425 33.1524 29.3169 32.896 29.2022 32.6774C29.0875 32.4588 28.893 32.296 28.6616 32.2248C28.4301 32.1536 28.1807 32.1799 27.9681 32.2979C27.7555 32.4158 27.5972 32.6158 27.528 32.8538C27.1104 34.2963 26.6188 35.7335 26.0666 37.1255C25.5322 38.4833 24.9319 39.8195 24.2827 41.1075C23.6334 42.3955 22.9257 43.6663 22.1699 44.8716C21.4142 46.0769 20.6042 47.2683 19.7294 48.4232C19.5813 48.6193 19.5151 48.8679 19.5452 49.1143C19.5754 49.3606 19.6995 49.5846 19.8902 49.7369C20.0809 49.8892 20.3227 49.9573 20.5623 49.9263C20.8019 49.8953 21.0197 49.7677 21.1679 49.5716C22.0729 48.3727 22.9257 47.1309 23.7044 45.8816C24.4831 44.6322 25.2232 43.3121 25.8965 41.9694C26.5697 40.6267 27.1981 39.241 27.7555 37.8307Z" fill="#0A4D83"/>
<path d="M21.4039 40.7177C21.1946 40.5941 20.9461 40.561 20.713 40.6255C20.4799 40.6901 20.2813 40.8472 20.1607 41.0622C19.5187 42.2117 18.8037 43.3559 18.049 44.4646C17.8402 44.7651 17.7358 44.9336 17.6628 45.0377C17.6221 45.0979 17.6033 45.1268 17.5855 45.1515L17.5365 45.2073C17.4613 45.2932 17.3277 45.4467 17.0292 45.8052C16.8725 45.9942 16.7952 46.2394 16.8144 46.487C16.8336 46.7346 16.9476 46.9642 17.1315 47.1253C17.3153 47.2864 17.5538 47.3659 17.7946 47.3461C18.0354 47.3264 18.2587 47.2092 18.4154 47.0201C18.692 46.6863 18.8183 46.5425 18.8882 46.4631C18.9908 46.349 19.0833 46.2258 19.1649 46.095C19.2317 45.9951 19.3402 45.832 19.5386 45.5433C20.3288 44.3873 21.0699 43.1938 21.74 41.996C21.7996 41.8894 21.8382 41.7717 21.8536 41.6498C21.869 41.5278 21.8608 41.4039 21.8296 41.2852C21.7984 41.1665 21.7447 41.0553 21.6717 40.9579C21.5986 40.8605 21.5077 40.7789 21.4039 40.7177Z" fill="#0A4D83"/>
<path d="M13.1518 34.6967C13.7308 33.5116 14.2428 32.2932 14.6852 31.0474C15.1653 29.6936 15.5628 28.3103 15.8752 26.9055C16.437 24.3662 16.7202 21.7701 16.7197 19.1659C16.7197 19.043 16.6961 18.9213 16.6504 18.8077C16.6046 18.6942 16.5376 18.591 16.4531 18.5041C16.3685 18.4172 16.2682 18.3483 16.1578 18.3012C16.0473 18.2542 15.929 18.23 15.8094 18.23C15.6899 18.23 15.5715 18.2542 15.4611 18.3012C15.3507 18.3483 15.2503 18.4172 15.1658 18.5041C15.0813 18.591 15.0142 18.6942 14.9685 18.8077C14.9227 18.9213 14.8992 19.043 14.8992 19.1659C14.8996 21.63 14.6314 24.0864 14.0996 26.4891C13.8043 27.8174 13.4285 29.1255 12.9744 30.4056C12.5558 31.582 12.0717 32.7327 11.5245 33.852C10.9906 34.9418 10.3981 36.0003 9.74993 37.0225C9.107 38.04 8.41005 39.0204 7.66225 39.9591C7.50887 40.1509 7.43591 40.3976 7.4594 40.6448C7.48289 40.8919 7.60091 41.1194 7.78751 41.2771C7.9741 41.4348 8.21398 41.5098 8.45437 41.4857C8.69476 41.4615 8.91597 41.3402 9.06934 41.1483C9.86151 40.1562 10.5999 39.1199 11.2812 38.0443C11.9645 36.9649 12.589 35.8473 13.1518 34.6967Z" fill="#0A4D83"/>
<path d="M10.3468 32.0372C10.4385 31.8129 10.4418 31.5608 10.356 31.334C10.2702 31.1073 10.102 30.9237 9.88695 30.8222C9.6719 30.7207 9.42688 30.7092 9.20373 30.7902C8.98057 30.8711 8.79678 31.0381 8.69122 31.2558C8.1749 32.4133 7.58489 33.5345 6.92504 34.6121C6.29324 35.6463 5.59912 36.6389 4.84675 37.5841C4.76754 37.6785 4.70749 37.7884 4.67015 37.9071C4.63281 38.0258 4.61893 38.151 4.62932 38.2753C4.63971 38.3996 4.67417 38.5205 4.73066 38.6309C4.78715 38.7413 4.86454 38.839 4.95828 38.9182C5.05202 38.9974 5.16021 39.0565 5.2765 39.0921C5.39279 39.1277 5.51483 39.1391 5.63544 39.1255C5.75605 39.1119 5.87279 39.0736 5.97882 39.0129C6.08484 38.9523 6.17799 38.8704 6.25281 38.7722C7.05449 37.7662 7.79395 36.7094 8.4668 35.6081C9.16881 34.4614 9.79682 33.2685 10.3468 32.0372Z" fill="#0A4D83"/>
<path d="M7.89406 28.3213C8.91711 25.3851 9.43871 22.2892 9.43582 19.1703C9.43582 18.9221 9.33992 18.684 9.16922 18.5085C8.99852 18.333 8.76699 18.2344 8.52559 18.2344C8.28418 18.2344 8.05266 18.333 7.88196 18.5085C7.71126 18.684 7.61536 18.9221 7.61536 19.1703C7.61758 22.0744 7.13201 24.9571 6.18007 27.6913C5.70479 29.0499 5.11704 30.3642 4.42329 31.6196C3.81005 32.7303 3.11637 33.7919 2.34813 34.7955C2.1985 34.9905 2.13033 35.2386 2.15861 35.4853C2.1869 35.732 2.30933 35.957 2.49897 36.1108C2.68861 36.2647 2.92992 36.3348 3.16982 36.3057C3.40972 36.2766 3.62856 36.1507 3.7782 35.9557C4.60372 34.8784 5.34904 33.7385 6.00784 32.5458C6.75312 31.1958 7.38418 29.7824 7.89406 28.3213Z" fill="#0A4D83"/>
<path d="M3.89835 28.5241C5.15336 25.5748 5.79887 22.3895 5.79397 19.1702C5.79056 14.7962 7.35896 10.5751 10.1979 7.31772C11.0041 6.39235 11.9014 5.55535 12.8754 4.82013C14.7548 3.40323 16.8944 2.39326 19.1645 1.85136C19.2844 1.82703 19.3983 1.77815 19.4994 1.70765C19.6006 1.63714 19.6869 1.54644 19.7532 1.44094C19.8196 1.33545 19.8646 1.21731 19.8857 1.09355C19.9067 0.969796 19.9033 0.84295 19.8758 0.720559C19.8482 0.598168 19.7969 0.482731 19.7251 0.381114C19.6532 0.279497 19.5622 0.193775 19.4575 0.129047C19.3528 0.0643186 19.2365 0.0219057 19.1155 0.0043306C18.9945 -0.0132445 18.8713 -0.00562269 18.7533 0.0267426C16.2431 0.626267 13.8774 1.74321 11.7992 3.30999C10.7231 4.12149 9.732 5.04594 8.84199 6.06839C5.70296 9.66868 3.96903 14.335 3.97351 19.1702C3.97809 22.1321 3.38412 25.0626 2.22925 27.776C1.66567 29.0996 0.974316 30.3617 0.165578 31.5433C0.0910626 31.6436 0.0370271 31.7583 0.00671906 31.8805C-0.023589 32.0028 -0.0295437 32.1301 -0.0107873 32.2548C0.00796917 32.3794 0.0510495 32.4989 0.115865 32.6061C0.18068 32.7132 0.265891 32.8058 0.366377 32.8782C0.466864 32.9506 0.58055 33.0013 0.700604 33.0274C0.820658 33.0535 0.944601 33.0543 1.06498 33.0299C1.18536 33.0055 1.2997 32.9563 1.40112 32.8853C1.50253 32.8142 1.58894 32.7229 1.65514 32.6166C2.53397 31.3328 3.28513 29.9613 3.89731 28.523L3.89835 28.5241Z" fill="#0A4D83"/>
<path d="M33.4808 7.37053C30.9525 5.01585 27.7372 3.58812 24.3367 3.31021C23.8826 3.27264 23.4766 3.25439 23.0945 3.25439C22.1541 3.2558 21.2157 3.34453 20.2908 3.5195C17.7058 4.00904 15.2848 5.16782 13.2563 6.88647C12.1017 7.86368 11.0902 9.00708 10.2532 10.2813C10.1864 10.3832 10.1397 10.4977 10.1159 10.6181C10.0921 10.7386 10.0916 10.8627 10.1144 10.9833C10.1372 11.1039 10.1829 11.2188 10.2489 11.3213C10.3149 11.4237 10.3999 11.5119 10.499 11.5806C10.5981 11.6493 10.7094 11.6973 10.8266 11.7217C10.9437 11.7462 11.0644 11.7467 11.1817 11.7233C11.299 11.6998 11.4107 11.6528 11.5104 11.5849C11.6101 11.5171 11.6958 11.4297 11.7626 11.3278C12.7781 9.77796 14.0845 8.45231 15.6051 7.42865C17.1257 6.40499 18.8298 5.70394 20.6175 5.36666C21.4339 5.2122 22.2623 5.13389 23.0924 5.13268C23.4254 5.13268 23.7845 5.14878 24.1895 5.18205C27.6099 5.4637 30.8017 7.05946 33.1295 9.65163C35.4572 12.2438 36.7503 15.6423 36.7511 19.1705C36.7516 23.4771 36.2647 27.7691 35.3002 31.96C35.2448 32.2019 35.2852 32.4566 35.4124 32.668C35.5397 32.8793 35.7434 33.03 35.9787 33.087C36.214 33.1439 36.4617 33.1024 36.6672 32.9715C36.8728 32.8407 37.0193 32.6313 37.0747 32.3893C38.0713 28.0566 38.5743 23.6195 38.5737 19.1672C38.571 16.9446 38.1165 14.747 37.2395 12.7156C36.3624 10.6841 35.0822 8.86346 33.4808 7.37053Z" fill="#0A4D83"/>
<path d="M25.6131 7.27795C24.2603 6.97383 22.8659 6.91788 21.4941 7.11266C18.6597 7.51169 16.0617 8.95292 14.1811 11.1697C12.3004 13.3864 11.2643 16.2285 11.2645 19.1702C11.2639 21.9124 10.8854 24.6407 10.1403 27.2737C10.107 27.3921 10.0968 27.5162 10.1103 27.6387C10.1238 27.7612 10.1607 27.8798 10.2189 27.9876C10.2771 28.0955 10.3554 28.1904 10.4494 28.267C10.5434 28.3435 10.6512 28.4003 10.7666 28.4339C10.8489 28.4589 10.9343 28.4716 11.0202 28.4715C11.2174 28.4714 11.4093 28.4056 11.567 28.2839C11.7248 28.1621 11.8398 27.9911 11.895 27.7964C12.6871 24.9933 13.0895 22.0892 13.0902 19.1702C13.0898 16.6808 13.9667 14.2757 15.5585 12.4C17.1502 10.5244 19.349 9.30527 21.7478 8.96841C22.9102 8.80217 24.092 8.84941 25.2384 9.10794C25.3021 9.12249 25.3672 9.12969 25.4325 9.1294C25.6564 9.12776 25.8718 9.04148 26.0377 8.887C26.2036 8.73252 26.3084 8.52066 26.3322 8.29181C26.3559 8.06296 26.2969 7.83313 26.1664 7.64615C26.0359 7.45916 25.843 7.3281 25.6246 7.27795H25.6131Z" fill="#0A4D83"/>
<path d="M31.9799 30.0769C31.5931 31.9239 31.107 33.7474 30.5238 35.539C30.447 35.7746 30.4644 36.0318 30.572 36.2542C30.6797 36.4766 30.8688 36.646 31.0979 36.725C31.1912 36.7567 31.2888 36.773 31.387 36.7733C31.5779 36.7733 31.7639 36.7117 31.9188 36.5971C32.0737 36.4825 32.1897 36.3207 32.2503 36.1347C32.8546 34.2772 33.3585 32.3867 33.7597 30.4719C34.5373 26.7581 34.9296 22.97 34.9298 19.1711C34.9256 17.2609 34.4862 15.3784 33.6467 13.6744C32.8072 11.9704 31.5911 10.4924 30.0958 9.3589C29.9998 9.28195 29.8898 9.22559 29.7722 9.19314C29.6546 9.16069 29.5319 9.15281 29.4114 9.16998C29.2908 9.18714 29.1748 9.229 29.0702 9.29307C28.9657 9.35714 28.8747 9.44213 28.8026 9.543C28.7305 9.64388 28.6789 9.75859 28.6507 9.88034C28.6225 10.0021 28.6184 10.1284 28.6385 10.2519C28.6587 10.3753 28.7027 10.4933 28.7679 10.599C28.8332 10.7046 28.9184 10.7957 29.0186 10.8669C30.2842 11.8259 31.3136 13.0765 32.0242 14.5184C32.7348 15.9604 33.1068 17.5535 33.1104 19.17C33.1102 22.8361 32.7316 26.4919 31.981 30.0759L31.9799 30.0769Z" fill="#0A4D83"/>
<path d="M23.094 10.7437C22.8707 10.7437 22.6368 10.7565 22.3571 10.7812C20.9516 10.9111 19.6025 11.412 18.4406 12.2356C18.3422 12.3055 18.2582 12.3946 18.1934 12.4979C18.1285 12.6012 18.0841 12.7166 18.0627 12.8375C18.0412 12.9585 18.0431 13.0826 18.0683 13.2028C18.0934 13.323 18.1414 13.4369 18.2094 13.538C18.2774 13.6391 18.3641 13.7255 18.4645 13.7922C18.565 13.8589 18.6772 13.9045 18.7949 13.9266C18.9125 13.9487 19.0332 13.9467 19.1501 13.9209C19.267 13.895 19.3777 13.8457 19.4761 13.7757C20.3786 13.1353 21.4267 12.7456 22.5189 12.6445C22.7433 12.6241 22.926 12.6144 23.094 12.6144C24.0487 12.6145 24.991 12.8372 25.8498 13.2659C26.9356 13.7952 27.8523 14.6315 28.4928 15.6769C29.1334 16.7223 29.4711 17.9336 29.4667 19.1691C29.4659 22.1496 29.1961 25.1236 28.6609 28.0529C28.6388 28.174 28.6403 28.2983 28.6651 28.4189C28.6899 28.5394 28.7377 28.6537 28.8056 28.7552C28.8734 28.8567 28.9601 28.9434 29.0607 29.0104C29.1613 29.0774 29.2737 29.1233 29.3915 29.1455C29.4473 29.1561 29.5039 29.1615 29.5606 29.1616C29.7728 29.1614 29.9783 29.085 30.1416 28.9457C30.3049 28.8064 30.4158 28.6129 30.4552 28.3985C31.0107 25.3549 31.2903 22.2648 31.2903 19.168C31.2838 17.5828 30.8448 16.0313 30.0232 14.6898C29.2017 13.3484 28.0306 12.2708 26.6431 11.5798C25.5369 11.0283 24.3234 10.7424 23.094 10.7437Z" fill="#0A4D83"/>
<path d="M58.2991 22.2419L58.2845 15.303L54.9442 21.0452H54.1007L50.7605 15.3931V22.2419H48.9619V11.7739H50.5214L54.5496 18.6978L58.535 11.7739H60.0726L60.1018 22.2419H58.2991Z" fill="#0A4D83"/>
<path d="M70.5888 20.6072V22.2376H62.9541V11.7739H70.3852V13.4043H64.8445V16.1251H69.76V17.7254H64.8445V20.6072H70.5888Z" fill="#0A4D83"/>
<path d="M81.7431 11.7739V22.2419H79.8538V17.7555H74.5886V22.2419H72.6982V11.7739H74.5886V16.0994H79.8538V11.7739H81.7431Z" fill="#0A4D83"/>
<path d="M84.6084 11.7739H86.4706V22.2419H84.6084V11.7739Z" fill="#0A4D83"/>
<path d="M99.908 20.5965V24.4711H98.1627V22.2419H96.4926V17.7555H91.2316V22.2419H89.335V11.7739H91.2316V16.0994H96.4957V11.7739H98.3861V20.5965H99.908Z" fill="#0A4D83"/>
<path d="M55.6961 34.1751H50.6064L49.6022 36.5997H47.6533L52.2348 26.1328H54.0959L58.6888 36.5997H56.7139L55.6961 34.1751ZM55.0698 32.6499L53.1502 28.0744L51.2462 32.6499H55.0698Z" fill="#0A4D83"/>
<path d="M67.1272 27.7747H63.7535V36.5994H61.8746V27.7768H58.5176V26.1304H67.1272V27.7747Z" fill="#0A4D83"/>
<path d="M74.9959 34.1751H69.9062L68.902 36.5997H66.9531L71.5345 26.1328H73.3957L77.9886 36.5997H76.0137L74.9959 34.1751ZM74.3696 32.6499L72.45 28.0744L70.546 32.6499H74.3696Z" fill="#0A4D83"/>
<path d="M88.8996 36.5994L88.885 29.6605L85.5447 35.4037H84.7013L81.361 29.7506V36.5994H79.5625V26.1304H81.1189L85.147 33.0575L89.1314 26.1347H90.6731L90.7024 36.6015L88.8996 36.5994Z" fill="#0A4D83"/>
<path d="M101.188 34.968V36.5994H93.5527V26.1304H100.985V27.7597H95.4431V30.4816H100.36V32.0819H95.4431V34.968H101.188Z" fill="#0A4D83"/>
<path d="M107.049 32.186H105.159V36.5994H103.297V26.1304H105.159V30.5116H107.107L110.03 26.1304H112.037L108.559 31.1996L112.168 36.5994H110.031L107.049 32.186Z" fill="#0A4D83"/>
<path d="M121.097 34.968V36.5994H113.465V26.1304H120.896V27.7597H115.355V30.4816H120.271V32.0819H115.355V34.968H121.097Z" fill="#0A4D83"/>
<path d="M132.254 26.1304V36.5994H130.362V32.1119H125.098V36.5994H123.208V26.1304H125.098V30.4515H130.362V26.1304H132.254Z" fill="#0A4D83"/>
<path d="M135.119 26.1304H136.98V36.5994H135.119V26.1304Z" fill="#0A4D83"/>
<path d="M149.196 36.5994L149.182 29.6605L145.841 35.4037H144.99L141.649 29.7506V36.5994H139.861V26.1304H141.417L145.446 33.0532L149.43 26.1304H150.972L151.001 36.5973L149.196 36.5994Z" fill="#0A4D83"/>
</g>
<defs>
<clipPath id="clip0">
<rect width="151" height="50" fill="white"/>
</clipPath>
</defs>
</svg>
