<svg width="151" height="50" viewBox="0 0 151 50" fill="none" xmlns="http://www.w3.org/2000/svg">
<g clip-path="url(#clip0)">
<path d="M34.6812 37.5389C34.4543 37.4538 34.2038 37.4648 33.9848 37.5694C33.7658 37.6741 33.5961 37.8639 33.5131 38.0971C32.8919 39.8473 32.1847 41.5639 31.3941 43.2403C30.6509 44.817 29.8283 46.368 28.9494 47.8556C28.8237 48.0676 28.7851 48.3224 28.8421 48.5637C28.8991 48.805 29.0469 49.0132 29.2532 49.1425C29.4594 49.2717 29.7072 49.3114 29.9419 49.2528C30.1766 49.1943 30.3791 49.0422 30.5048 48.8301C31.4139 47.2953 32.2636 45.6907 33.0329 44.0614C33.8504 42.3279 34.5821 40.5528 35.225 38.7432C35.2666 38.6274 35.2855 38.5044 35.2806 38.3811C35.2758 38.2578 35.2473 38.1367 35.1967 38.0247C35.1462 37.9128 35.0746 37.8123 34.9861 37.7289C34.8976 37.6455 34.794 37.581 34.6812 37.5389Z" fill="white"/>
<path d="M29.9348 39.7832C29.8261 39.7325 29.7086 39.7044 29.5893 39.7003C29.4699 39.6963 29.351 39.7165 29.2392 39.7598C29.1274 39.803 29.0251 39.8685 28.9379 39.9524C28.8508 40.0364 28.7806 40.1372 28.7313 40.249C28.0998 41.6991 27.3879 43.147 26.6175 44.5423C25.8701 45.8978 25.0517 47.2395 24.1739 48.5307C24.0355 48.7346 23.9815 48.9868 24.0239 49.2316C24.0663 49.4765 24.2015 49.694 24.3999 49.8364C24.5982 49.9787 24.8434 50.0342 25.0816 49.9906C25.3197 49.947 25.5313 49.8079 25.6697 49.604C26.5747 48.2656 27.4265 46.8756 28.2021 45.4707C29.0016 44.0206 29.7396 42.5266 30.3941 41.0272C30.4439 40.9146 30.4715 40.7929 30.4754 40.6693C30.4792 40.5457 30.4592 40.4225 30.4165 40.3068C30.3738 40.1912 30.3093 40.0854 30.2266 39.9955C30.1439 39.9056 30.0448 39.8335 29.9348 39.7832Z" fill="white"/>
<path d="M27.7555 37.8308C28.3276 36.384 28.838 34.89 29.2733 33.3905C29.3425 33.1526 29.3169 32.8961 29.2022 32.6775C29.0875 32.4589 28.893 32.2961 28.6616 32.2249C28.4301 32.1538 28.1807 32.1801 27.9681 32.298C27.7555 32.416 27.5972 32.6159 27.528 32.8539C27.1104 34.2964 26.6188 35.7336 26.0666 37.1257C25.5322 38.4834 24.9319 39.8197 24.2827 41.1076C23.6334 42.3956 22.9257 43.6664 22.1699 44.8717C21.4142 46.077 20.6042 47.2684 19.7294 48.4233C19.5813 48.6194 19.5151 48.868 19.5452 49.1144C19.5754 49.3607 19.6995 49.5847 19.8902 49.737C20.0809 49.8893 20.3227 49.9574 20.5623 49.9264C20.8019 49.8954 21.0197 49.7678 21.1679 49.5717C22.0729 48.3728 22.9257 47.131 23.7044 45.8817C24.4831 44.6324 25.2232 43.3122 25.8965 41.9695C26.5697 40.6268 27.1981 39.2411 27.7555 37.8308Z" fill="white"/>
<path d="M21.4039 40.7181C21.1946 40.5945 20.9461 40.5613 20.713 40.6259C20.4799 40.6905 20.2813 40.8476 20.1607 41.0626C19.5187 42.2121 18.8037 43.3562 18.049 44.465C17.8402 44.7655 17.7358 44.934 17.6628 45.0381C17.6221 45.0982 17.6033 45.1272 17.5855 45.1519L17.5365 45.2077C17.4613 45.2936 17.3277 45.447 17.0292 45.8055C16.8725 45.9945 16.7952 46.2398 16.8144 46.4874C16.8336 46.735 16.9476 46.9646 17.1315 47.1257C17.3153 47.2868 17.5538 47.3662 17.7946 47.3465C18.0354 47.3268 18.2587 47.2095 18.4154 47.0205C18.692 46.6867 18.8183 46.5429 18.8882 46.4635C18.9908 46.3493 19.0833 46.2261 19.1649 46.0953C19.2317 45.9955 19.3402 45.8324 19.5386 45.5436C20.3288 44.3877 21.0699 43.1942 21.74 41.9964C21.7996 41.8898 21.8382 41.7721 21.8536 41.6501C21.869 41.5282 21.8608 41.4043 21.8296 41.2856C21.7984 41.1669 21.7447 41.0556 21.6717 40.9583C21.5986 40.8609 21.5077 40.7793 21.4039 40.7181Z" fill="white"/>
<path d="M13.1518 34.6968C13.7308 33.5117 14.2428 32.2933 14.6852 31.0475C15.1653 29.6937 15.5628 28.3104 15.8752 26.9056C16.437 24.3663 16.7202 21.7702 16.7197 19.166C16.7197 19.0431 16.6961 18.9214 16.6504 18.8079C16.6046 18.6943 16.5376 18.5911 16.4531 18.5042C16.3685 18.4173 16.2682 18.3484 16.1578 18.3013C16.0473 18.2543 15.929 18.2301 15.8094 18.2301C15.6899 18.2301 15.5715 18.2543 15.4611 18.3013C15.3507 18.3484 15.2503 18.4173 15.1658 18.5042C15.0813 18.5911 15.0142 18.6943 14.9685 18.8079C14.9227 18.9214 14.8992 19.0431 14.8992 19.166C14.8996 21.6301 14.6314 24.0865 14.0996 26.4892C13.8043 27.8175 13.4285 29.1256 12.9744 30.4057C12.5558 31.5821 12.0717 32.7328 11.5245 33.8521C10.9906 34.9419 10.3981 36.0004 9.74993 37.0226C9.107 38.0402 8.41005 39.0205 7.66225 39.9592C7.50887 40.1511 7.43591 40.3977 7.4594 40.6449C7.48289 40.8921 7.60091 41.1195 7.78751 41.2772C7.9741 41.4349 8.21398 41.5099 8.45437 41.4858C8.69476 41.4616 8.91597 41.3403 9.06934 41.1484C9.86151 40.1563 10.5999 39.1201 11.2812 38.0444C11.9645 36.965 12.589 35.8474 13.1518 34.6968Z" fill="white"/>
<path d="M10.3468 32.0372C10.4385 31.8129 10.4418 31.5608 10.356 31.334C10.2702 31.1073 10.102 30.9237 9.88695 30.8222C9.6719 30.7207 9.42688 30.7092 9.20373 30.7902C8.98057 30.8711 8.79678 31.0381 8.69122 31.2558C8.1749 32.4133 7.58489 33.5345 6.92504 34.6121C6.29324 35.6463 5.59912 36.6389 4.84675 37.5841C4.76754 37.6785 4.70749 37.7884 4.67015 37.9071C4.63281 38.0258 4.61893 38.151 4.62932 38.2753C4.63971 38.3996 4.67417 38.5205 4.73066 38.6309C4.78715 38.7413 4.86454 38.839 4.95828 38.9182C5.05202 38.9974 5.16021 39.0565 5.2765 39.0921C5.39279 39.1277 5.51483 39.1391 5.63544 39.1255C5.75605 39.1119 5.87279 39.0736 5.97882 39.0129C6.08484 38.9523 6.17799 38.8704 6.25281 38.7722C7.05449 37.7662 7.79395 36.7094 8.4668 35.6081C9.16881 34.4614 9.79682 33.2685 10.3468 32.0372Z" fill="white"/>
<path d="M7.89406 28.3213C8.91711 25.3851 9.43871 22.2892 9.43582 19.1703C9.43582 18.9221 9.33992 18.684 9.16922 18.5085C8.99852 18.333 8.76699 18.2344 8.52559 18.2344C8.28418 18.2344 8.05266 18.333 7.88196 18.5085C7.71126 18.684 7.61536 18.9221 7.61536 19.1703C7.61758 22.0744 7.13201 24.9571 6.18007 27.6913C5.70479 29.0499 5.11704 30.3642 4.42329 31.6196C3.81005 32.7303 3.11637 33.7919 2.34813 34.7955C2.1985 34.9905 2.13033 35.2386 2.15861 35.4853C2.1869 35.732 2.30933 35.957 2.49897 36.1108C2.68861 36.2647 2.92992 36.3348 3.16982 36.3057C3.40972 36.2766 3.62856 36.1507 3.7782 35.9557C4.60372 34.8784 5.34904 33.7385 6.00784 32.5458C6.75312 31.1958 7.38418 29.7824 7.89406 28.3213Z" fill="white"/>
<path d="M3.89835 28.5242C5.15336 25.5749 5.79887 22.3897 5.79397 19.1704C5.79056 14.7964 7.35896 10.5753 10.1979 7.31784C11.0041 6.39247 11.9014 5.55547 12.8754 4.82025C14.7548 3.40335 16.8944 2.39338 19.1645 1.85149C19.2844 1.82715 19.3983 1.77828 19.4994 1.70777C19.6006 1.63726 19.6869 1.54656 19.7532 1.44107C19.8196 1.33557 19.8646 1.21743 19.8857 1.09367C19.9067 0.969918 19.9033 0.843072 19.8758 0.720681C19.8482 0.59829 19.7969 0.482853 19.7251 0.381236C19.6532 0.279619 19.5622 0.193897 19.4575 0.129169C19.3528 0.0644406 19.2365 0.0220277 19.1155 0.00445267C18.9945 -0.0131224 18.8713 -0.00550062 18.7533 0.0268647C16.2431 0.626389 13.8774 1.74333 11.7992 3.31011C10.7231 4.12161 9.732 5.04606 8.84199 6.06851C5.70296 9.6688 3.96903 14.3351 3.97351 19.1704C3.97809 22.1322 3.38412 25.0627 2.22925 27.7761C1.66567 29.0997 0.974316 30.3618 0.165578 31.5435C0.0910626 31.6437 0.0370271 31.7584 0.00671906 31.8806C-0.023589 32.0029 -0.0295437 32.1302 -0.0107873 32.2549C0.00796917 32.3796 0.0510495 32.4991 0.115865 32.6062C0.18068 32.7133 0.265891 32.8059 0.366377 32.8783C0.466864 32.9507 0.58055 33.0014 0.700604 33.0275C0.820658 33.0536 0.944601 33.0545 1.06498 33.03C1.18536 33.0056 1.2997 32.9564 1.40112 32.8854C1.50253 32.8144 1.58894 32.723 1.65514 32.6168C2.53397 31.3329 3.28513 29.9615 3.89731 28.5232L3.89835 28.5242Z" fill="white"/>
<path d="M33.4808 7.3704C30.9525 5.01573 27.7372 3.588 24.3367 3.31008C23.8826 3.27252 23.4766 3.25427 23.0945 3.25427C22.1541 3.25568 21.2157 3.3444 20.2908 3.51938C17.7058 4.00891 15.2848 5.1677 13.2563 6.88634C12.1017 7.86355 11.0902 9.00696 10.2532 10.2812C10.1864 10.3831 10.1397 10.4976 10.1159 10.618C10.0921 10.7384 10.0916 10.8625 10.1144 10.9832C10.1372 11.1038 10.1829 11.2187 10.2489 11.3211C10.3149 11.4236 10.3999 11.5117 10.499 11.5805C10.5981 11.6492 10.7094 11.6971 10.8266 11.7216C10.9437 11.7461 11.0644 11.7466 11.1817 11.7231C11.299 11.6997 11.4107 11.6527 11.5104 11.5848C11.6101 11.517 11.6958 11.4296 11.7626 11.3277C12.7781 9.77784 14.0845 8.45219 15.6051 7.42853C17.1257 6.40487 18.8298 5.70382 20.6175 5.36654C21.4339 5.21208 22.2623 5.13377 23.0924 5.13256C23.4254 5.13256 23.7845 5.14866 24.1895 5.18193C27.6099 5.46358 30.8017 7.05934 33.1295 9.65151C35.4572 12.2437 36.7503 15.6422 36.7511 19.1703C36.7516 23.477 36.2647 27.769 35.3002 31.9599C35.2448 32.2018 35.2852 32.4565 35.4124 32.6678C35.5397 32.8792 35.7434 33.0299 35.9787 33.0868C36.214 33.1438 36.4617 33.1022 36.6672 32.9714C36.8728 32.8406 37.0193 32.6311 37.0747 32.3892C38.0713 28.0565 38.5743 23.6193 38.5737 19.1671C38.571 16.9445 38.1165 14.7469 37.2395 12.7154C36.3624 10.6839 35.0822 8.86334 33.4808 7.3704Z" fill="white"/>
<path d="M25.6131 7.27807C24.2603 6.97396 22.8659 6.918 21.4941 7.11278C18.6597 7.51182 16.0617 8.95305 14.1811 11.1698C12.3004 13.3865 11.2643 16.2287 11.2645 19.1703C11.2639 21.9125 10.8854 24.6408 10.1403 27.2738C10.107 27.3922 10.0968 27.5163 10.1103 27.6388C10.1238 27.7614 10.1607 27.8799 10.2189 27.9878C10.2771 28.0956 10.3554 28.1905 10.4494 28.2671C10.5434 28.3437 10.6512 28.4004 10.7666 28.434C10.8489 28.459 10.9343 28.4717 11.0202 28.4716C11.2174 28.4715 11.4093 28.4057 11.567 28.284C11.7248 28.1622 11.8398 27.9912 11.895 27.7965C12.6871 24.9935 13.0895 22.0893 13.0902 19.1703C13.0898 16.681 13.9667 14.2758 15.5585 12.4002C17.1502 10.5245 19.349 9.30539 21.7478 8.96853C22.9102 8.80229 24.092 8.84953 25.2384 9.10806C25.3021 9.12262 25.3672 9.12982 25.4325 9.12952C25.6564 9.12788 25.8718 9.0416 26.0377 8.88712C26.2036 8.73264 26.3084 8.52078 26.3322 8.29193C26.3559 8.06309 26.2969 7.83326 26.1664 7.64627C26.0359 7.45928 25.843 7.32822 25.6246 7.27807H25.6131Z" fill="white"/>
<path d="M31.9799 30.0773C31.5931 31.9243 31.107 33.7477 30.5238 35.5394C30.447 35.7749 30.4644 36.0322 30.572 36.2546C30.6797 36.477 30.8688 36.6463 31.0979 36.7254C31.1912 36.7571 31.2888 36.7734 31.387 36.7737C31.5779 36.7737 31.7639 36.7121 31.9188 36.5975C32.0737 36.4829 32.1897 36.3211 32.2503 36.1351C32.8546 34.2775 33.3585 32.3871 33.7597 30.4723C34.5373 26.7585 34.9296 22.9703 34.9298 19.1714C34.9256 17.2613 34.4862 15.3788 33.6467 13.6748C32.8072 11.9708 31.5911 10.4928 30.0958 9.35927C29.9998 9.28232 29.8898 9.22595 29.7722 9.1935C29.6546 9.16105 29.5319 9.15318 29.4114 9.17034C29.2908 9.18751 29.1748 9.22937 29.0702 9.29344C28.9657 9.35751 28.8747 9.4425 28.8026 9.54337C28.7305 9.64424 28.6789 9.75895 28.6507 9.88071C28.6225 10.0025 28.6184 10.1288 28.6385 10.2522C28.6587 10.3757 28.7027 10.4937 28.7679 10.5993C28.8332 10.705 28.9184 10.7961 29.0186 10.8673C30.2842 11.8262 31.3136 13.0768 32.0242 14.5188C32.7348 15.9607 33.1068 17.5539 33.1104 19.1704C33.1102 22.8365 32.7316 26.4923 31.981 30.0762L31.9799 30.0773Z" fill="white"/>
<path d="M23.094 10.7438C22.8707 10.7438 22.6368 10.7567 22.3571 10.7813C20.9516 10.9112 19.6025 11.4121 18.4406 12.2357C18.3422 12.3056 18.2582 12.3947 18.1934 12.498C18.1285 12.6013 18.0841 12.7167 18.0627 12.8377C18.0412 12.9586 18.0431 13.0827 18.0683 13.2029C18.0934 13.3231 18.1414 13.437 18.2094 13.5381C18.2774 13.6393 18.3641 13.7256 18.4645 13.7923C18.565 13.859 18.6772 13.9047 18.7949 13.9267C18.9125 13.9488 19.0332 13.9469 19.1501 13.921C19.267 13.8951 19.3777 13.8458 19.4761 13.7759C20.3786 13.1354 21.4267 12.7457 22.5189 12.6446C22.7433 12.6242 22.926 12.6146 23.094 12.6146C24.0487 12.6146 24.991 12.8374 25.8498 13.266C26.9356 13.7954 27.8523 14.6316 28.4928 15.677C29.1334 16.7224 29.4711 17.9337 29.4667 19.1692C29.4659 22.1497 29.1961 25.1237 28.6609 28.053C28.6388 28.1741 28.6403 28.2985 28.6651 28.419C28.6899 28.5395 28.7377 28.6538 28.8056 28.7553C28.8734 28.8568 28.9601 28.9436 29.0607 29.0105C29.1613 29.0775 29.2737 29.1234 29.3915 29.1456C29.4473 29.1562 29.5039 29.1616 29.5606 29.1617C29.7728 29.1615 29.9783 29.0852 30.1416 28.9458C30.3049 28.8065 30.4158 28.613 30.4552 28.3986C31.0107 25.355 31.2903 22.2649 31.2903 19.1682C31.2838 17.5829 30.8448 16.0314 30.0232 14.6899C29.2017 13.3485 28.0306 12.271 26.6431 11.5799C25.5369 11.0284 24.3234 10.7425 23.094 10.7438Z" fill="white"/>
<path d="M58.2991 22.2421L58.2845 15.3032L54.9442 21.0454H54.1007L50.7605 15.3934V22.2421H48.9619V11.7742H50.5214L54.5496 18.6981L58.535 11.7742H60.0726L60.1018 22.2421H58.2991Z" fill="white"/>
<path d="M70.5888 20.6075V22.2378H62.9541V11.7742H70.3852V13.4045H64.8445V16.1254H69.76V17.7257H64.8445V20.6075H70.5888Z" fill="white"/>
<path d="M81.7431 11.7742V22.2421H79.8538V17.7557H74.5886V22.2421H72.6982V11.7742H74.5886V16.0996H79.8538V11.7742H81.7431Z" fill="white"/>
<path d="M84.6084 11.7742H86.4706V22.2421H84.6084V11.7742Z" fill="white"/>
<path d="M99.908 20.5968V24.4714H98.1627V22.2421H96.4926V17.7557H91.2316V22.2421H89.335V11.7742H91.2316V16.0996H96.4957V11.7742H98.3861V20.5968H99.908Z" fill="white"/>
<path d="M55.6961 34.1752H50.6064L49.6022 36.5998H47.6533L52.2348 26.1329H54.0959L58.6888 36.5998H56.7139L55.6961 34.1752ZM55.0698 32.6501L53.1502 28.0745L51.2462 32.6501H55.0698Z" fill="white"/>
<path d="M67.1272 27.775H63.7535V36.5998H61.8746V27.7772H58.5176V26.1307H67.1272V27.775Z" fill="white"/>
<path d="M74.9959 34.1752H69.9062L68.902 36.5998H66.9531L71.5345 26.1329H73.3957L77.9886 36.5998H76.0137L74.9959 34.1752ZM74.3696 32.6501L72.45 28.0745L70.546 32.6501H74.3696Z" fill="white"/>
<path d="M88.8996 36.5998L88.885 29.6608L85.5447 35.4041H84.7013L81.361 29.751V36.5998H79.5625V26.1307H81.1189L85.147 33.0579L89.1314 26.135H90.6731L90.7024 36.6019L88.8996 36.5998Z" fill="white"/>
<path d="M101.188 34.9683V36.5998H93.5527V26.1307H100.985V27.76H95.4431V30.4819H100.36V32.0822H95.4431V34.9683H101.188Z" fill="white"/>
<path d="M107.049 32.1863H105.159V36.5998H103.297V26.1307H105.159V30.512H107.107L110.03 26.1307H112.037L108.559 31.2L112.168 36.5998H110.031L107.049 32.1863Z" fill="white"/>
<path d="M121.097 34.9683V36.5998H113.465V26.1307H120.896V27.76H115.355V30.4819H120.271V32.0822H115.355V34.9683H121.097Z" fill="white"/>
<path d="M132.254 26.1307V36.5998H130.362V32.1123H125.098V36.5998H123.208V26.1307H125.098V30.4519H130.362V26.1307H132.254Z" fill="white"/>
<path d="M135.119 26.1307H136.98V36.5998H135.119V26.1307Z" fill="white"/>
<path d="M149.196 36.5998L149.182 29.6608L145.841 35.4041H144.99L141.649 29.751V36.5998H139.861V26.1307H141.417L145.446 33.0536L149.43 26.1307H150.972L151.001 36.5976L149.196 36.5998Z" fill="white"/>
</g>
<defs>
<clipPath id="clip0">
<rect width="151" height="50" fill="white"/>
</clipPath>
</defs>
</svg>
