<svg width="405" height="202" viewBox="0 0 405 202" fill="none" xmlns="http://www.w3.org/2000/svg">
<path d="M18.9 119.166C23.9254 114.151 26.7485 107.35 26.7485 100.259C26.7485 93.1682 23.9254 86.3673 18.9 81.3521L0 100.205L18.9 119.166Z" fill="#BF1E2E"/>
<path d="M128.466 36.5753C120 28.1306 108.518 23.3865 96.5453 23.3865C84.5728 23.3865 73.0906 28.1306 64.6245 36.5753L96.552 68.424L128.466 100.259C136.932 91.814 141.687 80.3602 141.687 68.4173C141.687 56.4743 136.932 45.0205 128.466 36.5753Z" fill="#BF1E2E"/>
<path d="M128.466 163.943C120 172.388 108.518 177.132 96.5453 177.132C84.5728 177.132 73.0906 172.388 64.6245 163.943L96.552 132.108L128.466 100.259C136.932 108.704 141.687 120.158 141.687 132.101C141.687 144.044 136.932 155.498 128.466 163.943Z" fill="#BF1E2E"/>
<path d="M53.5406 100.259C57.0551 96.7575 59.8432 92.5989 61.7455 88.0214C63.6477 83.4439 64.6268 78.5372 64.6268 73.582C64.6268 68.6268 63.6477 63.7201 61.7455 59.1426C59.8432 54.5651 57.0551 50.4065 53.5406 46.9045L26.7971 73.582L53.5406 100.259Z" fill="#BF1E2E"/>
<path d="M53.5406 153.628C57.0572 150.125 59.847 145.966 61.7504 141.387C63.6539 136.809 64.6336 131.9 64.6336 126.943C64.6336 121.987 63.6539 117.078 61.7504 112.5C59.847 107.921 57.0572 103.761 53.5406 100.259L26.7971 126.937L53.5406 153.628Z" fill="#BF1E2E"/>
<path d="M215.77 48.1973C211.963 48.1973 210.519 49.3016 210.519 53.1665V75.7232C210.519 79.5477 211.963 80.6655 215.77 80.6655V82.1468C214.191 82.1468 210.519 81.8775 207.495 81.8775C204.471 81.8775 201.231 82.0795 199.786 82.1468V80.6655C203.08 80.6655 204.323 79.5477 204.323 75.7232V53.1665C204.323 49.3016 203.08 48.1973 199.786 48.1973H193.657C190.323 48.1973 189.081 49.3016 189.081 53.1665V75.7232C189.081 79.5477 190.323 80.6655 193.657 80.6655V82.1468C192.213 82.1468 188.946 81.8775 185.909 81.8775C182.871 81.8775 179.158 82.0795 177.633 82.1468V80.6655C181.44 80.6655 182.884 79.5477 182.884 75.7232V53.1665C182.884 49.3016 181.44 48.1973 177.633 48.1973V46.7429C179.212 46.7429 182.885 47.0527 185.909 47.0527C190.323 47.0527 193.482 46.7429 197.086 46.7429C200.691 46.7429 203.08 47.0527 207.495 47.0527C210.519 47.0527 214.245 46.8103 215.77 46.7429V48.1973Z" fill="#9F1F63"/>
<path d="M252.288 64.4379C252.288 77.6353 245.39 83.0758 236.628 83.0758C227.867 83.0758 220.982 77.6891 220.982 64.4379C220.982 51.1868 227.88 45.7866 236.628 45.7866C245.376 45.7866 252.288 51.1733 252.288 64.4379ZM227.678 64.4379C227.678 76.733 231.417 81.7022 236.628 81.7022C241.839 81.7022 245.592 76.733 245.592 64.4379C245.592 52.1429 241.88 47.1333 236.628 47.1333C231.377 47.1333 227.678 52.116 227.678 64.4379Z" fill="#9F1F63"/>
<path d="M285.498 88.6512C285.483 90.0769 285.551 91.5022 285.7 92.9201H284.121C283.419 84.8401 282.609 81.8371 276.952 81.8371C272.538 81.8371 270.121 82.1064 260.901 82.1064C255.244 82.1064 254.394 84.7997 253.732 92.8797H252.139C252.289 91.4618 252.357 90.0365 252.342 88.6108C252.31 85.9422 252.143 83.2769 251.842 80.625H253.192C256.095 80.625 258.039 77.9991 258.984 75.4539C261.279 69.4747 262.251 61.2196 262.858 53.1261C262.858 52.8837 262.858 52.6548 262.858 52.4528C262.858 49.1265 260.941 48.1569 257.377 48.1569V46.7429C258.927 46.9335 260.487 47.0369 262.048 47.0527C264.343 47.0527 266.827 46.7429 269.392 46.7429C271.957 46.7429 273.807 47.0527 276.898 47.0527C279.99 47.0527 283.648 46.8103 285.241 46.7429V48.1973C281.448 48.1973 279.99 49.3016 279.99 53.1665V75.7232C279.99 79.5477 281.043 80.6655 285.984 80.6655C285.633 83.884 285.498 87.0352 285.498 88.6512ZM273.793 53.1665C273.793 49.3016 272.538 48.1973 269.203 48.1973H268.65C265.342 48.1973 264.438 49.3016 264.1 53.1665C263.466 60.654 262.656 69.7171 260.05 75.8579C259.388 77.7525 258.199 79.42 256.621 80.6655H269.203C272.538 80.6655 273.793 79.5477 273.793 75.7232V53.1665Z" fill="#9F1F63"/>
<path d="M312.998 48.332C315.185 50.5405 315.698 53.0992 315.698 57.9607V77.0698C315.698 79.2784 316.238 80.3288 317.817 80.3288C318.996 80.2514 320.103 79.7375 320.922 78.8878L321.692 80.0594C319.991 81.6652 317.742 82.5656 315.401 82.5777C310.581 82.5777 309.474 79.6824 309.474 76.4638C308.419 78.3368 306.879 79.8926 305.015 80.9681C303.15 82.0437 301.03 82.5996 298.877 82.5777C294.26 82.5777 290.115 80.2614 290.115 74.8882C290.115 69.515 294.327 67.0237 301.226 64.1149C305.843 62.2027 309.474 61.031 309.474 58.2704V54.0419C309.474 48.2647 306.653 47.12 303.075 47.12C300.726 47.12 297.824 47.5913 296.244 49.5709C297.181 49.8005 298.011 50.342 298.598 51.1059C299.185 51.8698 299.492 52.8105 299.471 53.7725C299.492 54.2946 299.4 54.8151 299.199 55.2979C298.999 55.7806 298.695 56.214 298.31 56.5678C297.924 56.9216 297.466 57.1873 296.967 57.3464C296.468 57.5056 295.94 57.5543 295.421 57.4893C293.072 57.4893 291.695 55.7117 291.695 53.2338C291.695 51.2138 293.045 49.6382 294.921 48.332C297.848 46.5667 301.223 45.6828 304.641 45.7868C308.516 45.7868 311.418 46.7429 312.998 48.332ZM309.528 61.1253C308.786 62.2296 307.274 62.9298 302.927 65.0441C299.903 66.4985 296.177 68.4781 296.177 73.784C296.177 77.9048 298.539 79.817 301.698 79.817C304.398 79.817 307.098 78.3761 309.474 74.6189L309.528 61.1253Z" fill="#9F1F63"/>
<path d="M358.628 62.7952C358.628 72.7336 354.051 83.076 342.846 83.076C341.297 83.1378 339.754 82.832 338.346 82.1835C336.938 81.535 335.704 80.5624 334.746 79.3457V88.1529C334.746 92.0717 337.23 93.1221 341.375 93.1221V94.563C339.35 94.563 335.448 94.2533 331.439 94.2533C328.55 94.2533 325.445 94.4957 324 94.563V93.1221C327.294 93.1221 328.55 92.139 328.55 88.8532V54.2034C328.55 50.0692 327.294 48.13 323.298 48.13V46.6756C324.743 46.8102 326.187 46.8776 327.564 46.8776C329.992 46.9403 332.415 46.6268 334.746 45.9484V53.1934C335.619 50.9863 337.144 49.0961 339.119 47.7733C341.094 46.4505 343.425 45.7577 345.803 45.7868C353.039 45.7868 358.628 51.7121 358.628 62.7952ZM351.878 63.7378C351.878 52.8298 349.178 47.7933 343.872 47.7933C339.822 47.7933 336.191 50.6752 334.719 56.4793V77.0698C335.367 78.4414 336.405 79.5928 337.703 80.3805C339.002 81.1683 340.504 81.5577 342.023 81.5004C349.718 81.5004 351.932 73.5146 351.932 63.7378H351.878Z" fill="#9F1F63"/>
<path d="M403.015 48.1973C399.222 48.1973 397.777 49.3016 397.777 53.1665V75.7232C397.777 79.5477 399.222 80.6655 403.015 80.6655V82.1468C401.436 82.1468 397.777 81.8775 394.74 81.8775C391.702 81.8775 388.476 82.0795 387.031 82.1468V80.6655C390.325 80.6655 391.581 79.5477 391.581 75.7232V54.7691L375.3 77.1372C375.597 79.8305 376.92 80.6655 379.809 80.6655V82.1468C378.364 82.1468 375.097 81.8775 372.073 81.8775C369.049 81.8775 365.323 82.0795 363.784 82.1468V80.6655C367.591 80.6655 369.036 79.5477 369.036 75.7232V53.1665C369.036 49.3016 367.591 48.1973 363.784 48.1973V46.7429C365.364 46.7429 369.036 47.0527 372.073 47.0527C375.111 47.0527 378.364 46.8103 379.809 46.7429V48.1973C376.474 48.1973 375.232 49.3016 375.232 53.1665V74.9152L391.581 52.5201C391.446 49.1669 390.136 48.1973 387.031 48.1973V46.7429C388.476 46.7429 391.716 47.0527 394.74 47.0527C397.764 47.0527 401.49 46.8103 403.015 46.7429V48.1973Z" fill="#9F1F63"/>
<path d="M209.709 101.619V102.966C207.995 103.168 206.55 104.313 205.241 107.801L193.928 137.36L191.565 143.339C190.981 145.163 189.968 146.821 188.609 148.174C187.079 149.39 185.164 150.021 183.209 149.951C180.59 149.951 178.524 148.51 178.524 145.817C178.49 145.325 178.564 144.832 178.741 144.371C178.918 143.911 179.194 143.494 179.548 143.151C179.903 142.807 180.328 142.545 180.795 142.382C181.262 142.219 181.758 142.16 182.25 142.208C182.7 142.16 183.155 142.208 183.584 142.35C184.014 142.491 184.408 142.723 184.741 143.029C185.073 143.335 185.336 143.709 185.512 144.124C185.688 144.54 185.772 144.989 185.76 145.44C185.765 146.075 185.593 146.7 185.264 147.244C184.935 147.788 184.462 148.231 183.897 148.524C184.03 148.556 184.169 148.556 184.302 148.524C186.8 148.524 188.717 146.948 190.161 143.137L192.618 136.862L180.063 106.925C178.281 103.33 176.486 103.06 175.379 103.06V101.619C177.616 101.917 179.871 102.061 182.129 102.05C184.923 102.05 188.325 101.821 191.079 101.619V103.06C188.487 103.06 186.273 103.06 186.273 105.444C186.354 106.619 186.651 107.77 187.151 108.838L195.467 129.388L203.067 109.47C203.497 108.493 203.761 107.451 203.85 106.387C203.85 104.205 202.203 103.289 198.693 103.06V101.714C201.123 101.848 202.365 101.916 204.485 101.916C206.604 101.916 208.265 101.754 209.709 101.619Z" fill="#9F1F63"/>
<path d="M239.625 143.582C239.61 145.007 239.677 146.433 239.828 147.851H238.248C237.546 139.771 236.736 136.767 231.08 136.767C226.665 136.767 224.249 137.037 215.028 137.037C209.372 137.037 208.535 139.73 207.86 147.81H206.28C206.43 146.392 206.498 144.967 206.483 143.541C206.452 140.872 206.28 138.207 205.97 135.555H207.32C210.222 135.555 212.166 132.943 213.111 130.384C215.406 124.405 216.378 116.15 216.986 108.056C216.986 107.814 216.986 107.585 216.986 107.383C216.986 104.057 215.069 103.087 211.505 103.087V101.687C213.06 101.87 214.623 101.969 216.189 101.983C218.471 101.983 220.968 101.687 223.52 101.687C226.071 101.687 227.934 101.983 231.026 101.983C234.117 101.983 237.776 101.754 239.369 101.687V103.128C235.575 103.128 234.131 104.232 234.131 108.097V130.627C234.131 134.465 235.17 135.569 240.111 135.569C239.76 138.814 239.625 141.979 239.625 143.582ZM227.921 108.097C227.921 104.232 226.665 103.128 223.344 103.128H222.75C219.443 103.128 218.538 104.232 218.201 108.097C217.566 115.584 216.756 124.647 214.151 130.788C213.492 132.685 212.302 134.353 210.722 135.596H223.317C226.638 135.596 227.894 134.492 227.894 130.654L227.921 108.097Z" fill="#9F1F63"/>
<path d="M276.142 119.382C276.142 132.579 269.244 138.006 260.496 138.006C251.748 138.006 244.836 132.62 244.836 119.382C244.836 106.144 251.748 100.677 260.496 100.677C269.244 100.677 276.142 106.144 276.142 119.382ZM251.545 119.382C251.545 131.664 255.271 136.633 260.496 136.633C265.72 136.633 269.446 131.664 269.446 119.382C269.446 107.1 265.747 102.05 260.55 102.05C255.352 102.05 251.545 107.06 251.545 119.382Z" fill="#9F1F63"/>
<path d="M313.632 103.128C309.838 103.128 308.38 104.232 308.38 108.097V130.627C308.38 134.465 309.838 135.569 313.632 135.569V137.01C312.052 136.943 308.785 136.741 305.086 136.741C301.387 136.741 296.986 136.943 294.894 137.01V135.569C299.43 135.569 302.197 134.397 302.197 129.926V120.917C299.204 122.609 295.836 123.535 292.396 123.611C291.085 123.69 289.773 123.498 288.539 123.049C287.306 122.599 286.179 121.901 285.228 120.998C283.513 119.113 282.933 116.325 282.933 111.962V108.097C282.933 104.232 281.488 103.128 277.722 103.128V101.687C279.301 101.687 282.933 101.983 285.97 101.983C289.008 101.983 292.261 101.754 293.706 101.687V103.128C290.412 103.128 289.17 104.232 289.17 108.097V113.484C289.17 118.345 289.44 121.375 295.029 121.375C297.546 121.414 300.026 120.762 302.197 119.49V108.097C302.197 104.232 300.942 103.128 297.648 103.128V101.687C299.092 101.687 302.332 101.983 305.356 101.983C308.38 101.983 312.106 101.754 313.632 101.687V103.128Z" fill="#9F1F63"/>
<path d="M353.7 135.596V137.037C352.303 137.314 350.885 137.472 349.461 137.508C345.316 137.508 343.737 135.461 342.711 132C342.009 129.684 340.996 125.348 339.039 122.668C337.081 119.988 334.057 119.274 329.116 119.382V130.627C329.116 134.465 330.358 135.569 333.693 135.569V137.01C332.248 136.942 328.914 136.74 325.876 136.74C322.839 136.74 319.248 136.942 317.668 137.01V135.569C321.475 135.569 322.92 134.465 322.92 130.627V108.097C322.92 104.232 321.475 103.128 317.668 103.128V101.687C319.248 101.687 322.852 101.983 325.876 101.983C328.9 101.983 332.248 101.754 333.693 101.687V103.128C330.358 103.128 329.116 104.232 329.116 108.097V118.197C336.447 117.739 338.134 114.615 339.916 109.403C341.266 105.552 342.616 100.677 348.016 100.677C351.243 100.677 352.431 102.522 352.431 104.434C352.458 104.922 352.382 105.411 352.207 105.867C352.032 106.324 351.763 106.739 351.416 107.085C351.069 107.43 350.654 107.699 350.196 107.874C349.738 108.048 349.248 108.124 348.759 108.097C346.261 108.097 344.709 106.319 344.709 103.693V103.195C343.197 103.895 342.387 106.212 340.659 110.575C339.417 113.807 338.202 116.823 334.476 118.062C339.214 118.17 342.913 119.409 345.114 122.802C346.626 125.226 347.571 129.118 348.745 131.798C349.812 134.155 350.851 135.326 353.7 135.596Z" fill="#9F1F63"/>
<path d="M389.084 101.619V102.966C387.369 103.168 385.925 104.313 384.615 107.801L373.302 137.36L370.94 143.339C370.356 145.163 369.342 146.821 367.983 148.174C366.453 149.39 364.538 150.021 362.583 149.951C359.964 149.951 357.912 148.51 357.912 145.817C357.878 145.33 357.949 144.842 358.121 144.385C358.293 143.928 358.562 143.513 358.909 143.169C359.256 142.825 359.674 142.56 360.133 142.392C360.592 142.224 361.083 142.156 361.571 142.194C362.02 142.146 362.475 142.195 362.905 142.336C363.334 142.478 363.729 142.71 364.061 143.016C364.393 143.322 364.656 143.695 364.832 144.111C365.008 144.527 365.093 144.975 365.081 145.426C365.085 146.062 364.913 146.686 364.585 147.23C364.256 147.774 363.783 148.217 363.218 148.51C363.351 148.543 363.49 148.543 363.623 148.51C366.12 148.51 368.037 146.935 369.482 143.124L371.939 136.848L359.438 106.925C357.656 103.33 355.86 103.06 354.753 103.06V101.619C356.99 101.917 359.246 102.061 361.503 102.05C364.298 102.05 367.7 101.821 370.467 101.619V103.06C367.875 103.06 365.648 103.06 365.648 105.444C365.728 106.619 366.026 107.77 366.525 108.838L374.841 129.388L382.442 109.47C382.864 108.469 383.115 107.404 383.184 106.319C383.184 104.138 381.537 103.222 378.041 102.993V101.646C380.457 101.781 381.699 101.848 383.819 101.848C385.938 101.848 387.639 101.754 389.084 101.619Z" fill="#9F1F63"/>
<path d="M184.95 165.478C185.27 165.667 185.537 165.931 185.728 166.249C185.919 166.566 186.028 166.927 186.044 167.296C186.065 167.469 186.049 167.645 185.996 167.811C185.943 167.977 185.854 168.129 185.736 168.257C185.617 168.385 185.473 168.486 185.311 168.553C185.15 168.62 184.976 168.65 184.802 168.643C184.633 168.666 184.46 168.653 184.297 168.604C184.134 168.555 183.983 168.471 183.855 168.359C183.727 168.246 183.624 168.108 183.555 167.952C183.485 167.797 183.45 167.628 183.452 167.458C183.44 167.156 183.531 166.859 183.71 166.614C183.889 166.37 184.145 166.193 184.437 166.111C184.193 165.789 183.874 165.53 183.506 165.359C183.139 165.187 182.736 165.108 182.331 165.128C180.779 165.128 178.97 166.475 178.97 170.879C178.97 175.026 180.549 176.44 182.358 176.44C183.103 176.42 183.824 176.179 184.43 175.747C185.036 175.315 185.499 174.712 185.76 174.016L186.206 174.178C185.951 175.123 185.388 175.956 184.605 176.546C183.823 177.136 182.866 177.449 181.886 177.437C178.97 177.437 176.688 175.094 176.688 171.229C176.688 167.364 178.943 164.711 182.156 164.711C183.141 164.696 184.111 164.962 184.95 165.478Z" fill="#808080"/>
<path d="M198.841 171.121C198.841 175.619 196.492 177.464 193.509 177.464C190.525 177.464 188.109 175.619 188.109 171.121C188.109 166.623 190.458 164.738 193.509 164.738C196.56 164.738 198.841 166.61 198.841 171.121ZM190.458 171.121C190.458 175.309 191.727 177.006 193.509 177.006C195.291 177.006 196.56 175.309 196.56 171.121C196.56 166.933 195.304 165.209 193.509 165.209C191.713 165.209 190.458 166.987 190.458 171.121Z" fill="#808080"/>
<path d="M213.638 165.64C212.288 165.64 211.842 166.017 211.842 167.337V175.026C211.842 176.373 212.207 176.709 213.894 176.709C213.773 177.814 213.732 178.945 213.732 179.484C213.723 179.969 213.745 180.455 213.8 180.938H213.3C213.003 178.164 212.639 177.113 210.155 177.113C208.926 177.113 208.292 177.208 207.306 177.208C206.078 177.208 204.998 177.113 203.499 177.113C202.473 177.113 201.218 177.181 200.678 177.208V176.709C202.028 176.709 202.473 176.332 202.473 175.026V167.337C202.473 165.99 201.974 165.64 200.678 165.64V165.155C201.218 165.155 202.473 165.249 203.499 165.249C204.525 165.249 205.646 165.168 206.199 165.155V165.64C205.052 165.64 204.633 166.017 204.633 167.337V175.026C204.633 176.373 205.052 176.709 206.199 176.709H208.278C209.399 176.709 209.831 176.332 209.831 175.026V167.337C209.831 165.99 209.399 165.64 208.278 165.64V165.155C208.778 165.155 209.871 165.249 210.911 165.249C211.95 165.249 213.192 165.168 213.732 165.155L213.638 165.64Z" fill="#808080"/>
<path d="M228.46 165.64C227.11 165.64 226.665 166.017 226.665 167.337V175.026C226.665 176.373 227.164 176.709 228.46 176.709V177.208C227.92 177.208 226.665 177.113 225.639 177.113C224.613 177.113 223.506 177.181 223.006 177.208V176.709C224.14 176.709 224.559 176.332 224.559 175.026V167.889L219.024 175.511C219.132 176.427 219.577 176.709 220.563 176.709V177.208C220.077 177.208 218.956 177.113 217.93 177.113C216.904 177.113 215.649 177.181 215.109 177.208V176.709C216.459 176.709 216.891 176.332 216.891 175.026V167.337C216.891 165.99 216.405 165.64 215.109 165.64V165.155C215.649 165.155 216.891 165.249 217.93 165.249C218.97 165.249 220.077 165.168 220.563 165.155V165.64C219.429 165.64 219.01 166.017 219.01 167.337V174.757L224.559 167.121C224.559 165.976 224.073 165.64 223.006 165.64V165.155C223.506 165.155 224.613 165.249 225.639 165.249C226.665 165.249 227.92 165.168 228.46 165.155V165.64Z" fill="#808080"/>
<path d="M237.843 165.64C238.232 166.086 238.518 166.611 238.681 167.178C238.844 167.746 238.881 168.343 238.788 168.926V175.43C238.788 176.184 238.977 176.548 239.517 176.548C239.917 176.516 240.291 176.338 240.57 176.05L240.826 176.454C240.245 177 239.479 177.308 238.68 177.316C237.046 177.316 236.668 176.319 236.668 175.228C236.306 175.866 235.78 176.395 235.144 176.762C234.508 177.129 233.785 177.32 233.05 177.316C232.678 177.355 232.302 177.317 231.946 177.203C231.589 177.09 231.261 176.904 230.98 176.657C230.699 176.41 230.473 176.108 230.316 175.769C230.159 175.43 230.074 175.063 230.067 174.69C230.067 172.831 231.498 171.996 233.86 171.027C235.426 170.38 236.668 169.976 236.668 169.034V167.579C236.668 165.613 235.696 165.223 234.481 165.223C234.057 165.186 233.629 165.241 233.228 165.385C232.827 165.53 232.463 165.759 232.159 166.058C232.477 166.137 232.758 166.321 232.956 166.58C233.155 166.84 233.26 167.159 233.253 167.485C233.272 167.666 233.25 167.85 233.189 168.022C233.128 168.194 233.029 168.35 232.9 168.479C232.77 168.608 232.614 168.707 232.441 168.768C232.269 168.829 232.085 168.851 231.903 168.832C231.723 168.821 231.547 168.775 231.385 168.696C231.224 168.617 231.079 168.507 230.961 168.371C230.843 168.236 230.753 168.078 230.697 167.907C230.641 167.737 230.619 167.556 230.634 167.377C230.662 167.028 230.778 166.692 230.972 166.4C231.166 166.108 231.43 165.87 231.741 165.707C232.728 165.096 233.873 164.787 235.035 164.819C236.041 164.734 237.042 165.027 237.843 165.64ZM236.668 170.003C236.412 170.38 235.899 170.609 234.414 171.35C233.767 171.541 233.197 171.932 232.787 172.467C232.377 173.002 232.148 173.653 232.132 174.326C232.094 174.589 232.115 174.858 232.193 175.112C232.271 175.366 232.405 175.6 232.584 175.797C232.763 175.994 232.984 176.149 233.23 176.251C233.477 176.353 233.743 176.399 234.009 176.386C234.578 176.362 235.13 176.183 235.606 175.87C236.081 175.557 236.462 175.121 236.709 174.609L236.668 170.003Z" fill="#808080"/>
<path d="M253.422 165.64C252.072 165.64 251.627 166.017 251.627 167.337V175.026C251.627 176.373 252.126 176.71 253.422 176.71V177.208C252.882 177.208 251.762 177.114 250.547 177.114C249.332 177.114 247.928 177.181 247.253 177.208V176.71C248.603 176.71 249.521 176.359 249.521 175.026V167.337C249.521 165.99 249.089 165.64 247.955 165.64H247.752C246.969 165.64 246.807 166.017 246.699 167.337C246.601 169.967 246.147 172.572 245.349 175.08C244.89 176.225 244.121 177.531 242.649 177.531C242.451 177.555 242.251 177.539 242.06 177.484C241.869 177.429 241.691 177.335 241.537 177.209C241.383 177.084 241.256 176.928 241.164 176.752C241.072 176.575 241.017 176.382 241.002 176.184C240.99 176.016 241.014 175.846 241.074 175.688C241.133 175.529 241.227 175.386 241.347 175.267C241.468 175.148 241.613 175.056 241.772 174.998C241.932 174.941 242.102 174.918 242.271 174.932C242.425 174.918 242.581 174.938 242.727 174.989C242.873 175.041 243.006 175.123 243.117 175.23C243.229 175.337 243.316 175.467 243.372 175.611C243.429 175.755 243.454 175.909 243.446 176.063C243.45 176.327 243.364 176.584 243.202 176.792C243.04 177 242.811 177.147 242.555 177.208C242.631 177.22 242.708 177.22 242.784 177.208C243.932 177.208 244.62 175.78 244.917 174.972C245.714 172.51 246.168 169.95 246.267 167.364C246.267 167.283 246.267 167.202 246.267 167.135C246.267 166.004 245.619 165.667 244.391 165.667V165.182C244.661 165.182 245.228 165.276 245.997 165.276H250.56C251.64 165.276 252.869 165.196 253.409 165.182L253.422 165.64Z" fill="#808080"/>
<path d="M260.969 170.111C264.371 170.111 265.694 171.538 265.694 173.451C265.694 175.363 264.344 177.141 260.604 177.141C259.754 177.141 258.633 177.046 257.513 177.046C256.392 177.046 255.272 177.114 254.732 177.141V176.642C256.082 176.642 256.527 176.265 256.527 174.959V167.269C256.527 165.923 256.095 165.573 254.975 165.573V165.088C255.474 165.088 256.568 165.182 257.607 165.182C258.647 165.182 259.889 165.101 260.429 165.088V165.64C259.079 165.64 258.633 166.017 258.633 167.337V170.178L260.969 170.111ZM263.48 173.599C263.48 171.431 262.359 170.501 259.578 170.501H258.633V174.959C258.633 176.225 259.079 176.642 260.361 176.642C262.872 176.642 263.48 175.215 263.48 173.599Z" fill="#808080"/>
<path d="M280.03 165.64C278.68 165.64 278.248 166.017 278.248 167.337V175.026C278.248 176.373 278.734 176.71 280.03 176.71V177.208C279.49 177.208 278.248 177.114 277.209 177.114C276.169 177.114 275.076 177.181 274.59 177.208V176.71C275.71 176.71 276.129 176.333 276.129 175.026V171.161H270.931V174.959C270.931 176.306 271.363 176.642 272.497 176.642V177.141C271.998 177.141 270.891 177.046 269.797 177.046C268.704 177.046 267.516 177.114 266.976 177.141V176.642C268.326 176.642 268.771 176.265 268.771 174.959V167.269C268.771 165.923 268.272 165.573 266.976 165.573V165.088C267.516 165.088 268.771 165.182 269.797 165.182C270.823 165.182 271.944 165.101 272.497 165.088V165.64C271.363 165.64 270.931 166.017 270.931 167.337V170.757H276.129V167.337C276.129 165.99 275.71 165.64 274.59 165.64V165.155C275.076 165.155 276.183 165.249 277.209 165.249C278.235 165.249 279.49 165.169 280.03 165.155V165.64Z" fill="#808080"/>
<path d="M286.888 170.111C290.29 170.111 291.6 171.538 291.6 173.451C291.6 175.363 290.25 177.141 286.524 177.141C285.876 177.141 284.985 177.046 284.134 177.046C283.284 177.046 281.893 177.114 281.353 177.141V176.642C282.703 176.642 283.149 176.265 283.149 174.959V167.27C283.149 165.923 282.717 165.573 281.596 165.573V165.088C282.082 165.088 283.189 165.182 284.229 165.182C285.268 165.182 286.51 165.101 287.05 165.088V165.64C285.7 165.64 285.255 166.017 285.255 167.337V170.178L286.888 170.111ZM289.399 173.599C289.399 171.431 288.265 170.502 285.498 170.502H285.255V174.959C285.255 176.225 285.525 176.642 286.267 176.642C288.778 176.642 289.399 175.215 289.399 173.599ZM296.149 174.946C296.149 176.292 296.649 176.629 297.945 176.629V177.127C297.405 177.127 296.109 177.033 295.07 177.033C294.03 177.033 292.99 177.1 292.491 177.127V176.629C293.611 176.629 294.043 176.252 294.043 174.946V167.256C294.043 165.909 293.611 165.559 292.491 165.559V165.074C292.99 165.074 294.125 165.169 295.07 165.169C296.015 165.169 297.216 165.088 297.77 165.074V165.64C296.636 165.64 296.204 166.017 296.204 167.337L296.149 174.946Z" fill="#808080"/>
<path d="M312.579 165.64C311.229 165.64 310.784 166.017 310.784 167.337V175.026C310.784 176.373 311.283 176.71 312.579 176.71V177.208C312.039 177.208 310.784 177.114 309.758 177.114C308.732 177.114 307.625 177.181 307.125 177.208V176.71C308.259 176.71 308.678 176.333 308.678 175.026V167.889L303.143 175.511C303.251 176.427 303.696 176.71 304.682 176.71V177.208C304.196 177.208 303.075 177.114 302.049 177.114C301.023 177.114 299.768 177.181 299.228 177.208V176.71C300.578 176.71 301.01 176.333 301.01 175.026V167.337C301.01 165.99 300.524 165.64 299.228 165.64V165.155C299.768 165.155 301.01 165.249 302.049 165.249C303.089 165.249 304.196 165.169 304.682 165.155V165.64C303.548 165.64 303.129 166.017 303.129 167.337V174.757L308.678 167.121C308.678 165.977 308.178 165.64 307.125 165.64V165.155C307.625 165.155 308.718 165.249 309.758 165.249C310.797 165.249 312.039 165.169 312.579 165.155V165.64ZM301.523 159.836C301.517 159.67 301.546 159.506 301.607 159.352C301.668 159.198 301.761 159.058 301.878 158.942C301.996 158.826 302.137 158.735 302.292 158.676C302.447 158.616 302.612 158.589 302.778 158.597C302.947 158.587 303.116 158.613 303.274 158.672C303.432 158.732 303.576 158.823 303.696 158.941C303.817 159.059 303.912 159.2 303.974 159.357C304.037 159.513 304.067 159.681 304.061 159.849C304.08 160.137 303.989 160.421 303.806 160.643C303.623 160.866 303.362 161.011 303.075 161.048C303.894 161.6 304.861 161.895 305.849 161.895C306.838 161.895 307.804 161.6 308.624 161.048C308.337 161.011 308.076 160.866 307.893 160.643C307.71 160.421 307.619 160.137 307.638 159.849C307.633 159.675 307.666 159.502 307.733 159.342C307.801 159.182 307.902 159.037 308.03 158.919C308.157 158.8 308.309 158.71 308.474 158.655C308.639 158.599 308.815 158.58 308.988 158.597C309.153 158.589 309.318 158.616 309.472 158.676C309.627 158.735 309.767 158.826 309.884 158.943C310 159.059 310.092 159.199 310.151 159.353C310.211 159.507 310.238 159.671 310.23 159.836C310.199 160.186 310.082 160.523 309.889 160.816C309.696 161.11 309.433 161.352 309.123 161.519C308.142 162.075 307.032 162.367 305.903 162.367C304.775 162.367 303.665 162.075 302.684 161.519C302.357 161.349 302.08 161.1 301.877 160.793C301.674 160.487 301.552 160.134 301.523 159.768V159.836Z" fill="#808080"/>
<path d="M332.802 165.64C331.452 165.64 331.006 166.017 331.006 167.337V175.026C331.006 176.373 331.506 176.709 332.802 176.709V177.208C332.262 177.208 331.006 177.113 329.98 177.113C328.954 177.113 327.847 177.181 327.28 177.208V176.709C328.414 176.709 328.833 176.332 328.833 175.026V167.337C328.833 165.99 328.414 165.64 327.28 165.64H325.201C324.054 165.64 323.635 166.017 323.635 167.337V175.026C323.635 176.373 324.054 176.709 325.201 176.709V177.208C324.702 177.208 323.595 177.113 322.501 177.113C321.408 177.113 320.22 177.181 319.68 177.208V176.709C321.03 176.709 321.475 176.332 321.475 175.026V167.337C321.475 165.99 320.976 165.64 319.68 165.64V165.155C320.22 165.155 321.475 165.249 322.501 165.249C324 165.249 325.08 165.155 326.308 165.155C327.537 165.155 328.36 165.249 329.859 165.249C330.885 165.249 332.14 165.168 332.68 165.155L332.802 165.64Z" fill="#808080"/>
<path d="M346.046 170.555C346.046 173.949 344.48 177.464 340.646 177.464C340.128 177.474 339.616 177.366 339.147 177.146C338.679 176.926 338.268 176.602 337.946 176.198V179.201C337.946 180.548 338.796 180.898 340.214 180.898V181.383C339.525 181.383 338.189 181.275 336.825 181.275C335.84 181.275 334.787 181.356 334.287 181.383V180.898C335.408 180.898 335.84 180.561 335.84 179.443V167.62C335.84 166.273 335.408 165.559 334.044 165.559V165.061C334.544 165.061 335.03 165.128 335.502 165.128C336.329 165.15 337.153 165.041 337.946 164.805V167.283C338.246 166.531 338.765 165.887 339.437 165.433C340.108 164.979 340.901 164.737 341.712 164.738C344.142 164.738 346.046 166.785 346.046 170.555ZM343.764 170.879C343.764 167.162 342.819 165.492 341.064 165.492C339.714 165.492 338.459 166.475 337.946 168.455V175.471C338.173 175.934 338.53 176.323 338.972 176.591C339.415 176.858 339.926 176.993 340.443 176.979C343.008 176.925 343.764 174.205 343.764 170.879Z" fill="#808080"/>
<path d="M358.924 171.121C358.924 175.619 356.575 177.464 353.592 177.464C350.608 177.464 348.259 175.619 348.259 171.121C348.259 166.623 350.608 164.738 353.592 164.738C356.575 164.738 358.924 166.61 358.924 171.121ZM350.541 171.121C350.541 175.309 351.81 177.006 353.592 177.006C355.374 177.006 356.643 175.309 356.643 171.121C356.643 166.933 355.387 165.209 353.592 165.209C351.796 165.209 350.541 166.987 350.541 171.121Z" fill="#808080"/>
<path d="M370.912 174.326C370.607 175.244 370.018 176.043 369.23 176.606C368.442 177.17 367.495 177.47 366.525 177.464C363.109 177.464 361.125 174.986 361.125 171.39C361.125 167.27 363.204 164.738 366.43 164.738C369.13 164.738 370.831 166.354 370.831 169.896H363.487C363.425 170.391 363.398 170.891 363.406 171.39C363.406 174.609 365.188 176.481 366.997 176.481C367.747 176.499 368.483 176.282 369.102 175.862C369.722 175.442 370.194 174.839 370.453 174.138L370.912 174.326ZM363.447 169.451H368.55C368.631 167.162 367.902 165.182 366.322 165.182C364.743 165.182 363.703 166.488 363.447 169.451Z" fill="#808080"/>
<path d="M384.899 176.642V177.14C384.423 177.237 383.94 177.291 383.454 177.302C382.104 177.302 381.51 176.602 381.146 175.417C380.9 174.299 380.481 173.227 379.904 172.239C379.215 171.282 378.203 171.08 376.515 171.121V174.959C376.515 176.305 376.934 176.642 378.081 176.642V177.14C377.582 177.14 376.448 177.046 375.381 177.046C374.315 177.046 373.127 177.113 372.587 177.14V176.642C373.937 176.642 374.382 176.265 374.382 174.959V167.269C374.382 165.923 373.883 165.573 372.587 165.573V165.088C373.127 165.088 374.355 165.182 375.381 165.182C376.407 165.182 377.555 165.101 378.081 165.088V165.64C376.934 165.64 376.515 166.017 376.515 167.337V170.784C379.013 170.623 379.593 169.559 380.187 167.781C380.633 166.434 381.132 164.805 382.968 164.805C384.062 164.805 384.467 165.438 384.467 166.152C384.477 166.319 384.451 166.486 384.391 166.642C384.332 166.799 384.239 166.941 384.121 167.059C384.002 167.177 383.86 167.269 383.703 167.329C383.546 167.388 383.379 167.414 383.211 167.404C383.021 167.405 382.832 167.366 382.658 167.289C382.484 167.213 382.328 167.1 382.2 166.959C382.073 166.818 381.976 166.651 381.918 166.47C381.86 166.289 381.84 166.098 381.861 165.909V165.64C381.348 165.882 381.078 166.677 380.511 168.158C380.093 169.262 379.674 170.286 378.405 170.717C379.095 170.653 379.79 170.766 380.424 171.047C381.057 171.328 381.608 171.766 382.023 172.319C382.506 173.314 382.92 174.34 383.265 175.39C383.372 175.743 383.587 176.053 383.88 176.278C384.173 176.502 384.529 176.63 384.899 176.642Z" fill="#808080"/>
<path d="M397.656 165.088C397.535 166.192 397.494 167.269 397.494 167.781C397.484 168.267 397.507 168.753 397.562 169.236H397.022C396.779 165.99 395.793 165.532 393.863 165.532H392.945V174.69C392.945 176.211 393.89 176.615 395.442 176.615V177.114C394.713 177.114 393.35 177.019 391.892 177.019C390.434 177.019 389.084 177.087 388.341 177.114V176.615C389.894 176.615 390.839 176.211 390.839 174.69V165.532H389.691C387.761 165.532 386.991 166.017 386.775 169.263H386.235C386.26 168.778 386.26 168.293 386.235 167.808C386.235 167.269 386.235 166.192 386.073 165.115H388.328C389.381 165.115 390.636 165.115 391.797 165.115C392.958 165.115 394.268 165.115 395.321 165.115L397.656 165.088Z" fill="#808080"/>
</svg>
