<svg width="20" height="20" viewBox="0 0 20 20" fill="none" xmlns="http://www.w3.org/2000/svg">
<path d="M16.0288 6.25C14.3064 6.25 12.9038 4.84833 12.9038 3.125C12.9038 1.40167 14.3064 0 16.0288 0C17.7514 0 19.1538 1.40167 19.1538 3.125C19.1538 4.84833 17.7514 6.25 16.0288 6.25ZM16.0288 1.25C14.9955 1.25 14.1538 2.09076 14.1538 3.125C14.1538 4.15924 14.9955 5 16.0288 5C17.0621 5 17.9038 4.15924 17.9038 3.125C17.9038 2.09076 17.0621 1.25 16.0288 1.25Z" fill="#3976BB"/>
<path d="M16.0288 20C14.3064 20 12.9038 18.5983 12.9038 16.875C12.9038 15.1517 14.3064 13.75 16.0288 13.75C17.7514 13.75 19.1538 15.1517 19.1538 16.875C19.1538 18.5983 17.7514 20 16.0288 20ZM16.0288 15C14.9955 15 14.1538 15.8408 14.1538 16.875C14.1538 17.9092 14.9955 18.75 16.0288 18.75C17.0621 18.75 17.9038 17.9092 17.9038 16.875C17.9038 15.8408 17.0621 15 16.0288 15Z" fill="#3976BB"/>
<path d="M3.94531 13.125C2.22275 13.125 0.820312 11.7233 0.820312 10C0.820312 8.27667 2.22275 6.875 3.94531 6.875C5.66788 6.875 7.07031 8.27667 7.07031 10C7.07031 11.7233 5.66788 13.125 3.94531 13.125ZM3.94531 8.125C2.91199 8.125 2.07031 8.96576 2.07031 10C2.07031 11.0342 2.91199 11.875 3.94531 11.875C4.97864 11.875 5.82031 11.0342 5.82031 10C5.82031 8.96576 4.97864 8.125 3.94531 8.125Z" fill="#3976BB"/>
<path d="M6.12114 9.39154C5.90355 9.39154 5.69191 9.27817 5.57778 9.0766C5.40688 8.77661 5.5111 8.39484 5.81108 8.22409L13.5436 3.81568C13.8427 3.64325 14.2252 3.74823 14.3952 4.04914C14.5661 4.34912 14.4619 4.73075 14.1619 4.90164L6.42937 9.30991C6.33187 9.36484 6.22612 9.39154 6.12114 9.39154Z" fill="#3976BB"/>
<path d="M13.8529 16.2665C13.7479 16.2665 13.642 16.2398 13.5445 16.1841L5.81199 11.7757C5.51201 11.6049 5.40794 11.2231 5.57869 10.9232C5.74867 10.6224 6.13045 10.5182 6.43043 10.6899L14.1628 15.0981C14.4628 15.269 14.567 15.6506 14.3963 15.9506C14.2812 16.1531 14.0696 16.2665 13.8529 16.2665Z" fill="#3976BB"/>
</svg>
