<svg width="18" height="20" viewBox="0 0 18 20" fill="none" xmlns="http://www.w3.org/2000/svg">
<path d="M14.625 12.9688C13.5137 12.9688 12.5262 13.5313 11.9108 14.3973L6.6132 11.5772C6.70208 11.2627 6.75 10.93 6.75 10.5859C6.75 10.1199 6.66229 9.67484 6.50348 9.26746L12.0557 5.79254C12.6752 6.54996 13.5971 7.03125 14.625 7.03125C16.486 7.03125 18 5.45414 18 3.51562C18 1.57711 16.486 0 14.625 0C12.764 0 11.25 1.57711 11.25 3.51562C11.25 3.96367 11.331 4.3923 11.4784 4.78672L5.91225 8.27031C5.2932 7.53523 4.38529 7.07031 3.375 7.07031C1.51403 7.07031 0 8.64742 0 10.5859C0 12.5245 1.51403 14.1016 3.375 14.1016C4.50458 14.1016 5.5062 13.5205 6.11914 12.6302L11.4014 15.4421C11.303 15.7716 11.25 16.1216 11.25 16.4844C11.25 18.4229 12.764 20 14.625 20C16.486 20 18 18.4229 18 16.4844C18 14.5459 16.486 12.9688 14.625 12.9688ZM14.625 1.17188C15.8657 1.17188 16.875 2.22328 16.875 3.51562C16.875 4.80797 15.8657 5.85938 14.625 5.85938C13.3844 5.85938 12.375 4.80797 12.375 3.51562C12.375 2.22328 13.3844 1.17188 14.625 1.17188ZM3.375 12.9297C2.13435 12.9297 1.125 11.8783 1.125 10.5859C1.125 9.29359 2.13435 8.24219 3.375 8.24219C4.61565 8.24219 5.625 9.29359 5.625 10.5859C5.625 11.8783 4.61565 12.9297 3.375 12.9297ZM14.625 18.8281C13.3844 18.8281 12.375 17.7767 12.375 16.4844C12.375 15.192 13.3844 14.1406 14.625 14.1406C15.8657 14.1406 16.875 15.192 16.875 16.4844C16.875 17.7767 15.8657 18.8281 14.625 18.8281Z" fill="white"/>
</svg>
