<svg width="865" height="473" viewBox="0 0 865 473" fill="none" xmlns="http://www.w3.org/2000/svg">
<path d="M23.6634 473C23.6634 473 -71.8911 273.304 121.033 273.304C222.963 273.304 183.883 179.536 253.183 111.359C322.484 43.181 575.938 5.0149 627.522 136.669C679.107 268.324 535.623 373.273 658.806 356.124C806.836 335.518 865 473 865 473H23.6634Z" fill="#D1EAF2"/>
<g clip-path="url(#clip0)">
<path opacity="0.3" d="M466.399 447.686C466.399 453.935 448.518 459 426.462 459C404.405 459 386.524 453.935 386.524 447.686C386.524 441.436 404.414 436.374 426.462 436.374C448.509 436.374 466.399 441.439 466.399 447.686Z" fill="#62BDF3"/>
<path opacity="0.3" d="M386.524 428.597C386.524 434.846 345.168 439.911 294.15 439.911C243.132 439.911 201.776 434.846 201.776 428.597C201.776 422.347 243.132 417.285 294.15 417.285C345.168 417.285 386.524 422.35 386.524 428.597Z" fill="#62BDF3"/>
<path opacity="0.3" d="M580.902 428.597C580.902 434.846 559.499 439.911 533.097 439.911C506.695 439.911 485.29 434.846 485.29 428.597C485.29 422.347 506.695 417.285 533.097 417.285C559.499 417.285 580.902 422.35 580.902 428.597Z" fill="#62BDF3"/>
<path d="M367.04 98.625C366.999 98.6251 366.958 98.6157 366.921 98.5975C366.884 98.5794 366.852 98.553 366.828 98.5203C366.785 98.4632 366.766 98.3916 366.775 98.3208C366.784 98.2499 366.82 98.1853 366.875 98.1406C366.911 98.1137 370.391 95.4943 375.199 97.8266C375.233 97.8408 375.263 97.8617 375.288 97.888C375.313 97.9143 375.333 97.9454 375.346 97.9795C375.358 98.0135 375.364 98.0498 375.363 98.0862C375.361 98.1226 375.352 98.1582 375.336 98.1911C375.32 98.2239 375.298 98.2531 375.271 98.2771C375.243 98.301 375.211 98.3191 375.177 98.3303C375.142 98.3416 375.106 98.3456 375.069 98.3423C375.033 98.339 374.998 98.3283 374.966 98.311C370.462 96.1282 367.335 98.4665 367.201 98.5682C367.155 98.605 367.098 98.625 367.04 98.625Z" fill="#3797DB"/>
<path d="M443.085 378.363C344.227 326.635 310.514 273.04 299.783 236.633H363.282C362.917 242.362 361.233 247.93 358.36 252.899C356.983 255.187 356.237 257.8 356.2 260.471C356.163 263.142 356.836 265.775 358.149 268.101C359.462 270.426 361.369 272.36 363.674 273.706C365.979 275.051 368.6 275.759 371.268 275.757C373.936 275.755 376.556 275.044 378.859 273.695C381.163 272.347 383.067 270.41 384.377 268.082C385.687 265.755 386.355 263.121 386.314 260.45C386.273 257.779 385.524 255.167 384.144 252.881C381.277 247.916 379.596 242.356 379.231 236.633H443.085V295.87L444.256 295.765C449.956 295.25 455.475 293.5 460.432 290.637C462.388 289.449 464.625 288.803 466.913 288.766C469.2 288.728 471.457 289.3 473.451 290.424C475.445 291.547 477.105 293.18 478.261 295.157C479.417 297.134 480.027 299.383 480.029 301.674C480.031 303.964 479.424 306.214 478.272 308.193C477.119 310.172 475.462 311.808 473.469 312.935C471.477 314.061 469.221 314.637 466.933 314.603C464.646 314.569 462.408 313.927 460.45 312.743C455.489 309.87 449.963 308.114 444.256 307.597L443.085 307.492V378.363Z" fill="#3B77BE"/>
<path d="M445.238 309.854C450.221 310.45 455.03 312.061 459.368 314.588C461.653 315.967 464.264 316.713 466.932 316.75C469.6 316.787 472.23 316.114 474.552 314.799C476.875 313.485 478.807 311.576 480.151 309.268C481.495 306.96 482.202 304.336 482.2 301.665C482.198 298.994 481.487 296.371 480.14 294.065C478.793 291.759 476.859 289.853 474.534 288.541C472.209 287.23 469.579 286.56 466.911 286.601C464.243 286.642 461.634 287.392 459.35 288.774C455.022 291.293 450.224 292.9 445.253 293.496V236.645H520.442L520.475 235.601C520.721 228.251 518.897 220.979 515.212 214.617C514.026 212.658 513.381 210.419 513.343 208.129C513.306 205.838 513.877 203.579 514.999 201.583C516.121 199.586 517.753 197.924 519.728 196.767C521.702 195.61 523.949 194.999 526.237 194.997C528.525 194.995 530.772 195.602 532.748 196.756C534.725 197.91 536.359 199.57 537.484 201.564C538.609 203.559 539.185 205.817 539.151 208.108C539.117 210.398 538.476 212.638 537.293 214.599C533.601 220.965 531.773 228.244 532.018 235.601L532.054 236.645H588.54C577.809 273.04 544.099 326.647 445.238 378.375V309.854Z" fill="#62BDF3"/>
<path d="M444.97 378.809V309.552L445.268 309.588C450.283 310.189 455.123 311.811 459.488 314.354C461.731 315.71 464.293 316.444 466.913 316.482C469.533 316.52 472.115 315.86 474.397 314.571C476.678 313.282 478.577 311.408 479.897 309.143C481.218 306.878 481.914 304.302 481.914 301.679C481.914 299.056 481.218 296.481 479.897 294.215C478.577 291.95 476.678 290.077 474.397 288.788C472.115 287.498 469.533 286.839 466.913 286.877C464.293 286.915 461.731 287.649 459.488 289.004C455.127 291.544 450.293 293.163 445.283 293.762L444.985 293.798V236.388H520.182L520.206 235.604C520.45 228.304 518.639 221.082 514.98 214.763C513.771 212.763 513.115 210.477 513.079 208.139C513.043 205.801 513.628 203.495 514.775 201.459C515.922 199.422 517.589 197.727 519.606 196.548C521.622 195.368 523.916 194.747 526.251 194.747C528.587 194.747 530.88 195.368 532.897 196.548C534.913 197.727 536.58 199.422 537.727 201.459C538.874 203.495 539.46 205.801 539.424 208.139C539.388 210.477 538.732 212.763 537.523 214.763C533.858 221.085 532.044 228.311 532.287 235.616L532.314 236.4H588.899L588.798 236.744C578.168 272.798 544.655 326.68 445.361 378.626L444.97 378.809ZM445.507 310.159V377.918C544.007 326.288 577.481 272.816 588.179 236.914H531.779L531.735 235.61C531.488 228.203 533.329 220.875 537.045 214.464C538.207 212.545 538.838 210.351 538.874 208.107C538.91 205.864 538.349 203.651 537.249 201.695C536.149 199.74 534.55 198.112 532.614 196.98C530.679 195.848 528.478 195.251 526.236 195.251C523.995 195.251 521.793 195.848 519.858 196.98C517.923 198.112 516.323 199.74 515.223 201.695C514.123 203.651 513.563 205.864 513.598 208.107C513.634 210.351 514.266 212.545 515.428 214.464C519.144 220.878 520.982 228.209 520.729 235.619L520.687 236.923H445.507V293.191C450.336 292.573 454.992 290.993 459.201 288.544C461.526 287.14 464.181 286.381 466.896 286.342C469.61 286.303 472.286 286.987 474.65 288.323C477.014 289.66 478.981 291.601 480.349 293.948C481.718 296.295 482.439 298.965 482.439 301.682C482.439 304.4 481.718 307.069 480.349 309.417C478.981 311.764 477.014 313.705 474.65 315.041C472.286 316.378 469.61 317.062 466.896 317.023C464.181 316.984 461.526 316.224 459.201 314.821C454.994 312.366 450.337 310.781 445.507 310.159Z" fill="#96D9C9"/>
<path d="M371.263 273.617C368.975 273.618 366.728 273.009 364.752 271.855C362.777 270.7 361.143 269.04 360.019 267.045C358.894 265.05 358.32 262.792 358.354 260.502C358.388 258.212 359.029 255.972 360.212 254.011C363.455 248.402 365.267 242.079 365.487 235.601L365.522 234.489H299.168C296.415 224.62 295 214.425 294.963 204.178C294.963 180.993 302.292 159.309 315.604 143.124C329.312 126.457 348.286 117.277 369.023 117.277C394.454 117.277 413.267 127.889 424.574 136.791C435.753 145.594 442.007 154.507 443.091 156.116V183.505C438.554 182.801 434.189 181.254 430.219 178.945C427.934 177.566 425.324 176.82 422.656 176.783C419.988 176.745 417.358 177.419 415.035 178.733C412.712 180.048 410.78 181.957 409.436 184.265C408.092 186.572 407.385 189.196 407.387 191.868C407.389 194.539 408.1 197.162 409.447 199.468C410.794 201.774 412.729 203.68 415.053 204.991C417.378 206.303 420.009 206.972 422.677 206.931C425.344 206.89 427.954 206.141 430.237 204.758C434.197 202.455 438.553 200.912 443.08 200.211V234.489H376.991L377.027 235.601C377.246 242.072 379.054 248.389 382.292 253.993C383.479 255.953 384.124 258.193 384.161 260.484C384.199 262.775 383.627 265.035 382.504 267.032C381.382 269.029 379.75 270.691 377.774 271.848C375.799 273.005 373.551 273.616 371.263 273.617Z" fill="#9ED16F"/>
<path d="M369.378 111.548C366.344 112.039 366.523 112.535 366.132 112.586C365.669 112.649 360.188 109.895 360.188 109.895C360.188 109.895 343.983 101.908 343.123 101.445L331.424 86.7544L322.41 90.8987C322.41 90.8987 335.566 106.519 336.397 107.207C337.227 107.894 360.469 116.03 362.491 116.814C362.491 116.814 364.528 118.674 365.845 119.804C367.162 120.934 368.927 121.371 369.348 121.628C370.485 122.196 371.689 122.616 372.932 122.878C374.703 123.263 373.231 122.061 373.231 122.061C373.231 122.061 370.098 120.74 370.244 120.504C370.364 120.318 372.036 121.143 373.984 121.592L375.438 121.915C376.633 122.175 377.164 121.487 375.961 121.018C375.415 120.796 374.854 120.615 374.282 120.477C373.753 120.321 373.237 120.121 372.741 119.879C372.201 119.704 371.673 119.493 371.161 119.248C371.209 119.206 371.078 119 371.615 119.104C372.26 119.23 373.565 119.81 374.533 119.92C375.08 119.983 376.218 120.184 376.218 120.184C376.218 120.184 378.228 120.375 378.242 120.094C378.272 119.478 377.033 119.134 376.274 119.152C375.731 118.95 375.167 118.809 374.593 118.73C374.593 118.73 372.26 117.812 372.395 117.466C372.448 117.328 373.861 117.54 375.357 117.642C376.943 117.753 378.09 117.753 378.174 117.445C378.308 116.96 377.048 116.775 377.048 116.775C377.048 116.775 375.937 116.613 375.572 116.53C375.145 116.434 373.894 116.042 373.894 116.042C373.894 116.042 369.605 114.47 369.76 114.153C369.916 113.836 370.624 113.175 370.925 113.178C371.227 113.181 371.767 113.477 372.072 113.477C372.377 113.477 373.025 113.42 373.07 113.04C373.114 112.661 371.436 111.874 371.436 111.874C371.436 111.874 370.256 111.405 369.378 111.548Z" fill="#EFAC7F"/>
<path d="M339.565 95.8592C339.565 95.8592 336.647 98.5054 335.432 99.3785C334.422 100.102 329.506 102.467 329.506 102.467C329.506 102.467 324.614 94.992 322.473 91.2365C319.877 86.6856 318.082 79.919 318.695 79.7366C320.418 79.2223 322.786 78.9054 324.966 79.91C332.544 83.3785 339.565 95.8592 339.565 95.8592Z" fill="#3B77BE"/>
<path d="M366.544 115.456C367.843 115.66 369.169 115.415 369.746 114.228C369.874 115.636 367.739 116.333 366.544 115.456Z" fill="#FE875E"/>
<path d="M291.794 209.904C291.794 209.904 291.471 215.63 291.468 215.642C291.349 216.369 290.871 218.166 290.871 218.827C290.871 221.308 301.907 216.734 299.434 215.618C299.21 215.52 298.036 214.766 297.964 213.92C297.851 212.619 297.561 209.985 297.561 209.985L291.794 209.904Z" fill="#EFAC7F"/>
<path d="M299.416 215.603C298.126 215.986 296.818 216.303 295.497 216.554C294.171 216.743 292.421 215.146 291.483 215.576C290.45 216.052 290.491 220.331 290.491 220.331C290.491 220.331 304.382 221.548 308.289 220.289C309.836 219.79 304.711 217.379 299.416 215.603Z" fill="#45258F"/>
<path d="M274.06 209.569C274.06 209.569 273.737 215.295 273.734 215.307C273.618 216.034 273.137 217.831 273.137 218.492C273.137 220.974 284.169 216.384 281.696 215.283C281.472 215.182 279.952 213.866 279.878 213.023C279.767 211.719 279.827 209.65 279.827 209.65L274.06 209.569Z" fill="#EFAC7F"/>
<path d="M281.681 215.259C280.392 215.642 279.084 215.959 277.763 216.207C276.437 216.399 274.687 214.799 273.749 215.233C272.716 215.708 272.677 219.984 272.677 219.984C272.677 219.984 286.469 220.549 290.555 219.942C292.165 219.703 286.977 217.027 281.681 215.259Z" fill="#45258F"/>
<path d="M276.559 119.251C276.559 119.251 274.689 128.909 275.451 136.235C276.212 143.56 276.287 169.574 276.287 169.574L273.381 211.202L280.28 211.364C280.28 211.364 288.445 169.757 288.293 170.824C288.141 171.892 291.038 141.521 291.038 141.521L281.284 118.33L276.559 119.251Z" fill="#2D185D"/>
<path d="M279.175 113.025C279.175 113.025 270.705 121.933 273.856 131.663C275.119 135.571 286.925 172.905 287.078 175.955C287.23 179.005 291.071 212.733 291.071 212.733L299.096 212.494L300.831 174.992L298.537 124.459L293.666 115.941L279.175 113.025Z" fill="#45258F"/>
<path d="M330.609 84.1235C327.834 81.0317 321.795 76.5466 321.795 76.5466C321.795 76.5466 318.211 73.4788 316.733 72.9585C314.573 72.2169 310.879 70.2345 305.53 78.3257C301.704 84.1145 277.563 114.087 273.6 115.104L299.479 127.465C300.187 121.562 312.979 110.421 314.821 108.328C318.934 103.67 333.234 87.0478 330.609 84.1235Z" fill="#3797DB"/>
<path d="M329.402 71.4634L321.338 76.1728C321.338 76.1728 321.111 83.05 323.748 84.8291C325.958 86.3241 327.631 82.736 327.631 82.736C327.631 82.736 330.617 78.5888 332.905 77.2941C335.193 75.9993 329.402 71.4634 329.402 71.4634Z" fill="#EFAC7F"/>
<path d="M328.049 74.4864C328.448 76.3288 329.155 78.0907 330.139 79.6981C331.035 78.7383 332.027 77.7964 332.917 77.2911C333.968 76.693 333.299 75.4103 332.275 74.1933C330.826 72.6983 329.402 71.4634 329.402 71.4634L327.852 72.3604C327.75 72.9584 327.956 74.0079 328.049 74.4864Z" fill="#D19369"/>
<path d="M333.598 59.6524C333.464 59.485 326.837 67.7257 327.655 71.5859C328.473 75.4461 332.478 78.9714 335.262 78.0026C338.341 76.9322 344.07 67.2383 342.015 62.5289C339.96 57.8195 333.598 59.6524 333.598 59.6524Z" fill="#EFAC7F"/>
<path d="M340.855 57.0567C337.967 55.4511 333.254 54.9906 329.733 56.8325C325.402 59.093 324.417 64.7891 325.773 68.2606C327.129 71.7321 325.575 73.6966 325.575 73.6966L327.872 72.357C327.872 72.357 329.213 70.264 329.389 68.6015C329.566 66.939 332 67.229 333.188 66.4755C334.102 65.8925 335.279 64.0027 336.752 63.022C336.752 63.022 340.479 62.5645 342.313 63.5931C345.437 65.3423 344.995 59.3531 340.855 57.0567Z" fill="#5E2E0D"/>
<path d="M353.657 123.676C350.491 123.293 350.494 123.548 350.091 123.488C349.613 123.416 344.691 119.188 344.691 119.188C344.691 119.188 330.101 106.821 329.337 106.127L321.332 88.4199L310.769 90.0017C310.769 90.0017 320.624 110.816 321.305 111.722C321.986 112.628 343.631 125.258 345.497 126.594C345.497 126.594 347.143 128.986 348.227 130.449C349.311 131.911 350.99 132.841 351.36 133.217C352.374 134.093 353.491 134.843 354.684 135.451C356.384 136.327 355.159 134.739 355.159 134.739C355.159 134.739 352.292 132.566 352.498 132.377C352.656 132.231 354.156 133.508 356.028 134.497L357.423 135.227C358.576 135.825 359.254 135.302 358.146 134.494C357.645 134.123 357.119 133.787 356.572 133.49C356.073 133.186 355.599 132.844 355.153 132.467C354.29 131.869 353.702 131.456 353.746 131.435C353.791 131.414 353.666 131.136 354.185 131.391C354.81 131.69 355.995 132.631 356.948 133.011C357.486 133.226 358.588 133.747 358.588 133.747C358.588 133.747 360.212 133.953 360.275 133.86C360.607 133.352 359.639 132.963 358.868 132.757C358.367 132.404 357.831 132.103 357.268 131.86C357.268 131.86 355.117 130.302 355.329 130.006C355.41 129.892 356.676 130.757 358.226 131.337C360 132.001 360.852 131.636 361.01 131.355C361.252 130.918 360.168 130.652 360.168 130.652C359.545 130.508 358.932 130.326 358.331 130.108C357.922 129.892 353.173 126.298 353.397 126.032C353.621 125.766 354.353 125.766 354.657 125.856C354.962 125.946 355.503 126.155 355.804 126.248C356.106 126.34 356.643 125.981 356.772 125.626C356.9 125.27 355.762 124.621 355.762 124.621C355.762 124.621 354.571 123.79 353.657 123.676Z" fill="#EFAC7F"/>
<path d="M312.444 98.5953C312.444 98.5953 315.484 97.6295 317.435 96.7384C318.74 96.1404 324.438 93.3118 324.438 93.3118C324.438 93.3118 321.98 82.972 320.32 79.2583C314.23 65.6115 307.304 75.0244 306.366 77.2161C304.263 82.1198 312.444 98.5953 312.444 98.5953Z" fill="#62BDF3"/>
<path d="M534.133 234.489C534.097 227.891 535.822 221.403 539.13 215.696C540.508 213.408 541.253 210.795 541.29 208.124C541.327 205.453 540.655 202.82 539.342 200.495C538.029 198.169 536.122 196.235 533.817 194.889C531.512 193.544 528.891 192.836 526.222 192.838C523.554 192.84 520.934 193.551 518.631 194.9C516.328 196.248 514.424 198.186 513.114 200.513C511.804 202.84 511.135 205.474 511.176 208.145C511.217 210.816 511.966 213.428 513.346 215.714C516.649 221.416 518.369 227.898 518.331 234.489H445.239V197.756L444.044 197.905C438.791 198.542 433.722 200.243 429.147 202.905C427.191 204.092 424.954 204.738 422.666 204.776C420.378 204.813 418.122 204.241 416.128 203.118C414.134 201.995 412.474 200.361 411.318 198.384C410.162 196.407 409.552 194.158 409.55 191.868C409.548 189.577 410.154 187.327 411.307 185.348C412.46 183.369 414.117 181.733 416.11 180.607C418.102 179.48 420.357 178.905 422.645 178.938C424.933 178.972 427.171 179.614 429.129 180.799C433.709 183.467 438.784 185.172 444.044 185.81L445.239 185.957V156.116C446.32 154.507 452.571 145.594 463.756 136.791C475.061 127.889 493.877 117.277 519.308 117.277C540.047 117.277 559.03 126.457 572.727 143.124C586.038 159.309 593.371 180.993 593.371 204.178C593.334 214.425 591.918 224.62 589.162 234.489H534.133Z" fill="#7772D6"/>
<path d="M589.619 282.283H567.715C567.195 282.283 566.696 282.076 566.328 281.707C565.96 281.339 565.753 280.839 565.753 280.318C565.753 280.06 565.803 279.804 565.901 279.565C566 279.327 566.144 279.11 566.327 278.927C566.509 278.744 566.725 278.599 566.964 278.5C567.202 278.402 567.457 278.351 567.715 278.351H589.619C590.14 278.351 590.64 278.558 591.009 278.927C591.377 279.296 591.584 279.796 591.584 280.318C591.584 280.839 591.376 281.339 591.008 281.707C590.639 282.076 590.14 282.283 589.619 282.283Z" fill="#7772D6"/>
<path d="M591.77 285.386H565.565C565.044 285.386 564.545 285.179 564.176 284.811C563.808 284.443 563.6 283.943 563.6 283.422C563.6 282.9 563.807 282.399 564.175 282.03C564.544 281.661 565.044 281.454 565.565 281.454H591.77C592.028 281.454 592.284 281.504 592.522 281.603C592.761 281.702 592.978 281.847 593.16 282.029C593.343 282.212 593.487 282.429 593.586 282.668C593.685 282.907 593.735 283.163 593.735 283.422C593.735 283.68 593.684 283.936 593.585 284.174C593.486 284.413 593.342 284.629 593.159 284.812C592.977 284.994 592.76 285.139 592.521 285.237C592.283 285.336 592.028 285.386 591.77 285.386Z" fill="#45258F"/>
<path d="M514.92 416.272C514.92 416.272 512.904 418.269 512.859 419.002C512.815 419.734 512.68 427.589 513.502 428.322C514.323 429.054 516.745 429.575 515.969 430.415C515.371 431.037 510.858 430.905 507.86 430.738C506.985 430.69 505.889 423.604 505.542 422.563C505.04 421.053 503.228 417.761 503.684 416.708C503.906 416.194 505.563 415.025 507.065 414.038C508.645 413.004 510.157 410.695 510.157 410.695L514.92 416.272Z" fill="#EFAC7F"/>
<path d="M541.916 421.179C541.916 421.179 540.124 426.354 540.109 426.366C539.975 427.189 539.446 429.213 539.446 429.954C539.446 432.756 551.892 427.562 549.102 426.336C548.848 426.226 548.057 425.329 547.973 424.375C547.848 422.907 549.021 421.065 549.021 421.065L541.916 421.179Z" fill="#EFAC7F"/>
<path d="M559.09 322.93L563.602 334.592C563.602 334.592 566.541 362.471 564.83 379.144C564.113 386.123 548.615 423.484 548.615 423.484L540.919 422.384L551.229 378.13L547.436 361.212L542.06 327.768L559.09 322.93Z" fill="#2D185D"/>
<path d="M537.867 323.528L534.002 336.538L528.121 375.795L508.239 412.522C508.239 412.522 511.226 417.115 514.44 417.838L542.657 380.722L557.952 334.253L557.414 323.931L537.867 323.528Z" fill="#45258F"/>
<path d="M597.205 301.874C594.89 302.923 595.114 303.369 594.816 303.482C594.46 303.629 589.589 302.08 589.589 302.08C589.589 302.08 575.205 297.625 574.435 297.353L562.351 285.67L555.992 291.352C555.992 291.352 569.411 303.635 570.203 304.125C570.994 304.616 590.984 307.86 592.734 308.216C592.734 308.216 594.705 309.588 595.965 310.398C597.226 311.209 598.71 311.296 599.092 311.454C600.087 311.772 601.122 311.94 602.166 311.953C603.644 311.977 602.243 311.122 602.243 311.122C602.243 311.122 599.505 310.473 599.582 310.225C599.642 310.028 601.12 310.491 602.757 310.524L603.973 310.551C604.973 310.566 605.263 309.815 604.215 309.594C603.743 309.489 603.263 309.425 602.781 309.403C602.327 309.356 601.878 309.262 601.443 309.125C600.977 309.063 600.516 308.963 600.066 308.826C600.096 308.778 599.953 308.607 600.401 308.604C600.935 308.604 602.082 308.903 602.871 308.817C603.319 308.769 604.256 308.742 604.256 308.742C604.256 308.742 605.774 308.494 605.786 308.383C605.836 307.785 604.704 307.591 604.104 307.752C603.638 307.665 603.163 307.64 602.691 307.677C602.691 307.677 600.663 307.256 600.705 306.903C600.741 306.604 605.741 306.475 605.759 305.88C605.759 305.393 604.265 305.351 604.265 305.351C604.265 305.351 603.369 305.411 603.047 305.402C602.691 305.402 601.622 305.261 601.622 305.261C601.622 305.261 597.922 304.598 597.981 304.266C598.041 303.934 598.48 303.174 598.722 303.118C598.964 303.061 599.448 303.243 599.687 303.186C599.838 303.131 599.967 303.027 600.054 302.891C600.14 302.755 600.179 302.594 600.165 302.433C600.129 302.065 598.877 301.787 598.877 301.787C598.877 301.787 597.871 301.569 597.205 301.874Z" fill="#F8A492"/>
<path d="M566.708 288.634L560.66 296.862C560.66 296.862 555.311 290.446 552.895 287.222C549.98 283.311 546.781 277.902 547.256 277.609C548.591 276.784 550.243 275.914 552.196 276.413C558.958 278.177 566.708 288.634 566.708 288.634Z" fill="#3B77BE"/>
<path d="M507.172 413.972C507.172 413.972 511.422 427 513.241 427.643C513.725 427.81 516.443 428.501 516.879 429.542C516.892 429.572 516.902 429.603 516.909 429.634C516.936 429.792 516.928 429.953 516.886 430.107C516.844 430.261 516.768 430.404 516.664 430.525C516.56 430.646 516.431 430.743 516.285 430.808C516.139 430.873 515.981 430.905 515.822 430.902H507.19C507.19 430.902 505.963 425.051 505.479 422.479C505.479 422.479 502.913 416.2 503.2 415.623C503.487 415.046 507.172 413.972 507.172 413.972Z" fill="#45258F"/>
<path d="M538.738 430.872L540.127 426.303C540.127 426.303 543.156 427.589 544.652 427.377C546.142 427.094 547.618 426.735 549.072 426.303C555.045 428.301 559.937 429.266 559.047 430.872H538.738Z" fill="#45258F"/>
<path d="M595.359 305.859C595.902 305.858 596.434 305.708 596.898 305.427C597.362 305.146 597.741 304.743 597.994 304.263C597.758 305.764 596.336 306.389 595.359 305.859Z" fill="#FE875E"/>
<path d="M539.411 276.174C539.411 276.174 532.189 276.936 529.776 277.783C527.76 278.491 525.027 285.09 525.027 285.09C525.027 285.09 535.97 316.755 535.54 322.419C535.11 328.082 533.892 336.472 533.892 336.472C533.892 336.472 555.44 337.833 563.6 334.606C563.6 334.606 561.022 321.779 561.022 318.412C561.022 315.045 559.577 281.374 558.546 279.612C557.516 277.851 555.44 276.844 551.504 275.985C547.568 275.127 539.411 276.174 539.411 276.174Z" fill="#3797DB"/>
<path d="M540.847 266.749L539.41 276.174C539.41 276.174 543.732 281.164 546.877 280.193C549.505 279.376 548.815 275.678 548.815 275.678C548.815 275.678 547.382 270.343 547.812 267.676C548.242 265.009 540.847 266.749 540.847 266.749Z" fill="#EFAC7F"/>
<path d="M547.803 267.676C548.23 265.009 540.847 266.749 540.847 266.749L540.728 267.533C540.915 268.014 541.186 268.458 541.528 268.845C543.241 270.589 545.545 271.626 547.985 271.752C547.773 270.304 547.624 268.77 547.803 267.676Z" fill="#D19369"/>
<path d="M539.634 253.419C539.428 253.345 537.962 264.151 540.742 267.126C543.523 270.101 548.935 271.073 550.876 268.732C553.023 266.139 552.916 254.526 548.594 251.467C544.273 248.408 539.634 253.419 539.634 253.419Z" fill="#EFAC7F"/>
<path d="M546.952 245.684C544.533 246.203 542.334 247.456 540.653 249.272C539.139 249.448 537.069 250.282 534.948 253.787C532.332 258.095 534.264 262.868 537.311 265.209C540.357 267.55 540.306 270.235 540.306 270.235L540.787 268.842C541.148 267.786 541.278 266.664 541.169 265.553C541.112 264.87 540.945 264.201 540.677 263.57C539.942 262.007 542.248 260.969 542.896 259.668C543.394 258.667 543.418 256.379 544.204 254.717L545.139 253.452C545.139 253.452 547.301 251.78 549.416 252.256C551.53 252.731 551.234 244.817 546.952 245.684Z" fill="#282828"/>
<path d="M542.765 261.585C542.785 262.904 542.167 263.977 541.418 263.995C540.668 264.013 540.014 262.949 539.99 261.633C539.966 260.317 540.587 259.241 541.337 259.22C542.087 259.199 542.741 260.267 542.765 261.585Z" fill="#EFAC7F"/>
<path d="M552.531 321.913H596.017V284.145H552.531V321.913Z" fill="#96A65F"/>
<path d="M579.59 321.913H617.314V284.145H579.59V321.913Z" fill="#9ED16F"/>
<path d="M578.853 321.112C576.634 320.466 551.202 313.936 550.244 313.314C549.285 312.692 533.578 297.993 533.578 297.993L542.577 293.227L556.638 307.092C557.597 307.495 575.609 314.355 575.609 314.355C575.609 314.355 581.114 316.603 581.582 316.507C581.989 316.43 582.332 316.065 585.465 315.365C586.361 315.165 587.66 315.548 587.66 315.548C587.66 315.548 589.24 316.029 589.237 316.412C589.217 316.593 589.134 316.761 589.003 316.888C588.873 317.014 588.702 317.091 588.52 317.105C588.201 317.123 587.595 316.86 587.278 316.878C586.961 316.896 586.292 317.608 586.167 317.934C586.089 318.131 590.545 321.39 590.763 321.821C590.865 321.925 596.208 321.561 595.987 321.902C595.987 322.452 595.351 322.29 595.348 322.368C595.264 323.833 587.699 324.922 587.179 324.76C586.328 324.542 578.853 321.112 578.853 321.112Z" fill="#EFAC7F"/>
<path d="M538.422 304.756L548.726 298.002C548.726 298.002 536.779 279.879 532.718 278.007C529.91 276.718 526.419 278.662 525.051 283.425C523.564 288.598 538.422 304.756 538.422 304.756Z" fill="#3B77BE"/>
<path d="M613.545 292.682L611.798 294.36V284.558C611.798 284.07 611.605 283.603 611.26 283.258C610.916 282.913 610.448 282.719 609.961 282.719H594.664C594.177 282.719 593.709 282.913 593.365 283.258C593.02 283.603 592.827 284.07 592.827 284.558V295.947L590.945 292.682L584.491 294.566C584.491 294.566 589.67 304.433 592.827 306.045C597.05 308.198 607.539 308.138 611.786 306.045C614.37 304.765 618.778 296.862 618.778 296.862L613.545 292.682Z" fill="#7772D6"/>
<path d="M607.73 307.22C607.432 303.829 605.153 301.195 602.387 301.195C599.622 301.195 597.325 303.85 597.038 307.259C600.584 307.783 604.188 307.769 607.73 307.22Z" fill="#45258F"/>
<path d="M516.713 32.0241C515.153 34.6763 512.373 34.5686 509.386 35.3132C507.382 35.8125 506.149 39.1136 506.343 41.6103C506.827 47.9344 501.863 46.8609 497.894 49.4802C488.336 55.7594 494.507 72.1152 504.933 73.1707C507.024 73.383 509.413 73.0422 511.25 72.0016C512.743 71.1674 513.786 70.0969 515.467 69.5019C518.982 68.255 522.895 67.8245 525.702 65.1184C529.722 61.2492 526.392 59.3565 527.429 56.5398C528.465 53.7232 532.936 55.1345 533.787 49.2949C534.707 42.9798 533.701 37.5378 531.374 34.4012C527.521 29.2104 520.759 28.8576 518.295 30.4334C517.649 30.8304 517.107 31.3756 516.713 32.0241Z" fill="#5E2E0D"/>
<path d="M560.503 43.8738C560.132 43.0904 556.832 45.4107 556.1 44.9712C555.369 44.5316 559.057 40.806 558.681 40.1542C557.988 38.9581 554.389 43.9815 554.037 43.4433C553.684 42.905 557.137 37.5438 555.903 37.2478C554.67 36.9518 552.917 43.1891 552.268 42.7884C551.62 42.3878 554.434 37.1372 553.239 36.0667C552.603 35.4956 549.592 45.635 548.502 46.0656C547.412 46.4961 546.182 42.0559 545.154 42.2323C544.127 42.4087 548.523 50.3803 548.308 51.0052C548.093 51.6301 544.067 64.646 541.693 68.581C540.262 67.8962 538.87 67.2085 537.541 66.5357C537.007 69.5557 536.944 72.7342 536.248 75.7004C540.859 77.7277 544.972 79.1988 546.31 78.7054C550.387 77.2104 552.4 57.389 553.054 53.6933C553.708 49.9975 555.443 49.268 556.444 47.3244C557.444 45.3808 560.873 44.6602 560.503 43.8738Z" fill="#EFAC7F"/>
<path d="M526.412 60.5581L519.588 67.4503C519.588 67.4503 528.602 72.3451 536.247 75.7089C536.949 72.7427 537.006 69.5643 537.541 66.5443C531.224 63.3509 526.412 60.5581 526.412 60.5581Z" fill="#7772D6"/>
<path d="M568.979 137.086C570.997 139.485 572.804 142.053 574.381 144.762C574.495 144.98 574.54 146.239 574.65 146.469C579.309 149.537 584.243 148.688 588.293 147.423C585.626 146.269 581.914 144.93 581.567 144.37C579.339 141.26 577.423 137.937 575.848 134.449C573.757 136.527 571.795 136.288 568.979 137.086Z" fill="#EFAC7F"/>
<path d="M574.426 144.93C574.019 146.793 574.181 150.572 574.551 150.656C574.99 150.754 590.628 153.066 592.632 151.056C593.827 149.86 591.563 148.918 588.29 147.423C584.24 148.688 574.575 146.192 574.426 144.93Z" fill="#3797DB"/>
<path d="M570.305 151.209C572.321 153.608 574.128 156.176 575.705 158.885C575.818 159.103 575.863 160.38 575.976 160.592C580.633 163.66 585.566 162.811 589.619 161.546C586.952 160.392 583.24 159.052 582.89 158.493C582.338 157.596 579.796 154.373 577.177 148.572C575.089 150.653 573.121 150.402 570.305 151.209Z" fill="#EFAC7F"/>
<path d="M575.752 159.055C575.346 160.915 575.507 164.694 575.877 164.778C576.319 164.877 591.957 167.188 593.958 165.179C595.153 163.983 592.889 163.041 589.619 161.546C585.566 162.811 575.904 160.317 575.752 159.055Z" fill="#3797DB"/>
<path d="M577.938 136.922L569.808 139.742L526.042 103.385C526.042 103.385 536.722 103.248 555.87 105.206C561.592 105.792 577.938 136.922 577.938 136.922Z" fill="#96A65F"/>
<path d="M509.607 100.368C509.607 100.368 508.439 103.442 508.293 105.12C507.815 110.541 510.613 117.43 513.63 118.485C516.721 119.565 535.731 124.872 547.164 123.269L571.953 156.373L580.223 152.737L560.852 118.677C560.852 118.677 557.118 112.813 554.048 111.435C550.978 110.056 526.027 103.397 526.027 103.397L522.181 97.7759L509.607 100.368Z" fill="#9ED16F"/>
<path d="M529.776 66.0511C528.927 64.4859 527.998 62.9659 526.992 61.4972C525.57 58.9586 521.897 57.6729 521.897 57.6729C521.897 57.6729 520.666 57.6968 519.257 57.7685C519.205 57.944 519.113 58.1048 518.988 58.238C518.459 58.6387 515.419 58.1214 513.456 59.4609C506.886 65.1272 508.696 92.5882 509.212 101.262L525.2 101.86C525.2 101.86 526.726 82.7986 530.797 78.0055C533.634 74.6566 531.809 69.8156 529.776 66.0511Z" fill="#7772D6"/>
<path d="M520.744 48.3829C520.744 48.3829 519.642 56.2857 518.871 58.2054C518.101 60.125 523.103 64.2334 527.261 65.4803C531.418 66.7271 525.991 61.2373 526.162 59.1831C526.332 57.1289 527.09 47.4111 527.09 47.4111L520.744 48.3829Z" fill="#EFAC7F"/>
<path d="M526.881 50.1979C527.004 48.5922 527.09 47.4111 527.09 47.4111L520.744 48.3829C520.744 48.3829 520.582 49.3098 520.406 50.6225C522.984 52.1235 525.292 51.6511 526.881 50.1979Z" fill="#D19369"/>
<path d="M522.733 33.9496C521.078 34.4125 519.642 35.4529 518.686 36.8828C517.139 39.251 516.079 46.2239 521.168 49.4801C526.257 52.7363 530.218 48.1316 530.283 43.6405C530.349 39.1493 529.39 33.1572 522.733 33.9496Z" fill="#EFAC7F"/>
<path d="M531.445 42.2349C531.012 43.3173 530.152 43.9901 529.522 43.7299C528.891 43.4698 528.736 42.3934 529.172 41.308C529.608 40.2226 530.468 39.5528 531.096 39.8129C531.723 40.073 531.881 41.1495 531.445 42.2349Z" fill="#EFAC7F"/>
<path d="M518.605 43.1259C518.973 44.2921 518.635 45.4433 517.85 45.6914C517.064 45.9396 516.13 45.2011 515.759 44.0319C515.389 42.8628 515.729 41.7146 516.515 41.4664C517.3 41.2183 518.235 41.9568 518.605 43.1259Z" fill="#EFAC7F"/>
<path d="M539.683 69.0501C539.683 69.0501 541.394 69.095 541.881 69.0501C544.688 68.781 543.523 72.9372 543.523 72.9372C543.523 72.9372 542.153 71.5917 541.603 71.5917C541.162 71.6073 540.722 71.6573 540.289 71.7412L539.683 69.0501Z" fill="#45258F"/>
<path d="M549.189 96.7831C549.189 96.7831 550.342 98.5772 551.641 97.7728C552.94 96.9685 555.177 95.3987 555.596 96.5768C556.014 97.7549 555.933 98.7416 555.479 98.9689C555.025 99.1961 551.674 101.029 549.861 101.152C548.048 101.274 546.54 99.5519 546.54 99.5519L549.189 96.7831Z" fill="#3B77BE"/>
<path d="M551.897 100.853C551.838 99.4295 551.56 97.8626 550.783 96.5111C548.797 93.0755 540.414 83.8122 539.168 83.0916C537.923 82.371 538.819 79.5812 538.819 79.5812L533.849 76.8901L531.263 75.4878C531.263 75.4878 525.394 84.4581 524.946 85.3013C524.498 86.1445 525.292 88.9193 524.698 90.6266C524.104 92.334 524.719 101.585 523.88 102.602C523.22 103.26 522.607 103.352 522.404 103.75C522.327 103.868 522.289 104.008 522.295 104.149C522.3 104.29 522.35 104.425 522.437 104.537C523.112 105.404 526.55 104.677 526.55 104.677C526.574 104.623 527.992 102.629 527.771 101.445C527.55 100.261 528.252 93.3925 528.727 93.3925C529.145 93.3925 531.116 96.4603 531.917 97.0464C531.978 97.1013 532.054 97.1368 532.135 97.148C532.705 97.148 536.373 97.9583 537.182 98.7657C537.4 98.9839 537.481 99.564 537.481 100.294C537.481 100.781 537.463 101.331 537.421 101.89C537.343 102.916 537.2 103.968 537.099 104.662C537.971 104.662 538.846 104.662 539.721 104.662C540.132 103.976 540.718 103.412 541.419 103.027C542.119 102.642 542.909 102.45 543.708 102.47C544.463 102.454 545.21 102.625 545.882 102.968C546.554 103.312 547.131 103.816 547.561 104.438C549.027 104.36 549.595 105.078 550.846 104.955C550.93 104.531 551.918 101.415 551.897 100.853Z" fill="#3797DB"/>
<path d="M540.184 69.4537C539.909 69.1914 539.577 68.9969 539.215 68.8853C538.852 68.7737 538.468 68.7482 538.094 68.8108C537.492 68.8947 536.882 68.9047 536.278 68.8407C534.453 68.6732 532.58 68.8228 531.403 70.0009C530.227 71.1789 530.074 75.383 531.403 77.3565C532.732 79.3299 536.481 79.8293 536.806 80.7233C537.132 81.6174 540.39 82.0539 540.853 80.9565C540.983 81.0301 541.126 81.0763 541.274 81.0922C541.422 81.1082 541.571 81.0936 541.713 81.0492C542.929 80.7054 543.374 79.4974 542.941 78.2027C542.508 76.908 540.689 74.2498 541.017 71.8607C541.088 71.4218 541.049 70.9722 540.903 70.5522C540.758 70.1322 540.511 69.7548 540.184 69.4537Z" fill="#3B77BE"/>
<path d="M539.41 77.5422C539.312 77.6519 539.258 77.794 539.258 77.9414C539.258 78.0887 539.312 78.2308 539.41 78.3405C539.856 78.8918 540.373 79.3806 540.948 79.7937C541.668 80.2093 542.355 78.4542 542.355 77.6678C542.355 76.8814 540.692 76.2475 539.41 77.5422Z" fill="#45258F"/>
<path d="M538.675 90.1393C538.672 90.049 538.65 89.9603 538.612 89.8784C538.573 89.7965 538.519 89.7231 538.452 89.6625C538.385 89.6018 538.307 89.5551 538.221 89.5251C538.136 89.495 538.046 89.4822 537.956 89.4875C537.5 89.5179 537.055 89.6432 536.65 89.8555C536.245 90.0678 535.889 90.3623 535.604 90.7203C535.319 91.0783 535.112 91.4918 534.996 91.9344C534.88 92.377 534.858 92.839 534.93 93.2909C534.947 93.3828 534.947 93.477 534.93 93.5689C534.859 93.9098 534.285 95.049 533.673 96.2122L537.152 97.0823C538.003 95.6082 538.846 94.2327 538.846 94.2327L538.675 90.1393Z" fill="#3B77BE"/>
<path d="M532.075 99.1513C532.075 99.1513 530.761 103.098 530.382 104.605C531.445 105.203 532.087 104.007 534.494 104.68C534.557 104.205 535.408 101.28 535.408 100.563C535.408 100.21 536.475 98.5653 537.326 97.1121C537.341 97.0868 537.349 97.0585 537.351 97.0293C537.354 97.0001 537.349 96.9708 537.338 96.9436C537.327 96.9165 537.31 96.8922 537.288 96.8727C537.266 96.8532 537.24 96.8389 537.212 96.831C536.158 96.532 534.823 95.9968 533.772 95.7038C533.708 95.6877 533.64 95.6934 533.579 95.7199C533.519 95.7464 533.469 95.7923 533.437 95.8503C532.92 96.9235 532.465 98.0257 532.075 99.1513Z" fill="#3B77BE"/>
<path d="M529.408 104.22C529.618 103.835 529.932 103.517 530.312 103.3C530.693 103.084 531.127 102.978 531.564 102.994C532.693 102.994 534.494 104.68 534.494 104.68C534.494 104.68 533.96 105.203 532.487 105.203C531.015 105.203 528.9 105.317 529.408 104.22Z" fill="#3B77BE"/>
<path d="M536.048 103.98C536.258 103.596 536.572 103.278 536.952 103.061C537.333 102.845 537.767 102.739 538.204 102.754C538.716 102.809 539.205 102.994 539.626 103.29C539.797 103.389 539.931 103.541 540.007 103.725C540.082 103.908 540.095 104.111 540.044 104.302C539.992 104.493 539.878 104.662 539.72 104.782C539.563 104.902 539.37 104.966 539.172 104.964H539.127C537.655 104.952 535.528 105.078 536.048 103.98Z" fill="#3B77BE"/>
<path d="M546.638 103.98C546.937 103.418 547.871 102.754 549.23 102.754C549.834 102.805 550.419 102.988 550.945 103.29C551.87 103.762 551.482 104.958 550.395 104.964H550.341C548.573 104.952 546.026 105.078 546.638 103.98Z" fill="#3B77BE"/>
<path d="M535.283 70.3182C534.748 69.783 535.082 69.155 535.372 68.7873C533.855 68.7514 532.386 69.0205 531.412 70.0012C530.217 71.1793 530.083 75.3834 531.412 77.3569C532.607 79.13 535.746 79.7131 536.615 80.4606C537.511 78.9267 536.137 77.6379 535.814 76.9143C535.492 76.1907 537.43 74.3757 537.654 72.9315C537.878 71.4873 536.095 71.1315 535.283 70.3182Z" fill="#45258F"/>
<path d="M532.73 69.1638C531.855 69.4034 530.928 69.3626 530.078 69.0472C528.584 68.5239 527.133 71.1641 527.133 71.1641C527.133 71.1641 528.501 74.1273 529.597 74.8479C530.693 75.5685 532.73 69.1638 532.73 69.1638Z" fill="#3B77BE"/>
<path d="M551.486 94.3701C551.486 93.7123 549.476 91.8166 548.499 92.1245C547.523 92.4325 543.756 94.8156 543.756 94.8156L526.933 90.8567C526.933 90.8567 522.686 81.1629 522.27 72.8354C518.761 73.3109 516.372 74.181 513.311 75.8824C514.783 83.848 518.358 96.7592 522.312 99.1812C523.976 100.201 543.816 97.9612 543.816 97.9612C543.816 97.9612 547.947 98.5383 548.971 98.2602C553.215 97.0851 551.486 95.6828 551.486 94.3701Z" fill="#EFAC7F"/>
<path d="M522.386 63.9311C521.867 61.4165 521.257 58.8928 518.543 58.0975C517.697 57.8709 516.81 57.8506 515.955 58.0385C515.1 58.2263 514.303 58.6167 513.63 59.1769C512.029 60.4895 511.584 62.5946 511.59 64.586C511.569 69.1678 511.953 73.7424 512.736 78.2567C515.789 76.5553 520.23 76.7616 523.739 76.2712C524.065 72.2466 523.061 67.2053 522.386 63.9311Z" fill="#45258F"/>
<path d="M386.001 49.7733C384.21 59.2369 378.535 79.1419 369.276 78.831C368.825 65.845 368.189 54.689 367.302 51.1637C367.101 50.4421 366.855 49.734 366.564 49.0437C372.338 49.546 375.805 40.7372 377.134 34.5298C375.939 38.4677 373.269 44.7768 369.754 46.8848C369.169 47.2743 368.498 47.5167 367.8 47.5917C367.101 47.6666 366.395 47.5719 365.74 47.3154C362.392 41.0661 356.06 36.886 353.005 33.1693C350.586 30.1792 352.139 18.2906 352.736 14.5171C351.885 18.8976 350.98 25.3113 351.359 29.7845C351.831 34.8318 354.433 35.1667 360.388 41.9273C365.167 47.2735 366.824 50.156 366.992 70.6321C366.557 70.7251 366.115 70.7821 365.671 70.8026C360.788 70.8923 356.299 66.144 353.811 61.9878C355.777 65.7673 359.259 70.061 363.348 71.3438C364.102 71.5776 364.883 71.7133 365.671 71.7474C366.115 71.7502 366.558 71.7242 366.997 71.6697C367.105 73.4638 367.655 108.654 367.168 131.388C368.607 131.406 368.362 130.73 369.76 130.844C369.706 124.687 370.017 101.66 369.366 81.4533C380.166 81.0317 384.702 60.9981 386.001 49.7733Z" fill="#7772D6"/>
<path d="M346.363 18.7089C348.564 20.4761 351.849 20.0336 351.849 20.0336L343.869 13.6348C343.869 13.6348 344.159 16.9388 346.363 18.7089Z" fill="#96A65F"/>
<path d="M343.869 13.6349L351.849 20.0337C351.849 20.0337 351.551 16.7297 349.356 14.9506C347.16 13.1715 343.869 13.6349 343.869 13.6349Z" fill="#9ED16F"/>
<path d="M383.433 77.3297C386.258 77.222 388.457 74.7402 388.457 74.7402L378.233 75.1289C378.233 75.1289 380.611 77.4433 383.433 77.3297Z" fill="#96A65F"/>
<path d="M378.233 75.1292L388.457 74.7405C388.457 74.7405 386.067 72.4321 383.254 72.5398C380.441 72.6474 378.233 75.1292 378.233 75.1292Z" fill="#9ED16F"/>
<path d="M386.392 67.0351C388.325 65.7882 388.833 63.1479 388.833 63.1479L381.844 67.666C381.844 67.666 384.463 68.2819 386.392 67.0351Z" fill="#96A65F"/>
<path d="M381.844 67.6571L388.833 63.139C388.833 63.139 386.213 62.5141 384.284 63.761C382.354 65.0078 381.844 67.6571 381.844 67.6571Z" fill="#9ED16F"/>
<path d="M376.406 66.6492C377.203 68.805 379.673 69.8785 379.673 69.8785L376.791 62.0684C376.791 62.0684 375.611 64.4903 376.406 66.6492Z" fill="#96A65F"/>
<path d="M376.791 62.0684L379.673 69.8785C379.673 69.8785 380.868 67.4565 380.058 65.2977C379.249 63.1388 376.791 62.0684 376.791 62.0684Z" fill="#9ED16F"/>
<path d="M353.755 24.6475C352.028 25.8435 351.664 28.2894 351.664 28.2894L357.897 23.9209C357.897 23.9209 355.481 23.4454 353.755 24.6475Z" fill="#96A65F"/>
<path d="M357.897 23.9209L351.649 28.2894C351.649 28.2894 354.066 28.7798 355.792 27.5748C357.518 26.3698 357.897 23.9209 357.897 23.9209Z" fill="#9ED16F"/>
<path d="M377.624 42.1034C375.533 41.9419 373.69 43.5984 373.69 43.5984L381.282 44.1964C381.282 44.1964 379.72 42.2678 377.624 42.1034Z" fill="#96A65F"/>
<path d="M381.282 44.1786L373.69 43.5806C373.69 43.5806 375.252 45.4912 377.349 45.6557C379.446 45.8201 381.282 44.1786 381.282 44.1786Z" fill="#9ED16F"/>
<path d="M355.197 66.0331C353.106 65.8716 351.261 67.5281 351.261 67.5281L358.853 68.1261C358.853 68.1261 357.294 66.1975 355.197 66.0331Z" fill="#96A65F"/>
<path d="M358.853 68.1083L351.261 67.5103C351.261 67.5103 352.823 69.4239 354.919 69.5854C357.016 69.7469 358.853 68.1083 358.853 68.1083Z" fill="#9ED16F"/>
<path d="M359.137 63.9102C358.373 61.9487 356.091 61.0068 356.091 61.0068L358.862 68.1083C358.862 68.1083 359.914 65.8687 359.137 63.9102Z" fill="#96A65F"/>
<path d="M358.862 68.1085L356.091 60.998C356.091 60.998 355.051 63.2376 355.816 65.1991C356.58 67.1606 358.862 68.1085 358.862 68.1085Z" fill="#9ED16F"/>
<path d="M374.126 39.4126C373.657 38.1537 372.212 37.5288 372.212 37.5288L373.911 42.0947C373.911 42.0947 374.598 40.6654 374.126 39.4126Z" fill="#96A65F"/>
<path d="M373.911 42.0947L372.212 37.5288C372.212 37.5288 371.525 38.9491 371.994 40.2199C372.463 41.4907 373.911 42.0947 373.911 42.0947Z" fill="#9ED16F"/>
<path d="M348.925 29.2402C346.96 28.4897 344.744 29.5392 344.744 29.5392L351.849 32.2632C351.849 32.2632 350.891 29.9877 348.925 29.2402Z" fill="#96A65F"/>
<path d="M351.85 32.2633L344.732 29.5513C344.732 29.5513 345.691 31.8237 347.656 32.5742C349.622 33.3248 351.85 32.2633 351.85 32.2633Z" fill="#9ED16F"/>
<path d="M373.972 130.921H375.083V87.3105C375.083 87.2376 375.068 87.1654 375.04 87.0981C375.012 87.0308 374.971 86.9697 374.92 86.9183C374.868 86.8669 374.807 86.8262 374.74 86.7986C374.672 86.771 374.6 86.7569 374.527 86.7573C374.454 86.7569 374.382 86.771 374.315 86.7986C374.247 86.8262 374.186 86.8669 374.135 86.9183C374.083 86.9697 374.042 87.0308 374.014 87.0981C373.986 87.1654 373.972 87.2376 373.972 87.3105V130.921Z" fill="#96A65F"/>
<path d="M361.045 132.485C361.045 132.485 366.152 126.337 370.265 128.09C374.377 129.842 375.043 126.678 377.2 127.722C379.356 128.765 382.038 131.391 382.038 131.391L361.045 132.485Z" fill="#3B77BE"/>
<path d="M370.907 99.636C369.51 99.6234 368.139 99.2649 366.914 98.5925C366.882 98.5764 366.855 98.5542 366.832 98.5272C366.809 98.5001 366.792 98.4688 366.782 98.435C366.772 98.4013 366.768 98.3658 366.772 98.3307C366.776 98.2956 366.786 98.2616 366.803 98.2307C366.836 98.1678 366.893 98.1206 366.961 98.0993C367.028 98.078 367.102 98.0844 367.165 98.1171C371.588 100.452 374.781 97.9675 374.93 97.8599C374.957 97.8341 374.989 97.8141 375.024 97.8014C375.059 97.7886 375.097 97.7833 375.134 97.7857C375.171 97.7882 375.207 97.7984 375.24 97.8157C375.273 97.833 375.303 97.857 375.326 97.8862C375.349 97.9153 375.366 97.949 375.376 97.9851C375.385 98.0212 375.387 98.059 375.382 98.0959C375.376 98.1328 375.362 98.1681 375.342 98.1995C375.322 98.231 375.296 98.2579 375.265 98.2785C373.989 99.1752 372.465 99.6499 370.907 99.636Z" fill="#3797DB"/>
<path d="M367.219 98.6731L366.741 98.389C366.38 98.1767 363.217 96.2661 363.109 94.8009C363.097 94.6293 363.127 94.4573 363.198 94.3006C363.269 94.1439 363.378 94.0075 363.515 93.9039C364.041 93.4823 364.552 93.3657 365.036 93.557C366.553 94.1551 367.087 97.7162 367.141 98.1199L367.219 98.6731ZM364.579 94.0056C364.308 94.0255 364.052 94.1373 363.853 94.3225C363.783 94.3709 363.728 94.4366 363.692 94.5132C363.656 94.5898 363.64 94.6746 363.647 94.7591C363.707 95.6142 365.439 96.9089 366.511 97.6116C366.275 96.3916 365.717 94.4062 364.838 94.0564C364.757 94.018 364.669 93.9957 364.579 93.9906V94.0056Z" fill="#3797DB"/>
<path d="M363.835 101.914C363.698 101.913 363.565 101.875 363.449 101.803C363.333 101.731 363.239 101.629 363.178 101.508C363.097 101.377 363.047 101.23 363.033 101.078C363.018 100.925 363.039 100.772 363.094 100.628C363.524 99.4564 366.051 98.5743 366.337 98.4786L366.998 98.2573L366.66 98.8553C366.379 99.3607 364.922 101.887 363.847 101.905L363.835 101.914ZM365.797 99.271C364.946 99.6328 363.817 100.228 363.599 100.82C363.572 100.887 363.561 100.96 363.568 101.032C363.575 101.105 363.599 101.174 363.638 101.235C363.727 101.385 363.802 101.382 363.838 101.382C364.301 101.364 365.155 100.285 365.797 99.271Z" fill="#3797DB"/>
<path d="M367.458 98.2573C367.458 98.3484 367.431 98.4374 367.38 98.5132C367.33 98.5889 367.258 98.6479 367.174 98.6828C367.09 98.7176 366.998 98.7267 366.908 98.709C366.819 98.6912 366.737 98.6473 366.673 98.5829C366.608 98.5185 366.565 98.4365 366.547 98.3472C366.529 98.2579 366.538 98.1653 366.573 98.0811C366.608 97.997 366.667 97.9251 366.743 97.8745C366.818 97.8239 366.907 97.7969 366.998 97.7969C367.12 97.7969 367.237 97.8454 367.323 97.9317C367.41 98.0181 367.458 98.1352 367.458 98.2573Z" fill="#3797DB"/>
<path d="M185.78 283.574L187.405 284.959L189.379 284.047L191.09 285.727L192.894 284.106L194.913 285.921L196.756 284.636L198.984 286.062L198.446 286.908L196.78 285.841L194.836 287.201L192.894 285.455L191.06 287.106L189.173 285.249L187.243 286.137L185.738 284.854L184.594 285.706L184 284.899L185.78 283.574Z" fill="#9ED16F"/>
<path d="M419.118 27.2246L412.538 25.7026L410.797 30.3941L404.253 29.1173L401.879 33.3991L396.843 33.0732L396.822 35.0975L403.557 35.5341L405.806 31.4765L412.613 32.8041L414.324 28.1904L420.288 29.5688L419.118 27.2246Z" fill="#9ED16F"/>
<path d="M606.013 133.657L608.402 129.638L606.443 125.404C606.393 125.295 606.374 125.175 606.389 125.056C606.403 124.937 606.451 124.824 606.526 124.731C606.601 124.638 606.701 124.567 606.814 124.528C606.927 124.488 607.049 124.481 607.166 124.507L611.715 125.527L615.134 122.354C615.222 122.273 615.33 122.217 615.448 122.194C615.565 122.172 615.686 122.182 615.798 122.225C615.91 122.267 616.007 122.34 616.079 122.436C616.151 122.531 616.196 122.645 616.206 122.764L616.643 127.411L620.713 129.686C620.818 129.744 620.905 129.83 620.963 129.935C621.021 130.039 621.049 130.158 621.043 130.278C621.037 130.398 620.998 130.513 620.929 130.611C620.861 130.71 620.767 130.787 620.657 130.834L616.377 132.688L615.481 137.266C615.458 137.383 615.402 137.492 615.321 137.58C615.24 137.667 615.135 137.73 615.02 137.761C614.904 137.792 614.783 137.79 614.668 137.756C614.554 137.721 614.451 137.655 614.373 137.565L611.29 134.064L606.661 134.62C606.541 134.639 606.417 134.623 606.306 134.575C606.194 134.526 606.098 134.447 606.03 134.346C605.962 134.244 605.924 134.126 605.921 134.004C605.918 133.882 605.95 133.761 606.013 133.657Z" fill="#7772D6"/>
<path d="M214.736 245.232C215.027 244.554 215.465 243.949 216.018 243.462C216.571 242.974 217.226 242.616 217.935 242.412C218.428 242.26 218.947 242.208 219.46 242.26C219.974 242.313 220.472 242.468 220.924 242.717C221.377 242.966 221.775 243.303 222.095 243.709C222.414 244.115 222.649 244.581 222.785 245.08C223.493 247.436 222.268 250.848 217.636 254.884C211.546 254.077 208.643 251.909 207.935 249.55C207.774 249.059 207.714 248.541 207.757 248.026C207.8 247.511 207.945 247.01 208.186 246.552C208.426 246.095 208.755 245.69 209.154 245.363C209.554 245.036 210.015 244.792 210.51 244.646C211.214 244.424 211.958 244.362 212.689 244.463C213.42 244.564 214.119 244.827 214.736 245.232Z" fill="#7772D6"/>
<path d="M196.842 251.634C198.782 251.39 200.707 251.035 202.606 250.57C203.18 250.429 204.216 250.354 204.491 249.765C204.57 249.628 204.594 249.466 204.558 249.311C204.522 249.157 204.428 249.022 204.297 248.934C203.756 248.563 202.941 248.961 202.362 249.105C200.602 249.538 198.589 249.945 196.532 250.238C196.346 250.281 196.184 250.395 196.082 250.556C195.98 250.717 195.945 250.912 195.985 251.099C196.032 251.281 196.148 251.438 196.307 251.537C196.467 251.637 196.658 251.672 196.842 251.634Z" fill="#7772D6"/>
<path d="M227.345 248.937C228.19 248.746 229.032 248.536 229.875 248.339C230.717 248.142 231.666 248.04 232.362 247.588C232.479 247.522 232.572 247.42 232.626 247.297C232.681 247.173 232.694 247.036 232.665 246.905C232.635 246.774 232.564 246.655 232.463 246.567C232.361 246.479 232.234 246.426 232.1 246.416C231.266 246.33 230.361 246.7 229.555 246.901C228.749 247.101 227.87 247.316 227.031 247.538C226.135 247.774 226.434 249.155 227.33 248.946L227.345 248.937Z" fill="#7772D6"/>
<path d="M207.296 260.784C207.92 258.748 209.088 257.887 209.894 256.966C209.976 256.864 210.022 256.739 210.026 256.609C210.03 256.48 209.991 256.352 209.916 256.246C209.841 256.14 209.734 256.061 209.611 256.022C209.487 255.982 209.354 255.984 209.231 256.027C207.535 256.732 206.418 258.682 205.919 260.365C205.656 261.262 207.021 261.672 207.296 260.784Z" fill="#7772D6"/>
<path d="M218.101 262.877C217.855 262.021 217.789 261.123 217.907 260.24C217.985 259.693 218.651 258.06 217.608 258.042C216.617 258.021 216.485 259.678 216.414 260.38C216.329 261.326 216.424 262.28 216.692 263.191C216.951 264.088 218.361 263.789 218.104 262.877H218.101Z" fill="#7772D6"/>
<path d="M223.964 255.832L225.619 256.511C226.168 256.738 226.736 257.109 227.321 256.849C227.465 256.77 227.573 256.639 227.622 256.482C227.672 256.326 227.659 256.156 227.587 256.009C227.378 255.455 226.547 255.3 226.046 255.097L224.388 254.427C224.202 254.372 224.002 254.392 223.831 254.484C223.659 254.576 223.531 254.731 223.474 254.917C223.423 255.103 223.445 255.302 223.537 255.473C223.628 255.643 223.781 255.772 223.964 255.832Z" fill="#7772D6"/>
<path d="M207.687 241.465C204.856 237.578 204.886 237.557 204.438 237.279C204.332 237.218 204.21 237.188 204.088 237.194C203.965 237.2 203.847 237.241 203.748 237.312C203.648 237.383 203.571 237.482 203.525 237.596C203.48 237.71 203.468 237.834 203.491 237.955C203.617 238.487 203.605 238.397 206.6 242.467C206.735 242.61 206.92 242.694 207.116 242.702C207.313 242.709 207.504 242.638 207.649 242.506C207.789 242.369 207.871 242.184 207.878 241.989C207.886 241.793 207.817 241.602 207.687 241.456V241.465Z" fill="#7772D6"/>
<path d="M215.36 239.554C215.468 238.773 215.491 237.982 215.429 237.195C215.372 236.463 215.384 235.329 214.61 234.998C214.516 234.967 214.415 234.962 214.318 234.984C214.221 235.006 214.132 235.054 214.061 235.123C213.559 235.676 213.917 236.618 213.968 237.282C214.016 238.021 214.001 238.764 213.923 239.501C213.919 239.691 213.988 239.876 214.118 240.016C214.247 240.155 214.426 240.239 214.616 240.248C214.806 240.25 214.988 240.179 215.127 240.05C215.265 239.921 215.349 239.743 215.36 239.554Z" fill="#7772D6"/>
<path d="M226.389 237.635C226.393 237.47 226.333 237.31 226.222 237.189C226.11 237.068 225.956 236.995 225.792 236.986C225.156 236.896 224.528 237.644 224.11 238.05C223.628 238.527 223.184 239.041 222.781 239.587C222.683 239.752 222.652 239.948 222.696 240.135C222.741 240.321 222.856 240.483 223.017 240.586C223.182 240.683 223.377 240.713 223.563 240.669C223.749 240.625 223.911 240.51 224.015 240.35C225.616 238.346 226.276 238.52 226.389 237.635Z" fill="#7772D6"/>
<path d="M662.377 187.524C661.672 193.064 667.437 197.46 672.565 197.113C678.239 196.73 683.036 192.078 683.866 186.504C684.762 180.47 681.142 175.644 675.539 175.201C670.083 174.771 666.579 179.63 668.171 184.534C669.3 188.05 672.505 189.363 674.121 188.391C675.378 187.634 675.315 185.73 673.78 185.401C673.482 185.351 673.176 185.389 672.899 185.509C672.621 185.628 672.384 185.826 672.215 186.076C670.88 185.547 669.611 183.113 670.474 180.488C671.573 177.136 675.808 176.945 678.439 178.509C681.787 180.5 682.322 184.788 681.085 188.202C679.795 191.79 676.277 194.613 672.445 194.885C670.35 195.014 668.288 194.315 666.701 192.94C665.113 191.564 664.127 189.621 663.954 187.527C663.955 187.317 663.872 187.116 663.724 186.968C663.577 186.82 663.376 186.736 663.167 186.736C662.958 186.735 662.757 186.818 662.609 186.966C662.461 187.114 662.378 187.314 662.377 187.524Z" fill="#7772D6"/>
<path d="M217.919 306.897C217.561 309.735 220.512 311.98 223.137 311.81C226.04 311.613 228.513 309.23 228.925 306.374C229.385 303.285 227.53 300.812 224.66 300.585C221.868 300.367 220.082 302.855 220.888 305.369C221.467 307.163 223.107 307.842 223.934 307.346C224.58 306.957 224.532 305.979 223.761 305.809C223.608 305.783 223.451 305.802 223.308 305.864C223.166 305.925 223.044 306.027 222.958 306.156C222.277 305.884 221.626 304.637 222.062 303.294C222.623 301.575 224.795 301.476 226.142 302.278C227.856 303.297 228.125 305.495 227.495 307.244C227.153 308.172 226.558 308.986 225.777 309.592C224.996 310.197 224.06 310.571 223.077 310.671C222.004 310.739 220.947 310.384 220.132 309.681C219.318 308.977 218.812 307.982 218.723 306.909C218.716 306.808 218.671 306.714 218.598 306.644C218.524 306.575 218.428 306.535 218.327 306.534C218.226 306.532 218.128 306.569 218.052 306.636C217.977 306.703 217.929 306.797 217.919 306.897Z" fill="#9ED16F"/>
<path d="M231.488 183.972L231.446 178.658L227.05 175.668C226.937 175.592 226.847 175.485 226.792 175.361C226.736 175.236 226.717 175.098 226.735 174.963C226.754 174.828 226.81 174.701 226.897 174.596C226.985 174.491 227.1 174.413 227.229 174.37L232.261 172.687L233.734 167.583C233.771 167.452 233.844 167.334 233.945 167.242C234.046 167.151 234.171 167.089 234.305 167.065C234.439 167.041 234.577 167.054 234.704 167.105C234.83 167.155 234.94 167.24 235.021 167.35L238.175 171.631L243.479 171.455C243.615 171.45 243.75 171.484 243.868 171.552C243.986 171.619 244.083 171.719 244.147 171.839C244.212 171.96 244.241 172.095 244.232 172.231C244.224 172.367 244.177 172.498 244.098 172.609L241.009 176.933L242.819 181.929C242.865 182.056 242.874 182.194 242.846 182.326C242.819 182.458 242.755 182.58 242.662 182.678C242.569 182.776 242.451 182.846 242.32 182.881C242.19 182.915 242.052 182.913 241.923 182.874L236.864 181.277L232.683 184.543C232.575 184.632 232.445 184.688 232.307 184.706C232.169 184.723 232.028 184.7 231.903 184.64C231.777 184.58 231.671 184.485 231.597 184.367C231.524 184.248 231.486 184.111 231.488 183.972Z" fill="#3797DB"/>
<path d="M616.135 249.607C616.074 248.731 616.273 247.856 616.709 247.094C617.144 246.331 617.796 245.715 618.581 245.323C619.366 244.932 620.25 244.782 621.12 244.893C621.991 245.004 622.808 245.371 623.47 245.948C624.132 246.524 624.608 247.284 624.839 248.132C625.069 248.979 625.043 249.876 624.764 250.709C624.486 251.542 623.966 252.273 623.272 252.81C622.578 253.348 621.741 253.667 620.866 253.727C619.693 253.807 618.537 253.418 617.65 252.646C616.763 251.874 616.218 250.781 616.135 249.607Z" fill="#62BDF3"/>
<path d="M623.654 262.142C623.389 260.853 623.23 259.474 622.791 258.233C622.415 257.166 620.751 257.492 620.835 258.64C620.937 260.042 621.376 261.466 621.668 262.826C621.788 263.382 622.526 263.643 623.012 263.472C623.61 263.263 623.771 262.686 623.654 262.127V262.142Z" fill="#62BDF3"/>
<path d="M631.255 256.642C629.786 255.775 628.505 254.699 627.149 253.673C626.088 252.872 624.945 254.25 625.817 255.204C627.068 256.571 628.711 257.641 630.297 258.577C630.553 258.704 630.849 258.724 631.12 258.633C631.254 258.588 631.378 258.516 631.485 258.423C631.592 258.33 631.679 258.217 631.742 258.09C631.805 257.963 631.842 257.824 631.852 257.683C631.862 257.541 631.843 257.399 631.798 257.265C631.753 257.131 631.682 257.006 631.589 256.9C631.495 256.793 631.382 256.705 631.255 256.642Z" fill="#62BDF3"/>
<path d="M628.472 248.695C628.316 248.809 628.209 248.979 628.172 249.169C628.136 249.36 628.174 249.557 628.278 249.721C628.774 250.618 630.037 250.576 630.933 250.546C631.872 250.507 632.8 250.331 633.687 250.023C634.992 249.577 634.284 247.544 632.973 247.992C630.408 248.871 629.437 247.918 628.472 248.695Z" fill="#62BDF3"/>
<path d="M627.059 240.062C625.769 241.952 624.715 242.592 624.879 243.633C624.893 243.765 624.935 243.893 625.004 244.007C625.073 244.122 625.167 244.219 625.278 244.292C625.389 244.365 625.516 244.413 625.648 244.431C625.78 244.45 625.914 244.438 626.041 244.398C626.734 244.24 627.113 243.501 627.534 242.987C627.955 242.472 628.323 241.997 628.678 241.468C629.001 240.989 629.049 240.37 628.574 239.973C628.176 239.626 627.379 239.599 627.08 240.077L627.059 240.062Z" fill="#62BDF3"/>
<path d="M622.03 239.734C621.618 238.589 621.528 238.173 620.993 237.641C620.527 237.177 619.545 237.473 619.479 238.155C619.404 238.95 619.572 239.246 620.005 240.448C620.099 240.717 620.297 240.937 620.554 241.06C620.811 241.184 621.106 241.199 621.374 241.105C621.643 241.01 621.863 240.812 621.986 240.555C622.109 240.298 622.124 240.003 622.03 239.734Z" fill="#62BDF3"/>
<path d="M616.6 242.497C614.74 241.079 614.36 240.682 613.632 240.759C613.201 240.804 612.736 241.217 612.813 241.698C612.989 242.595 613.509 242.834 615.203 244.09C615.417 244.269 615.692 244.358 615.97 244.339C616.248 244.32 616.508 244.194 616.696 243.989C616.879 243.776 616.971 243.499 616.951 243.219C616.931 242.94 616.802 242.679 616.591 242.494L616.6 242.497Z" fill="#62BDF3"/>
<path d="M609.128 248.994C608.393 249.383 608.689 250.653 609.484 250.755C610.278 250.857 610.538 250.734 614.232 250.058C614.513 250.03 614.773 249.896 614.959 249.682C615.144 249.469 615.241 249.193 615.23 248.91C615.191 248.381 614.656 247.81 614.083 247.914C610.248 248.605 609.863 248.602 609.128 248.994Z" fill="#62BDF3"/>
<path d="M614.913 255.055C612.888 257.016 612.593 256.67 611.795 257.869C611.428 258.419 612.031 259.292 612.667 259.175C613.486 259.026 613.704 258.876 614.758 258.042C615.376 257.552 615.953 257.025 616.55 256.478C616.736 256.261 616.83 255.979 616.81 255.693C616.791 255.407 616.66 255.14 616.446 254.95C616.227 254.766 615.945 254.674 615.66 254.694C615.375 254.713 615.108 254.843 614.916 255.055H614.913Z" fill="#62BDF3"/>
<path d="M268.337 427.604H272.677V197.047C272.676 196.472 272.447 195.92 272.041 195.513C271.634 195.106 271.083 194.877 270.508 194.876C269.933 194.876 269.381 195.105 268.974 195.512C268.567 195.919 268.338 196.471 268.337 197.047V427.604Z" fill="#3797DB"/>
<path d="M297.636 427.604H301.972V193.127C301.972 192.551 301.744 191.999 301.337 191.592C300.931 191.185 300.379 190.956 299.804 190.956C299.229 190.956 298.677 191.185 298.271 191.592C297.864 191.999 297.636 192.551 297.636 193.127V427.604Z" fill="#3797DB"/>
<path d="M301.273 219.855H271.422V222.457H301.273V219.855Z" fill="#3797DB"/>
<path d="M301.273 254.72H271.422V257.321H301.273V254.72Z" fill="#3797DB"/>
<path d="M301.273 289.587H271.422V292.189H301.273V289.587Z" fill="#3797DB"/>
<path d="M301.273 324.452H271.422V327.053H301.273V324.452Z" fill="#3797DB"/>
<path d="M279.748 346.584H260.933C260.563 346.584 260.197 346.657 259.855 346.798C259.513 346.939 259.203 347.147 258.941 347.408C258.68 347.67 258.472 347.981 258.331 348.323C258.189 348.665 258.116 349.031 258.116 349.401V359.983H261.264V349.951H279.763L279.748 346.584Z" fill="#13375B"/>
<path d="M283.347 339.438L277.512 333.273C277.512 333.273 271.263 336.711 263.979 339.997C261.978 336.511 258.711 325.047 258.534 324.485C258.358 323.923 262.36 317.042 261.464 316.869C260.568 316.696 259.406 320.55 258.46 320.158C257.513 319.766 255.079 310.823 254.511 311.313C253.445 312.21 255.79 316.875 255.228 317.213C254.667 317.551 253.242 312.061 252.155 312.294C251.068 312.527 253.989 317.294 253.669 317.751C253.35 318.209 250.297 313.738 249.667 314.761C249.327 315.323 252.48 318.648 251.832 319.025C251.184 319.402 248.341 317.3 248.001 317.978C247.66 318.657 250.653 319.366 251.486 321.088C252.319 322.81 253.827 323.48 254.326 326.727C254.825 329.974 256.199 347.359 259.738 348.752C262.829 349.99 283.347 339.438 283.347 339.438Z" fill="#EFAC7F"/>
<path d="M337.188 419.564C337.648 416.275 337.612 410.235 337.379 403.848C340.234 403.704 342.65 403.522 345.505 403.333C344.311 411.488 343.516 419.887 343.516 419.887L343.713 421.498L343.818 426.283L327.657 426.387C330.475 425.069 333.205 423.57 335.832 421.902C336.212 421.632 336.53 421.284 336.764 420.881C336.998 420.477 337.142 420.028 337.188 419.564Z" fill="#EFAC7F"/>
<path d="M344.254 427.302L327.209 427.502C326.591 427.449 326.439 426.946 326.654 426.638C327.096 426.004 329.043 425.541 331.229 424.545C335.067 424.946 343.098 422.321 343.704 421.438C344.054 423.191 344.597 427.224 344.254 427.302Z" fill="#45258F"/>
<path d="M366.153 416.188C364.818 413.159 361.598 408.034 358.038 402.732C360.389 401.103 362.721 399.443 365.048 397.775C368.333 405.334 371.699 413.123 371.699 413.123L372.714 414.391L375.319 418.395L361.646 427.027C363.343 424.414 364.871 421.696 366.221 418.888C366.404 418.459 366.492 417.996 366.48 417.53C366.468 417.065 366.357 416.607 366.153 416.188Z" fill="#EFAC7F"/>
<path d="M376.041 419.393L361.86 428.199C361.308 428.477 360.916 428.133 360.937 427.757C360.976 426.985 362.386 425.565 363.715 423.55C367.185 421.866 372.594 415.357 372.645 414.28C373.861 415.605 376.283 419.148 376.041 419.393Z" fill="#45258F"/>
<path d="M359.501 282.89C360.765 276.718 356.813 270.6 351.24 268.304C351.279 264.791 350.144 260.344 347.749 257.94C343.024 253.198 334.01 251.535 330.534 257.581C325.944 260.18 322.333 265.81 323.701 270.938C319.253 275.549 320.944 283.894 327.428 287.835C327.326 293.008 330.059 298.151 334.578 300.364C335.662 300.893 337.358 301.634 337.565 301.859C337.284 301.59 340.913 311.726 352.199 307.079C363.71 302.358 367.004 289.052 359.501 282.89Z" fill="#5E2E0D"/>
<path d="M336.89 414.935C338.29 407.161 333.428 387.887 330.462 379.413C327.377 370.598 325.415 333.297 325.415 333.297L328.912 329.209L343.186 328.354C343.186 328.354 337.114 347.036 337.114 353.471C337.114 359.905 340.068 376.459 343.538 385.082C346.74 393.036 345.411 409.711 344.434 415.198C341.924 415.573 339.367 415.484 336.89 414.935Z" fill="#96A65F"/>
<path d="M346.793 330.082C347.447 330.737 351.273 335.285 351.273 338.454C351.273 341.624 344.045 370.245 345.78 371.982C347.515 373.719 353.934 378.058 358.025 384.104C361.478 389.202 369.375 403.937 370.901 407.442C367.914 409.52 365.331 410.465 362.344 411.466C361.863 408.859 338.487 383.06 335.817 377.663C333.147 372.266 331.701 347.607 330.351 344.33C329.001 341.053 325.402 332.734 325.402 332.734L346.793 330.082Z" fill="#9ED16F"/>
<path d="M325.971 308.996C325.971 308.996 317.157 319.064 307.406 322.852C306.377 323.288 305.421 323.878 304.571 324.605C304.571 325.63 306.399 324.904 306.399 324.904C306.025 325.579 305.918 326.371 306.1 327.122C306.42 328.342 308.547 327.532 309.702 327.532C310.234 327.532 312.952 324.485 316.625 322.694C320.971 320.577 326.096 318.508 326.723 317.877C327.888 316.705 326.314 308.625 325.971 308.996Z" fill="#EFAC7F"/>
<path d="M343.893 280.659C343.893 280.659 335.023 279.762 330.397 282.716C325.77 285.67 322.813 296.201 322.813 300.698C322.813 305.196 326.15 328.829 324.868 333.326C324.868 333.326 339.524 332.683 344.535 332.683C349.547 332.683 350.577 330.755 350.577 330.755C350.577 330.755 340.166 320.481 340.166 315.984C340.166 311.487 343.893 280.659 343.893 280.659Z" fill="#45258F"/>
<path d="M222.791 401.761V417.16H224.455V403.16H235.481V407.965C231.219 408.423 227.889 412.367 227.889 417.16C227.889 422.264 231.661 426.399 236.315 426.399C240.968 426.399 244.74 422.264 244.74 417.16C244.74 412.376 241.41 408.423 237.145 407.965V403.16H239.433V401.336H237.145V395.79H239.433V393.966H237.145V387.797H267.31V385.061H250.644V369.381C250.644 365.195 254.488 360.509 259.637 360.509H273.973V357.771H259.637C253.515 357.771 248.148 363.195 248.148 369.381V385.061H237.145V376.264H235.481V393.966H229.899C225.981 393.966 222.791 397.464 222.791 401.761ZM235.481 401.336H224.47C224.67 398.241 227.029 395.79 229.899 395.79H235.481V401.336Z" fill="#45258F"/>
<path d="M229.325 404.18C229.325 404.18 229.66 410.118 229.663 410.13C229.785 410.883 230.26 412.746 230.26 413.419C230.26 415.994 218.815 411.233 221.381 410.094C221.614 409.989 222.934 408.563 223.265 407.75C223.863 406.297 224.116 403.456 224.116 403.456L229.325 404.18Z" fill="#F48C7F"/>
<path d="M221.422 410.079C222.759 410.477 224.114 410.806 225.484 411.066C226.858 411.263 228.674 409.604 229.647 410.052C230.717 410.546 230.779 415.073 230.779 415.073C230.779 415.073 216.396 415.551 212.217 414.938C210.551 414.693 215.93 411.915 221.422 410.079Z" fill="#466EB6"/>
<path d="M286.606 391.496H289.766V331.207C289.766 329.17 291.755 327.517 294.201 327.517H322.637C322.814 327.521 322.989 327.49 323.154 327.426C323.319 327.362 323.469 327.266 323.597 327.144C323.724 327.022 323.826 326.876 323.898 326.714C323.969 326.552 324.007 326.378 324.011 326.201C324.003 325.845 323.853 325.506 323.595 325.26C323.338 325.014 322.993 324.88 322.637 324.889H294.207C290.026 324.889 286.612 327.72 286.612 331.207L286.606 391.496Z" fill="#45258F"/>
<path d="M271.787 378.845C282.32 378.845 290.862 387.471 290.862 398.113C290.862 408.755 282.32 417.381 271.787 417.381C261.253 417.381 252.714 408.755 252.714 398.113C252.714 387.471 261.253 378.845 271.787 378.845Z" fill="#45258F"/>
<path d="M248.56 398.116C248.56 411.072 258.959 421.576 271.787 421.576C284.614 421.576 295.014 411.072 295.014 398.116C295.014 385.16 284.614 374.659 271.787 374.659C258.959 374.659 248.56 385.157 248.56 398.116ZM250.761 398.116C250.761 386.386 260.175 376.886 271.787 376.886C283.399 376.886 292.813 386.395 292.813 398.116C292.813 409.837 283.399 419.346 271.787 419.346C260.175 419.346 250.761 409.846 250.761 398.116Z" fill="#45258F"/>
<path d="M287.036 371.384H296.369V335.186H287.036V371.384Z" fill="#7772D6"/>
<path d="M256.423 393.965H248.529C246.474 393.978 244.508 394.806 243.062 396.267C241.615 397.728 240.806 399.703 240.812 401.761V417.159H242.618V401.761C242.611 400.183 243.229 398.667 244.337 397.545C245.445 396.424 246.953 395.789 248.529 395.78H256.423V393.965Z" fill="#7772D6"/>
<path d="M228.618 377.927H253.159V373.711H228.618V377.927Z" fill="#45258F"/>
<path d="M256.289 401.336H241.714V403.16H256.289V401.336Z" fill="#7772D6"/>
<path d="M289.142 385.061H255.491V387.8H289.142V385.061Z" fill="#7772D6"/>
<path d="M252.555 377.927H296.369V373.648H252.555V377.927Z" fill="#45258F"/>
<path d="M295.014 394.722H297.723V334.43C297.741 333.436 298.151 332.491 298.864 331.8C299.578 331.109 300.535 330.729 301.528 330.743H327.084V328.115H301.528C297.944 328.115 295.014 330.946 295.014 334.43V394.722Z" fill="#7772D6"/>
<path d="M245.322 417.16C245.322 422.264 249.874 426.399 255.492 426.399C261.11 426.399 265.661 422.264 265.661 417.16C265.661 412.056 261.11 407.92 255.492 407.92C249.874 407.92 245.322 412.059 245.322 417.16Z" fill="#45258F"/>
<path d="M249.3 417.16C249.3 420.266 252.071 422.787 255.491 422.787C258.911 422.787 261.682 420.266 261.682 417.16C261.682 414.053 258.911 411.535 255.491 411.535C252.071 411.535 249.3 414.053 249.3 417.16Z" fill="#7772D6"/>
<path d="M230.69 357.771C233.632 354.825 274.618 356.246 274.618 356.246C274.618 356.246 239.895 364.729 237.882 365.835C235.869 366.941 228.31 404.275 228.301 404.763C226.21 404.264 224.938 404.643 222.806 404.207C223.125 397.718 225.951 362.513 230.69 357.771Z" fill="#3B77BE"/>
<path d="M234.684 404.359C234.684 404.359 235.021 410.297 235.024 410.309C235.146 411.063 235.621 412.926 235.621 413.598C235.621 416.173 224.176 411.413 226.742 410.27C226.975 410.166 228.552 408.802 228.627 407.926C228.746 406.578 228.683 404.428 228.683 404.428L234.684 404.359Z" fill="#F7A491"/>
<path d="M226.781 410.261C228.118 410.658 229.475 410.986 230.845 411.245C232.219 411.443 234.035 409.783 235.006 410.232C236.078 410.725 236.141 415.252 236.141 415.252C236.141 415.252 221.757 415.73 217.579 415.117C215.912 414.875 221.291 412.094 226.781 410.261Z" fill="#466EB6"/>
<path d="M281.009 364.671C281.009 364.671 280.654 373.986 277.557 374.096C274.46 374.207 254.586 374.652 243.396 373.648L235.863 406.969L227.008 406.117C227.008 406.117 229.672 383.862 230.619 375.397C231.55 367.069 234.238 360.082 238.939 359.914C243.64 359.747 274.558 354.954 274.558 354.954L281.009 364.671Z" fill="#3797DB"/>
<path d="M289.342 321.187C289.342 321.187 294.36 322.46 293.682 332.271C293.004 342.081 287.58 371.767 277.554 374.096C267.528 376.425 261.002 355.298 261.002 355.298C261.002 355.298 267.328 353.204 269.962 343.397C271.787 336.591 276.679 321.237 277.903 320.499C280.944 318.663 289.342 321.187 289.342 321.187Z" fill="#9ED16F"/>
<path d="M268.337 387.169H271.049V369.381C271.049 365.195 275.23 360.509 280.809 360.509H296.37V357.771H280.809C274.167 357.771 268.337 363.195 268.337 369.381V387.169Z" fill="#7772D6"/>
<path d="M296.37 422.787C308.469 422.787 318.277 412.879 318.277 400.658C318.277 388.436 308.469 378.528 296.37 378.528C284.271 378.528 274.463 388.436 274.463 400.658C274.463 412.879 284.271 422.787 296.37 422.787Z" fill="#7772D6"/>
<path d="M269.692 400.672C269.692 415.554 281.639 427.619 296.369 427.619C311.099 427.619 323.046 415.554 323.046 400.672C323.046 385.791 311.099 373.726 296.369 373.726C281.639 373.726 269.692 385.776 269.692 400.672ZM272.222 400.672C272.222 387.199 283.031 376.279 296.369 376.279C309.707 376.279 320.516 387.199 320.516 400.672C320.516 414.146 309.704 425.065 296.369 425.065C283.034 425.065 272.222 414.128 272.222 400.672Z" fill="#7772D6"/>
<path d="M278.301 400.672C278.301 410.752 286.392 418.912 296.37 418.912C306.348 418.912 314.436 410.74 314.436 400.672C314.436 390.605 306.348 382.433 296.37 382.433C286.392 382.433 278.301 390.578 278.301 400.672Z" fill="#45258F"/>
<path d="M292.305 400.672C292.312 401.476 292.556 402.259 293.007 402.923C293.458 403.588 294.095 404.104 294.839 404.406C295.582 404.709 296.398 404.784 297.184 404.623C297.97 404.462 298.691 404.072 299.256 403.501C299.821 402.931 300.205 402.206 300.359 401.417C300.513 400.629 300.43 399.812 300.121 399.071C299.813 398.329 299.292 397.696 298.624 397.25C297.956 396.805 297.172 396.567 296.37 396.567C295.833 396.569 295.303 396.677 294.808 396.884C294.313 397.092 293.865 397.395 293.487 397.776C293.109 398.157 292.811 398.609 292.608 399.106C292.405 399.603 292.302 400.135 292.305 400.672Z" fill="#7772D6"/>
<path d="M215.786 419.964H243.371V415.18H215.786V419.964Z" fill="#45258F"/>
<path d="M227.712 419.964H243.371V415.18H227.712V419.964Z" fill="#7772D6"/>
<path d="M256.393 377.876H254.586V419.967H256.393V377.876Z" fill="#7772D6"/>
<path d="M254.419 417.698C254.421 417.919 254.488 418.134 254.612 418.317C254.736 418.5 254.911 418.642 255.115 418.725C255.32 418.808 255.544 418.829 255.76 418.785C255.977 418.74 256.175 418.633 256.33 418.476C256.485 418.319 256.59 418.119 256.632 417.902C256.675 417.685 256.651 417.461 256.566 417.257C256.481 417.053 256.337 416.879 256.153 416.757C255.97 416.635 255.754 416.57 255.533 416.571C255.386 416.571 255.24 416.601 255.104 416.658C254.969 416.715 254.845 416.798 254.742 416.903C254.638 417.007 254.557 417.132 254.501 417.268C254.446 417.405 254.418 417.551 254.419 417.698Z" fill="#45258F"/>
<path d="M286.313 294.922C286.313 294.922 289.828 292.53 291.316 296.716C291.786 296.687 292.257 296.7 292.725 296.755C293.448 297 294.147 297.753 294.789 298.166C297.086 299.637 298.143 302.495 298.269 305.118C298.421 308.305 297.107 310.634 295.013 312.934C294.422 313.64 293.715 314.239 292.922 314.707C291.949 315.23 291.178 314.815 290.261 315.036C289.491 315.224 289.222 316.038 288.311 315.745C287.036 315.332 285.701 313.735 284.13 313.971C282.559 314.208 278.906 312.775 278.897 312.775C274.217 310.948 277.377 301.88 278.273 298.659C279.118 295.63 283.419 293.824 286.313 294.922Z" fill="#282828"/>
<path d="M282.084 315.53L280.869 318.852L280.214 320.708C280.214 320.708 280.167 324.03 280.943 324.895C282.272 326.39 287.753 320.885 287.753 320.885L289.485 310.438L282.084 315.53Z" fill="#EFAC7F"/>
<path d="M288.923 313.819C286.833 317.054 283.249 318.531 280.859 318.881L282.087 315.529L289.488 310.446L288.923 313.819Z" fill="#D19369"/>
<path d="M288.063 299.703C287.409 299.307 286.675 299.059 285.915 298.977C285.155 298.895 284.385 298.981 283.662 299.228C282.938 299.475 282.277 299.878 281.725 300.409C281.173 300.939 280.744 301.584 280.468 302.298C279.869 303.874 279.37 305.486 278.975 307.124C277.906 311.583 279.259 316.453 281.29 316.902C283.321 317.35 289.575 315.706 291.178 309.382C292.161 305.492 290.99 301.494 288.063 299.703Z" fill="#EFAC7F"/>
<path d="M289.563 309.561C289.344 310.548 289.822 311.493 290.629 311.672C291.435 311.852 292.265 311.194 292.483 310.207C292.701 309.221 292.227 308.273 291.417 308.093C290.608 307.914 289.781 308.578 289.563 309.561Z" fill="#EFAC7F"/>
<path d="M283.291 311.409C283.291 311.409 285.979 312.285 286.185 313.269C286.391 314.253 286.078 315.661 284.767 316.77C283.455 317.88 280.651 317.189 279.886 316.588C279.122 315.987 278.539 313.434 279.304 312.013C280.069 310.593 283.291 311.409 283.291 311.409Z" fill="#282828"/>
<path d="M284.166 313.469C284.166 313.469 284.148 314.567 283.783 314.764C283.404 314.972 282.988 315.105 282.559 315.156C282.244 315.192 281.926 315.143 281.638 315.012C281.349 314.882 281.102 314.675 280.922 314.414C280.888 314.363 280.857 314.31 280.83 314.256C280.64 313.772 280.529 313.261 280.501 312.743C281.086 312.596 281.691 312.541 282.293 312.578C282.944 312.686 284.166 313.469 284.166 313.469Z" fill="#EFAC7F"/>
<path d="M313.11 326.261C314.17 325.199 319.083 323.57 322.813 320.864C324.462 319.668 327.631 318.104 330.713 316.394C332.931 317.575 334.904 319.169 336.525 321.091C330.946 323.656 324.877 326.24 323.981 327.161C322.246 328.892 319.226 332.812 318.519 332.812C317.811 332.812 312.447 331.239 311.649 330.42C310.852 329.601 312.049 327.319 313.11 326.261Z" fill="#EFAC7F"/>
<path d="M330.713 316.393C334.596 314.241 338.356 311.869 338.75 309.753C339.458 305.964 336.244 289.587 338.045 286.43C339.846 283.272 343.893 280.65 343.893 280.65C344.535 280.65 346.85 282.064 347.477 284.89C348.104 287.716 346.963 313.149 346.321 315.461C346.022 316.546 341.62 320.87 336.68 323.142C335.172 321.273 332.968 317.643 330.713 316.393Z" fill="#7772D6"/>
<path d="M290.65 350.696L275.141 354.765C275.141 354.765 270.583 358.054 268.531 358.709C266.479 359.364 263.977 361.625 264.466 362.318C264.956 363.012 267.534 360.656 267.952 360.728C268.37 360.799 266.432 363.595 266.133 365.416C265.834 367.237 265.192 369.022 266.241 368.882C267.289 368.741 268.047 364.615 268.047 364.615C268.047 364.615 269.66 361.502 269.92 361.87C270.18 362.238 268.845 364.375 268.845 364.375C268.845 364.375 268.525 366.687 268.388 367.5C268.283 368.098 268.842 369.928 269.317 369.258C269.595 368.867 269.463 367.363 269.789 366.504C270.23 365.379 270.82 364.318 271.542 363.35C271.542 363.35 270.377 368.618 271.109 368.732C271.84 368.846 272.602 364.492 272.602 364.492C272.602 364.492 274.394 360.856 275.174 360.533C275.953 360.21 278.1 358.823 279.761 358.246C281.422 357.669 288.285 359.57 291.349 359.612C294.414 359.654 299.38 357.752 299.792 355.348C299.918 354.613 299.461 353.802 298.762 353.028C297.753 351.933 296.462 351.137 295.032 350.726C293.602 350.315 292.086 350.304 290.65 350.696Z" fill="#EFAC7F"/>
<path d="M289.342 321.187C289.342 321.187 294.034 320.353 298.281 328.001C302.528 335.65 299.774 355.361 299.774 355.361L290.644 350.696L289.342 321.187Z" fill="#96A65F"/>
<path d="M310.236 327.789C309.687 327.789 306.796 327.971 306.354 327.517C305.911 327.062 307.847 325.902 308.044 326.099C308.241 326.297 309.065 325.863 309.34 326.138C309.615 326.413 310.442 326.099 310.678 326.333C310.914 326.566 310.786 327.789 310.236 327.789Z" fill="#EFAC7F"/>
<path d="M339.287 272.732C339.287 272.732 338.299 278.168 338.496 280.312C338.693 282.456 337.743 289.366 333.478 289.39C329.213 289.414 332.114 282.214 332.514 280.121C332.914 278.028 333.568 269.904 333.568 269.904L339.287 272.732Z" fill="#EFAC7F"/>
<path d="M333.306 272.975C333.346 271.901 333.474 270.833 333.691 269.781L339.288 272.732C339.288 272.732 339.085 273.845 338.882 275.262C337.83 275.508 336.728 275.42 335.729 275.01C334.729 274.6 333.882 273.889 333.306 272.975Z" fill="#D19369"/>
<path d="M339.41 256.944C341.019 257.623 342.335 258.854 343.119 260.416C344.427 263.032 344.857 270.355 339.586 273.169C334.315 275.982 330.838 270.777 331.164 266.145C331.489 261.513 332.953 255.405 339.41 256.944Z" fill="#EFAC7F"/>
<path d="M329.598 264.851C329.458 266.047 329.897 267.081 330.548 267.147C331.199 267.213 331.865 266.283 332.003 265.078C332.14 263.873 331.704 262.844 331.053 262.781C330.402 262.719 329.748 263.642 329.598 264.851Z" fill="#EFAC7F"/>
<path d="M342.656 266.877C342.19 268.044 342.423 269.27 343.17 269.613C343.917 269.957 344.899 269.29 345.365 268.118C345.831 266.946 345.595 265.726 344.849 265.382C344.102 265.039 343.119 265.711 342.656 266.877Z" fill="#EFAC7F"/>
<path d="M601.78 57.6519L612.072 71.792L618.882 64.3317L601.78 57.6519Z" fill="#45258F"/>
<path d="M619.805 60.4237L618.882 64.3317L601.78 57.6519L619.805 60.4237Z" fill="#7772D6"/>
<path d="M618.882 65.8238L601.78 57.6519L617.675 71.792L618.882 65.8238Z" fill="#7772D6"/>
<path d="M629.27 82.7655C629.144 82.7655 626.14 82.4425 622.329 80.0744C618.518 77.7062 617.072 73.5291 617.072 72.8623C617.082 72.7462 617.134 72.6379 617.22 72.5589C617.305 72.4799 617.417 72.436 617.534 72.436C617.65 72.436 617.762 72.4799 617.848 72.5589C617.933 72.6379 617.986 72.7462 617.995 72.8623C618.037 73.3078 619.258 77.0813 622.816 79.3C626.429 81.5515 629.33 81.8565 629.359 81.8595C629.476 81.8779 629.581 81.9402 629.653 82.0336C629.726 82.1271 629.76 82.2446 629.748 82.3622C629.737 82.4799 629.681 82.5886 629.592 82.6664C629.503 82.7441 629.388 82.7849 629.27 82.7804V82.7655Z" fill="#62BDF3"/>
<path d="M647.963 86.9457C642.615 85.869 637.49 83.8892 632.806 81.0911C628.923 78.7708 625.772 75.2335 621.8 73.272C621.693 73.2161 621.611 73.1203 621.574 73.0052C621.536 72.89 621.545 72.7647 621.598 72.6561C621.652 72.5474 621.746 72.464 621.86 72.4238C621.974 72.3835 622.099 72.3896 622.209 72.4408C626.319 74.474 629.434 78.0083 633.278 80.2958C637.871 83.043 642.899 84.9865 648.145 86.0427C650.377 86.4488 652.648 86.5893 654.913 86.4613C655.03 86.4644 655.142 86.512 655.225 86.5944C655.309 86.6767 655.358 86.7878 655.363 86.9052C655.368 87.0225 655.328 87.1373 655.252 87.2264C655.176 87.3155 655.068 87.3723 654.952 87.3853C652.613 87.5143 650.267 87.3668 647.963 86.9457Z" fill="#62BDF3"/>
<path d="M422.253 248.991C422.253 248.991 410.934 228.769 408.18 224.472C405.427 220.176 398.253 203.087 397.999 202.429C397.745 201.772 402.939 193.671 401.777 193.396C400.615 193.121 399.337 197.645 398.097 197.101C396.858 196.557 393.244 185.631 392.539 186.172C391.219 187.189 394.487 192.951 393.785 193.316C393.083 193.68 390.95 186.974 389.568 187.171C388.185 187.368 392.196 193.316 391.811 193.842C391.425 194.368 387.262 188.759 386.509 189.955C386.1 190.604 390.335 194.847 389.523 195.244C388.71 195.642 384.941 192.903 384.544 193.692C384.147 194.482 388.026 195.564 389.188 197.693C390.35 199.822 392.327 200.743 393.149 204.687C393.97 208.631 395.194 222.9 399.403 230.019C403.611 237.138 412.843 252.896 412.843 252.896L422.253 248.991Z" fill="#EFAC7F"/>
<path d="M472.414 346.584C472.414 346.584 471.494 345.433 471.219 345.026C470.894 344.551 470.024 343.05 470.024 343.05C470.024 343.05 467.268 337.668 467.68 337.506C468.092 337.345 469.081 337.991 469.367 338.263C469.654 338.535 470.015 338.825 470.302 339.097C470.377 339.165 470.464 339.218 470.559 339.253C470.654 339.287 470.755 339.303 470.856 339.298C470.957 339.293 471.056 339.269 471.148 339.225C471.239 339.182 471.321 339.121 471.389 339.046C471.751 338.714 470.846 337.384 470.44 336.986C469.179 335.745 465.141 333.099 464.726 332.8C464.233 332.45 461.166 322.248 459.837 318.839C457.83 313.191 456.047 307.283 455.838 306.685L454.589 281.068L445.032 277.875C445.032 277.875 446.036 306.353 446.248 307.776C446.349 308.449 452.015 321.181 452.021 321.178C455.208 327.268 458.027 332.63 458.541 333.673C458.541 333.673 459.237 337.213 459.544 339.492C459.852 341.77 461.053 343.744 461.241 344.372C461.685 346.001 462.404 347.542 463.367 348.929C464.726 350.887 464.335 348.39 464.335 348.39C464.335 348.39 462.465 344.3 462.812 344.204C463.08 344.129 463.968 346.429 465.452 348.609C465.834 349.171 466.213 349.724 466.563 350.229C467.486 351.554 468.564 351.351 467.82 349.808C467.491 349.104 467.109 348.425 466.679 347.777C466.228 347.137 466.022 346.405 465.724 345.81C465.126 344.614 464.69 343.774 464.75 343.774C464.81 343.774 464.881 343.457 465.303 344.04C465.813 344.739 466.563 346.474 467.393 347.445C467.862 347.996 468.773 349.207 468.773 349.207C468.773 349.207 470.466 351.001 470.592 350.935C471.276 350.546 470.431 348.908 469.696 348.244C469.445 347.577 468.45 346.33 468.45 346.33C468.45 346.33 467.005 343.34 467.423 343.131C467.767 342.951 472.605 349.41 473.262 348.967C473.782 348.594 472.414 346.584 472.414 346.584Z" fill="#EFAC7F"/>
<path d="M455.3 246.683C455.53 241.091 454.703 235.566 452.209 230.36C450.059 225.875 444.743 223.336 439.883 223.33C424.475 223.309 422.513 243.693 412.705 251.557C409.718 253.949 406.358 255.916 403.521 258.506C393.05 268.074 397.766 285.784 407.383 294.171C414.055 299.99 424.544 303.297 432.769 298.749C437.061 296.357 440.322 292.425 442.643 288.098C445.928 281.96 448.064 274.876 450.408 268.334C452.902 261.37 454.993 254.119 455.3 246.683Z" fill="#282828"/>
<path d="M407.129 426.764C407.129 426.764 406.045 434.29 404.175 436.718C403.548 437.531 402.404 438.563 401.651 440.037C400.483 442.327 401.129 445.742 401.992 447.62C402.437 448.585 401.962 448.582 402.968 448.893C404.42 449.321 405.977 449.203 407.348 448.561C408.718 447.918 409.806 446.797 410.408 445.407C411.29 443.379 411.784 441.203 411.866 438.993C412.185 432.164 414.312 428.689 414.312 428.689L407.129 426.764Z" fill="#EFAC7F"/>
<path d="M439.806 430.206C439.806 430.206 440.478 438.691 439.931 441.448C439.633 442.925 438.017 445.963 438.763 447.354C439.51 448.744 440.358 449.091 440.358 449.091L459.646 449.39C460.697 449.408 460.001 448.732 459.156 448.11C457.767 447.091 456.65 446.418 452.221 444.277C451.923 444.139 450.88 443.47 450.501 443.239C449.473 442.559 448.544 441.739 447.741 440.802C446.356 439.263 446.248 431.79 446.248 431.79L439.806 430.206Z" fill="#EFAC7F"/>
<path d="M454.888 317.431C454.888 317.431 457.316 331.206 455.721 340.236C454.127 349.266 446.463 432.977 446.463 432.977L437.957 433.456C437.957 433.456 436.165 398.489 436.493 393.627C436.822 388.766 439.337 380.627 439.337 380.627L438.488 352.394L449.222 315.317L454.888 317.431Z" fill="#2D185D"/>
<path d="M429.882 314.534C429.882 314.534 423.183 324.608 421.588 332.944C419.993 341.28 422.759 366.899 419.691 377.822C418.031 383.737 411.738 392.868 410.779 400.508C409.821 408.148 406.069 428.166 406.069 428.166L414.572 429.853L434.332 379.861L449.833 334.678L453.802 311.406L429.882 314.534Z" fill="#45258F"/>
<path d="M435.302 257.223C435.302 257.223 426.435 256.658 422.925 260.479C419.416 264.3 430.696 294.524 431.348 299.386C431.999 304.248 428.095 317.18 428.095 317.18C428.095 317.18 448.927 321.366 454.882 317.431C454.882 317.431 455.518 282.462 454.882 278.991C454.246 275.519 448.915 261.391 447.652 260.001C446.388 258.61 435.302 257.223 435.302 257.223Z" fill="#9ED16F"/>
<path d="M438.256 245.382L438.127 246.088C437.73 248.217 436.21 255.285 435.18 257.226C433.937 259.576 439.436 267.063 444.737 266.148C446.314 265.876 443.405 259.271 443.542 258.568C443.811 257.229 444.172 255.402 444.543 253.527L445.164 250.39C445.731 247.526 446.191 245.185 446.191 245.185L438.256 245.382Z" fill="#EFAC7F"/>
<path d="M438.128 246.085L438.256 245.379L446.186 245.182C446.186 245.182 445.726 247.523 445.158 250.387C444.961 251.389 444.749 252.454 444.543 253.506C443.318 253.327 442.037 252.732 440.756 251.61C439.445 250.463 438.456 248.994 437.886 247.346C437.984 246.85 438.065 246.417 438.128 246.085Z" fill="#D19369"/>
<path d="M443.593 227.37C443.593 227.37 439.854 226.939 437.513 229.968C435.171 232.997 432.644 242.359 438.465 247.448C444.286 252.537 450.036 246.778 450.89 240.667C451.744 234.555 452.072 227.151 443.593 227.37Z" fill="#EFAC7F"/>
<path d="M452.61 240.577C451.917 241.928 450.749 242.67 450.005 242.245C449.262 241.82 449.223 240.379 449.916 239.028C450.609 237.676 451.777 236.935 452.52 237.359C453.264 237.784 453.306 239.228 452.61 240.577Z" fill="#EFAC7F"/>
<path d="M444.011 226.371C444.011 226.371 439.017 235.272 435.445 235.685C431.873 236.098 431.401 240.828 431.401 240.828C431.401 240.828 432.68 229.926 436.216 227.824C439.752 225.722 444.011 226.371 444.011 226.371Z" fill="#282828"/>
<path d="M410.985 443.903C406.349 444.746 403.267 442.037 401.663 440.016C400.484 442.313 399.91 445.742 400.767 447.626C401.532 449.288 403.754 449.241 405.516 449.306C407.371 449.375 408.801 448.347 409.73 446.729C410.241 445.831 410.661 444.885 410.985 443.903Z" fill="#45258F"/>
<path d="M450.498 443.245C445.397 444.555 441.625 443.664 439.516 442.814C438.972 444.354 438.25 446.286 438.62 447.401C439.089 448.765 439.755 449.073 440.346 449.091C445.005 449.213 457.412 449.39 460.954 449.426C461.065 449.427 461.174 449.397 461.269 449.338C461.363 449.279 461.438 449.194 461.486 449.094C461.533 448.993 461.551 448.881 461.537 448.771C461.522 448.661 461.477 448.557 461.405 448.472C460.563 447.419 450.877 443.478 450.498 443.245Z" fill="#45258F"/>
<path d="M436.371 237.922C436.67 239.503 436.073 240.953 435.066 241.163C434.06 241.372 432.999 240.266 432.71 238.675C432.42 237.084 433.008 235.643 434.015 235.437C435.021 235.23 436.091 236.343 436.371 237.922Z" fill="#EFAC7F"/>
<path d="M419.121 242.437C419.121 242.437 431.638 255.892 433.501 261.31C435.365 266.728 431.685 274.484 426.608 274.822C421.531 275.16 410.238 250.949 410.238 250.949L419.121 242.437Z" fill="#9ED16F"/>
<path d="M433.337 72.3901L419.198 75.4729C418.393 75.6488 417.56 75.6639 416.749 75.5174C415.937 75.3709 415.163 75.0656 414.469 74.619C413.776 74.1724 413.177 73.5933 412.707 72.9148C412.237 72.2363 411.906 71.4717 411.732 70.6648L410.415 64.6069C410.239 63.8003 410.224 62.967 410.37 62.1546C410.516 61.3421 410.821 60.5666 411.267 59.8723C411.714 59.178 412.292 58.5785 412.97 58.1083C413.647 57.638 414.411 57.3061 415.217 57.1317L429.353 54.0519C430.158 53.876 430.991 53.8609 431.802 54.0074C432.614 54.1539 433.389 54.4592 434.082 54.9058C434.776 55.3524 435.374 55.9315 435.844 56.61C436.314 57.2885 436.645 58.0531 436.819 58.86L438.137 64.9179C438.312 65.724 438.327 66.5569 438.18 67.3688C438.034 68.1807 437.729 68.9558 437.283 69.6498C436.838 70.3437 436.26 70.9429 435.583 71.4131C434.905 71.8833 434.142 72.2153 433.337 72.3901Z" fill="#7772D6"/>
<path d="M411.851 67.3696L405.797 77.1682L415.088 73.1644L411.851 67.3696Z" fill="#7772D6"/>
<path d="M418.694 64.6368L421.05 64.0597C421.05 64.0597 423.529 61.1564 423.44 60.346C423.35 59.5357 422.49 57.9809 422.905 57.655C423.227 57.3932 423.639 57.268 424.053 57.306C424.466 57.344 424.848 57.5422 425.118 57.8583C425.736 58.5131 425.987 61.3627 426.313 61.4853C426.513 61.563 427.878 61.267 428.869 61.0368C429.191 60.9636 429.526 60.9808 429.839 61.0863C430.151 61.1918 430.429 61.3816 430.64 61.6348C430.78 61.8009 430.86 62.0094 430.866 62.2265C430.873 62.4437 430.806 62.6566 430.676 62.8308L430.246 63.39L430.787 63.8504C430.883 63.9315 430.962 64.0307 431.019 64.1424C431.077 64.254 431.112 64.3759 431.122 64.5012C431.133 64.6264 431.119 64.7525 431.081 64.8722C431.042 64.9919 430.981 65.103 430.9 65.199L430.557 65.6116L430.915 65.8717C431.024 65.9513 431.115 66.0528 431.182 66.1698C431.249 66.2868 431.291 66.4166 431.305 66.5508C431.318 66.685 431.304 66.8206 431.262 66.9488C431.22 67.077 431.152 67.195 431.061 67.295L430.748 67.6389L430.828 67.7286C430.986 67.9092 431.07 68.1422 431.065 68.3817C431.059 68.6213 430.964 68.8502 430.799 69.0233L430.482 69.3701L424.21 70.9071C423.623 71.0496 423.014 71.0709 422.418 70.9699L420.121 71.1463C420.002 71.1556 419.883 71.1215 419.786 71.0501C419.69 70.9787 419.622 70.8748 419.596 70.7576L418.335 65.2378C418.305 65.1106 418.325 64.9764 418.392 64.8639C418.459 64.7515 418.567 64.67 418.694 64.6368Z" fill="white"/>
<path d="M477.587 0.636909C490.254 2.99908 499.345 11.2278 497.896 19.017C497.171 22.9041 493.948 25.957 489.325 27.7361L492.329 40.1779L483.172 29.2341C479.564 29.6596 475.911 29.5275 472.343 28.8424C459.676 26.4833 450.585 18.2545 452.033 10.4653C453.482 2.67615 464.933 -1.72227 477.587 0.636909Z" fill="#62BDF3"/>
<path d="M483.396 17.7549C482.7 19.2057 481.589 20.417 480.205 21.2359C478.821 22.0548 477.225 22.4444 475.62 22.3555C474.015 22.2666 472.472 21.7031 471.186 20.7363C469.901 19.7696 468.931 18.4429 468.398 16.9241C467.866 15.4053 467.795 13.7626 468.195 12.2036C468.595 10.6446 469.448 9.23938 470.646 8.1656C471.843 7.09182 473.332 6.39769 474.924 6.17098C476.516 5.94428 478.139 6.19517 479.588 6.89193C480.551 7.35472 481.413 8.00285 482.125 8.79929C482.838 9.59573 483.386 10.5249 483.74 11.5337C484.094 12.5424 484.245 13.6111 484.186 14.6785C484.127 15.746 483.859 16.7914 483.396 17.7549Z" fill="#3797DB"/>
<path d="M471.593 13.5063C471.124 14.5426 471.078 15.7216 471.467 16.7909C471.855 17.8603 472.646 18.735 473.67 19.2278C474.694 19.7206 475.871 19.7924 476.947 19.4277C478.024 19.0631 478.915 18.2911 479.43 17.2769L471.593 13.5063Z" fill="#EFEFEF"/>
<path d="M662.738 234.698L659.937 234.982L658.981 230.521L654.835 230.431L653.575 227.208L651.944 227.848L653.632 232.157L657.562 232.243L658.554 236.884L662.771 236.456L662.738 234.698Z" fill="#7772D6"/>
<path d="M646.589 163.851L640.037 160.975L638.546 165.508L636.378 164.793L638.651 157.874L645.168 160.73L646.828 155.371L652.825 157.874L655.289 152.6L657.359 153.568L653.966 160.825L648.265 158.445L646.589 163.851Z" fill="#9ED16F"/>
</g>
<defs>
<clipPath id="clip0">
<rect width="500" height="459" fill="white" transform="translate(184)"/>
</clipPath>
</defs>
</svg>
