<svg width="156" height="137" viewBox="0 0 156 137" fill="none" xmlns="http://www.w3.org/2000/svg">
<path d="M190.132 136.628L109.177 136.648L91.4571 136.653H85.5974L67.912 136.658L1.56184 136.973C1.51815 136.834 1.47588 136.696 1.43503 136.559C-5.74637 112.607 16.0532 112.906 22.0754 105.463C24.2193 102.817 24.364 99.1822 20.4915 93.1279L20.4354 93.0426C41.5813 84.3073 41.503 85.2445 64.0472 89.0258C91.8681 93.6921 114.772 99.1131 126.108 93.2278C137.444 87.3425 161.892 91.5915 168.614 100.069C175.336 108.547 173.843 116.945 180.814 116.24C185.787 115.739 192.027 113.302 197.999 114.987C198.143 127.256 190.132 136.628 190.132 136.628Z" fill="#D1EAF2"/>
<path d="M59.5024 95.7039C59.5024 95.7039 49.8937 94.1137 43.371 99.4885C36.8484 104.863 40.702 114.044 35.3207 115.23C27.5563 116.943 9.69809 119.401 11.5611 136.24C11.75 137.947 66.0685 136.24 66.0685 136.24L63.739 99.964L59.5024 95.7039Z" fill="#BDE5B3"/>
<path d="M137.9 107.901C137.9 107.901 149.375 105.797 157.342 112.339C165.309 118.881 161.682 124.256 165.945 125.655C170.209 127.054 176.248 129.799 174.895 136.723H136.333L137.9 107.901Z" fill="#82B378"/>
<path d="M150.889 5.3457H59.5049V131.587H150.889V5.3457Z" fill="#CDE0FB"/>
<path d="M152.096 62.6818H58.2998V66.7319H152.096V62.6818Z" fill="#AFCDFB"/>
<path opacity="0.5" d="M138.041 22.9606H113.078V56.2433H138.041V22.9606Z" fill="white"/>
<path d="M137.433 23.5708H113.688V55.6321H137.433V23.5708Z" fill="#DFEBFD"/>
<path d="M119.333 23.2457V32.3787C119.333 32.459 119.333 32.5375 119.333 32.6135C119.318 33.3262 119.234 33.8733 119.133 33.8733H119.105C119.012 33.8733 118.935 33.4021 118.91 32.7637C118.91 32.7116 118.906 32.6578 118.905 32.6032V32.5921C118.905 32.5221 118.905 32.4504 118.905 32.377V23.2039C119.047 23.2167 119.19 23.2286 119.333 23.2457Z" fill="#AFCDFB"/>
<path d="M119.004 32.7175C117.428 32.7175 116.15 34.073 116.15 35.7443H121.859C121.859 34.073 120.581 32.7175 119.004 32.7175Z" fill="#AFCDFB"/>
<path d="M119.232 32.7543C119.148 32.7359 119.063 32.7268 118.977 32.727C117.95 32.727 117.117 34.0782 117.117 35.7443H117.62C117.62 34.2156 118.323 32.9532 119.232 32.7543Z" fill="#CDE0FB"/>
<path d="M118.524 45.7949C118.524 45.7949 117.118 44.1501 118.439 43.1045C118.439 43.1045 119.402 42.5198 120.188 42.5676C120.188 42.5676 119.075 44.4394 119.435 44.6255C119.795 44.8116 120.526 42.4498 120.526 42.4498C120.526 42.4498 122.718 42.2364 123.424 42.577C123.424 42.577 121.551 44.1134 121.944 44.2064C122.336 44.2995 124.363 42.7887 124.363 42.7887C124.363 42.7887 126.406 43.1369 126.295 44.3848C126.185 45.6327 125.483 46.0194 125.173 45.9861C124.864 45.9528 123.057 45.2606 123.018 45.5149C122.979 45.7693 124.066 46.5989 124.829 46.6374C124.829 46.6374 123.39 48.2292 122.434 47.77C121.478 47.3108 121.396 46.5827 120.8 46.3096C120.204 46.0364 119.693 46.0373 119.941 46.3156C120.189 46.5938 121.266 46.8644 121.607 47.4696C121.947 48.0748 122.253 48.4819 121.266 48.3325C120.279 48.1832 118.669 47.4576 118.598 46.6254L118.524 45.7949Z" fill="#82B378"/>
<path d="M125.29 44.419C125.29 44.419 119.748 44.2048 118.524 45.7949C118.524 45.7949 118.253 46.6075 117.417 47.3484L117.287 47.7035C117.287 47.7035 118.248 46.6878 118.592 46.6263C118.594 46.6263 118.056 44.6563 125.29 44.419Z" fill="#82B378"/>
<path d="M117.42 47.3483C117.42 47.3483 116.229 48.2309 116.144 49.8074L116.36 49.827C116.36 49.827 116.739 48.1967 117.426 47.5591C118.113 46.9215 117.42 47.3483 117.42 47.3483Z" fill="#82B378"/>
<path d="M114.915 45.992L114.609 46.6493L114.566 46.7432C114.434 47.0274 114.102 47.2212 113.688 47.3406V41.9521C113.989 42.0827 114.191 42.18 114.191 42.18C114.191 42.18 114.066 44.6383 114.466 44.5879C114.866 44.5376 114.466 42.4062 114.466 42.4062C115.216 42.6316 115.913 43.509 115.913 43.509C116.791 44.9387 114.915 45.992 114.915 45.992Z" fill="#A8D29F"/>
<path d="M115.415 47.8239V48.1995L115.397 48.1568C115.381 48.1184 115.364 48.0825 115.347 48.0467L115.335 48.0194C115.332 48.013 115.329 48.0064 115.326 47.9997C115.293 47.9272 115.251 47.8393 115.205 47.7437C115.017 47.3579 114.748 46.8568 114.568 46.751C114.586 46.7217 114.601 46.6901 114.611 46.6571C114.686 46.4352 114.741 45.83 113.689 44.9141V44.5881C114.295 45.0277 114.762 45.5074 114.917 45.9999C114.917 45.9999 114.892 46.8534 115.416 47.829L115.415 47.8239Z" fill="#82B378"/>
<path d="M115.415 47.8231C115.415 47.8231 116.225 49.0564 115.763 50.5544L115.555 50.4981C115.555 50.4981 115.757 48.8448 115.333 48.0125C114.91 47.1803 115.415 47.8231 115.415 47.8231Z" fill="#82B378"/>
<path d="M117.16 43.3093C117.16 43.3093 114.692 41.9206 115.841 40.0368C115.841 40.0368 116.765 38.8794 117.753 38.5857C117.753 38.5857 117.226 41.3956 117.753 41.4614C118.28 41.5271 118.116 38.2879 118.116 38.2879C118.116 38.2879 120.72 37.0314 121.741 37.1313C121.741 37.1313 120.124 39.8746 120.653 39.8089C121.183 39.7432 122.994 36.9657 122.994 36.9657C122.994 36.9657 125.664 36.4698 126.092 38.0565C126.52 39.6433 125.828 40.4371 125.433 40.5361C125.038 40.6351 122.499 40.6018 122.566 40.933C122.632 41.2642 124.345 41.7926 125.301 41.4947C125.301 41.4947 124.247 44.1065 122.862 43.97C121.477 43.8334 121.049 42.9781 120.192 42.9116C119.335 42.845 118.709 43.0772 119.138 43.3085C119.567 43.5398 121.016 43.3844 121.709 43.9742C122.402 44.564 122.961 44.9285 121.676 45.1931C120.39 45.4577 118.083 45.293 117.62 44.2994L117.16 43.3093Z" fill="#A8D29F"/>
<path d="M124.872 38.5491C124.872 38.5491 117.951 40.7973 117.16 43.3093C117.16 43.3093 117.193 44.4335 116.501 45.7232V46.2182C116.501 46.2182 117.226 44.5325 117.621 44.3012C117.62 44.2995 116.072 42.1195 124.872 38.5491Z" fill="#82B378"/>
<path d="M116.501 45.7231C116.501 45.7231 115.434 47.3449 116.042 49.3277L116.316 49.2534C116.316 49.2534 116.05 47.0735 116.608 45.9775C117.166 44.8815 116.501 45.7231 116.501 45.7231Z" fill="#82B378"/>
<path d="M132.097 50.5406C132.097 50.5406 135.756 35.5898 136.019 34.3333C136.137 33.7734 136.499 33.5711 136.864 33.519C136.222 33.4533 135.758 33.4482 135.758 33.4482C134.492 33.4482 133.367 34.3572 132.96 35.7075C132.074 38.654 128.641 43.5859 126.988 49.1186C127.067 49.1169 132.097 50.5406 132.097 50.5406Z" fill="#F99746"/>
<path d="M113.688 55.6321V52.8299C114.351 51.5444 115.022 50.3802 115.602 49.4677C115.687 49.3286 115.778 49.1946 115.862 49.0674C115.889 49.0256 115.916 48.9821 115.947 48.9454C116.058 48.7789 116.164 48.6244 116.264 48.4844C116.419 48.2676 116.56 48.0807 116.684 47.9288C116.866 47.7132 117.091 47.5387 117.345 47.4166L117.412 47.3842C117.513 47.3373 117.616 47.296 117.722 47.2604L117.756 47.2485C118.082 47.1455 118.418 47.0791 118.759 47.0505C119.548 46.9736 120.448 47.0342 121.34 47.1623C121.454 47.1785 121.568 47.1956 121.68 47.2144C122.174 47.2946 122.66 47.3936 123.117 47.4994H123.123C123.293 47.5376 123.456 47.5765 123.612 47.6164L123.648 47.6258L123.813 47.6676C124.058 47.7308 124.291 47.7939 124.506 47.8537C125.4 48.1097 125.993 48.318 125.993 48.318V48.4392L126.004 48.8907L126.01 49.1127L126.026 49.7639V49.7921V49.8826L126.046 50.4451V50.492L126.175 55.633L113.688 55.6321Z" fill="#F99746"/>
<path d="M130.941 50.3008C130.864 50.2632 130.752 50.2069 130.605 50.136L130.52 50.0959L130.258 49.9722C130.141 49.9175 130.014 49.8578 129.877 49.7955C129.687 49.7101 129.479 49.6145 129.255 49.5164L129.054 49.431L128.856 49.3456C128.596 49.2347 128.318 49.1186 128.027 49.0042C127.756 48.895 127.473 48.784 127.181 48.6756L127.135 48.6577C126.323 48.3555 125.448 48.0602 124.575 47.8289C124.302 47.7555 124.029 47.6872 123.758 47.6274L123.648 47.6027H123.642C123.472 47.5651 123.301 47.5315 123.131 47.502H123.126C122.689 47.4205 122.248 47.3655 121.804 47.3372C121.704 47.3312 121.604 47.327 121.506 47.3253C120.729 47.3073 120.037 47.4106 119.497 47.6872C119.13 47.8672 118.826 48.1532 118.623 48.5083C118.319 49.0717 118.044 49.6503 117.798 50.2419C117.053 52.0059 116.4 53.8077 115.841 55.6398H130.586L130.623 55.2224L130.697 54.397L131.059 50.3784V50.3597L130.941 50.3008Z" fill="#DB6F26"/>
<path d="M137.432 33.5037V55.6321H136.576C135.967 55.5468 135.361 55.452 134.771 55.3513C133.765 55.1806 132.814 54.9834 131.979 54.77C131.734 54.7077 131.499 54.6437 131.279 54.5771C131.145 54.537 131.016 54.4969 130.892 54.4559C130.823 54.4337 130.755 54.4107 130.69 54.3876C129.763 54.0624 129.159 53.7048 129.087 53.3258C129.02 52.9793 129.186 52.153 129.503 51.0306C129.559 50.8283 129.622 50.6141 129.69 50.3913C129.72 50.2897 129.753 50.1856 129.785 50.0797L129.823 49.9577L129.839 49.9065C129.85 49.8698 129.862 49.8331 129.873 49.7964C129.873 49.787 129.879 49.7776 129.882 49.769C129.958 49.5309 130.036 49.2876 130.118 49.0358C130.236 48.6782 130.36 48.3078 130.491 47.9262C130.662 47.4294 130.84 46.9165 131.028 46.3898L131.192 45.9306C131.388 45.3852 131.59 44.8312 131.795 44.2764C132.322 42.8501 132.868 41.417 133.376 40.1068C133.529 39.7124 133.677 39.3306 133.822 38.9613C133.922 38.7047 134.019 38.456 134.115 38.2153C134.392 37.5094 134.588 36.8325 134.772 36.2214C135.045 35.3072 135.292 34.5433 135.739 34.061C136.009 33.7663 136.376 33.578 136.772 33.5301L136.852 33.5207C136.941 33.511 137.031 33.5062 137.12 33.5062L137.432 33.5037Z" fill="#FFA969"/>
<path d="M134.772 55.3512L133.286 50.4399L133.261 50.3596C133.261 50.3596 133.091 50.3425 132.794 50.3152L132.166 50.2598C131.773 50.2265 131.287 50.1863 130.733 50.1445H130.685L130.609 50.1394C130.505 50.1309 130.398 50.1232 130.289 50.1164L130.141 50.1061L129.79 50.0814C128.952 50.0242 128.013 49.9678 127.031 49.9226L126.298 49.891L126.038 49.8816C125.451 49.8603 124.855 49.8432 124.263 49.8338C123.46 49.821 122.662 49.821 121.899 49.8381L121.718 49.8432C121.34 49.8535 120.97 49.868 120.612 49.8885C119.931 49.926 119.302 49.9832 118.74 50.0592C118.399 50.1087 118.079 50.1659 117.794 50.2299C117.146 50.3835 116.665 50.5884 116.419 50.8547C115.882 51.4334 115.493 53.2865 115.211 55.6278H134.861L134.772 55.3512Z" fill="#FFA969"/>
<path d="M129.279 40.7743C129.279 40.7743 128.438 41.0756 127.774 42.4259C127.11 43.7763 126.838 47.4107 126.507 47.4448C126.177 47.479 123.684 46.9925 123.684 46.9925L123.741 47.6164C123.741 47.6164 126.337 49.3491 126.879 49.0376C127.422 48.726 128.922 44.5274 129.016 43.8915C129.109 43.2556 129.279 40.7743 129.279 40.7743Z" fill="#FFB27D"/>
<path d="M135.076 40.3048C135.076 40.3048 131.701 39.587 129.279 40.7743C129.279 40.7743 127.728 44.1262 127.775 44.6947C127.823 45.2631 128.363 47.6326 127.873 48.5263C127.384 49.42 132.364 51.0101 133.261 50.4562C134.159 49.9022 135.223 40.9211 135.076 40.3048Z" fill="white"/>
<path d="M122.965 53.8593C122.736 54.3886 122.433 54.9895 122.094 55.633H117.505C118.031 52.8786 118.501 50.9615 118.736 50.061C118.836 49.6752 118.893 49.4755 118.893 49.4755C119.116 49.0794 119.385 48.86 119.677 48.7738C120.295 48.5954 121.019 49.0103 121.664 49.6155C121.739 49.6871 121.815 49.7614 121.888 49.8374C122.13 50.0894 122.355 50.3572 122.562 50.6389C123.024 51.262 123.343 51.874 123.388 52.1864C123.446 52.5577 123.273 53.1424 122.965 53.8593Z" fill="#2D185D"/>
<path d="M119.648 48.7882C119.648 48.7882 120.681 48.1907 123.027 48.7028C125.374 49.215 127.294 50.4364 127.294 50.4364L121.31 50.6856L119.648 48.7882Z" fill="#2D185D"/>
<path d="M134.142 40.2971C134.142 40.2971 135.639 40.0214 135.844 41.2446C136.049 42.4677 135.868 49.8484 134.721 50.2206C133.575 50.5927 128.87 48.5134 128.87 48.5134L129.012 47.7256C129.012 47.7256 133.513 48.3402 133.675 48.2719C133.838 48.2036 134.142 40.2971 134.142 40.2971Z" fill="#FFB27D"/>
<path d="M122.567 45.8606L122.354 43.8915L125.13 47.5618C125.13 47.5618 123.967 48.1422 123.899 48.0313L122.567 45.8606Z" fill="#B5453C"/>
<path d="M126.721 45.8605L129.285 49.7877H124.978L122.567 45.8605H126.721Z" fill="#B5453C"/>
<path d="M122.567 45.8606L122.366 43.9111L123.817 45.7309L122.567 45.8606Z" fill="white"/>
<path d="M129.154 49.5855L129.351 49.4446L126.803 45.6472L126.722 45.8605L129.154 49.5855Z" fill="#EFDECE"/>
<path d="M126.802 45.6472L122.745 45.7615L122.567 45.8605H126.721L126.802 45.6472Z" fill="#FCECDB"/>
<path d="M128.163 55.6321H123.573C123.35 54.998 123.147 54.4047 122.965 53.8585C122.502 52.4714 122.165 51.3831 121.951 50.6619C121.836 50.2778 121.756 50.0004 121.712 49.8399C121.682 49.7341 121.668 49.6795 121.668 49.6795C121.668 49.6573 121.668 49.6351 121.668 49.6129C121.675 49.1007 121.849 48.7593 122.133 48.5528C122.147 48.5417 122.162 48.5314 122.178 48.5212C122.643 48.2113 123.369 48.225 124.122 48.3957C124.78 48.5522 125.415 48.7919 126.013 49.1093C126.446 49.3397 126.779 49.5736 126.913 49.7477C126.923 49.7608 126.934 49.7745 126.944 49.7887C126.973 49.8311 126.999 49.875 127.024 49.9201C127.104 50.074 127.171 50.2342 127.225 50.399C127.225 50.4084 127.231 50.4178 127.235 50.4272L127.24 50.4417C127.495 51.2159 127.729 52.4484 127.93 53.8559C128.014 54.4235 128.088 55.0236 128.163 55.6321Z" fill="#45258F"/>
<path d="M122.179 48.5212C122.179 48.5212 123.956 46.9216 131.206 50.3666L125.249 50.4519L122.179 48.5212Z" fill="#45258F"/>
<path d="M129.016 47.7282C129.016 47.7282 128.356 47.2852 128.113 47.2502C127.828 47.2101 127.517 46.8499 127.551 47.0556C127.585 47.2613 127.898 47.5259 127.984 47.6121C128.071 47.6983 127.491 47.6829 127.258 47.5694C127.148 47.5156 126.563 47.3637 126.567 47.5745C126.567 47.7009 126.799 48.3086 127.376 48.4392C127.642 48.4998 128.922 48.5356 128.922 48.5356L129.016 47.7282Z" fill="#FFB27D"/>
<path d="M132.026 36.8736C132.026 36.8736 133.284 37.5641 132.314 38.9443C132.314 38.9443 133.407 39.1022 133.691 38.7932C133.668 38.8649 133.636 38.9335 133.596 38.9972C133.596 38.9972 134.662 38.8871 135.054 38.4945C135.445 38.1018 134.411 32.6954 131.549 33.7146C131.549 33.7146 129.027 33.8742 129.661 36.7379C130.296 39.6015 129.353 39.7338 129.353 39.7338C129.353 39.7338 129.633 39.8269 129.759 39.8098C129.759 39.8098 129.935 39.7134 129.957 39.6058C129.952 39.683 129.934 39.7587 129.902 39.8294C129.902 39.8294 130.933 39.7842 131.387 39.3284C131.842 38.8726 132.253 37.4463 132.026 36.8736Z" fill="#233862"/>
<path d="M132.47 38.31C132.47 38.31 133.151 37.3421 133.351 36.4937C133.491 35.8876 134.252 33.3978 131.965 33.6044C131.965 33.6044 130.348 33.8425 129.707 34.2292C129.197 34.5373 128.448 35.2201 129.14 37.2397L129.31 37.9225L132.47 38.31Z" fill="#233862"/>
<path d="M130.997 41.2172C131.167 41.3419 131.913 41.4955 132.511 41.1993C133.073 40.9202 133.33 40.3159 133.246 40.0692C133.162 39.8225 132.906 39.7389 132.617 38.2477L132.507 38.293L130.67 39.0467C130.67 39.0467 130.831 39.6441 130.942 40.21C131.037 40.6863 130.897 41.1413 130.997 41.2172Z" fill="#FFB27D"/>
<path d="M130.67 39.0467C130.67 39.0467 130.831 39.6441 130.942 40.2101C132.006 39.9702 132.381 38.8802 132.507 38.293L130.67 39.0467Z" fill="#ED975D"/>
<path d="M130.417 39.6544C130.417 39.6544 132.956 39.2012 132.65 37.6195C132.344 36.0379 132.466 34.9137 130.832 35.1365C129.198 35.3593 129.001 36.0242 128.974 36.5773C128.948 37.1304 129.749 39.7321 130.417 39.6544Z" fill="#FFB27D"/>
<path d="M129.732 34.7618C129.732 34.7618 130.982 36.8735 132.213 37.0161C133.445 37.1586 133.729 36.6183 133.729 36.6183C133.071 36.1835 132.584 35.5326 132.351 34.7772C132.351 34.7772 130.18 33.6932 129.732 34.7618Z" fill="#233862"/>
<path d="M129.948 34.9036C129.948 34.9036 129.438 35.4473 129.352 35.9176C129.267 36.3879 129.339 37.3225 129.065 37.3294C129.065 37.3294 128.286 36.0004 128.832 35.1101C129.412 34.1686 129.948 34.9036 129.948 34.9036Z" fill="#233862"/>
<path d="M129.85 34.9889C129.85 34.9889 130.701 37.0835 132.299 37.57C132.299 37.57 130.614 36.445 130.288 35.029C129.962 33.6129 129.85 34.9889 129.85 34.9889Z" fill="#233862"/>
<path d="M135.054 38.4893C134.663 38.8828 133.596 38.9929 133.596 38.9929C133.637 38.9292 133.669 38.8607 133.692 38.7889C133.133 39.2157 131.802 38.8572 131.802 38.8572C132.878 38.6506 132.575 37.0929 132.213 37.0161C132.034 35.8424 131.654 34.3769 131.476 33.7188C131.523 33.712 131.55 33.7102 131.55 33.7102C134.41 32.6911 135.447 38.0967 135.054 38.4893Z" fill="#233862"/>
<path d="M133.653 40.1666C133.653 40.1666 135.303 40.1922 135.737 40.549C136.17 40.9057 136.372 46.016 136.372 46.016C136.372 46.016 135.589 45.806 134.887 45.9673C134.185 46.1286 133.262 45.9673 133.262 45.9673L133.653 40.1666Z" fill="white"/>
<path d="M130.866 40.2587C130.866 40.2587 128.786 40.6769 128.313 41.2309C127.839 41.7848 126.882 44.5717 126.882 44.5717C126.882 44.5717 127.251 44.628 127.441 44.8858C127.631 45.1436 128.252 45.0215 128.252 45.0215L130.866 40.2587Z" fill="white"/>
<path d="M127.073 55.6321C127.358 55.0115 127.648 54.414 127.933 53.8524C128.501 52.7317 129.049 51.7561 129.503 51.0357C129.655 50.7916 129.798 50.5756 129.929 50.393C129.986 50.3076 130.041 50.235 130.093 50.1659C130.107 50.1463 130.123 50.1283 130.139 50.1096C130.147 50.0992 130.155 50.0892 130.164 50.0797C130.181 50.0582 130.2 50.0377 130.22 50.0182C130.232 50.0046 130.244 49.9909 130.258 49.9781C130.267 49.9681 130.277 49.9587 130.287 49.95C130.538 49.7185 130.836 49.5439 131.16 49.4378C131.571 49.304 131.997 49.2253 132.428 49.2039C132.892 49.1785 133.357 49.1864 133.819 49.2278C134.301 49.268 134.787 49.3371 135.256 49.4199C135.416 49.4489 135.575 49.4788 135.73 49.5112H135.739C136.375 49.641 136.961 49.7903 137.434 49.9226V55.6415L127.073 55.6321Z" fill="#F99746"/>
<path d="M130.472 55.632C130.521 55.492 130.57 55.352 130.62 55.2146C130.712 54.9586 130.804 54.7025 130.896 54.4575C131.156 53.7627 131.412 53.1226 131.648 52.5609C131.911 51.92 132.206 51.2933 132.534 50.6831C132.555 50.6464 132.576 50.6097 132.6 50.5747C132.658 50.4838 132.724 50.3981 132.797 50.3186C132.885 50.2209 132.983 50.1325 133.09 50.0549C133.265 49.927 133.456 49.8231 133.659 49.7459C134.163 49.5658 134.696 49.4791 135.232 49.4898C135.394 49.4898 135.561 49.495 135.731 49.5052H135.741C136.023 49.5223 136.312 49.5539 136.61 49.5974C136.66 49.6042 136.709 49.6119 136.759 49.6204L136.797 49.6264C137.007 49.6606 137.222 49.7007 137.436 49.7451V55.6346L130.472 55.632Z" fill="#ED7D2B"/>
<path d="M139.2 55.6219H138.665V22.3383H112.484V55.6219H111.95C111.309 55.6228 110.695 55.8788 110.242 56.3337C109.789 56.7885 109.535 57.405 109.535 58.0477V58.1331H141.621V58.0477C141.621 57.729 141.558 57.4133 141.437 57.1189C141.315 56.8244 141.137 56.5569 140.912 56.3316C140.687 56.1063 140.42 55.9276 140.127 55.8058C139.833 55.6841 139.518 55.6216 139.2 55.6219ZM113.705 23.5581H137.451V29.4476H113.705V23.5581ZM113.705 30.8184H137.451V55.6219H113.705V30.8184Z" fill="#8FB7EF"/>
<path d="M137.091 24.0864H114.133V25.2447H137.091V24.0864Z" fill="white"/>
<path d="M137.091 25.9053H114.133V27.0636H137.091V25.9053Z" fill="white"/>
<path d="M137.091 27.7242H114.133V28.8825H137.091V27.7242Z" fill="white"/>
<path d="M137.091 29.4271H114.133V30.5854H137.091V29.4271Z" fill="white"/>
<path d="M137.091 31.3425H114.133V32.5008H137.091V31.3425Z" fill="white"/>
<path d="M115.42 23.5409H115.198V33.4396H115.42V23.5409Z" fill="white"/>
<path d="M136.158 23.5409H135.936V33.4396H136.158V23.5409Z" fill="white"/>
<path d="M138.589 80.8325H113.626V114.115H138.589V80.8325Z" fill="#FFEAD7"/>
<path d="M126.592 81.4291C126.592 81.4291 126.651 91.2638 116.704 99.5774C116.704 99.5774 118.777 110.418 118.481 113.49H113.705V81.4291H126.592Z" fill="white"/>
<path d="M127.46 98.1869C127.12 98.2455 126.797 98.378 126.514 98.5749C126.231 98.7719 125.994 99.0287 125.82 99.3272C125.213 100.352 124.037 104.799 123.182 105.706C122.326 106.612 119.293 108.427 119.293 108.427L120.059 108.926C120.059 108.926 124.671 107.521 125.349 106.707C126.028 105.894 126.985 101.515 126.985 101.515L127.46 98.1869Z" fill="#FFB27D"/>
<path d="M128.479 91.9322C128.479 91.9322 128.538 90.4666 130.641 90.3761C132.744 90.2857 134.256 92.0636 134.325 93.0341C134.394 94.0046 133.965 95.5145 135.346 96.5166C136.727 97.5187 136.047 102.184 132.793 102.184C129.538 102.184 127.601 101.995 127.585 100.306C127.569 98.6181 127.52 97.0936 128.813 96.625C130.106 96.1564 128.479 91.9322 128.479 91.9322Z" fill="#233862"/>
<path d="M132.034 110.681L132.022 110.721L132.011 110.756C132.002 110.785 131.99 110.822 131.977 110.868C131.977 110.879 131.97 110.89 131.967 110.902C131.955 110.939 131.942 110.982 131.928 111.027L131.902 111.112C131.828 111.356 131.732 111.694 131.607 112.1C131.578 112.205 131.545 112.315 131.512 112.429L131.462 112.6C131.456 112.62 131.45 112.64 131.445 112.661C131.433 112.701 131.422 112.741 131.411 112.782C131.4 112.823 131.384 112.875 131.37 112.924L131.273 113.265C131.196 113.535 131.116 113.82 131.036 114.113H126.117C126.129 113.804 126.144 113.516 126.161 113.239C126.161 113.175 126.169 113.112 126.173 113.05C126.195 112.741 126.218 112.452 126.243 112.196C126.25 112.128 126.256 112.062 126.263 111.997C126.276 111.866 126.29 111.741 126.304 111.628L126.311 111.566L126.319 111.503C126.334 111.38 126.349 111.268 126.363 111.162C126.368 111.128 126.373 111.094 126.378 111.062C126.382 111.03 126.387 110.999 126.391 110.97C126.395 110.941 126.4 110.912 126.404 110.884C126.408 110.857 126.413 110.832 126.417 110.806C126.421 110.78 126.417 110.781 126.423 110.769C126.429 110.733 126.434 110.7 126.439 110.669C126.444 110.639 126.447 110.629 126.449 110.611C126.452 110.593 126.456 110.576 126.458 110.561C126.47 110.499 126.489 110.44 126.517 110.383C126.524 110.37 126.532 110.356 126.539 110.343C126.546 110.33 126.554 110.318 126.563 110.306C126.58 110.28 126.6 110.256 126.621 110.234L126.651 110.204C126.662 110.193 126.673 110.183 126.685 110.173L126.712 110.152C126.728 110.139 126.744 110.127 126.761 110.116L126.796 110.095C126.82 110.08 126.846 110.066 126.872 110.054L126.915 110.034L126.965 110.013L127.014 109.995L127.062 109.979C127.12 109.96 127.18 109.945 127.24 109.933L127.283 109.924C127.306 109.919 127.329 109.915 127.353 109.911L127.448 109.898L127.513 109.891L127.566 109.886L127.657 109.879L127.767 109.874C127.938 109.868 128.121 109.874 128.31 109.884L128.441 109.894L128.659 109.914C128.764 109.925 128.871 109.938 128.979 109.953H129.009L129.16 109.975C129.311 109.999 129.462 110.025 129.613 110.053L129.79 110.088L129.954 110.121C130.105 110.153 130.255 110.186 130.4 110.22L130.56 110.258L130.601 110.268L130.677 110.287L130.79 110.315L130.968 110.361L131.037 110.379L131.145 110.408C131.241 110.434 131.331 110.459 131.414 110.483L131.523 110.515L131.608 110.541H131.621L131.692 110.561L131.754 110.58L131.823 110.601L131.865 110.614L131.907 110.627L132.034 110.681Z" fill="#1C468A"/>
<path d="M132.034 110.681L132.022 110.721L132.011 110.756C132.002 110.785 131.99 110.822 131.977 110.868C131.977 110.879 131.97 110.89 131.967 110.902C131.955 110.939 131.942 110.982 131.928 111.027L131.902 111.112C131.828 111.356 131.732 111.694 131.607 112.1C131.578 112.205 131.545 112.315 131.512 112.429L131.462 112.6C131.456 112.62 131.45 112.64 131.445 112.661C131.433 112.701 131.422 112.741 131.411 112.782C131.4 112.823 131.384 112.875 131.37 112.924L131.273 113.265C131.196 113.535 131.116 113.82 131.036 114.113H126.117C126.129 113.804 126.144 113.516 126.161 113.239C126.161 113.175 126.169 113.112 126.173 113.05C126.195 112.741 126.218 112.452 126.243 112.196C126.25 112.128 126.256 112.062 126.263 111.997C126.276 111.866 126.29 111.741 126.304 111.628L126.311 111.566L126.319 111.503C126.334 111.38 126.349 111.268 126.363 111.162C126.368 111.128 126.373 111.094 126.378 111.062C126.382 111.03 126.387 110.999 126.391 110.97C126.395 110.941 126.4 110.912 126.404 110.884C126.408 110.857 126.413 110.832 126.417 110.806C126.421 110.78 126.417 110.781 126.423 110.769C126.429 110.733 126.434 110.7 126.439 110.669C126.444 110.639 126.447 110.629 126.449 110.611C126.452 110.593 126.456 110.576 126.458 110.561C126.47 110.499 126.489 110.44 126.517 110.383C126.524 110.37 126.532 110.356 126.539 110.343C126.546 110.33 126.554 110.318 126.563 110.306C126.58 110.28 126.6 110.256 126.621 110.234L126.651 110.204C126.662 110.193 126.673 110.183 126.685 110.173L126.712 110.152C126.728 110.139 126.744 110.127 126.761 110.116L126.796 110.095C126.82 110.08 126.846 110.066 126.872 110.054L126.915 110.034L126.965 110.013L127.014 109.995L127.062 109.979C127.12 109.96 127.18 109.945 127.24 109.933L127.283 109.924C127.306 109.919 127.329 109.915 127.353 109.911L127.448 109.898L127.513 109.891L127.566 109.886L127.657 109.879L127.767 109.874C127.938 109.868 128.121 109.874 128.31 109.884L128.441 109.894L128.659 109.914C128.764 109.925 128.871 109.938 128.979 109.953H129.009L129.16 109.975C129.311 109.999 129.462 110.025 129.613 110.053L129.79 110.088L129.954 110.121C130.105 110.153 130.255 110.186 130.4 110.22L130.56 110.258L130.601 110.268L130.677 110.287L130.79 110.315L130.968 110.361L131.037 110.379L131.145 110.408C131.241 110.434 131.331 110.459 131.414 110.483C131.453 110.494 131.488 110.505 131.523 110.515L131.608 110.541H131.621L131.692 110.561L131.754 110.58L131.823 110.601L131.865 110.614L131.907 110.627L132.034 110.681Z" fill="#163560"/>
<path d="M134.462 114.115H129.601C129.48 113.432 129.366 112.798 129.26 112.248C129.09 111.309 128.95 110.606 128.888 110.29L128.854 110.108C128.854 110.108 128.9 110.055 128.979 109.964C129.483 109.395 131.388 107.375 132.298 108.302C132.447 108.454 132.605 108.616 132.766 108.791C133.31 109.388 133.882 110.141 134.213 111.204C134.464 111.986 134.581 112.936 134.462 114.115Z" fill="#1C468A"/>
<path d="M128.479 98.8749L129.303 100.112L130.959 100.026L131.725 98.0426C131.725 98.0426 131.489 97.9974 131.379 95.5229L129.311 96.1563C129.374 96.6042 129.362 97.0594 129.274 97.5032C129.171 97.9965 128.948 98.5198 128.479 98.8749Z" fill="#FFB27D"/>
<path d="M128.25 98.0017C128.356 98.0017 130.304 97.3478 133.086 98.4848C133.086 98.4848 131.765 106.063 132.333 107.509C132.677 108.393 132.939 109.307 133.115 110.24L126.961 110.317C126.961 110.317 127.047 105.352 126.764 103.596C126.481 101.839 128.25 98.0017 128.25 98.0017Z" fill="#9ED16F"/>
<path d="M129.273 97.5066C130.125 97.4375 131.378 95.5264 131.378 95.5264L129.31 96.1597C129.373 96.6076 129.361 97.0629 129.273 97.5066Z" fill="#ED975D"/>
<path d="M128.468 97.9532C128.468 97.9532 126.483 98.1666 125.82 99.1021C125.157 100.038 124.734 101.44 124.734 101.44C124.734 101.44 125.208 102.865 126.592 102.687C127.976 102.509 128.468 97.9532 128.468 97.9532Z" fill="#9ED16F"/>
<path d="M128.964 96.7215C128.964 96.7215 131.489 96.6447 131.416 95.0691C131.344 93.4934 131.622 92.423 130.007 92.4034C128.392 92.3838 128.107 93.0009 128.003 93.5335C127.9 94.0661 128.306 96.7011 128.964 96.7215Z" fill="#FFB27D"/>
<path d="M129.158 92.2036C129.158 92.2036 129.236 92.726 130.23 93.4105C131.224 94.0951 131.396 95.6904 131.396 95.6904C131.396 95.6904 132.148 92.8583 131.248 92.2198C130.347 91.5813 129.158 92.2036 129.158 92.2036Z" fill="#233862"/>
<path d="M129.974 91.3109C129.974 91.3109 128.682 91.1879 127.761 92.6415C127.366 93.2681 127.676 94.2454 128.082 94.7592C128.082 94.7592 128.217 93.4225 128.922 92.9736C129.628 92.5246 129.974 91.3109 129.974 91.3109Z" fill="#233862"/>
<path d="M129.542 95.8031C129.542 95.8031 129.519 95.9968 129.046 96.0216C129.046 96.0216 128.65 96.0421 128.638 95.8329C128.638 95.8329 129.004 95.6409 129.542 95.8031Z" fill="white"/>
<path d="M121.341 106.301C121.341 106.301 120.676 105.522 121.301 105.027C121.301 105.027 121.757 104.75 122.129 104.771C122.129 104.771 121.602 105.657 121.772 105.745C121.942 105.833 122.289 104.715 122.289 104.715C122.289 104.715 123.327 104.614 123.662 104.775C123.662 104.775 122.774 105.504 122.961 105.543C123.148 105.582 124.107 104.871 124.107 104.871C124.107 104.871 125.073 105.036 125.022 105.628C124.971 106.219 124.637 106.402 124.491 106.386C124.344 106.369 123.488 106.044 123.469 106.162C123.451 106.28 123.966 106.674 124.327 106.694C124.327 106.694 123.646 107.447 123.193 107.231C122.739 107.014 122.702 106.668 122.419 106.538C122.136 106.409 121.896 106.409 122.012 106.538C122.129 106.667 122.639 106.794 122.801 107.085C122.963 107.375 123.108 107.564 122.639 107.493C122.17 107.423 121.409 107.079 121.376 106.685L121.341 106.301Z" fill="#82B378"/>
<path d="M124.547 105.649C124.547 105.649 121.922 105.548 121.342 106.301C121.229 106.585 121.05 106.837 120.819 107.037L120.758 107.207C120.758 107.207 121.212 106.726 121.376 106.695C121.376 106.694 121.121 105.762 124.547 105.649Z" fill="#82B378"/>
<path d="M120.819 107.036C120.645 107.178 120.502 107.355 120.398 107.555C120.294 107.756 120.233 107.975 120.217 108.2L120.32 108.209C120.32 108.209 120.499 107.441 120.824 107.136C121.15 106.83 120.819 107.036 120.819 107.036Z" fill="#82B378"/>
<path d="M119.015 105.321C119.015 105.321 120.074 104.724 119.579 103.919C119.579 103.919 119.185 103.424 118.761 103.296C118.761 103.296 118.986 104.5 118.761 104.528C118.535 104.556 118.605 103.168 118.605 103.168C118.605 103.168 117.49 102.63 117.052 102.673C117.052 102.673 117.744 103.848 117.518 103.82C117.293 103.792 116.516 102.602 116.516 102.602C116.516 102.602 115.372 102.389 115.188 103.069C115.004 103.75 115.301 104.089 115.47 104.131C115.64 104.174 116.727 104.159 116.699 104.302C116.671 104.445 115.933 104.671 115.527 104.543C115.527 104.543 115.979 105.662 116.572 105.605C117.164 105.549 117.349 105.179 117.716 105.152C118.082 105.126 118.351 105.223 118.168 105.323C117.984 105.423 117.362 105.355 117.066 105.608C116.77 105.861 116.53 106.017 117.081 106.13C117.631 106.244 118.619 106.172 118.817 105.748L119.015 105.321Z" fill="#A8D29F"/>
<path d="M115.71 103.28C115.71 103.28 118.675 104.243 119.015 105.319C119.025 105.682 119.121 106.036 119.296 106.353V106.565C119.296 106.565 118.986 105.843 118.816 105.744C118.816 105.746 119.48 104.811 115.71 103.28Z" fill="#82B378"/>
<path d="M119.297 106.353C119.433 106.583 119.521 106.839 119.554 107.105C119.588 107.371 119.567 107.641 119.493 107.898L119.376 107.866C119.376 107.866 119.49 106.932 119.251 106.462C119.012 105.993 119.297 106.353 119.297 106.353Z" fill="#82B378"/>
<path d="M120.699 104.501C120.699 104.501 119.303 103.716 119.954 102.653C119.954 102.653 120.476 101.999 121.034 101.831C121.034 101.831 120.736 103.417 121.034 103.452C121.332 103.487 121.239 101.66 121.239 101.66C121.239 101.66 122.709 100.951 123.286 101.007C123.286 101.007 122.374 102.556 122.672 102.519C122.97 102.481 123.993 100.913 123.993 100.913C123.993 100.913 125.502 100.633 125.743 101.529C125.985 102.426 125.594 102.874 125.371 102.93C125.147 102.986 123.714 102.967 123.753 103.154C123.793 103.341 124.759 103.639 125.298 103.471C125.298 103.471 124.702 104.946 123.921 104.871C123.14 104.796 122.9 104.311 122.413 104.274C121.926 104.236 121.576 104.368 121.817 104.498C122.059 104.629 122.879 104.541 123.269 104.875C123.66 105.208 123.976 105.413 123.25 105.562C122.525 105.712 121.222 105.618 120.961 105.058L120.699 104.501Z" fill="#A8D29F"/>
<path d="M125.055 101.812C125.055 101.812 121.146 103.082 120.699 104.501C120.686 104.979 120.559 105.448 120.327 105.866V106.146C120.327 106.146 120.737 105.194 120.959 105.063C120.959 105.061 120.088 103.828 125.055 101.812Z" fill="#82B378"/>
<path d="M120.327 105.864C120.327 105.864 119.724 106.781 120.072 107.9L120.227 107.858C120.227 107.858 120.077 106.626 120.392 106.007C120.707 105.388 120.327 105.864 120.327 105.864Z" fill="#82B378"/>
<path d="M123.387 107.581C123.387 108.308 123.099 109.005 122.586 109.52C122.073 110.034 121.378 110.323 120.652 110.323C119.927 110.323 119.232 110.034 118.719 109.52C118.206 109.005 117.918 108.308 117.918 107.581H123.387Z" fill="#1C468A"/>
<path d="M120.653 110.323C120.541 110.337 121.101 110.323 120.986 110.323C120.26 110.323 119.565 110.034 119.052 109.52C118.539 109.005 118.251 108.308 118.251 107.581H118.932C118.931 108.98 119.303 110.155 120.653 110.323Z" fill="#285BA5"/>
<path d="M123.425 110.463H117.88C117.88 110.372 117.916 110.286 117.98 110.222C118.043 110.157 118.13 110.122 118.22 110.122H123.09C123.179 110.123 123.264 110.16 123.327 110.224C123.39 110.287 123.425 110.373 123.425 110.463Z" fill="#163560"/>
<path d="M123.449 107.581H117.828V107.665H123.449V107.581Z" fill="#163560"/>
<path d="M123.558 108.603C123.497 108.457 122.903 108.313 122.667 108.21C122.667 108.21 122.517 108.319 122.718 108.497C122.772 108.545 122.873 108.619 122.969 108.687L122.884 108.664C122.672 108.607 121.303 109.075 121.14 109.38C120.978 109.684 121.926 110.445 122.634 110.206C122.998 110.083 124.185 109.865 124.185 109.865L123.987 108.901C123.987 108.901 123.621 108.749 123.558 108.603Z" fill="#FFB27D"/>
<path d="M134.111 99.5767C134.111 99.5767 134.392 101.534 132.357 104.437C130.322 107.34 130.441 107.521 129.274 108.292C128.107 109.062 124.184 109.867 124.184 109.867L123.985 108.904C123.985 108.904 127.791 106.45 128.156 105.965C128.521 105.48 130.964 100.03 130.964 100.03L134.111 99.5767Z" fill="#FFB27D"/>
<path d="M132.157 98.8495C132.157 98.8495 130.534 100.13 130.102 100.75C129.669 101.371 129.273 102.769 129.273 102.769C129.273 102.769 130.976 103.838 133.903 103.066C133.903 103.066 134.684 99.4308 133.885 98.9579C133.654 98.8201 133.395 98.7385 133.128 98.7197C132.86 98.7008 132.592 98.7453 132.345 98.8495H132.157Z" fill="#9ED16F"/>
<path d="M127.243 81.4291C127.243 81.4291 129.06 89.4824 137.448 92.3325C137.448 92.3325 137.368 104.744 136.42 108.011C135.473 111.277 135.237 113.49 135.237 113.49H137.449V81.4291H127.243Z" fill="white"/>
<path d="M139.2 113.494H138.664V80.2111H112.484V113.494H111.949C111.631 113.494 111.317 113.556 111.023 113.678C110.73 113.8 110.463 113.979 110.238 114.204C110.014 114.429 109.836 114.697 109.714 114.991C109.593 115.286 109.53 115.601 109.53 115.92V116.005H141.616V115.92C141.616 115.277 141.362 114.66 140.909 114.205C140.456 113.75 139.841 113.494 139.2 113.494ZM113.705 81.4291H137.45V87.3186H113.705V81.4291ZM113.705 88.6843H137.45V113.486H113.705V88.6843Z" fill="#8FB7EF"/>
<path d="M152.096 123.773H58.2998V136.649H152.096V123.773Z" fill="#77A4E5"/>
<path d="M80.5768 136.727C80.5768 136.727 78.8389 130.462 71.6184 128.362C64.3978 126.261 64.8634 127.31 58.3416 123.573C51.8198 119.835 41.5753 122.17 39.4749 125.207C37.3744 128.244 32.4875 129.88 25.7325 129.763C18.9775 129.646 18.6396 136.243 18.6396 136.243L80.5768 136.727Z" fill="#A8D29F"/>
<path opacity="0.5" d="M98.2979 80.8325H73.335V114.115H98.2979V80.8325Z" fill="white"/>
<path d="M97.6902 81.4429H73.9443V113.504H97.6902V81.4429Z" fill="#FFEAD7"/>
<path d="M83.6233 109.676C83.6233 109.676 82.2539 111.549 82.2539 113.505H91.5477C91.5477 113.505 91.0498 110.466 88.934 109.676C86.8182 108.885 83.6233 109.676 83.6233 109.676Z" fill="#233862"/>
<path d="M94.9968 99.5817C94.9968 99.5817 93.5346 103.311 93.3721 103.442C92.9329 103.797 90.2324 99.6611 89.8171 98.939C89.4018 98.2169 86.8384 98.8348 86.6205 97.4879C86.5532 97.0757 86.4171 96.6241 86.4154 96.3348C86.4154 96.3006 86.4154 96.2648 86.4154 96.2298C86.4184 95.9467 86.4374 95.664 86.4724 95.3831L86.3447 95.3933L84.1941 95.5597C84.3291 95.9263 84.3783 96.3191 84.3379 96.7078C84.3141 96.9126 84.3056 97.2976 84.28 97.674C84.2667 97.8786 84.1911 98.0742 84.0634 98.2343C83.9357 98.3945 83.7621 98.5114 83.566 98.5694C82.6443 98.8408 81.503 99.2522 81.3038 99.7644C80.9166 100.765 80.0451 105.283 79.8791 106.814C79.7131 108.345 78.165 112.84 78.165 112.84H78.9395C78.9395 112.84 81.8442 107.941 82.0885 107.175C82.1651 106.94 82.4417 106.003 82.7889 104.817C83.1123 106.106 83.5745 107.393 83.6741 107.916C83.8443 108.832 82.1719 111.787 82.3379 112.605C82.5038 113.424 91.3822 113.868 91.2614 112.605C91.1405 111.343 89.8886 109.206 89.6444 108.208C89.4563 107.455 89.892 104.94 90.0273 103.448C91.3831 105.002 93.2274 106.452 93.7933 106.154C95.2453 105.392 95.7023 99.7592 95.7023 99.7592L94.9968 99.5817Z" fill="#FFB27D"/>
<path d="M84.892 94.2264C84.892 94.2264 83.7354 95.1508 84.7124 96.4849C84.7124 96.4849 83.5788 96.4388 83.2945 96.1435C83.3185 96.2131 83.3514 96.2794 83.3924 96.3406C83.3924 96.3406 82.3439 96.2553 81.9524 95.8754C81.5609 95.4956 82.4741 90.1763 85.2988 91.1212C85.2988 91.1212 87.7754 91.2296 87.2078 94.0505C86.6401 96.8715 87.5669 96.9833 87.5669 96.9833C87.5669 96.9833 87.2937 97.0798 87.1695 97.0687C87.1695 97.0687 86.9993 96.9774 86.972 96.8724C86.9784 96.9481 86.998 97.022 87.0299 97.0909C87.0299 97.0909 86.018 97.0661 85.5635 96.6283C85.109 96.1904 84.6835 94.7974 84.892 94.2264Z" fill="#233862"/>
<path d="M83.8707 95.3897C83.8707 95.3897 83.3703 94.339 83.3217 93.4863C83.2877 92.8769 83.8528 90.7029 86.0298 91.2868C86.4683 91.4025 86.8754 91.6151 87.2213 91.909C87.663 92.2922 88.2732 93.0783 87.2681 94.9143L86.989 95.5417L83.8707 95.3897Z" fill="#233862"/>
<path d="M86.6204 97.4921C85.0672 97.2651 84.1914 95.6263 84.1914 95.6263C84.8246 95.5563 85.7081 95.8824 86.4162 96.234C86.4162 96.269 86.4162 96.3049 86.4162 96.339C86.417 96.6284 86.5166 97.0876 86.6204 97.4921Z" fill="#ED975D"/>
<path d="M86.6407 96.8709C86.6407 96.8709 83.8525 96.5833 84.0577 94.8446C84.2628 93.1059 84.0406 91.8981 85.8296 92.0073C87.6187 92.1166 87.8859 92.8216 87.9574 93.4191C88.0289 94.0166 87.371 96.9008 86.6407 96.8709Z" fill="#FFB27D"/>
<path d="M87.1015 92.1164C87.1015 92.1164 86.0973 94.0651 84.8888 94.2264C83.6803 94.3877 83.2139 94.013 83.2139 94.013C83.8521 93.5753 84.3187 92.9287 84.5339 92.1838C84.5339 92.1838 86.6411 91.0742 87.1015 92.1164Z" fill="#233862"/>
<path d="M86.8965 92.2598C86.8965 92.2598 87.4072 92.783 87.4974 93.2422C87.5876 93.7014 87.5374 94.6207 87.8063 94.6215C87.8063 94.6215 88.5451 93.3037 87.9927 92.4424C87.4072 91.5292 86.8965 92.2598 86.8965 92.2598Z" fill="#233862"/>
<path d="M86.9907 92.3409C86.9907 92.3409 86.1933 94.4124 84.6367 94.9194C84.6367 94.9194 86.2682 93.7842 86.561 92.3887C86.8537 90.9931 86.9907 92.3409 86.9907 92.3409Z" fill="#233862"/>
<path d="M94.9667 99.7918C94.9667 99.7918 94.9165 98.4645 95.0577 98.0087C95.199 97.5529 95.5037 96.8188 95.5684 96.8496C95.6331 96.8803 95.7735 97.8739 95.7165 98.0984C95.6595 98.3228 95.7752 98.8512 95.8637 98.7454C95.9522 98.6395 96.0901 97.9336 96.2042 97.9771C96.3182 98.0207 96.2118 98.4475 96.2671 98.555C96.3225 98.6626 96.319 98.9519 96.0969 99.3181C95.8748 99.6843 95.6552 100.103 95.6552 100.103L94.9667 99.7918Z" fill="#FFB27D"/>
<path d="M78.3329 112.84C78.3329 112.84 77.2112 112.571 76.8426 112.698C76.4741 112.825 75.8018 113.484 75.9754 113.495C76.149 113.507 76.9184 113.298 77.0273 113.325C77.1363 113.351 77.4529 113.393 77.4529 113.393C77.4529 113.393 76.9975 113.422 77.0188 113.506C77.0401 113.589 78.1984 113.603 78.3354 113.506C78.4724 113.408 78.9422 112.839 78.9422 112.839L78.3329 112.84Z" fill="#FFB27D"/>
<path d="M82.369 98.9876C82.369 98.9876 83.7759 100.195 85.5665 100.097C87.3572 99.9991 88.7683 98.5267 88.7683 98.5267C88.7683 98.5267 89.5836 98.5327 90.0117 98.9911C90.4398 99.4494 92.073 101.501 92.073 101.501C92.073 101.501 92.216 103.038 90.3819 104.117L90.1964 103.784C90.1964 103.784 89.8874 107.619 90.0815 107.98C90.2755 108.341 91.7964 112.114 91.547 112.693C91.2977 113.272 82.969 114.696 82.3418 112.6C81.7145 110.504 83.278 108.687 83.2167 107.938C83.1554 107.189 82.7912 104.811 82.7912 104.811C82.7912 104.811 80.3843 104.443 80.3018 103C80.3035 103.004 80.7281 98.9672 82.369 98.9876Z" fill="#45258F"/>
<path d="M99.4568 113.494H98.9223V80.2111H72.7414V113.494H72.2061C71.5649 113.494 70.9501 113.75 70.4969 114.205C70.0437 114.66 69.7891 115.277 69.7891 115.92V116.005H101.875V115.92C101.875 115.276 101.62 114.66 101.167 114.205C100.713 113.75 100.098 113.494 99.4568 113.494ZM73.9593 81.4291H97.7044V87.3186H73.9593V81.4291ZM73.9593 88.6843H97.7044V113.486H73.9593V88.6843Z" fill="#8FB7EF"/>
<path d="M97.3476 81.9584H74.3896V83.1166H97.3476V81.9584Z" fill="white"/>
<path d="M97.3476 83.7772H74.3896V84.9356H97.3476V83.7772Z" fill="white"/>
<path d="M97.3476 85.5961H74.3896V86.7544H97.3476V85.5961Z" fill="white"/>
<path d="M97.3476 87.2991H74.3896V88.4573H97.3476V87.2991Z" fill="white"/>
<path d="M97.3476 89.2144H74.3896V90.3727H97.3476V89.2144Z" fill="white"/>
<path d="M75.6773 81.4129H75.4551V91.3116H75.6773V81.4129Z" fill="white"/>
<path d="M96.4145 81.4129H96.1924V91.3116H96.4145V81.4129Z" fill="white"/>
<path d="M87.9414 111.369H91.3312C91.4579 111.369 91.5793 111.42 91.6689 111.51C91.7584 111.599 91.8087 111.721 91.8087 111.848V112.076C91.8087 112.206 91.7572 112.331 91.6656 112.423C91.574 112.514 91.4497 112.566 91.3202 112.566H87.9414V111.371V111.369Z" fill="#FCECDB"/>
<path d="M94.693 111.862V112.042C94.6931 112.111 94.6796 112.179 94.6534 112.243C94.6272 112.306 94.5887 112.364 94.5402 112.413C94.4916 112.461 94.434 112.5 94.3705 112.526C94.3071 112.553 94.239 112.566 94.1704 112.566H87.8375C87.8174 112.566 87.7981 112.558 87.7839 112.544C87.7697 112.53 87.7617 112.51 87.7617 112.49V112.464C87.7617 112.443 87.7697 112.424 87.7839 112.41C87.7981 112.396 87.8174 112.388 87.8375 112.388H91.698C91.7185 112.361 91.7367 112.332 91.7525 112.302C91.7895 112.232 91.8087 112.153 91.8086 112.074V111.845C91.8088 111.804 91.8037 111.763 91.7933 111.723C91.7772 111.658 91.7482 111.598 91.7082 111.545H87.8417C87.8317 111.545 87.8218 111.543 87.8125 111.539C87.8033 111.535 87.7949 111.53 87.7879 111.523C87.7808 111.515 87.7753 111.507 87.7715 111.498C87.7677 111.488 87.7659 111.478 87.766 111.468V111.442C87.766 111.422 87.774 111.402 87.7882 111.388C87.8024 111.374 87.8216 111.366 87.8417 111.366H94.2061C94.3129 111.366 94.4167 111.4 94.502 111.465C94.5872 111.529 94.6492 111.62 94.6785 111.723C94.6901 111.768 94.695 111.815 94.693 111.862Z" fill="#699DEE"/>
<path d="M94.6739 111.731H91.793C91.7768 111.666 91.7479 111.606 91.7079 111.553H87.8414C87.8314 111.553 87.8214 111.551 87.8122 111.547C87.8029 111.543 87.7946 111.538 87.7875 111.53C87.7805 111.523 87.7749 111.515 87.7712 111.505C87.7674 111.496 87.7655 111.486 87.7656 111.476V111.45C87.7656 111.44 87.7676 111.43 87.7714 111.421C87.7752 111.411 87.7808 111.403 87.7878 111.396C87.7949 111.389 87.8032 111.383 87.8124 111.38C87.8216 111.376 87.8314 111.374 87.8414 111.374H94.2058C94.3118 111.374 94.4147 111.41 94.4991 111.474C94.5835 111.538 94.6448 111.628 94.6739 111.731Z" fill="#548EE2"/>
<path d="M87.9414 111.968L88.4104 111.988L87.9414 112V111.968Z" fill="#F4D2B8"/>
<path d="M87.9414 112.155L89.0563 112.176L87.9414 112.188V112.155Z" fill="#F4D2B8"/>
<path d="M88.6634 113.494H92.2575V112.563H88.631C88.572 112.563 88.5135 112.574 88.4589 112.597C88.4043 112.619 88.3548 112.652 88.313 112.694C88.2713 112.736 88.2382 112.786 88.2156 112.841C88.1931 112.895 88.1815 112.954 88.1816 113.013C88.1815 113.077 88.1939 113.139 88.2181 113.198C88.2423 113.256 88.2778 113.31 88.3226 113.354C88.3674 113.399 88.4206 113.434 88.4791 113.458C88.5376 113.482 88.6002 113.494 88.6634 113.494Z" fill="#B5453C"/>
<path d="M96.1495 113.494H92.0559C91.9317 113.494 91.8126 113.444 91.7249 113.356C91.6371 113.268 91.5878 113.149 91.5878 113.025C91.5878 112.964 91.5996 112.904 91.6226 112.849C91.6456 112.793 91.6794 112.742 91.7219 112.7C91.7644 112.657 91.8149 112.623 91.8704 112.6C91.926 112.577 91.9855 112.565 92.0456 112.565H96.1504V113.497L96.1495 113.494Z" fill="#FCECDB"/>
<path d="M91.3141 113.494H96.292C96.3104 113.494 96.3279 113.486 96.3408 113.473C96.3537 113.46 96.3609 113.442 96.3609 113.424C96.3609 113.405 96.3537 113.388 96.3408 113.375C96.3278 113.362 96.3103 113.355 96.292 113.355H91.3141C91.2958 113.355 91.2782 113.362 91.2653 113.375C91.2524 113.388 91.2451 113.405 91.2451 113.424C91.2451 113.442 91.2524 113.46 91.2653 113.473C91.2782 113.486 91.2957 113.494 91.3141 113.494Z" fill="#B5453C"/>
<path d="M91.3141 112.702H96.292C96.3104 112.702 96.3279 112.694 96.3408 112.681C96.3537 112.668 96.3609 112.65 96.3609 112.632C96.3609 112.613 96.3537 112.596 96.3408 112.583C96.3278 112.57 96.3103 112.563 96.292 112.563H91.3141C91.2958 112.563 91.2782 112.57 91.2653 112.583C91.2524 112.596 91.2451 112.613 91.2451 112.632C91.2451 112.65 91.2524 112.668 91.2653 112.681C91.2782 112.694 91.2957 112.702 91.3141 112.702Z" fill="#B5453C"/>
<path d="M96.1499 113.028L95.5967 113.044L96.1499 113.053V113.028Z" fill="#F4D2B8"/>
<path d="M96.1497 112.814L94.834 112.83L96.1497 112.839V112.814Z" fill="#F4D2B8"/>
<path d="M94.8467 112.826C94.8821 112.853 94.9085 112.89 94.9224 112.932C94.9258 112.944 94.9278 112.957 94.9284 112.969C94.9284 113.054 94.9284 113.254 94.9284 113.254L95.0943 113.155L95.2645 113.254V112.986C95.2663 112.939 95.2519 112.892 95.2237 112.854C95.2185 112.846 95.2117 112.84 95.2037 112.835C95.1958 112.83 95.1869 112.827 95.1777 112.826H94.8467Z" fill="#699DEE"/>
<path d="M94.8467 112.826C94.8821 112.853 94.9085 112.89 94.9224 112.932H95.2561C95.2561 112.932 95.2424 112.838 95.1709 112.823L94.8467 112.826Z" fill="#568CDB"/>
<path d="M97.7803 22.9597H72.8174V56.2424H97.7803V22.9597Z" fill="#DFEBFD"/>
<path d="M84.8145 23.558C84.8145 23.558 84.7549 33.3936 94.7022 41.7072C94.7022 41.7072 92.6299 52.5474 92.926 55.6202H97.7048V23.558H84.8145Z" fill="white"/>
<path d="M75.9106 42.2227C75.9106 42.2227 73.8306 42.518 73.2944 42.9909C72.388 43.7856 73.0518 55.889 73.0518 55.889C73.0518 55.889 76.1821 56.1451 76.1821 55.889C76.1821 55.6329 75.9106 42.2227 75.9106 42.2227Z" fill="#D39E7A"/>
<path d="M84.0708 55.9078L79.5958 56.2407L76.4783 56.4728L75.8204 56.5223L75.7795 56.2407L75.7472 55.9931L75.7395 55.9377L75.577 54.8434L75.5149 54.4166L75.3217 53.0774L74.3421 46.2703L74.0689 44.3729C74.0689 44.3729 73.8612 42.5804 75.5208 42.2919L75.9029 42.2236H75.9089C76.4706 42.1229 77.1132 42.0068 77.7455 41.9257C78.2404 41.856 78.7395 41.8217 79.2392 41.8233C79.4237 41.8256 79.6079 41.8396 79.7907 41.8651C79.9904 41.8896 80.1855 41.9437 80.3694 42.0256C80.3882 42.0335 80.4064 42.0426 80.4239 42.0529C80.4846 42.0847 80.5417 42.123 80.5941 42.1673C80.6158 42.1852 80.6366 42.2043 80.6562 42.2245C80.7398 42.3306 80.8056 42.4497 80.8511 42.577C80.9311 42.7673 81.0214 43.0208 81.1175 43.3264C81.2529 43.7532 81.4026 44.2773 81.5601 44.8696C82.0018 46.5298 82.5082 48.7175 82.9499 50.7079C82.9635 50.7685 82.9771 50.8283 82.9899 50.888C83.0469 51.1441 83.1031 51.4002 83.1601 51.6451C83.1601 51.6571 83.1661 51.6682 83.1686 51.6801C83.1789 51.7262 83.1882 51.7723 83.1984 51.8184C83.2257 51.9413 83.252 52.0634 83.2784 52.1829C83.3295 52.421 83.3797 52.6532 83.4282 52.8768C83.7525 54.3876 83.9899 55.5339 84.0512 55.8335C84.0657 55.883 84.0708 55.9078 84.0708 55.9078Z" fill="#EFCBAB"/>
<path d="M81.2403 43.2828C81.2403 43.2828 81.9475 44.3327 82.3509 46.5392C82.7041 48.4716 83.0139 49.1852 83.5246 49.5812C84.0352 49.9773 86.877 51.1475 86.877 51.1475L86.6643 51.6468C86.6643 51.6468 82.4982 51.0784 82.0301 50.3793C81.562 49.6802 79.7781 45.555 79.9168 44.605C80.0556 43.655 81.2403 43.2828 81.2403 43.2828Z" fill="#F4A269"/>
<path d="M90.7844 56.2425H87.3452C87.2601 55.9011 87.1316 55.6817 86.8899 55.6689C86.6711 55.657 85.4873 55.7833 84.0541 55.8328C81.78 55.9122 78.8804 55.8004 78.2276 54.6472C78.0803 54.3879 77.9627 54.1127 77.877 53.8269C77.8642 53.7868 77.8531 53.7484 77.8421 53.7091C77.7227 53.2592 77.6787 52.7925 77.7119 52.3281C77.7266 52.1097 77.7571 51.8926 77.8029 51.6785C77.8557 51.4133 77.9362 51.1544 78.0429 50.9061L79.1664 51.7306L79.2923 51.8228C79.2923 51.8228 80.2566 51.7502 81.5834 51.6939C81.8779 51.6819 82.1894 51.67 82.5136 51.6606C82.6745 51.6555 82.8379 51.6521 83.003 51.6487C83.0558 51.6487 83.1094 51.6487 83.1622 51.6487C83.5639 51.6401 83.9749 51.6359 84.3843 51.6359H84.506H84.7954C86.3792 51.6512 87.8848 51.7554 88.649 52.0456C88.7455 52.0803 88.8382 52.125 88.9256 52.1787L88.9333 52.1838C89.4848 52.5423 90.1537 54.2307 90.7844 56.2425Z" fill="#2D185D"/>
<path d="M87.6286 56.2423H79.5953L76.4778 56.4745C76.3346 56.4097 76.1976 56.332 76.0684 56.2423C75.9631 56.1709 75.8666 56.0872 75.7808 55.9931L75.7357 55.9393C75.6863 55.8792 75.6435 55.814 75.608 55.7447C75.4631 55.4762 75.3967 55.172 75.4165 54.8673C75.4278 54.7111 75.461 54.5574 75.5152 54.4106C75.6548 54.0561 75.8661 53.7344 76.1357 53.4657C76.5963 53.0067 77.1255 52.6226 77.7042 52.3271H77.711C77.7961 52.3314 78.7323 52.3783 79.9749 52.4816L80.3391 52.5123C81.3077 52.5977 82.414 52.718 83.4285 52.8759C84.7366 53.0799 85.8898 53.3471 86.392 53.6936C86.786 53.9625 87.2116 54.9432 87.6286 56.2423Z" fill="#45258F"/>
<path d="M81.0804 39.4641C81.0808 39.4587 81.0808 39.4532 81.0804 39.4478C81.0804 39.3096 81.0711 39.1722 81.0617 39.0356C81.0363 38.6447 80.9845 38.256 80.9068 37.8722C80.8651 37.6682 80.8166 37.4778 80.7638 37.3046L80.7383 37.2269C80.6072 36.8351 80.4472 36.5441 80.2719 36.4322C79.9528 36.2206 79.5553 36.1762 79.277 36.1711C79.3416 36.1247 79.4169 36.0953 79.4957 36.0857C79.3255 36.0481 78.9281 36.1941 78.9281 36.1941C76.5885 35.105 75.9748 38.6276 75.9706 39.4547C75.9663 40.2818 75.9093 41.2309 74.6608 41.8899C74.1825 42.1459 73.8659 42.4481 73.6676 42.775C72.8463 44.1262 74.0267 45.858 74.0267 45.858C74.0267 45.858 74.1612 46.0288 74.345 46.2737C74.8208 46.9011 75.6633 48.0201 75.6633 48.0201C75.6633 47.869 75.7901 47.5754 76.0106 47.199C76.174 46.9224 76.3867 46.6015 76.6327 46.2601C76.7493 46.0979 76.8736 45.9315 77.0038 45.7624C77.174 45.5397 77.3587 45.3118 77.5485 45.0873C77.6208 45.0019 77.694 44.9166 77.768 44.8312C78.1025 44.448 78.4489 44.0784 78.7944 43.7566C78.8744 43.6815 78.9536 43.6089 79.0319 43.5389C79.1298 43.4536 79.2268 43.3682 79.3221 43.294C79.4911 43.1558 79.6688 43.0286 79.854 42.9133L79.8779 42.8988L79.9485 42.8569C80.0232 42.7601 80.089 42.6567 80.1451 42.548C80.1672 42.507 80.1894 42.4626 80.2089 42.4208C80.2702 42.2927 80.3238 42.1647 80.3706 42.0324C80.4636 41.77 80.5392 41.5016 80.597 41.2292C80.5571 41.5093 80.5003 41.7866 80.4268 42.0597C80.3912 42.1878 80.3491 42.314 80.3009 42.4379C80.2702 42.5147 80.2404 42.5795 80.2106 42.6376C80.1979 42.664 80.1843 42.6888 80.1715 42.7118L80.226 42.6649C80.2952 42.6028 80.3587 42.5345 80.4157 42.4609C80.4848 42.3679 80.5457 42.2691 80.5979 42.1656C80.9698 41.4827 81.1085 40.4585 81.0804 39.4641Z" fill="#5E2E0D"/>
<path d="M79.9074 42.367C79.8665 42.3491 79.8223 42.3312 79.7687 42.3124C79.7687 42.2057 79.7772 42.0922 79.7848 41.9761C79.8214 41.4478 79.8989 40.8904 79.8989 40.8904L78.1465 40.4184L78.0427 40.3911C78.016 40.9599 77.9011 41.5212 77.7022 42.0546C77.521 42.0632 77.4052 42.0734 77.4052 42.0734C77.3763 42.1793 77.4052 42.3448 77.5031 42.5284C77.4917 42.5562 77.482 42.5847 77.4742 42.6137C77.3652 43.1054 78.6001 43.8002 79.1763 43.8258C79.5116 43.8411 79.687 43.7071 79.784 43.5373C80.4751 43.3606 80.4197 42.5813 79.9074 42.367Z" fill="#FFB27D"/>
<path d="M79.8989 40.8904C79.8989 40.8904 79.8215 41.4477 79.7849 41.9761C78.7933 41.8813 78.3286 40.9373 78.1465 40.4183L79.8989 40.8904Z" fill="#F4A269"/>
<path d="M77.9767 40.2127C77.9767 40.2127 77.5104 39.3523 77.4329 38.6387C77.3767 38.1266 77.7572 36.2786 79.6099 36.6755C79.9831 36.7534 80.3341 36.9141 80.6372 37.1458C81.0253 37.4489 81.5734 38.0848 80.8074 39.6673L80.598 40.2024L77.9767 40.2127Z" fill="#5E2E0D"/>
<path d="M80.1983 41.4127C80.1983 41.4127 77.8442 41.2941 77.9404 39.8251C78.0365 38.3562 77.7974 37.3499 79.3021 37.3652C80.8068 37.3806 81.0638 37.9584 81.1506 38.4561C81.2374 38.9537 80.8127 41.4051 80.1983 41.4127Z" fill="#FFB27D"/>
<path d="M80.3781 37.4002C80.3781 37.4002 79.6197 39.0808 78.6146 39.2695C77.6094 39.4581 77.1992 39.1645 77.1992 39.1645C77.7136 38.7666 78.0745 38.2022 78.2205 37.5675C78.2205 37.5675 79.9465 36.5475 80.3781 37.4002Z" fill="#5E2E0D"/>
<path d="M80.208 37.5299C80.208 37.5299 80.6633 37.9464 80.7552 38.3288C80.8471 38.7112 80.8497 39.4837 81.0752 39.4726C81.0752 39.4726 81.6378 38.334 81.1365 37.6349C80.6054 36.8932 80.208 37.5299 80.208 37.5299Z" fill="#5E2E0D"/>
<path d="M82.556 51.9457C82.3653 52.1736 81.7704 52.2436 81.1347 52.3486C80.6351 52.4339 80.1134 52.5355 79.7364 52.7557C78.8853 53.2551 76.1159 54.9434 75.3031 54.8666C74.9882 54.8375 75.0478 54.2341 75.2376 53.4334C75.538 52.1702 76.1669 50.4153 76.1669 49.6522C76.1669 49.2356 76.3048 48.2498 76.4895 47.1231L76.5354 46.8482C76.8997 44.6571 77.4052 42.0743 77.4052 42.0743C77.4052 42.0743 77.9695 43.3077 79.0674 43.3077C80.1653 43.3077 79.9108 42.3688 79.9108 42.3688C79.9108 42.3688 80.9134 42.4866 81.15 42.7426C81.3866 42.9987 81.9875 44.1083 82.1066 44.4062C82.1066 44.4062 82.1304 44.7895 81.1832 44.9721C81.1832 44.9721 81.4138 46.0135 81.4385 46.7082C81.4589 47.2204 81.0896 48.8268 80.984 49.8254C80.9457 50.1788 80.9415 50.4562 80.9985 50.5826C81.0717 50.7439 81.3083 50.9043 81.5781 51.0623C82.1134 51.373 82.7798 51.6734 82.556 51.9457Z" fill="#9ED16F"/>
<path d="M81.5777 51.0604C82.1863 52.1 79.9292 52.4124 79.5556 52.6327C78.7045 53.132 76.1129 54.9432 75.3002 54.8664C74.9853 54.8374 75.0448 54.2339 75.2346 53.4333C75.5351 52.17 76.164 50.4151 76.164 49.6521C76.164 49.2355 76.3019 48.2497 76.4866 47.123L77.4645 46.1841C77.4645 46.1841 78.5121 48.9001 79.5113 49.3422C79.9864 49.5474 80.4792 49.7083 80.9837 49.8228C80.9454 50.1761 80.9411 50.4535 80.9982 50.5799C81.0713 50.742 81.3079 50.9025 81.5777 51.0604Z" fill="#69A037"/>
<path d="M84.8658 51.8175H81.7891V52.182H84.8658V51.8175Z" fill="#233862"/>
<path d="M84.2119 52.1325C84.2426 52.0113 87.04 47.6087 87.04 47.6087H93.2657L90.1431 52.0182L84.2119 52.1325Z" fill="#233862"/>
<path d="M84.4736 52.1821C84.5034 52.0617 87.3111 47.6044 87.3111 47.6044H93.2687L90.2984 52.1821H84.4736Z" fill="#2B478B"/>
<path d="M89.4021 50.0464C89.3686 50.1364 89.3099 50.2148 89.2331 50.2722C89.1562 50.3296 89.0645 50.3635 88.9689 50.3699C88.7901 50.3699 88.6957 50.2248 88.7569 50.0464C88.7905 49.9564 88.8492 49.878 88.926 49.8206C89.0029 49.7632 89.0946 49.7293 89.1902 49.7229C89.3689 49.7229 89.4634 49.868 89.4021 50.0464Z" fill="#AFCDFB"/>
<path d="M83.4787 50.6763C83.3502 50.6208 82.3561 50.8018 82.0719 50.8556C81.1723 50.6789 78.2122 50.0874 78.0676 49.8996C77.8973 49.6802 77.5271 42.9986 77.1016 42.8868C77.1016 42.8868 76.2658 42.3747 75.4573 43.3434C74.6488 44.3122 76.0318 51.2166 77.2292 51.5717C78.5603 51.9652 82.4038 51.5085 82.4038 51.5085C82.7195 51.6169 83.2719 51.6793 83.5647 51.7757C83.9519 51.9054 84.2958 51.7979 84.3817 51.6468C84.4677 51.4957 83.6294 50.7403 83.4787 50.6763Z" fill="#FFB27D"/>
<path d="M77.4025 42.0734C77.4025 42.0734 75.6858 42.2287 75.1897 42.7955C74.6935 43.3622 74.542 44.8969 74.542 44.8969C74.542 44.8969 76.0544 46.1218 77.8765 45.6463L77.4025 42.0734Z" fill="#9ED16F"/>
<path d="M84.1635 23.558C84.1635 23.558 82.3464 31.6139 73.96 34.4639C73.96 34.4639 74.04 46.8755 74.9872 50.142C75.9345 53.4086 76.1728 55.6219 76.1728 55.6219H73.96V23.558H84.1635Z" fill="white"/>
<path d="M69.7891 58.0477V58.1331H101.875V58.0477C101.875 57.4044 101.62 56.7873 101.166 56.3324C100.713 55.8775 100.097 55.6219 99.4559 55.6219H98.9214V22.3383H72.7414V55.6219H72.2061C71.5649 55.6224 70.9501 55.8781 70.4969 56.333C70.0437 56.7879 69.7891 57.4046 69.7891 58.0477ZM97.7044 29.4476H73.9593V23.5581H97.7044V29.4476ZM97.7044 55.6236H73.9593V30.8201H97.7044V55.6236Z" fill="#8FB7EF"/>
<path d="M93.668 53.2038C93.668 53.2038 94.5105 53.5452 95.1097 52.6848C95.1097 52.6848 94.1378 52.5193 93.668 53.2038Z" fill="#6BB7BF"/>
<path d="M93.6081 52.8504C93.5852 52.7588 93.5318 52.6778 93.4567 52.6208C93.3817 52.5638 93.2894 52.5343 93.1953 52.5371C93.1953 52.5371 93.3289 52.8436 93.6081 52.8504Z" fill="#6BB7BF"/>
<path d="M93.79 51.0819C93.9157 51.0888 94.04 51.0523 94.1422 50.9785C94.2444 50.9048 94.3183 50.7982 94.3517 50.6765C94.3517 50.6765 93.9058 50.726 93.79 51.0819Z" fill="#6BB7BF"/>
<path d="M94.7572 45.1418C93.9324 44.9643 93.918 44.2883 93.918 44.2883C94.89 44.5955 94.7572 45.1418 94.7572 45.1418Z" fill="#6BB7BF"/>
<path d="M94.8115 44.9873C94.8115 44.9873 95.3222 45.1973 95.6924 44.6706C95.6941 44.6706 95.1001 44.5699 94.8115 44.9873Z" fill="#6BB7BF"/>
<path d="M93.6845 55.1882L93.5781 55.3111C93.5746 55.3154 93.5698 55.3185 93.5644 55.3199C93.5591 55.3214 93.5534 55.3211 93.5482 55.3191C93.543 55.3171 93.5386 55.3135 93.5356 55.3089C93.5325 55.3042 93.531 55.2987 93.5313 55.2932C93.5374 52.4727 93.8109 49.6593 94.3483 46.8908C94.7526 44.8977 95.1619 43.7198 95.1662 43.7087C95.1619 43.7198 94.7926 44.9174 94.3892 46.9036C94.0189 48.7328 93.5943 51.1227 93.7015 55.1412C93.7019 55.1585 93.6959 55.1753 93.6845 55.1882Z" fill="#6BB7BF"/>
<path d="M95.1596 43.2334C95.0277 43.3401 94.5238 43.7916 95.0132 44.1398C95.0132 44.1398 95.3868 44.2593 95.5111 43.9691C95.5836 43.7865 95.6267 43.5935 95.6388 43.3973C95.6395 43.3843 95.635 43.3715 95.6264 43.3618C95.6178 43.352 95.6058 43.3461 95.5928 43.3452C95.5567 43.3416 95.5212 43.3333 95.4873 43.3205C95.4405 43.3025 95.4175 43.2351 95.3545 43.2172C95.3139 43.2055 95.2716 43.2009 95.2294 43.2035C95.2036 43.2059 95.1792 43.2164 95.1596 43.2334Z" fill="#F99746"/>
<path d="M94.8789 44.0144C94.9223 44.0519 94.9543 44.101 94.971 44.156C94.9877 44.211 94.9885 44.2697 94.9734 44.3251V44.3968C94.988 44.3425 95.0161 44.2928 95.0549 44.2523C95.0937 44.2117 95.142 44.1816 95.1955 44.1646C95.1348 44.1654 95.0747 44.1523 95.0199 44.1263C94.965 44.1003 94.9168 44.062 94.8789 44.0144Z" fill="#6BB7BF"/>
<path d="M94.7571 45.1418C93.9324 44.9643 93.918 44.2883 93.918 44.2883C93.918 44.2883 94.5716 44.6476 94.7571 45.1418Z" fill="#8AD8DB"/>
<path d="M93.9639 44.6785C93.9639 44.6785 93.4447 44.8774 93.0898 44.3439C93.0898 44.3439 93.6856 44.2552 93.9639 44.6785Z" fill="#6BB7BF"/>
<path d="M94.8895 54.8998L94.9934 55.0252C94.9968 55.0295 95.0015 55.0325 95.0068 55.034C95.0121 55.0354 95.0177 55.0352 95.0228 55.0333C95.028 55.0315 95.0324 55.028 95.0355 55.0235C95.0386 55.019 95.0402 55.0136 95.0402 55.0082C95.0909 52.1879 94.8735 49.3693 94.3908 46.5904C94.0265 44.5905 93.641 43.4041 93.6367 43.3922C93.6367 43.4041 93.9865 44.6085 94.3491 46.6024C94.6836 48.4384 95.0597 50.8368 94.8725 54.8528C94.8721 54.87 94.8782 54.8868 94.8895 54.8998Z" fill="#6BB7BF"/>
<path d="M93.6526 42.9174C93.782 43.0267 94.2773 43.4885 93.7811 43.8274C93.7811 43.8274 93.405 43.9383 93.2867 43.6464C93.2177 43.4627 93.1786 43.269 93.1709 43.0728C93.1705 43.0597 93.1751 43.047 93.1838 43.0373C93.1926 43.0275 93.2047 43.0216 93.2177 43.0207C93.254 43.0184 93.2898 43.0113 93.3241 42.9994C93.3701 42.9823 93.3956 42.914 93.4586 42.8978C93.4994 42.8871 93.5416 42.8833 93.5837 42.8867C93.6092 42.8899 93.6332 42.9006 93.6526 42.9174Z" fill="#F99746"/>
<path d="M93.9179 43.702C93.8737 43.7388 93.8407 43.7874 93.8229 43.8423C93.8052 43.8971 93.8033 43.9559 93.8175 44.0118V44.0827C93.804 44.028 93.777 43.9777 93.7389 43.9363C93.7008 43.895 93.6529 43.864 93.5996 43.8462C93.6601 43.8481 93.7202 43.836 93.7754 43.811C93.8306 43.786 93.8793 43.7487 93.9179 43.702Z" fill="#6BB7BF"/>
<path d="M94.1836 44.0681C94.1836 44.0681 94.7317 44.1603 94.9743 43.5662C94.9743 43.5662 94.3725 43.5978 94.1836 44.0681Z" fill="#6BB7BF"/>
<path d="M95.2993 54.2707L95.2227 54.4141C95.22 54.4189 95.2159 54.4227 95.211 54.4252C95.2062 54.4276 95.2007 54.4285 95.1952 54.4278C95.1898 54.4271 95.1847 54.4247 95.1807 54.421C95.1766 54.4174 95.1737 54.4126 95.1724 54.4072C94.5656 51.6528 94.2211 48.8468 94.1435 46.027C94.1043 43.9947 94.2482 42.7554 94.2499 42.7426C94.2499 42.7554 94.1477 44.0041 94.1869 46.0313C94.2226 47.8972 94.3281 50.3221 95.3061 54.2254C95.3091 54.2409 95.3067 54.2569 95.2993 54.2707Z" fill="#6BB7BF"/>
<path d="M94.1406 42.2808C94.035 42.4131 93.6419 42.9636 94.1942 43.1975C94.1942 43.1975 94.5857 43.2317 94.6435 42.9227C94.6746 42.7287 94.6746 42.5311 94.6435 42.3371C94.6426 42.3307 94.6404 42.3245 94.637 42.3189C94.6337 42.3133 94.6293 42.3084 94.6241 42.3045C94.6189 42.3006 94.6129 42.2978 94.6066 42.2962C94.6003 42.2947 94.5938 42.2943 94.5874 42.2953C94.5515 42.3005 94.5151 42.3005 94.4793 42.2953C94.4299 42.2876 94.3942 42.2245 94.3269 42.2228C94.2851 42.2203 94.243 42.2249 94.2027 42.2364C94.1783 42.2452 94.1568 42.2606 94.1406 42.2808Z" fill="#F99746"/>
<path d="M94.0371 43.1045C94.0878 43.1317 94.1297 43.1728 94.158 43.2229C94.1863 43.2731 94.1999 43.3303 94.1971 43.3879L94.2107 43.4579C94.2135 43.4012 94.2306 43.3462 94.2604 43.298C94.2902 43.2498 94.3316 43.2099 94.3809 43.1822C94.3215 43.1969 94.2596 43.1975 94.1999 43.184C94.1402 43.1705 94.0845 43.1433 94.0371 43.1045Z" fill="#6BB7BF"/>
<path d="M94.6357 43.4571C94.6357 43.4571 94.6357 43.0218 95.0094 42.8852C95.0094 42.8852 95.0919 43.2479 94.6357 43.4571Z" fill="#6BB7BF"/>
<path d="M93.7585 42.7579C93.7585 42.7579 93.7696 42.4259 93.4631 42.3312C93.4631 42.3303 93.389 42.6393 93.7585 42.7579Z" fill="#ED9F4A"/>
<path d="M94.7623 44.7544C94.7734 44.7638 94.9215 44.4318 94.6193 44.1647C94.6193 44.1647 94.4933 44.5206 94.7623 44.7544Z" fill="#ED9F4A"/>
<path d="M94.975 44.7262C94.972 44.681 94.9862 44.6362 95.0148 44.6011C95.0434 44.5659 95.0842 44.5429 95.129 44.5367C95.129 44.5367 95.1563 44.6784 94.975 44.7262Z" fill="#6BB7BF"/>
<path d="M93.4082 44.1646C93.4082 44.1646 93.2763 43.8889 92.8516 43.9367C92.8533 43.9367 92.9154 44.232 93.4082 44.1646Z" fill="#6BB7BF"/>
<path d="M95.7529 55.5963H93.0294C92.9867 55.5962 92.9445 55.5869 92.9056 55.5691C92.8667 55.5513 92.8321 55.5254 92.804 55.493C92.776 55.4607 92.7552 55.4227 92.7429 55.3816C92.7307 55.3406 92.7274 55.2973 92.7333 55.2549L93.9988 46.5059C94.0044 46.4665 94.024 46.4304 94.0541 46.4044C94.0841 46.3783 94.1225 46.3641 94.1623 46.3643H94.5665C94.6081 46.3652 94.648 46.3809 94.6792 46.4086C94.7103 46.4362 94.7307 46.4741 94.7367 46.5153L96.0321 55.2634C96.0379 55.304 96.035 55.3454 96.0237 55.3849C96.0125 55.4244 95.993 55.461 95.9667 55.4924C95.9403 55.5238 95.9077 55.5493 95.8709 55.5672C95.834 55.5851 95.7938 55.595 95.7529 55.5963Z" fill="#F99746"/>
<path d="M93.6363 55.3317L94.3078 46.3634C94.2724 46.3688 94.2397 46.3852 94.2141 46.4104C94.1886 46.4355 94.1717 46.468 94.1656 46.5034L92.9001 55.2523C92.8944 55.2949 92.8979 55.3381 92.9102 55.3792C92.9225 55.4203 92.9434 55.4582 92.9715 55.4905C92.9996 55.5229 93.0343 55.5488 93.0732 55.5666C93.1121 55.5844 93.1544 55.5937 93.1971 55.5938H93.741C93.7047 55.5611 93.6763 55.5204 93.6582 55.475C93.64 55.4295 93.6325 55.3805 93.6363 55.3317Z" fill="#FFB278"/>
<path d="M48.4102 45.6464C48.4102 45.2971 48.5134 44.9557 48.7069 44.6652C48.9004 44.3748 49.1754 44.1485 49.4972 44.0148C49.8189 43.8811 50.173 43.8462 50.5146 43.9143C50.8562 43.9824 51.1699 44.1506 51.4162 44.3976C51.6625 44.6446 51.8302 44.9593 51.8981 45.3018C51.9661 45.6444 51.9312 45.9995 51.7979 46.3222C51.6646 46.6449 51.4389 46.9207 51.1494 47.1147C50.8598 47.3088 50.5193 47.4124 50.1711 47.4124C49.7041 47.4121 49.2563 47.226 48.9262 46.8949C48.596 46.5637 48.4104 46.1147 48.4102 45.6464Z" fill="#45258F"/>
<path d="M22.9863 80.2111C22.9863 79.8618 23.0896 79.5204 23.2831 79.23C23.4766 78.9396 23.7516 78.7132 24.0734 78.5796C24.3951 78.4459 24.7492 78.4109 25.0907 78.4791C25.4323 78.5472 25.7461 78.7154 25.9923 78.9624C26.2386 79.2093 26.4063 79.524 26.4743 79.8666C26.5422 80.2091 26.5073 80.5642 26.3741 80.8869C26.2408 81.2096 26.0151 81.4854 25.7255 81.6794C25.4359 81.8735 25.0955 81.9771 24.7472 81.9771C24.2802 81.9771 23.8323 81.791 23.5021 81.4598C23.1718 81.1286 22.9863 80.6795 22.9863 80.2111Z" fill="#45258F"/>
<path d="M14.7285 33.4396C14.7285 33.2033 14.7984 32.9722 14.9293 32.7757C15.0602 32.5792 15.2463 32.426 15.4641 32.3356C15.6818 32.2451 15.9213 32.2215 16.1525 32.2676C16.3836 32.3137 16.5959 32.4275 16.7625 32.5946C16.9292 32.7618 17.0427 32.9747 17.0886 33.2065C17.1346 33.4383 17.111 33.6786 17.0208 33.8969C16.9307 34.1153 16.7779 34.3019 16.582 34.4332C16.3861 34.5645 16.1557 34.6346 15.92 34.6346C15.604 34.6346 15.301 34.5087 15.0775 34.2846C14.854 34.0605 14.7285 33.7565 14.7285 33.4396Z" fill="#45258F"/>
<path d="M156.085 0.00979101L54.0586 3.69031L54.3098 10.6952L156.337 7.01467L156.085 0.00979101Z" fill="#AFCDFB"/>
<path d="M100.909 14.559H70.8271V21.011H100.909V14.559Z" fill="#AFCDFB"/>
<path d="M140.601 14.559H110.519V21.011H140.601V14.559Z" fill="#AFCDFB"/>
<path d="M100.909 71.2777H70.8271V77.7297H100.909V71.2777Z" fill="#AFCDFB"/>
<path d="M140.601 71.2777H110.519V77.7297H140.601V71.2777Z" fill="#AFCDFB"/>
</svg>
