<svg width="167" height="147" viewBox="0 0 167 147" fill="none" xmlns="http://www.w3.org/2000/svg">
<path d="M115.86 168.833L89.7024 179.37L57.3227 98.5318L79.4335 89.6285C79.9649 89.4145 80.5332 89.3075 81.1059 89.3137C81.6786 89.32 82.2445 89.4392 82.7712 89.6647C83.298 89.8902 83.7752 90.2176 84.1758 90.628C84.5763 91.0385 84.8923 91.524 85.1056 92.0569L115.86 168.833Z" fill="#3797DB"/>
<path d="M118.946 165.833L68.8604 174.732L56.3801 104.127L106.466 95.2274L118.946 165.833Z" fill="#D1EAF2"/>
<path d="M93.8987 105.207L71.5332 109.181L71.4442 108.678L93.8097 104.703L93.8987 105.207Z" fill="#55769F"/>
<path d="M97.9706 104.436L66.3574 109.934L66.2707 109.433L97.8839 103.935L97.9706 104.436Z" fill="#55769F"/>
<path d="M102.921 109.056L64.3848 115.904L64.2957 115.4L102.832 108.552L102.921 109.056Z" fill="#55769F"/>
<path d="M103.348 111.477L64.8115 118.325L64.7225 117.821L103.259 110.974L103.348 111.477Z" fill="#55769F"/>
<path d="M104.205 116.321L65.668 123.168L65.5789 122.665L104.116 115.817L104.205 116.321Z" fill="#55769F"/>
<path d="M104.633 118.742L66.0967 125.589L66.0077 125.086L104.544 118.238L104.633 118.742Z" fill="#55769F"/>
<path d="M105.062 121.164L66.5254 128.011L66.4364 127.508L104.973 120.66L105.062 121.164Z" fill="#55769F"/>
<path d="M106.946 131.814L68.4092 138.662L68.3202 138.158L106.857 131.31L106.946 131.814Z" fill="#55769F"/>
<path d="M107.388 134.324L68.8516 141.172L68.7625 140.668L107.299 133.82L107.388 134.324Z" fill="#55769F"/>
<path d="M107.834 136.835L69.2969 143.682L69.2079 143.179L107.745 136.331L107.834 136.835Z" fill="#55769F"/>
<path d="M108.278 139.345L69.7412 146.193L69.6522 145.689L108.189 138.842L108.278 139.345Z" fill="#55769F"/>
<path d="M108.72 141.856L70.1836 148.704L70.0946 148.2L108.631 141.353L108.72 141.856Z" fill="#55769F"/>
<path d="M109.165 144.368L70.6279 151.216L70.5389 150.713L109.076 143.865L109.165 144.368Z" fill="#55769F"/>
<path d="M109.61 146.879L71.0732 153.727L70.9842 153.223L109.521 146.375L109.61 146.879Z" fill="#55769F"/>
<path d="M118.457 163.399L69.1172 176.149L51.238 106.594L100.578 93.8444L118.457 163.399Z" fill="#E1F9FF"/>
<path d="M87.5419 104.446L65.5752 110.241L65.4454 109.746L87.4121 103.952L87.5419 104.446Z" fill="#7772D6"/>
<path d="M91.8283 101.973L60.6318 110.202L60.502 109.707L91.6985 101.478L91.8283 101.973Z" fill="#7772D6"/>
<path d="M96.8473 107.541L58.998 117.525L58.8683 117.03L96.7175 107.046L96.8473 107.541Z" fill="#7772D6"/>
<path d="M97.4714 109.919L59.6221 119.903L59.4923 119.408L97.3416 109.424L97.4714 109.919Z" fill="#7772D6"/>
<path d="M98.7203 114.676L60.8711 124.66L60.7413 124.165L98.5905 114.181L98.7203 114.676Z" fill="#7772D6"/>
<path d="M99.3443 117.054L61.4951 127.038L61.3653 126.544L99.2145 116.56L99.3443 117.054Z" fill="#7772D6"/>
<path d="M99.9684 119.431L62.1191 129.415L61.9893 128.921L99.8386 118.937L99.9684 119.431Z" fill="#7772D6"/>
<path d="M102.714 129.892L64.8652 139.876L64.7354 139.382L102.585 129.398L102.714 129.892Z" fill="#7772D6"/>
<path d="M103.362 132.357L65.5127 142.341L65.3829 141.846L103.232 131.862L103.362 132.357Z" fill="#7772D6"/>
<path d="M105.176 135.259L67.2129 145.069L67.0854 144.573L105.048 134.763L105.176 135.259Z" fill="#7772D6"/>
<path d="M104.659 137.29L66.8096 147.274L66.6798 146.779L104.529 136.795L104.659 137.29Z" fill="#55769F"/>
<path d="M105.304 139.755L67.4551 149.739L67.3253 149.244L105.175 139.26L105.304 139.755Z" fill="#55769F"/>
<path d="M105.954 142.223L68.1045 152.207L67.9747 151.712L105.824 141.728L105.954 142.223Z" fill="#55769F"/>
<path d="M106.6 144.687L68.751 154.671L68.6212 154.176L106.47 144.192L106.6 144.687Z" fill="#55769F"/>
<path d="M105.935 172.829L53.274 194.034L22.5589 117.353L66.8115 89.9826C67.3958 89.6213 68.0517 89.3924 68.7335 89.3118C69.4152 89.2313 70.1063 89.3011 70.7583 89.5163C71.4103 89.7316 72.0075 90.0871 72.5081 90.558C73.0088 91.0289 73.4007 91.6038 73.6566 92.2424L105.935 172.829Z" fill="#62BDF3"/>
<path d="M189.258 120.185H192.86C192.232 119.759 191.49 119.534 190.732 119.539H100.516C95.7961 119.539 91.9694 122.939 91.9694 127.135V131.952C91.9694 136.147 95.7961 139.549 100.516 139.549L189.723 139.52L189.258 120.185Z" fill="#7772D6"/>
<path d="M99.5366 131.959V127.142C99.5366 122.946 103.363 119.546 108.083 119.546H106.146C101.426 119.546 97.6007 122.946 97.6007 127.142V131.959C97.6007 136.154 101.426 139.556 106.146 139.556H108.058C103.351 139.542 99.5366 136.147 99.5366 131.959Z" fill="#D1EAF2"/>
<path d="M120.666 131.959V127.142C120.666 122.946 124.492 119.546 129.213 119.546H127.276C122.554 119.546 118.729 122.946 118.729 127.142V131.959C118.729 136.154 122.554 139.556 127.276 139.556H129.186C124.479 139.542 120.666 136.147 120.666 131.959Z" fill="#D1EAF2"/>
<path d="M138.042 119.557C133.527 119.557 129.869 122.809 129.869 126.82V132.273C129.869 136.284 133.527 139.537 138.042 139.537H194.203V138.318H193.971L179.699 137.116L176.813 127.057C176.813 127.057 182.384 121.497 182.748 121.353C183.113 121.208 193.978 120.774 193.978 120.774H194.21V119.562L138.042 119.557Z" fill="#45258F"/>
<path d="M190.561 129.511C190.561 123.628 193.98 120.776 193.98 120.776H139.192C135.046 120.776 131.684 123.764 131.684 127.449V131.646C131.684 135.329 135.046 138.318 139.192 138.318H193.98C193.98 138.318 190.561 136.919 190.561 129.511Z" fill="#D1EAF2"/>
<g style="mix-blend-mode:multiply">
<path d="M131.684 127.449V131.646C131.685 132.187 131.761 132.725 131.907 133.245C133.744 129.227 137.293 125.356 144.035 124.114C159.775 121.208 193.98 120.777 193.98 120.777H139.192C135.046 120.776 131.684 123.764 131.684 127.449Z" fill="#DAEEF7"/>
</g>
<path d="M74.296 140.145H70.2178C70.9465 139.719 71.7763 139.498 72.62 139.504H174.774C180.119 139.504 184.451 142.881 184.451 147.048V151.84C184.451 156.007 180.119 159.385 174.774 159.385L73.7703 159.358L74.296 140.145Z" fill="#9ED16F"/>
<path d="M132.287 139.522C137.398 139.522 141.541 142.752 141.541 146.736V152.151C141.541 156.137 137.398 159.366 132.287 159.366H68.6971V158.156H68.9599L85.1258 156.961L88.3929 146.969C88.3929 146.969 82.0876 141.443 81.6764 141.301C81.2652 141.16 68.9585 140.727 68.9585 140.727H68.6957V139.523L132.287 139.522Z" fill="#96A65F"/>
<path d="M72.8214 149.408C72.8214 143.565 68.9481 140.733 68.9481 140.733H130.983C135.679 140.733 139.484 143.7 139.484 147.36V151.528C139.484 155.188 135.679 158.156 130.983 158.156H68.9481C68.9481 158.156 72.8214 156.766 72.8214 149.408Z" fill="#D1EAF2"/>
<g style="mix-blend-mode:multiply">
<path d="M139.484 147.36V151.528C139.484 152.068 139.4 152.604 139.236 153.118C137.143 149.126 133.134 145.283 125.5 144.05C107.678 141.164 68.9481 140.736 68.9481 140.736H130.983C135.679 140.733 139.484 143.7 139.484 147.36Z" fill="#DAEEF7"/>
</g>
<path opacity="0.5" d="M165.738 151.84V147.048C165.738 142.881 161.405 139.504 156.061 139.504H165.761C171.105 139.504 175.438 142.881 175.438 147.048V151.84C175.438 156.007 171.105 159.384 165.761 159.384H156.19C161.475 159.328 165.738 155.973 165.738 151.84Z" fill="#96A65F"/>
<path d="M31.8902 125.82L67.7434 105.259L72.5889 114.883L35.9034 134.343L31.8902 125.82Z" fill="#3797DB"/>
<path d="M37.9777 31.0015C37.9777 31.0015 37.695 33.7969 35.4948 33.9895C37.695 34.1837 37.9777 36.979 37.9777 36.979C37.9777 36.979 38.2603 34.1837 40.4619 33.9895C38.2603 33.7969 37.9777 31.0015 37.9777 31.0015Z" fill="#7772D6"/>
<path d="M22.5592 133.006C22.5592 133.006 22.1353 137.2 18.8343 137.49C22.1353 137.773 22.5592 141.973 22.5592 141.973C22.5592 141.973 22.9832 137.779 26.2842 137.49C22.9832 137.2 22.5592 133.006 22.5592 133.006Z" fill="#FF5B7E"/>
<path d="M46.0798 79.0815C46.0798 79.0815 45.8269 81.5822 43.8584 81.7551C45.8269 81.928 46.0798 84.4287 46.0798 84.4287C46.0798 84.4287 46.3328 81.928 48.2998 81.7551C46.3328 81.5822 46.0798 79.0815 46.0798 79.0815Z" fill="#3797DB"/>
<path d="M80.3421 13.4471C80.3421 13.4471 80.0891 15.9478 78.1207 16.1207C80.0891 16.2935 80.3421 18.7942 80.3421 18.7942C80.3421 18.7942 80.595 16.2935 82.5635 16.1207C80.595 15.9478 80.3421 13.4471 80.3421 13.4471Z" fill="#3797DB"/>
<path d="M88.5113 50.4392C88.5113 50.4392 88.1354 54.1626 85.2046 54.4205C88.1354 54.6783 88.5113 58.4032 88.5113 58.4032C88.5113 58.4032 88.8886 54.6783 91.8193 54.4205C88.8886 54.1612 88.5113 50.4392 88.5113 50.4392Z" fill="#3797DB"/>
<path d="M3.30814 102.832C3.30814 102.832 2.93227 106.555 9.29832e-05 106.813C2.93227 107.071 3.30814 110.794 3.30814 110.794C3.30814 110.794 3.68545 107.071 6.61621 106.813C3.68545 106.555 3.30814 102.832 3.30814 102.832Z" fill="#7772D6"/>
<path d="M162.833 38.8496C162.833 38.8496 162.564 41.5019 160.476 41.6833C162.564 41.8674 162.833 44.5169 162.833 44.5169C162.833 44.5169 163.101 41.8646 165.188 41.6833C163.101 41.5019 162.833 38.8496 162.833 38.8496Z" fill="#7772D6"/>
<path d="M157.865 6.21857C157.865 6.21857 157.569 9.59911 155.28 9.83289C157.569 10.0667 157.865 13.4472 157.865 13.4472C157.865 13.4472 158.159 10.0667 160.452 9.83289C158.159 9.59911 157.865 6.21857 157.865 6.21857Z" fill="#9ED16F"/>
<g style="mix-blend-mode:multiply">
<path d="M121.644 74.0588L115.859 74.525L117.725 79.2175L120.646 78.9823L121.862 82.8941C122.158 82.7525 122.376 82.6547 122.427 82.6249C122.516 82.5669 122.839 80.6258 123.122 78.7995L121.644 74.0588Z" fill="#DAEEF7"/>
</g>
<path d="M118.342 117.205V119.251C118.342 119.332 118.31 119.41 118.252 119.468C118.195 119.525 118.118 119.557 118.037 119.557H113.276C113.201 119.557 113.129 119.532 113.069 119.487C113.01 119.442 112.966 119.379 112.946 119.307C112.925 119.235 112.928 119.159 112.954 119.089C112.98 119.019 113.028 118.959 113.091 118.918L115.761 117.205C115.761 117.205 116.811 117.976 118.342 117.205Z" fill="#45258F"/>
<path d="M127.689 30.537C127.705 30.5432 127.722 30.5451 127.738 30.5424C127.755 30.5397 127.771 30.5325 127.784 30.5216C127.797 30.5107 127.806 30.4965 127.812 30.4805C127.817 30.4645 127.818 30.4473 127.815 30.4307C127.696 29.864 127.333 28.0745 127.47 28.0108C127.632 27.9357 127.997 29.5268 128.162 29.5452C128.328 29.5636 127.933 28.0221 128.121 27.9697C128.309 27.9173 128.62 29.3369 128.708 29.3412C128.795 29.3454 128.64 27.9569 128.732 27.8592C128.824 27.7614 129.168 29.2278 129.272 29.2632C129.375 29.2987 129.471 28.2105 129.566 28.2077C129.66 28.2049 129.722 28.1879 130.206 30.7056C130.206 30.7056 130.234 31.6279 130.396 31.839L130.035 32.58L128.904 32.6183C128.904 32.6183 126.464 30.4038 126.484 30.2692C126.503 30.1346 126.618 30.1162 127.689 30.537Z" fill="#EFAC7F"/>
<path d="M116.127 31.095C116.116 31.1075 116.102 31.1168 116.086 31.1219C116.07 31.127 116.053 31.1277 116.036 31.1239C116.02 31.1202 116.005 31.1121 115.992 31.1006C115.98 31.089 115.971 31.0744 115.966 31.0582C115.815 30.4915 115.325 28.7388 115.175 28.7459C114.996 28.753 115.394 30.3356 115.256 30.4277C115.117 30.5198 114.767 28.9684 114.576 29.0109C114.385 29.0534 114.752 30.456 114.678 30.5C114.603 30.5439 114.112 29.2362 113.982 29.1922C113.852 29.1483 114.216 30.6091 114.141 30.6884C114.066 30.7677 113.484 29.8383 113.397 29.8836C113.311 29.929 113.256 29.9375 113.963 32.3985C113.963 32.3985 114.357 33.233 114.31 33.5008L114.97 33.9938L115.986 33.5149C115.986 33.5149 117.153 30.4249 117.07 30.32C116.987 30.2152 116.89 30.2308 116.127 31.095Z" fill="#EFAC7F"/>
<path d="M125.054 51.2552L125.037 55.5596L129.207 54.9163L128.512 50.075L125.054 51.2552Z" fill="#EFAC7F"/>
<path opacity="0.6" d="M128.831 52.3037L128.516 50.075L125.055 51.6633V52.5134C125.882 52.7174 127.443 52.9002 128.831 52.3037Z" fill="#D19369"/>
<path d="M132.59 116.979V119.221C132.59 119.31 132.625 119.395 132.687 119.458C132.75 119.521 132.835 119.557 132.923 119.557H138.162C138.246 119.559 138.328 119.533 138.396 119.483C138.463 119.434 138.513 119.363 138.536 119.282C138.559 119.201 138.555 119.114 138.524 119.036C138.493 118.958 138.437 118.892 138.365 118.849L135.427 116.971C135.427 116.971 134.274 117.823 132.59 116.979Z" fill="#45258F"/>
<path d="M137.374 78.8776C137.362 78.3973 138.607 79.8113 138.585 79.4287C138.096 71.4662 122.577 78.1422 122.577 78.1422L118.79 80.9291L114.513 117.836C114.513 117.836 116.834 118.51 118.362 117.959L127.83 86.3329L128.994 85.8838C128.994 85.8838 134.169 82.261 137.374 78.8776Z" fill="#45258F"/>
<path d="M138.602 79.7532C138.602 79.8467 138.61 79.9416 138.614 80.0365C138.61 79.9416 138.606 79.8467 138.602 79.7532Z" fill="#06BFAD"/>
<path d="M138.614 80.0509C138.614 80.1501 138.614 80.2535 138.625 80.3569C138.621 80.2478 138.618 80.1444 138.614 80.0509Z" fill="#06BFAD"/>
<path d="M138.627 80.3922C138.627 80.5013 138.627 80.6118 138.636 80.7252C138.633 80.6175 138.63 80.5013 138.627 80.3922Z" fill="#06BFAD"/>
<path d="M138.585 79.429C138.585 79.5154 138.594 79.6047 138.599 79.6954C138.594 79.6047 138.589 79.5154 138.585 79.429Z" fill="#06BFAD"/>
<path d="M138.581 77.6194C135.385 81.0028 128.996 85.8838 128.996 85.8838L127.832 86.3329L128.996 85.8838L132.597 117.836C132.597 117.836 135.163 118.326 136.629 117.53C136.629 117.53 138.791 87.115 138.581 77.6194Z" fill="#2D185D"/>
<path d="M114.512 117.836C115.205 118.023 115.915 118.136 116.632 118.17C115.915 118.136 115.205 118.023 114.512 117.836Z" fill="#06BFAD"/>
<path d="M117.918 118.084C117.814 118.105 117.71 118.122 117.604 118.135C117.707 118.123 117.812 118.106 117.918 118.084Z" fill="#06BFAD"/>
<path d="M116.632 118.17C116.901 118.182 117.17 118.177 117.438 118.153C117.17 118.177 116.901 118.182 116.632 118.17Z" fill="#06BFAD"/>
<path d="M118.789 80.929L118.179 86.1967C119.794 86.823 123.73 87.4931 126.696 80.9885C127.631 78.9369 127.873 77.4592 127.7 76.3994C125.959 76.8701 124.248 77.4522 122.581 78.1421L118.789 80.929Z" fill="#2D185D"/>
<path d="M133.028 59.4302C132.848 59.4302 130.161 53.3223 130.161 53.3223C127.861 54.9389 124.74 53.8153 124.74 53.8153C124.74 53.8153 112.183 76.8558 120.604 80.4517C129.024 84.0476 136.969 79.6738 136.969 79.6738C136.969 79.6738 138.761 74.9983 138.761 74.8226C138.761 74.6469 133.206 59.4302 133.028 59.4302Z" fill="#D1EAF2"/>
<path d="M116.663 33.5604C116.663 33.5604 116.119 44.4913 117.141 46.4946C120.532 53.1424 124.741 53.8154 124.741 53.8154C124.741 53.8154 126.189 77.0655 124.995 82.635C124.995 82.635 121.023 83.862 115.17 81.1077C115.17 81.1077 119.649 63.0828 119.409 60.8074C119.409 60.8074 112.242 54.3991 112.003 46.8545C111.764 39.3099 113.735 32.6013 113.735 32.6013L116.663 33.5604Z" fill="#9ED16F"/>
<path d="M135.985 81.7963C135.985 81.7963 135.537 73.1438 133.565 64.9361C131.594 56.7285 130.161 53.3182 130.161 53.3182C132.804 50.3981 132.364 47.7585 132.139 44.3355C131.871 40.3825 128.017 32.4781 128.017 32.4781L130.616 30.7779C143.068 45.7792 136.171 57.7259 136.171 57.7259C136.171 57.7259 140.834 74.2546 141.456 79.2843C139.701 80.2654 137.872 81.1053 135.985 81.7963Z" fill="#9ED16F"/>
<path d="M119.532 60.7818C119.718 60.6443 119.886 60.4845 120.032 60.3057C120.561 59.6653 120.833 58.947 121.021 58.1423C120.907 58.4851 120.597 59.4826 119.956 60.242C119.79 60.4484 119.594 60.6281 119.374 60.7747L119.409 60.8073C119.409 60.8215 119.409 60.8385 119.409 60.8541C119.574 60.8881 119.865 60.8994 120.356 60.6316C120.641 60.4734 120.908 60.2833 121.151 60.0649C120.891 60.2593 120.615 60.4314 120.326 60.5792C120.081 60.7077 119.809 60.777 119.532 60.7818Z" fill="#96A65F"/>
<path d="M136.068 57.6649C135.856 57.5175 135.666 57.341 135.503 57.1407C134.974 56.5187 134.684 55.7834 134.436 55.041C134.625 55.84 134.896 56.5612 135.425 57.203C135.571 57.3828 135.739 57.5432 135.925 57.6805C135.807 57.6858 135.688 57.6719 135.575 57.6394C135.419 57.5996 135.268 57.5435 135.124 57.4722C134.835 57.3243 134.558 57.1517 134.299 56.9565C134.542 57.1768 134.81 57.3692 135.096 57.5303C135.241 57.6099 135.394 57.6741 135.552 57.7216C135.717 57.7762 135.894 57.7855 136.064 57.7485L136.158 57.723L136.068 57.6649Z" fill="#96A65F"/>
<path d="M131.037 42.4721L131.288 45.4262L130.823 45.7195L129.963 42.1221L131.037 42.4721Z" fill="#5E2E0D"/>
<path d="M130.411 45.1217C130.283 45.7905 130.612 46.4153 131.146 46.5187C131.68 46.6221 132.216 46.1617 132.344 45.4929C132.473 44.8242 132.144 44.198 131.609 44.0959C131.075 43.9939 130.538 44.4516 130.411 45.1217Z" fill="#D19369"/>
<path d="M131.174 47.852C131.293 47.0302 131.307 46.1965 131.216 45.3711C131.199 45.2096 131.192 45.0481 131.188 44.8852C131.171 44.1544 131.003 43.4351 130.694 42.7731C130.384 42.1111 129.941 41.5208 129.392 41.0397C128.843 40.5586 128.201 40.1973 127.505 39.9787C126.809 39.76 126.076 39.6889 125.351 39.7698C124.627 39.8507 123.927 40.0818 123.296 40.4484C122.665 40.8151 122.117 41.3093 121.688 41.8997C121.258 42.49 120.955 43.1636 120.798 43.8775C120.642 44.5915 120.635 45.3303 120.779 46.047C120.612 45.9855 120.432 45.9646 120.255 45.986C120.078 46.0074 119.908 46.0705 119.76 46.1702C119.202 46.5669 119.153 47.4539 119.647 48.1538C120.142 48.8537 120.994 49.096 121.551 48.6993C121.627 48.6448 121.695 48.5799 121.753 48.5066C122.514 50.986 124.972 52.5233 127.443 51.9849C129.32 51.5726 130.869 50.0141 131.174 47.852Z" fill="#EFAC7F"/>
<path d="M125.473 45.4898C125.511 45.581 125.519 45.6821 125.495 45.778C125.471 45.8739 125.418 45.9596 125.341 46.0224C125.265 46.0852 125.171 46.1218 125.073 46.1268C124.974 46.1318 124.877 46.1049 124.795 46.05C124.713 45.9952 124.651 45.9154 124.617 45.8224C124.584 45.7293 124.581 45.628 124.61 45.5335C124.639 45.4389 124.697 45.356 124.776 45.2971C124.855 45.2382 124.951 45.2064 125.05 45.2064C125.14 45.2064 125.229 45.2333 125.304 45.2838C125.38 45.3342 125.439 45.4059 125.473 45.4898Z" fill="#333333"/>
<path d="M129.379 44.9036C129.408 44.9746 129.419 45.0516 129.41 45.1278C129.402 45.2039 129.374 45.2767 129.331 45.3396C129.287 45.4025 129.229 45.4535 129.16 45.4879C129.092 45.5224 129.016 45.5392 128.94 45.5369C128.85 45.536 128.763 45.5087 128.689 45.4583C128.615 45.4079 128.557 45.3366 128.523 45.2535C128.495 45.1968 128.478 45.1348 128.475 45.0715C128.472 45.0081 128.482 44.9447 128.504 44.8854C128.526 44.826 128.56 44.7718 128.604 44.7264C128.648 44.6809 128.701 44.645 128.76 44.621C128.819 44.597 128.882 44.5855 128.945 44.587C129.008 44.5885 129.07 44.6031 129.128 44.6299C129.185 44.6567 129.236 44.6951 129.278 44.7427C129.32 44.7903 129.352 44.846 129.371 44.9064L129.379 44.9036Z" fill="#333333"/>
<path d="M126.082 48.7077C126.316 48.8233 126.564 48.9086 126.819 48.9613C127.072 49.0136 127.331 49.0236 127.587 48.991C127.841 48.9544 128.087 48.8683 128.309 48.7374C128.531 48.601 128.734 48.4336 128.909 48.2401C128.757 48.4596 128.565 48.6488 128.344 48.7983C128.119 48.947 127.863 49.0437 127.596 49.0817C127.33 49.1162 127.06 49.0984 126.801 49.0293C126.544 48.9651 126.301 48.8562 126.082 48.7077Z" fill="#D19369"/>
<path d="M125.844 44.5564C125.618 44.5125 125.389 44.4878 125.158 44.4827C124.944 44.4772 124.729 44.5025 124.521 44.5578C124.314 44.6127 124.116 44.6987 123.935 44.8128C123.739 44.938 123.551 45.0733 123.369 45.218C123.452 44.9844 123.591 44.7743 123.772 44.606C123.957 44.4273 124.185 44.2999 124.434 44.2362C124.68 44.1699 124.939 44.1655 125.188 44.2234C125.432 44.2756 125.658 44.3903 125.844 44.5564Z" fill="#5E2E0D"/>
<path d="M127.668 44.2545C127.792 44.0386 127.969 43.8578 128.181 43.7288C128.398 43.5942 128.645 43.5154 128.9 43.4993C129.157 43.4806 129.413 43.5295 129.645 43.641C129.871 43.7421 130.069 43.8967 130.222 44.0915C130.005 44.0125 129.784 43.9449 129.56 43.8889C129.352 43.8388 129.137 43.8206 128.923 43.8351C128.708 43.85 128.497 43.8948 128.294 43.9683C128.078 44.0471 127.869 44.1428 127.668 44.2545Z" fill="#5E2E0D"/>
<path d="M126.874 44.834C127.087 45.0376 127.287 45.2548 127.472 45.4843C127.661 45.7129 127.833 45.9548 127.987 46.2083C128.09 46.3721 128.166 46.5522 128.211 46.741C128.227 46.8374 128.22 46.9309 128.059 47.0896C127.953 47.1959 127.837 47.2909 127.712 47.3729C127.59 47.4571 127.462 47.5314 127.328 47.5954C127.553 47.4137 127.762 47.2122 127.951 46.9932C127.991 46.9447 128.025 46.892 128.053 46.836C128.057 46.7794 128.046 46.7228 128.022 46.6716C127.969 46.5411 127.905 46.4155 127.831 46.2961C127.69 46.0482 127.522 45.8073 127.359 45.5636C127.197 45.32 127.031 45.0848 126.874 44.834Z" fill="#D19369"/>
<path d="M130.495 39.3184C130.495 39.3184 132.042 39.0194 130.136 38.0829C128.229 37.1464 123.556 36.5995 121.113 38.6978C121.113 38.6978 120.291 37.6408 119.559 38.1056C118.827 38.5703 120.327 39.0832 120.327 39.0832C120.327 39.0832 119.296 39.2829 119.097 39.8568C118.955 40.2818 119.58 40.1557 119.919 40.0622C119.354 40.2931 117.71 41.8545 119.851 46.1191C120.23 45.9406 122.677 42.4354 122.677 42.4354C122.677 42.4354 127.605 44.0576 126.706 42.7187C126.706 42.7187 132.447 44.1667 131.056 41.5584C131.047 41.5527 133.164 41.2297 130.495 39.3184Z" fill="#5E2E0D"/>
<path d="M119.839 46.1192C119.978 46.0313 120.136 45.9786 120.3 45.9658C120.464 45.9529 120.628 45.9803 120.779 46.0455C121.344 46.2567 121.707 47.5346 121.707 47.5346C121.707 47.5346 123.567 49.0606 122.66 42.4086C121.77 35.8727 120.54 43.4967 120.54 43.4967L119.839 46.1192Z" fill="#5E2E0D"/>
<path d="M117.128 25.6647L125.628 25.0569C125.835 25.042 126.027 24.9457 126.162 24.7889C126.298 24.6322 126.366 24.428 126.352 24.221C126.344 24.1183 126.317 24.0181 126.271 23.926C126.225 23.8339 126.162 23.7518 126.084 23.6844C126.007 23.6171 125.917 23.5657 125.819 23.5333C125.722 23.5009 125.619 23.488 125.516 23.4956L117.017 24.102C116.811 24.1172 116.619 24.2135 116.484 24.3698C116.348 24.5261 116.28 24.7298 116.293 24.9365C116.308 25.1441 116.404 25.3374 116.56 25.4739C116.717 25.6105 116.921 25.6791 117.128 25.6647Z" fill="#3797DB"/>
<path d="M119.575 0L116.605 7.30089L108.923 8.9855L114.93 14.0747L114.155 21.9211L120.837 17.7656L128.041 20.9293L126.165 13.2728L131.392 7.38165L123.549 6.80501L119.575 0Z" fill="#3797DB"/>
<path d="M119.575 0L120.337 10.7126L116.605 7.30089L119.575 0Z" fill="#3B77BE"/>
<path d="M108.923 8.98572L120.337 10.7128L114.93 14.075L108.923 8.98572Z" fill="#3B77BE"/>
<path d="M120.337 10.7125L123.549 6.80493L131.392 7.38158L120.337 10.7125Z" fill="#3B77BE"/>
<path d="M128.041 20.9294L120.337 10.7126L126.164 13.2728L128.041 20.9294Z" fill="#3B77BE"/>
<path d="M114.154 21.9211L120.337 10.7126L120.837 17.7656L114.154 21.9211Z" fill="#3B77BE"/>
<path d="M114.935 25.998L127.849 25.0744L128.172 29.625L115.258 30.5486L114.935 25.998Z" fill="#7772D6"/>
<g style="mix-blend-mode:multiply">
<path d="M128.13 29.1195L128.165 29.617L115.251 30.5406L115.216 30.0431L128.13 29.1195Z" fill="#CDD6E0"/>
</g>
<g style="mix-blend-mode:multiply">
<path d="M127.832 24.9379L127.867 25.4354L114.953 26.3589L114.918 25.8615L127.832 24.9379Z" fill="#CDD6E0"/>
</g>
<path d="M115.045 26.2028L127.763 25.2946C127.839 25.2892 127.914 25.2688 127.983 25.2343C128.052 25.1999 128.113 25.1523 128.163 25.0941C128.213 25.0359 128.252 24.9684 128.276 24.8953C128.3 24.8223 128.31 24.7452 128.304 24.6684C128.299 24.5916 128.278 24.5166 128.244 24.4478C128.21 24.3789 128.162 24.3175 128.104 24.2671C128.046 24.2167 127.979 24.1783 127.906 24.154C127.833 24.1298 127.756 24.1202 127.68 24.1258L114.962 25.0339C114.885 25.0393 114.81 25.0598 114.742 25.0942C114.673 25.1286 114.612 25.1763 114.561 25.2344C114.511 25.2926 114.473 25.3602 114.449 25.4332C114.424 25.5063 114.415 25.5834 114.42 25.6602C114.426 25.7369 114.446 25.8119 114.481 25.8808C114.515 25.9496 114.562 26.011 114.62 26.0614C114.678 26.1118 114.746 26.1503 114.819 26.1745C114.892 26.1988 114.968 26.2084 115.045 26.2028Z" fill="#3B77BE"/>
<path d="M115.091 31.6065L128.657 30.6374C128.698 30.6331 128.735 30.6131 128.762 30.5817C128.788 30.5503 128.801 30.5098 128.798 30.4688L128.738 29.6187C128.733 29.5779 128.713 29.5403 128.682 29.5139C128.651 29.4875 128.61 29.4743 128.57 29.4771L114.997 30.4476C114.956 30.4515 114.918 30.4714 114.892 30.5029C114.865 30.5345 114.852 30.5751 114.855 30.6162L114.916 31.4663C114.918 31.487 114.925 31.5071 114.935 31.5254C114.945 31.5437 114.958 31.5598 114.975 31.5729C114.991 31.5859 115.01 31.5956 115.03 31.6014C115.05 31.6071 115.071 31.6089 115.091 31.6065Z" fill="#7772D6"/>
<path d="M119.225 29.0451L124.135 28.6966C124.28 28.6861 124.422 28.6472 124.552 28.5819C124.682 28.5166 124.798 28.4262 124.894 28.316C124.989 28.2057 125.061 28.0777 125.107 27.9393C125.153 27.8009 125.172 27.6548 125.161 27.5093C125.151 27.3638 125.113 27.2217 125.048 27.0912C124.983 26.9607 124.893 26.8443 124.783 26.7487C124.673 26.6531 124.545 26.5803 124.407 26.5343C124.269 26.4883 124.124 26.47 123.978 26.4807L119.068 26.8306C118.775 26.8517 118.502 26.9885 118.309 27.2111C118.117 27.4338 118.02 27.7239 118.041 28.0179C118.062 28.3115 118.199 28.5846 118.421 28.7772C118.643 28.9698 118.932 29.0662 119.225 29.0451Z" fill="#3797DB"/>
<g style="mix-blend-mode:multiply">
<path d="M124.11 28.3268C124.214 28.3192 124.316 28.2894 124.408 28.2395C124.5 28.1895 124.58 28.1205 124.644 28.0371C124.707 27.9536 124.752 27.8576 124.776 27.7554C124.799 27.6532 124.801 27.5471 124.781 27.4442C124.741 27.264 124.636 27.1047 124.488 26.9958C124.339 26.8869 124.156 26.8358 123.973 26.8519L119.124 27.2033C118.94 27.2131 118.766 27.2896 118.634 27.4187C118.503 27.5477 118.422 27.7204 118.408 27.9046C118.403 28.0094 118.42 28.114 118.458 28.2117C118.496 28.3094 118.554 28.398 118.629 28.4714C118.703 28.5449 118.793 28.6017 118.891 28.6381C118.989 28.6745 119.093 28.6896 119.198 28.6825L124.11 28.3268Z" fill="#D9D9D9"/>
</g>
<path d="M119.934 24.3694L122.666 24.1739L122.648 23.9203C122.574 22.8874 122.46 20.7423 120.837 17.7656C119.605 21.1659 119.848 23.0829 119.916 24.1158L119.934 24.3694Z" fill="#3797DB"/>
</svg>
