<svg width="170" height="144" viewBox="0 0 170 144" fill="none" xmlns="http://www.w3.org/2000/svg">
<path d="M135.495 135.773H150.516V80.6516H135.495V135.773Z" fill="#D9E7FA"/>
<path d="M132.121 135.773H147.142V80.6516H132.121V135.773Z" fill="#DCE9FA"/>
<path d="M147.139 84.1603H132.122V88.1386H147.139V84.1603Z" fill="#D9E7FA"/>
<path d="M147.139 92.7894H132.122V96.7687H147.139V92.7894Z" fill="#D9E7FA"/>
<path d="M147.139 101.419H132.122V105.397H147.139V101.419Z" fill="#D9E7FA"/>
<path d="M147.139 110.048H132.122V114.026H147.139V110.048Z" fill="#D9E7FA"/>
<path d="M147.139 118.678H132.122V122.656H147.139V118.678Z" fill="#D9E7FA"/>
<path d="M147.139 127.307H132.122V131.285H147.139V127.307Z" fill="#D9E7FA"/>
<path d="M111.483 135.773H126.504V86.9764H111.483V135.773Z" fill="#D9E7FA"/>
<path d="M108.108 135.773H123.129V86.9764H108.108V135.773Z" fill="#DCE9FA"/>
<path d="M123.126 91.4637H108.109V94.8792H123.126V91.4637Z" fill="#D9E7FA"/>
<path d="M123.126 98.8721H108.109V102.288H123.126V98.8721Z" fill="#D9E7FA"/>
<path d="M123.126 106.28H108.109V109.696H123.126V106.28Z" fill="#D9E7FA"/>
<path d="M123.126 113.688H108.109V117.104H123.126V113.688Z" fill="#D9E7FA"/>
<path d="M123.126 121.096H108.109V124.512H123.126V121.096Z" fill="#D9E7FA"/>
<path d="M123.126 128.505H108.109V131.92H123.126V128.505Z" fill="#D9E7FA"/>
<path d="M158.647 133.661H152.356V142.308H158.647V133.661Z" fill="#DCEAF9"/>
<path d="M257.357 145.547C263.171 133.964 265.067 121.801 257.667 111.347C252.41 104.093 245.457 99.7206 239.118 93.9567H225.345V78.9951H215.833V88.7123H213.663V77.1113H204.152V98.8547H192.12V111.533H187.626V114.725H177.3V109.223H171.372V94.279H164.047V121.865H156.722V145.519L257.357 145.547Z" fill="#DCE9FA"/>
<path d="M171.439 94.2818H164.052V97.7011H171.439V94.2818Z" fill="#D9E7FA"/>
<path d="M171.439 99.3666H164.052V102.786H171.439V99.3666Z" fill="#D9E7FA"/>
<path d="M171.439 104.451H164.052V107.87H171.439V104.451Z" fill="#D9E7FA"/>
<path d="M171.439 109.781H164.052V113.201H171.439V109.781Z" fill="#D9E7FA"/>
<path d="M171.439 114.947H164.052V118.366H171.439V114.947Z" fill="#D9E7FA"/>
<path d="M171.439 120.112H164.052V123.531H171.439V120.112Z" fill="#D9E7FA"/>
<path d="M171.439 125.515H164.052V128.935H171.439V125.515Z" fill="#D9E7FA"/>
<path d="M191.813 136.213H154.436V145.716H191.813V136.213Z" fill="#D9E7FA"/>
<path d="M165.716 92.7935H165.521V94.2818H165.716V92.7935Z" fill="#DCEAF9"/>
<path d="M159.97 129.292H134.307V145.562H159.97V129.292Z" fill="#DCE9FA"/>
<path d="M159.97 127.167H134.307V132.455H159.97V127.167Z" fill="#D9E7FA"/>
<path d="M137.372 134.022H136.055V135.773H137.372V134.022Z" fill="#D9E7FA"/>
<path d="M139.836 134.022H138.519V135.773H139.836V134.022Z" fill="#D9E7FA"/>
<path d="M142.246 134.022H140.929V135.773H142.246V134.022Z" fill="#D9E7FA"/>
<path d="M144.531 134.022H143.213V135.773H144.531V134.022Z" fill="#D9E7FA"/>
<path d="M146.86 134.022H145.542V135.773H146.86V134.022Z" fill="#D9E7FA"/>
<path d="M149.215 134.022H147.897V135.773H149.215V134.022Z" fill="#D9E7FA"/>
<path d="M151.68 134.022H150.362V135.773H151.68V134.022Z" fill="#D9E7FA"/>
<path d="M154.089 134.022H152.771V135.773H154.089V134.022Z" fill="#D9E7FA"/>
<path d="M156.373 134.022H155.056V135.773H156.373V134.022Z" fill="#D9E7FA"/>
<path d="M158.702 134.022H157.385V135.773H158.702V134.022Z" fill="#D9E7FA"/>
<path d="M137.372 137.112H136.055V138.863H137.372V137.112Z" fill="#D9E7FA"/>
<path d="M139.836 137.112H138.519V138.863H139.836V137.112Z" fill="#D9E7FA"/>
<path d="M142.246 137.112H140.929V138.863H142.246V137.112Z" fill="#D9E7FA"/>
<path d="M144.531 137.112H143.213V138.863H144.531V137.112Z" fill="#D9E7FA"/>
<path d="M146.86 137.112H145.542V138.863H146.86V137.112Z" fill="#D9E7FA"/>
<path d="M149.215 137.112H147.897V138.863H149.215V137.112Z" fill="#D9E7FA"/>
<path d="M151.68 137.112H150.362V138.863H151.68V137.112Z" fill="#D9E7FA"/>
<path d="M154.089 137.112H152.771V138.863H154.089V137.112Z" fill="#D9E7FA"/>
<path d="M156.373 137.112H155.056V138.863H156.373V137.112Z" fill="#D9E7FA"/>
<path d="M158.702 137.112H157.385V138.863H158.702V137.112Z" fill="#D9E7FA"/>
<path d="M137.372 140.155H136.055V141.906H137.372V140.155Z" fill="#D9E7FA"/>
<path d="M139.836 140.155H138.519V141.906H139.836V140.155Z" fill="#D9E7FA"/>
<path d="M142.246 140.155H140.929V141.906H142.246V140.155Z" fill="#D9E7FA"/>
<path d="M144.531 140.155H143.213V141.906H144.531V140.155Z" fill="#D9E7FA"/>
<path d="M146.86 140.155H145.542V141.906H146.86V140.155Z" fill="#D9E7FA"/>
<path d="M149.215 140.155H147.897V141.906H149.215V140.155Z" fill="#D9E7FA"/>
<path d="M151.68 140.155H150.362V141.906H151.68V140.155Z" fill="#D9E7FA"/>
<path d="M154.089 140.155H152.771V141.906H154.089V140.155Z" fill="#D9E7FA"/>
<path d="M156.373 140.155H155.056V141.906H156.373V140.155Z" fill="#D9E7FA"/>
<path d="M158.702 140.155H157.385V141.906H158.702V140.155Z" fill="#D9E7FA"/>
<path d="M134.236 129.292H108.572V145.562H134.236V129.292Z" fill="#DCE9FA"/>
<path d="M134.236 127.167H108.572V132.455H134.236V127.167Z" fill="#D9E7FA"/>
<path d="M111.637 134.022H110.319V135.773H111.637V134.022Z" fill="#D9E7FA"/>
<path d="M114.102 134.022H112.784V135.773H114.102V134.022Z" fill="#D9E7FA"/>
<path d="M116.511 134.022H115.193V135.773H116.511V134.022Z" fill="#D9E7FA"/>
<path d="M118.797 134.022H117.479V135.773H118.797V134.022Z" fill="#D9E7FA"/>
<path d="M121.124 134.022H119.807V135.773H121.124V134.022Z" fill="#D9E7FA"/>
<path d="M123.48 134.022H122.162V135.773H123.48V134.022Z" fill="#D9E7FA"/>
<path d="M125.945 134.022H124.627V135.773H125.945V134.022Z" fill="#D9E7FA"/>
<path d="M128.354 134.022H127.036V135.773H128.354V134.022Z" fill="#D9E7FA"/>
<path d="M130.639 134.022H129.321V135.773H130.639V134.022Z" fill="#D9E7FA"/>
<path d="M132.967 134.022H131.649V135.773H132.967V134.022Z" fill="#D9E7FA"/>
<path d="M111.637 137.112H110.319V138.863H111.637V137.112Z" fill="#D9E7FA"/>
<path d="M114.102 137.112H112.784V138.863H114.102V137.112Z" fill="#D9E7FA"/>
<path d="M116.511 137.112H115.193V138.863H116.511V137.112Z" fill="#D9E7FA"/>
<path d="M118.797 137.112H117.479V138.863H118.797V137.112Z" fill="#D9E7FA"/>
<path d="M121.124 137.112H119.807V138.863H121.124V137.112Z" fill="#D9E7FA"/>
<path d="M123.48 137.112H122.162V138.863H123.48V137.112Z" fill="#D9E7FA"/>
<path d="M125.945 137.112H124.627V138.863H125.945V137.112Z" fill="#D9E7FA"/>
<path d="M128.354 137.112H127.036V138.863H128.354V137.112Z" fill="#D9E7FA"/>
<path d="M130.639 137.112H129.321V138.863H130.639V137.112Z" fill="#D9E7FA"/>
<path d="M132.967 137.112H131.649V138.863H132.967V137.112Z" fill="#D9E7FA"/>
<path d="M111.637 140.155H110.319V141.906H111.637V140.155Z" fill="#D9E7FA"/>
<path d="M114.102 140.155H112.784V141.906H114.102V140.155Z" fill="#D9E7FA"/>
<path d="M116.511 140.155H115.193V141.906H116.511V140.155Z" fill="#D9E7FA"/>
<path d="M118.797 140.155H117.479V141.906H118.797V140.155Z" fill="#D9E7FA"/>
<path d="M121.124 140.155H119.807V141.906H121.124V140.155Z" fill="#D9E7FA"/>
<path d="M123.48 140.155H122.162V141.906H123.48V140.155Z" fill="#D9E7FA"/>
<path d="M125.945 140.155H124.627V141.906H125.945V140.155Z" fill="#D9E7FA"/>
<path d="M128.354 140.155H127.036V141.906H128.354V140.155Z" fill="#D9E7FA"/>
<path d="M130.639 140.155H129.321V141.906H130.639V140.155Z" fill="#D9E7FA"/>
<path d="M132.967 140.155H131.649V141.906H132.967V140.155Z" fill="#D9E7FA"/>
<path d="M106.9 129.292H81.2363V145.562H106.9V129.292Z" fill="#DCE9FA"/>
<path d="M106.9 127.167H81.2363V132.455H106.9V127.167Z" fill="#D9E7FA"/>
<path d="M84.3011 134.022H82.9834V135.773H84.3011V134.022Z" fill="#D9E7FA"/>
<path d="M86.7658 134.022H85.4482V135.773H86.7658V134.022Z" fill="#D9E7FA"/>
<path d="M89.1759 134.022H87.8584V135.773H89.1759V134.022Z" fill="#D9E7FA"/>
<path d="M91.4612 134.022H90.1436V135.773H91.4612V134.022Z" fill="#D9E7FA"/>
<path d="M93.7883 134.022H92.4707V135.773H93.7883V134.022Z" fill="#D9E7FA"/>
<path d="M96.1438 134.022H94.8262V135.773H96.1438V134.022Z" fill="#D9E7FA"/>
<path d="M98.6086 134.022H97.291V135.773H98.6086V134.022Z" fill="#D9E7FA"/>
<path d="M101.019 134.022H99.7012V135.773H101.019V134.022Z" fill="#D9E7FA"/>
<path d="M103.303 134.022H101.985V135.773H103.303V134.022Z" fill="#D9E7FA"/>
<path d="M105.631 134.022H104.313V135.773H105.631V134.022Z" fill="#D9E7FA"/>
<path d="M84.3011 137.112H82.9834V138.863H84.3011V137.112Z" fill="#D9E7FA"/>
<path d="M86.7658 137.112H85.4482V138.863H86.7658V137.112Z" fill="#D9E7FA"/>
<path d="M89.1759 137.112H87.8584V138.863H89.1759V137.112Z" fill="#D9E7FA"/>
<path d="M91.4612 137.112H90.1436V138.863H91.4612V137.112Z" fill="#D9E7FA"/>
<path d="M93.7883 137.112H92.4707V138.863H93.7883V137.112Z" fill="#D9E7FA"/>
<path d="M96.1438 137.112H94.8262V138.863H96.1438V137.112Z" fill="#D9E7FA"/>
<path d="M98.6086 137.112H97.291V138.863H98.6086V137.112Z" fill="#D9E7FA"/>
<path d="M101.019 137.112H99.7012V138.863H101.019V137.112Z" fill="#D9E7FA"/>
<path d="M103.303 137.112H101.985V138.863H103.303V137.112Z" fill="#D9E7FA"/>
<path d="M105.631 137.112H104.313V138.863H105.631V137.112Z" fill="#D9E7FA"/>
<path d="M84.3011 140.155H82.9834V141.906H84.3011V140.155Z" fill="#D9E7FA"/>
<path d="M86.7658 140.155H85.4482V141.906H86.7658V140.155Z" fill="#D9E7FA"/>
<path d="M89.1759 140.155H87.8584V141.906H89.1759V140.155Z" fill="#D9E7FA"/>
<path d="M91.4612 140.155H90.1436V141.906H91.4612V140.155Z" fill="#D9E7FA"/>
<path d="M93.7883 140.155H92.4707V141.906H93.7883V140.155Z" fill="#D9E7FA"/>
<path d="M96.1438 140.155H94.8262V141.906H96.1438V140.155Z" fill="#D9E7FA"/>
<path d="M98.6086 140.155H97.291V141.906H98.6086V140.155Z" fill="#D9E7FA"/>
<path d="M101.019 140.155H99.7012V141.906H101.019V140.155Z" fill="#D9E7FA"/>
<path d="M103.303 140.155H101.985V141.906H103.303V140.155Z" fill="#D9E7FA"/>
<path d="M105.631 140.155H104.313V141.906H105.631V140.155Z" fill="#D9E7FA"/>
<path d="M151.583 144.955L0.0308468 146.041C-0.397104 144.955 3.79072 141.64 2.51748 137.743C2.51748 131.914 3.97475 128.028 3.97475 128.028C3.97475 128.028 4.46051 126.571 6.40355 123.656L11.7469 116.856L24.3111 105.883C24.3111 105.883 51.7674 104.996 63.0811 117.944C74.3948 130.891 106 119.858 114.61 127.23C123.219 134.601 130.366 141.152 138.61 139.331C146.853 137.51 151.583 144.955 151.583 144.955Z" fill="#62BDF3"/>
<path d="M46.6126 70.19C47.061 68.2936 45.8844 66.3935 43.9846 65.9459C42.0848 65.4983 40.1812 66.6728 39.7328 68.5691C39.2844 70.4655 40.461 72.3656 42.3608 72.8132C44.2606 73.2608 46.1642 72.0863 46.6126 70.19Z" fill="#45258F"/>
<path d="M78.691 42.2842C78.8577 41.5793 78.4203 40.873 77.7142 40.7067C77.008 40.5403 76.3005 40.9769 76.1338 41.6817C75.9671 42.3866 76.4045 43.0929 77.1106 43.2592C77.8168 43.4256 78.5243 42.9891 78.691 42.2842Z" fill="#45258F"/>
<path d="M108.475 2.73256C108.642 2.02769 108.204 1.32142 107.498 1.15506C106.792 0.988695 106.085 1.42524 105.918 2.1301C105.751 2.83497 106.189 3.54124 106.895 3.7076C107.601 3.87396 108.308 3.43742 108.475 2.73256Z" fill="#45258F"/>
<path d="M85.4608 144.694C85.135 144.184 84.1567 142.866 82.8536 143.036C81.4329 143.228 84.4218 144.161 85.3365 144.697C85.1656 144.707 84.9945 144.686 84.8305 144.638C84.2184 144.42 83.1717 144.838 82.8363 144.984H88.6599C88.593 144.761 88.4443 144.571 88.2435 144.453C88.1471 144.394 87.9543 144.387 87.7076 144.405C88.0536 143.998 88.2936 142.696 87.3297 143.031C86.6261 143.275 86.6281 144.071 86.6965 144.542C86.5471 144.565 86.3948 144.589 86.2454 144.61C85.9562 143.135 84.9297 138.813 82.8517 138.698C80.7447 138.58 84.6377 143.18 85.936 144.651C85.7683 144.671 85.6083 144.687 85.4608 144.694Z" fill="#82B378"/>
<path d="M156.297 105.061C155.083 106.381 153.262 107.742 156.157 110.762C159.869 114.631 165.611 131.306 165.611 131.306C165.413 131.943 165.611 132.827 165.162 133.087C164.427 133.507 162.552 132.221 162.552 132.221C162.552 132.221 145.504 114.594 144.121 110.629C143.099 107.703 148.32 93.5237 151.446 86.0953C152.552 83.464 153.396 81.6793 153.606 81.5407C153.639 81.5196 153.671 81.4994 153.702 81.4801C155.539 80.317 157.269 80.4661 158.811 81.357C159.149 81.5557 159.472 81.7809 159.775 82.0305C163.59 85.1188 166.04 92.4461 165.785 93.9691C165.609 95.0274 163.749 97.2749 161.707 99.4858C161.283 99.9447 160.851 100.402 160.425 100.847C158.568 102.787 156.818 104.495 156.297 105.061Z" fill="#9ED16F"/>
<path d="M161.707 99.4838C161.282 99.9427 160.851 100.4 160.425 100.845L151.444 86.0982C152.551 83.4668 153.394 81.6822 153.604 81.5436C153.637 81.5224 153.669 81.5022 153.701 81.483L158.809 81.3598L159.733 81.3387L159.772 82.0285L161.707 99.4838Z" fill="#9ABC67"/>
<path d="M156.623 48.1887C156.623 48.1887 158.534 52.849 158.038 55.6218C157.543 58.3946 150.967 72.2121 148.57 74.575C146.173 76.9379 130.28 66.8783 130.28 66.8783L131.845 65.3899C131.845 65.3899 144.416 68.5841 145.081 67.5825C145.746 66.581 148.946 46.8937 156.623 48.1887Z" fill="#FFB27D"/>
<path d="M156.248 84.7158C156.248 84.7158 159.51 100.992 167.738 112.442C175.69 123.507 179.826 140.467 179.826 140.467C179.826 140.467 180.354 140.878 181.392 140.438C182.43 139.997 183.127 140.534 183.337 140.028C183.337 140.028 181.835 113.257 177.709 107.397C175.378 104.086 174.134 91.9296 174.213 88.621C174.292 85.3123 172.843 81.2581 172.843 81.2581L156.248 84.7158Z" fill="#9ED16F"/>
<path d="M183.259 144.837L181.332 144.851C180.686 144.754 180.209 144.571 179.547 144.489C178.542 144.365 178.083 144.777 177.992 144.874L177.974 144.893L169.802 144.95C169.594 144.661 169.787 143.978 169.976 143.478C170.04 143.31 170.142 143.159 170.274 143.037C170.406 142.915 170.564 142.825 170.737 142.774C171.604 142.517 173.308 142.283 174.863 140.858C175.738 140.057 179.093 137.908 179.093 137.908H179.112C179.186 137.908 179.539 138.014 181.081 139.295C181.878 139.956 183.218 138.339 183.218 138.339C183.404 138.507 183.556 138.71 183.665 138.936C183.858 139.322 183.923 139.76 183.849 140.186C183.732 140.922 184.138 142.286 184.455 143.207C184.648 143.766 184.814 144.162 184.814 144.162C184.814 144.162 184.912 144.619 183.259 144.837Z" fill="#233862"/>
<path d="M183.259 144.837L181.332 144.85C180.686 144.754 180.209 144.57 179.548 144.489C178.542 144.365 178.083 144.777 177.992 144.874L177.975 144.893L169.802 144.95C169.594 144.661 169.787 143.978 169.976 143.478C170.223 143.255 170.301 144.432 170.44 144.619C170.579 144.805 177.107 144.64 177.483 144.364C177.859 144.087 178.986 143.601 180.567 143.965C181.942 144.283 183.959 143.43 184.457 143.203C184.65 143.762 184.816 144.158 184.816 144.158C184.816 144.158 184.912 144.619 183.259 144.837Z" fill="#233862"/>
<path d="M173.34 71.0221C173.347 61.8967 171.674 48.7265 169.388 47.7154C167.446 46.8562 163.208 45.6276 158.84 45.695C155.392 45.7479 148.045 47.3565 147.296 53.0435C146.824 56.6427 146.632 59.6078 146.632 59.6078C146.632 59.6078 147.422 61.9053 149.601 62.522C149.872 63.538 149.997 64.5424 150.321 65.3997C153.94 74.9129 152.162 84.4318 152.162 84.4318C155.493 87.1979 172.071 85.5777 173.741 84.4905C176.46 82.7174 173.332 80.1476 173.34 71.0221Z" fill="#45258F"/>
<path d="M169.367 133.589L167.987 134.928C167.453 135.303 166.982 135.505 166.445 135.898C165.633 136.502 165.588 137.117 165.588 137.245C165.588 137.263 165.588 137.271 165.588 137.271L159.725 142.954C159.372 142.888 159.04 142.264 158.83 141.771C158.76 141.606 158.729 141.427 158.739 141.247C158.75 141.068 158.802 140.894 158.892 140.738C159.339 139.956 160.409 138.607 160.545 136.505C160.622 135.323 161.557 131.455 161.557 131.455L161.567 131.439C161.621 131.388 161.952 131.221 163.95 131.082C164.985 131.009 164.831 128.916 164.831 128.916C165.082 128.908 165.333 128.95 165.568 129.038C165.975 129.184 166.325 129.456 166.567 129.814C166.993 130.426 168.229 131.133 169.098 131.578C169.626 131.846 170.018 132.019 170.018 132.019C170.018 132.019 170.41 132.291 169.367 133.589Z" fill="#233862"/>
<path d="M165.571 129.041C165.467 129.592 165.216 130.723 164.813 131.231C164.269 131.916 161.561 131.458 161.561 131.458L161.57 131.442C161.624 131.391 161.956 131.224 163.954 131.085C164.988 131.012 164.835 128.919 164.835 128.919C165.086 128.911 165.336 128.953 165.571 129.041Z" fill="#233862"/>
<path d="M169.367 133.589L167.987 134.927C167.453 135.303 166.981 135.505 166.444 135.898C165.633 136.501 165.588 137.117 165.588 137.245C165.588 137.262 165.588 137.271 165.588 137.271L159.725 142.954C159.372 142.888 159.04 142.263 158.83 141.771C158.854 141.44 159.726 142.235 159.955 142.275C160.183 142.314 164.786 137.688 164.871 137.229C164.955 136.77 165.427 135.64 166.821 134.814C168.034 134.093 168.899 132.085 169.103 131.577C169.631 131.846 170.022 132.019 170.022 132.019C170.022 132.019 170.41 132.29 169.367 133.589Z" fill="#233862"/>
<path d="M164.633 48.919C164.633 48.919 169.678 48.8642 172.078 50.3468C174.478 51.8294 184.92 63.0234 186.239 66.1194C187.558 69.2154 175.438 78.0427 175.438 78.0427L173.73 75.3276C173.73 75.3276 179.128 67.7655 178.441 66.7784C177.753 65.7913 160.598 55.5652 164.633 48.919Z" fill="#FFB27D"/>
<path d="M174.368 74.9147L176.379 76.4541C176.379 76.4541 174.609 80.2698 173.642 80.6286L173.546 80.6479C172.507 80.8557 169.928 79.172 169.498 77.4335C169.461 77.2669 169.47 77.0937 169.522 76.9313C169.921 75.8797 172.339 75.2823 173.603 75.0379C174.059 74.9532 174.368 74.9147 174.368 74.9147Z" fill="#FFB27D"/>
<path d="M133.231 65.7289L132.223 68.0571C132.223 68.0571 128.078 67.2817 127.5 66.4341L127.457 66.3379C127 65.3835 128 62.4741 129.583 61.6294C129.736 61.5543 129.906 61.5211 130.076 61.5332C131.196 61.6602 132.37 63.8538 132.918 65.0169C133.115 65.4422 133.231 65.7289 133.231 65.7289Z" fill="#FFB27D"/>
<path d="M162.725 45.9461C162.725 45.9461 167.402 46.1558 170.761 48.2369C172.303 49.199 178.248 54.8137 178.248 54.8137C178.248 54.8137 177.589 60.6825 170.514 62.2758C163.312 63.8959 162.154 51.8851 162.154 51.8851L162.725 45.9461Z" fill="#45258F"/>
<path d="M161.444 46.0308C161.554 46.192 161.614 46.3818 161.617 46.5768C161.621 46.7718 161.567 46.9635 161.463 47.1285C160.834 48.1224 159.076 49.8407 154.496 49.5261C152.927 49.4183 152.569 48.234 153.56 47.016C153.802 46.7196 153.72 45.0138 153.694 44.3298C153.638 43.5078 153.627 42.6833 153.662 41.8601L156.908 39.6425L159.986 37.5191C159.48 42.4864 160.795 45.0821 161.444 46.0308Z" fill="#FFB27D"/>
<path d="M159.874 40.0138C159.874 40.0138 157.609 43.5562 153.694 44.3297C153.637 43.5077 153.627 42.6832 153.662 41.86L156.907 39.6424L159.874 40.0138Z" fill="#ED985F"/>
<path d="M152.264 41.6609C152.264 41.6609 159.807 43.411 160.834 38.7746C161.862 34.1383 163.525 31.2481 158.752 29.9349C153.979 28.6216 152.648 30.186 151.923 31.6503C151.199 33.1146 150.327 41.0865 152.264 41.6609Z" fill="#FFB27D"/>
<path d="M155.658 35.5275C155.64 35.6357 155.657 35.7469 155.707 35.8446C155.757 35.9423 155.837 36.0214 155.935 36.0702C156.033 36.119 156.144 36.1349 156.252 36.1156C156.36 36.0962 156.459 36.0426 156.534 35.9627C156.61 35.8828 156.657 35.7809 156.67 35.6719C156.683 35.563 156.66 35.4528 156.605 35.3577C156.551 35.2626 156.467 35.1876 156.366 35.1438C156.266 35.1 156.154 35.0898 156.047 35.1145C155.948 35.1373 155.859 35.1887 155.79 35.2622C155.721 35.3357 155.675 35.428 155.658 35.5275Z" fill="#333333"/>
<path d="M152.443 35.2503C152.43 35.3317 152.437 35.4151 152.465 35.4928C152.492 35.5705 152.539 35.6401 152.6 35.6953C152.662 35.7505 152.736 35.7895 152.817 35.8088C152.898 35.8281 152.982 35.8271 153.063 35.8059C153.158 35.783 153.244 35.7328 153.31 35.6618C153.377 35.5907 153.421 35.5019 153.436 35.4064C153.453 35.34 153.455 35.271 153.443 35.2038C153.431 35.1366 153.405 35.0726 153.367 35.0158C153.329 34.959 153.28 34.9107 153.222 34.8739C153.164 34.8371 153.099 34.8126 153.031 34.8018C152.963 34.7911 152.894 34.7944 152.827 34.8116C152.76 34.8288 152.698 34.8594 152.643 34.9016C152.589 34.9438 152.544 34.9966 152.511 35.0568C152.478 35.1169 152.458 35.1831 152.452 35.2511L152.443 35.2503Z" fill="#333333"/>
<path d="M155.402 34.5931C155.574 34.5087 155.753 34.4422 155.937 34.3943C156.109 34.3489 156.287 34.3332 156.467 34.3476C156.646 34.3618 156.824 34.4076 156.996 34.4835C157.181 34.5676 157.363 34.6625 157.541 34.7679C157.422 34.5586 157.264 34.3823 157.08 34.2542C156.892 34.1168 156.68 34.0367 156.465 34.0218C156.252 34.004 156.042 34.0482 155.855 34.1504C155.671 34.246 155.514 34.3986 155.402 34.5931Z" fill="#5E2E0D"/>
<path d="M153.326 34.6955C153.164 34.4347 152.971 34.2294 152.766 34.0987C152.556 33.9614 152.339 33.9026 152.135 33.9276C151.93 33.9495 151.744 34.06 151.598 34.2482C151.452 34.4216 151.345 34.6603 151.285 34.9435C151.43 34.8006 151.581 34.672 151.739 34.5581C151.886 34.4546 152.049 34.3919 152.22 34.3722C152.392 34.3529 152.571 34.3735 152.751 34.4332C152.943 34.4977 153.135 34.5854 153.326 34.6955Z" fill="#5E2E0D"/>
<path d="M154.445 35.611C154.321 35.7945 154.209 35.9856 154.11 36.1829C154.009 36.3802 153.922 36.5843 153.85 36.7936C153.8 36.9296 153.774 37.0725 153.772 37.2165C153.777 37.2886 153.798 37.3548 153.944 37.4416C154.04 37.5002 154.142 37.5488 154.248 37.5864C154.353 37.6261 154.46 37.6577 154.57 37.6808C154.373 37.5885 154.184 37.479 154.007 37.3536C153.97 37.3255 153.936 37.2933 153.906 37.2577C153.893 37.2176 153.892 37.1749 153.901 37.1338C153.918 37.0307 153.945 36.9291 153.98 36.8302C154.043 36.6271 154.128 36.4244 154.208 36.2207C154.287 36.017 154.371 35.8189 154.445 35.611Z" fill="#D19369"/>
<path d="M164.218 29.7376C164.292 29.6625 164.456 29.6096 164.812 29.6135C164.617 29.485 164.394 29.4058 164.161 29.3826C164.119 28.8852 163.915 27.9943 163.078 27.7258C163.211 27.8159 163.322 27.9347 163.403 28.0734C163.484 28.2122 163.532 28.3673 163.544 28.5273C162.626 27.4526 160.564 26.5781 154.689 26.6512C146.946 26.7474 149.158 31.8398 150.116 32.493C151.074 33.1463 153.691 31.7022 155.539 31.9725C157.388 32.2429 157.563 34.9464 158.169 35.3553C158.774 35.7642 158.57 35.0984 159.449 34.7703C160.328 34.4422 160.316 35.8575 160.007 36.759C159.697 37.6605 160.791 38.9468 160.791 38.9468L162.06 37.7519C163.328 36.5569 164.802 31.2394 164.34 30.0551L164.218 29.7376Z" fill="#5E2E0D"/>
<path d="M74.2321 79.0846H73.6094L73.6152 79.0355L73.8022 77.3797C73.8048 77.3534 73.8171 77.329 73.8367 77.3113C73.8562 77.2935 73.8817 77.2836 73.9082 77.2835H73.9275C73.9631 77.2876 73.9967 77.3024 74.0239 77.3258C74.0541 77.3537 74.0729 77.3917 74.0769 77.4326L74.2321 79.0846Z" fill="#A2C5F9"/>
<path d="M73.6686 78.7084H73.6455L73.8007 77.3788C73.8033 77.3525 73.8156 77.3281 73.8352 77.3104C73.8547 77.2926 73.8802 77.2827 73.9067 77.2826H73.926L73.9423 77.299C73.9711 77.3286 73.9871 77.3683 73.9867 77.4096L73.9954 78.3659C73.9972 78.4545 73.9638 78.5402 73.9027 78.6043C73.8415 78.6685 73.7573 78.7059 73.6686 78.7084Z" fill="#AFCDFB"/>
<path d="M74.6277 86.4553H73.4277V139.332H74.6277V86.4553Z" fill="#A2C5F9"/>
<path d="M73.9819 86.4553H73.4277V139.332H73.9819V86.4553Z" fill="#AFCDFB"/>
<path d="M75.9379 130.894H72.1172V144.885H75.9379V130.894Z" fill="#A2C5F9"/>
<path d="M74.3948 130.894H72.1172V144.885H74.3948V130.894Z" fill="#AFCDFB"/>
<path d="M76.1159 79.8822C76.1159 80.5364 75.1328 81.0655 73.9203 81.0655C73.8239 81.0655 73.7362 81.0655 73.6465 81.0559C72.5632 80.9837 71.7246 80.4863 71.7246 79.8822C71.7246 79.278 72.5632 78.7815 73.6465 78.7094C73.7362 78.7027 73.8277 78.6998 73.9203 78.6998C75.1328 78.6998 76.1159 79.2299 76.1159 79.8822Z" fill="#A2C5F9"/>
<path d="M74.9795 79.882C74.9795 80.4092 74.4301 80.8614 73.6465 81.0557C72.5631 80.9836 71.7246 80.4862 71.7246 79.882C71.7246 79.2778 72.5631 78.7814 73.6465 78.7092C74.4301 78.9036 74.9795 79.3557 74.9795 79.882Z" fill="#AFCDFB"/>
<path d="M75.9338 87.498H72.1131L70.7656 81.023H77.075L75.9338 87.498Z" fill="#AFCDFB"/>
<path d="M77.4156 80.5356H70.4248V81.1571H77.4156V80.5356Z" fill="#A2C5F9"/>
<path d="M74.819 80.5356H70.4248V81.1571H74.819V80.5356Z" fill="#AFCDFB"/>
<path d="M72.7441 130.894H75.1884L74.8308 129.812C74.8154 129.765 74.7856 129.725 74.7456 129.696C74.7056 129.667 74.6575 129.651 74.6082 129.651H73.4612C73.4003 129.652 73.3409 129.67 73.2907 129.705C73.2404 129.739 73.2014 129.787 73.1788 129.844L72.7441 130.894Z" fill="#A2C5F9"/>
<path d="M71.2168 81.3387H76.6057L75.5532 87.1584H72.4592L71.2168 81.3387Z" fill="#C7DCF9"/>
<path d="M71.8691 79.9523C71.8691 79.9523 72.2797 79.0575 73.0903 79.0864C73.0903 79.0864 72.5747 79.5443 72.6219 79.9523C72.6691 80.3602 71.8691 79.9523 71.8691 79.9523Z" fill="#C7DCF9"/>
<path d="M76.9694 80.5352H70.8721L71.3714 79.8252H76.4952L76.9694 80.5352Z" fill="#A2C5F9"/>
<path d="M75.4677 80.5352H70.8721L71.3714 79.8252H74.9935L75.4677 80.5352Z" fill="#AFCDFB"/>
<path d="M71.5752 81.5417H72.8099L73.1694 86.9766H72.8099L71.5752 81.5417Z" fill="#D2E4F9"/>
<path d="M109.462 62.9847L109.454 62.992C109.436 62.9982 109.439 62.9961 109.462 62.9847Z" fill="#FFB27D"/>
<path d="M109.565 91.8244V91.8408C109.565 91.8504 109.565 91.8619 109.565 91.8764C109.525 93.4234 109.414 95.0417 109.256 96.6753C109.027 99.0305 108.696 101.416 108.332 103.668V103.673C108.268 104.063 108.204 104.451 108.139 104.833C108.088 105.148 108.034 105.461 107.978 105.766C107.854 106.468 107.728 107.149 107.603 107.805C107.501 108.343 107.398 108.863 107.298 109.365C106.651 112.583 106.076 114.962 105.898 115.673C105.863 115.811 106.035 116.27 106.091 116.401C107.875 120.494 107.462 122.14 107.104 126.133C106.383 134.16 104.513 141.377 104.513 141.377L101.352 144.344C101.352 144.344 102.352 138.817 101.117 128.905C100.669 125.359 100.031 121.84 99.2061 118.363C98.1806 114.001 95.7035 102.653 95.3989 94.3038C95.3671 93.4379 95.6274 84.7271 97.3131 81.1952C97.7507 80.2793 101.181 82.4459 101.181 82.4459L104.708 82.4729L108.222 82.4998C108.25 82.5537 108.278 82.6085 108.305 82.6643C108.903 83.8948 109.263 85.5217 109.442 87.3978C109.57 88.8697 109.611 90.3478 109.565 91.8244Z" fill="#45258F"/>
<path d="M109.565 91.8246V91.841C109.565 91.8506 109.565 91.8622 109.565 91.8766C109.525 93.4237 109.414 95.0419 109.256 96.6755C109.027 99.0307 108.696 101.416 108.332 103.668V103.673C108.268 104.063 108.204 104.451 108.139 104.833C108.088 105.148 108.034 105.461 107.978 105.766C107.854 106.468 107.728 107.149 107.603 107.805C107.501 108.343 107.398 108.863 107.298 109.366C107.298 109.366 97.6862 86.6967 97.5859 86.3984L104.707 82.4808L108.221 82.5077C108.249 82.5616 108.277 82.6164 108.304 82.6722C108.903 83.9028 109.262 85.5297 109.441 87.4057C109.569 88.8751 109.61 90.3505 109.565 91.8246Z" fill="#2D185D"/>
<path d="M101.002 145.14L101.014 145.126C101.077 145.063 101.393 144.786 102.074 144.879C102.522 144.941 102.845 145.072 103.282 145.141L104.589 145.15C105.713 145.016 105.649 144.702 105.649 144.702C105.649 144.702 105.542 144.432 105.415 144.051C105.206 143.422 104.944 142.492 105.029 141.994C105.083 141.705 105.043 141.407 104.915 141.142C104.843 140.988 104.742 140.849 104.617 140.734C104.617 140.734 103.693 141.82 103.157 141.364C102.122 140.48 101.883 140.402 101.833 140.402H101.82C101.82 140.402 99.5226 141.831 98.9212 142.366C97.8523 143.32 96.6908 143.464 96.101 143.63C95.9833 143.663 95.8748 143.723 95.7842 143.805C95.6935 143.887 95.6231 143.988 95.5786 144.102C95.4455 144.44 95.3077 144.9 95.4465 145.1L101.002 145.14Z" fill="#F99746"/>
<path d="M98.6551 56.7166C98.6551 56.7166 96.4517 70.6862 92.9009 76.0335C91.1148 78.7216 78.792 68.3185 78.792 68.3185L80.2108 67.4747C80.2108 67.4747 89.8599 72.189 90.177 71.6464C90.4941 71.1037 91.563 59.9088 93.4965 58.3415C95.43 56.7743 98.6551 56.7166 98.6551 56.7166Z" fill="#EFAC7F"/>
<path d="M99.5889 50.2322C99.5889 50.2322 96.8024 50.0696 95.5513 45.6141C94.5874 42.1698 96.5219 37.9308 101.497 38.308C101.497 38.308 104.789 37.9866 105.921 40.6824C106.423 41.8735 107.237 42.344 105.795 46.7302L105.443 48.2031L99.5889 50.2322Z" fill="#233862"/>
<path d="M105.19 46.1482C105.19 46.1482 106.881 48.1243 108.803 47.7501C110.725 47.3758 114.532 46.1366 116.006 47.8867C117.479 49.6368 115.418 53.6237 116.873 55.1149C118.329 56.6062 117.162 61.1762 110.505 59.6589C103.848 58.1417 104.085 50.7932 104.207 49.7878C104.33 48.7824 105.19 46.1482 105.19 46.1482Z" fill="#233862"/>
<path d="M136.681 121.023L136.383 123.026C136.383 123.026 128.398 120.553 119.452 118.185C116.629 117.437 113.713 116.7 110.92 116.055C108.059 115.393 99.5654 78.9372 99.5654 78.9372C99.5654 78.9372 112.121 77.6865 115.373 83.8439C120.457 93.4745 114.762 109.659 118.746 110.256C119.743 110.419 120.719 110.687 121.659 111.055C128.537 113.654 136.681 121.023 136.681 121.023Z" fill="#45258F"/>
<path d="M95.7482 56.657C95.7482 56.657 99.6036 54.8088 103.337 54.5317C107.07 54.2546 111.503 54.7001 112.477 55.6862C112.98 56.1971 114.62 60.2081 113.923 63.4022C113.132 67.0101 112.85 68.7669 112.788 71.0413C112.667 75.5131 114.01 77.8981 115.805 82.9318C116.984 86.2357 104.817 93.1454 95.9708 86.5685C96.2523 82.9068 97.5728 74.0979 96.6118 72.4709C93.8311 67.7634 93.9275 57.952 95.7482 56.657Z" fill="#9ED16F"/>
<path d="M112.52 55.7123C112.52 55.7123 121.783 66.2953 122.796 69.3567C123.809 72.4181 109.718 78.513 109.718 78.513L109.129 76.3001C109.129 76.3001 117.225 69.8012 116.985 69.2201C116.745 68.639 110.765 63.2811 110.686 60.7941C110.608 58.307 112.52 55.7123 112.52 55.7123Z" fill="#EFAC7F"/>
<path d="M101.163 58.2563C97.477 58.3717 98.8871 56.5572 99.3594 55.9107C99.424 55.823 99.4741 55.7255 99.5078 55.622C99.7661 54.8427 99.743 53.2909 99.6688 52.2383C99.5898 51.1098 99.4404 49.9293 99.3893 49.532L99.37 49.3954L103.985 48.1591L104.807 49.6243L104.979 49.9322C105.063 50.7521 105.21 51.5643 105.419 52.3615C105.644 53.2274 105.949 54.0721 106.324 54.4685C106.582 54.7398 106.77 58.0783 101.163 58.2563Z" fill="#EFAC7F"/>
<path d="M105.419 52.3591C101.883 52.2716 99.4523 49.6008 99.3896 49.5306C100.85 49.0803 102.982 49.265 104.807 49.6268L104.979 49.9346C105.063 50.7529 105.21 51.5635 105.419 52.3591Z" fill="#ED975D"/>
<path d="M105.225 51.2268C105.225 51.2268 99.039 51.7415 98.7778 47.8912C98.5166 44.0409 97.5421 41.5134 101.477 41.0228C105.411 40.5321 106.283 41.9493 106.681 43.2135C107.079 44.4777 106.828 50.9939 105.225 51.2268Z" fill="#EFAC7F"/>
<path d="M101.954 45.4811C101.987 45.5585 101.993 45.6442 101.973 45.7256C101.953 45.807 101.907 45.8797 101.842 45.9329C101.778 45.9862 101.698 46.0173 101.614 46.0215C101.531 46.0257 101.448 46.0029 101.379 45.9564C101.309 45.9099 101.256 45.8422 101.228 45.7633C101.2 45.6843 101.198 45.5984 101.222 45.5182C101.246 45.4379 101.295 45.3676 101.363 45.3177C101.43 45.2677 101.511 45.2407 101.595 45.2407C101.672 45.2407 101.747 45.2636 101.811 45.3063C101.875 45.3491 101.925 45.4099 101.954 45.4811Z" fill="#333333"/>
<path d="M105.268 44.9838C105.293 45.044 105.302 45.1094 105.294 45.174C105.287 45.2386 105.264 45.3003 105.227 45.3537C105.19 45.407 105.14 45.4503 105.082 45.4795C105.025 45.5087 104.96 45.523 104.895 45.521C104.819 45.5203 104.745 45.4971 104.682 45.4544C104.62 45.4116 104.571 45.3512 104.542 45.2807C104.518 45.2325 104.504 45.1799 104.501 45.1262C104.498 45.0725 104.507 45.0187 104.525 44.9683C104.544 44.9179 104.573 44.872 104.611 44.8334C104.648 44.7948 104.693 44.7644 104.743 44.7441C104.793 44.7237 104.846 44.7139 104.9 44.7152C104.953 44.7165 105.006 44.7289 105.055 44.7516C105.103 44.7744 105.147 44.8069 105.182 44.8473C105.218 44.8877 105.245 44.9349 105.261 44.9862L105.268 44.9838Z" fill="#333333"/>
<path d="M102.269 44.6892C102.077 44.6519 101.882 44.631 101.687 44.6267C101.505 44.622 101.323 44.6435 101.146 44.6904C100.971 44.737 100.803 44.8099 100.649 44.9067C100.483 45.0129 100.323 45.1277 100.17 45.2505C100.24 45.0522 100.357 44.874 100.511 44.7312C100.668 44.5797 100.861 44.4716 101.072 44.4175C101.281 44.3612 101.501 44.3575 101.712 44.4067C101.919 44.4509 102.111 44.5483 102.269 44.6892Z" fill="#5E2E0D"/>
<path d="M103.816 44.4331C103.921 44.2499 104.071 44.0965 104.251 43.9871C104.436 43.873 104.645 43.8061 104.862 43.7924C105.079 43.7766 105.297 43.818 105.493 43.9126C105.685 43.9984 105.853 44.1296 105.982 44.2949C105.799 44.2278 105.611 44.1704 105.421 44.123C105.244 44.0804 105.062 44.065 104.881 44.0773C104.699 44.0899 104.519 44.1279 104.347 44.1903C104.164 44.2572 103.987 44.3384 103.816 44.4331Z" fill="#5E2E0D"/>
<path d="M103.142 44.9248C103.323 45.0976 103.493 45.2818 103.65 45.4765C103.81 45.6704 103.955 45.8757 104.086 46.0907C104.174 46.2297 104.239 46.3824 104.277 46.5427C104.29 46.6244 104.284 46.7037 104.147 46.8383C104.058 46.9286 103.959 47.0091 103.853 47.0787C103.75 47.1501 103.641 47.2132 103.527 47.2674C103.718 47.1133 103.895 46.9424 104.056 46.7566C104.09 46.7155 104.118 46.6707 104.142 46.6232C104.146 46.5752 104.137 46.5272 104.116 46.4838C104.071 46.373 104.017 46.2665 103.954 46.1652C103.834 45.9549 103.691 45.7506 103.554 45.5438C103.416 45.3371 103.275 45.1376 103.142 44.9248Z" fill="#D19369"/>
<path d="M104.296 40.7414C104.296 40.7414 102.902 45.372 100.344 46.2128C97.7862 47.0537 96.6104 46.437 96.6104 46.437C96.6104 46.437 98.5005 44.7216 98.7308 41.9306C98.7299 41.9267 102.872 38.6768 104.296 40.7414Z" fill="#233862"/>
<path d="M103.898 41.1356C103.898 41.1356 105.232 42.0601 105.606 43.0203C105.98 43.9805 106.254 45.9893 106.839 45.8816C106.839 45.8816 107.912 42.7259 106.357 41.0846C104.715 39.3441 103.898 41.1356 103.898 41.1356Z" fill="#233862"/>
<path d="M111.815 55.2823C111.815 55.2823 114.86 56.3406 117.323 60.67C117.323 60.67 116.88 63.5496 113.082 65.5642C109.285 67.5789 109.648 59.4732 109.648 59.4732L111.815 55.2823Z" fill="#9ED16F"/>
<path d="M96.2964 56.4127C96.2964 56.4127 93.3335 57.6375 92.841 58.8622C92.0873 60.7335 91.2236 63.8285 91.2236 63.8285C91.2236 63.8285 92.4304 66.7148 96.5171 67.446C100.345 68.1281 96.2964 56.4127 96.2964 56.4127Z" fill="#9ED16F"/>
<path d="M109.775 76.0336L111.165 77.3228C111.165 77.3228 109.585 80.0388 108.841 80.2389L108.765 80.2466C107.978 80.3294 106.176 78.8997 105.975 77.5768C105.959 77.4506 105.977 77.3224 106.027 77.2054C106.397 76.4502 108.237 76.1721 109.194 76.0778C109.543 76.0432 109.775 76.0336 109.775 76.0336Z" fill="#EFAC7F"/>
<path d="M81.0253 67.8695L80.5231 69.3839C80.5231 69.3839 78.9212 69.2213 77.9709 68.8855C77.6065 68.7566 77.0822 68.3929 77.0225 68.0119C76.8885 67.172 77.0041 65.5759 77.78 64.9784C77.8833 64.9033 78.0047 64.8568 78.1318 64.8437C78.9723 64.7995 81.0253 67.8695 81.0253 67.8695Z" fill="#EFAC7F"/>
<path d="M139.324 122.509L139.309 122.498C139.239 122.443 138.924 122.162 138.941 121.476C138.951 121.025 139.037 120.69 139.061 120.249L138.919 118.952C138.657 117.852 138.352 117.948 138.352 117.948C138.352 117.948 138.095 118.086 137.73 118.255C137.129 118.535 136.234 118.902 135.728 118.875C135.435 118.854 135.142 118.928 134.894 119.085C134.748 119.175 134.622 119.291 134.522 119.429C134.522 119.429 135.709 120.22 135.317 120.803C134.557 121.931 134.51 122.178 134.515 122.228V122.239C134.515 122.239 136.203 124.356 136.804 124.887C137.877 125.836 138.154 126.972 138.389 127.536C138.435 127.649 138.506 127.75 138.598 127.831C138.69 127.911 138.799 127.97 138.917 128.001C139.27 128.097 139.743 128.176 139.926 128.017L139.324 122.509Z" fill="#F99746"/>
<path d="M59.0684 145.486L18.9952 145.475C18.9952 145.475 17.7162 142.37 16.041 137.243C17.9099 136.796 23.0714 135.826 26.6675 137.656C31.1301 139.926 30.546 142.947 36.0737 141.84C41.6014 140.733 46.1595 140.268 48.6347 141.84C51.1098 143.412 52.9267 142.786 56.0052 142.776C58.5585 142.769 58.9951 144.795 59.0684 145.486Z" fill="#A8D29F"/>
<path d="M61.6762 134.148H25.1115L23.4219 125.57H59.9201L61.6762 134.148Z" fill="#D36D1A"/>
<path d="M62.3002 134.148H25.7355L24.0459 125.57H60.5441L62.3002 134.148Z" fill="#F49540"/>
<path d="M25.1113 134.149H35.9065V135.199H25.9113C25.6992 135.199 25.4957 135.114 25.3456 134.965C25.1956 134.815 25.1113 134.612 25.1113 134.4V134.149Z" fill="#D36D1A"/>
<path d="M69.0308 134.149H35.8223V135.199H69.0308V134.149Z" fill="#FFA255"/>
<path d="M27.2933 135.199L26.6678 137.656L24.8143 144.934C24.8027 144.98 24.776 145.021 24.7385 145.051C24.7009 145.08 24.6547 145.096 24.6071 145.096C24.5629 145.096 24.5194 145.086 24.4794 145.068C24.4395 145.049 24.4042 145.022 24.3761 144.988C24.348 144.954 24.3278 144.914 24.3169 144.871C24.306 144.829 24.3047 144.784 24.3131 144.741L25.9671 136.25L26.1724 135.192L27.2933 135.199Z" fill="#FFA255"/>
<path d="M26.6675 137.656C26.7273 136.398 25.9668 136.253 25.9668 136.253L26.1721 135.195H27.2931L26.6675 137.656Z" fill="#D36D1A"/>
<path d="M35.2262 135.199L34.5997 137.656L32.7462 144.934C32.7348 144.98 32.7081 145.022 32.6706 145.051C32.633 145.08 32.5867 145.096 32.539 145.096C32.4952 145.095 32.4521 145.085 32.4127 145.066C32.3732 145.047 32.3385 145.02 32.3109 144.986C32.2833 144.952 32.2635 144.913 32.2529 144.87C32.2424 144.828 32.2413 144.784 32.2498 144.741L33.9028 136.25L34.1081 135.192L35.2262 135.199Z" fill="#FFA255"/>
<path d="M34.5992 137.656C34.6599 136.398 33.8984 136.253 33.8984 136.253L34.1037 135.195H35.2257L34.5992 137.656Z" fill="#D36D1A"/>
<path d="M66.001 135.199L66.6275 137.656L68.48 144.934C68.4917 144.98 68.5184 145.021 68.5559 145.05C68.5935 145.08 68.6396 145.096 68.6872 145.096C68.7313 145.096 68.7749 145.086 68.8148 145.068C68.8548 145.049 68.8901 145.022 68.9182 144.988C68.9463 144.954 68.9665 144.914 68.9774 144.871C68.9883 144.829 68.9896 144.784 68.9812 144.741L67.3282 136.25L67.1229 135.192L66.001 135.199Z" fill="#FFA255"/>
<path d="M66.6275 137.656C66.5668 136.398 67.3282 136.253 67.3282 136.253L67.1229 135.195H66.001L66.6275 137.656Z" fill="#D36D1A"/>
<path d="M58.0693 135.199L58.6958 137.656L60.5483 144.934C60.5601 144.98 60.5868 145.021 60.6243 145.05C60.6618 145.08 60.708 145.096 60.7556 145.096C60.7993 145.095 60.8423 145.085 60.8816 145.066C60.921 145.047 60.9557 145.02 60.9832 144.986C61.0108 144.952 61.0306 144.912 61.0412 144.87C61.0518 144.828 61.053 144.784 61.0447 144.741L59.3917 136.25L59.1855 135.192L58.0693 135.199Z" fill="#FFA255"/>
<path d="M58.6958 137.656C58.6351 136.398 59.3966 136.253 59.3966 136.253L59.1903 135.195H58.0693L58.6958 137.656Z" fill="#D36D1A"/>
</svg>
