<svg width="174" height="137" viewBox="0 0 174 137" fill="none" xmlns="http://www.w3.org/2000/svg">
<path d="M30.7932 137.84C30.7932 137.84 0.564667 74.6354 61.5958 74.6354C93.8411 74.6354 81.4782 44.9575 103.401 23.3789C125.324 1.80021 205.504 -10.2796 221.823 31.3898C238.141 73.0592 192.75 106.276 231.719 100.849C278.548 94.3267 296.948 137.84 296.948 137.84H30.7932Z" fill="#D1EAF2"/>
<path d="M161.985 51.7556C161.562 51.3256 158.474 50.5279 158.474 50.5279C158.474 50.5279 153.546 40.5233 150.427 35.3489C149.358 33.5748 148.625 26.6964 147.875 22.9523C147.875 22.9523 147.423 19.6427 145.863 17.8074C144.818 16.5832 139.218 15.9971 139.218 15.9971C139.217 16 139.217 16.0031 139.218 16.0061L138.696 15.8986C138.153 15.7855 137.64 15.4732 137.58 14.9233C137.58 14.8961 137.58 14.869 137.571 14.8407C137.509 14.1875 137.484 13.5313 137.495 12.8753C137.494 12.867 137.494 12.8586 137.495 12.8504C137.51 11.8716 137.585 11.1464 137.585 11.1464H137.567L131.698 10.205C131.618 12.0346 131.512 13.398 131.4 14.4141C131.358 14.7899 131.185 15.139 130.911 15.4C130.637 15.661 130.28 15.8171 129.902 15.8409L129.549 15.8635C129.549 15.8635 125.767 15.7164 124.319 16.1589C122.69 16.6556 119.074 20.5932 119.074 20.5932L119.094 20.6101C114.756 24.8668 110.122 30.9169 110.375 32.0699C110.736 33.697 116.888 42.9322 119.118 44.6294H121.356C121.356 44.6294 116.407 33.353 116.343 32.4387C116.288 31.6535 120.582 28.7501 124.141 26.2088C124.201 26.3875 124.158 26.6003 124.067 26.856C123.757 27.7204 122.887 29.076 123.555 31.2541C125.186 36.58 125.082 37.3019 125.082 37.3019C125.116 37.3279 125.153 37.3528 125.195 37.3788C125.279 38.0838 125.383 38.8204 125.519 39.6011C125.519 39.6011 121.572 44.2187 118.825 47.0293L127.912 56.0937L143.346 47.0293C143.346 47.0293 142.744 45.3525 142.123 43.6349C141.556 42.0621 140.962 40.4565 140.801 40.0899C140.726 39.919 140.711 39.3578 140.738 38.5239C140.865 38.5024 142.197 34.5241 143.056 31.8277C143.176 31.4757 143.263 31.1132 143.316 30.7449V30.7381C144.061 34.3261 144.995 37.8993 146.015 39.712C147.979 43.2026 156.654 52.1448 156.654 52.1448C157.013 52.9131 158.663 53.2593 159.825 54.5311C159.825 54.5311 160.99 55.7169 163.201 55.5562C163.615 55.528 162.406 52.1855 161.985 51.7556Z" fill="#62BDF3"/>
<path d="M132.444 116.842C132.444 116.842 134.198 98.1658 131.908 87.824C131.908 87.824 131.087 85.1853 132.689 80.0405C135.352 71.4943 134.614 57.5045 133.609 55.5448C133.233 54.8071 132.131 53.9381 130.69 53.0487C126.377 50.3875 119.385 47.6923 119.385 47.6923C119.385 47.6923 114.516 55.5188 114.544 60.3989C114.568 65.0765 122.642 86.9143 122.95 90.2703C123.258 93.6263 123.422 102.579 128.849 116.84C128.849 116.84 128.645 119.182 128.344 119.669C128.043 120.155 126.777 121.777 125.33 122.319C123.882 122.861 119.743 122.58 119.422 124.083H134.011C134.011 124.083 134.212 121.831 133.65 120.349C133.087 118.866 132.444 116.842 132.444 116.842Z" fill="#62BDF3"/>
<path d="M137.574 14.8396C135.135 14.5103 131.701 10.2004 131.701 10.2004L137.583 10.9755C137.583 10.9755 137.576 11.0332 137.565 11.1373C137.51 11.7047 137.486 12.2747 137.494 12.8447C137.492 12.853 137.492 12.8614 137.494 12.8696C137.483 13.5273 137.51 14.185 137.574 14.8396Z" fill="#3797DB"/>
<path d="M139.342 11.2776C139.342 11.2776 132.488 13.5643 131.129 9.27824C129.77 4.99215 127.969 2.39538 132.29 0.754717C136.61 -0.885944 137.985 0.478633 138.787 1.80021C139.589 3.1218 141.095 10.5727 139.342 11.2776Z" fill="#62BDF3"/>
<path d="M155.273 119.425C154.871 118.542 153.234 116.314 153.234 116.314C149.135 91.4426 143.835 91.0681 143.735 88.1771C143.705 87.2221 144.177 84.1682 144.791 80.3506C146.037 72.5998 147.849 61.6968 147.206 58.8115C146.913 57.5046 146.442 55.9047 145.927 54.3104C144.744 50.6557 143.333 47.0304 143.333 47.0304L127.195 52.0486C127.195 52.0486 132.25 80.5746 132.926 87.8037C133.468 93.5822 149.204 116.317 149.204 116.317C149.002 117.624 150.048 119.911 149.967 121.115C149.887 122.319 150.611 124.084 150.611 124.084C150.611 124.084 157.685 124.116 158.005 124.084C158.326 124.052 155.675 120.309 155.273 119.425Z" fill="#BDD8FF"/>
<path d="M119.125 44.6283C119.125 44.6283 116.892 47.4468 116.892 47.9594C116.892 48.472 117.238 51.0371 117.781 51.0676C118.323 51.0982 118.61 48.8929 119.032 48.5614C119.454 48.2298 120.957 47.6075 121.172 47.0304C121.387 46.4534 121.358 44.6283 121.358 44.6283H119.125Z" fill="#3797DB"/>
<path d="M108.951 124.095L98.2412 92.9361L105.649 84.4534V57.1912L121.614 48.6971L135.276 41.4296L151.537 58.7199L148.221 78.0831L159.441 96.9371L169.567 107.803L161.991 124.095H108.951Z" fill="#62BDF3"/>
<path d="M169.567 107.803L159.441 96.937L134.036 106.365L108.951 124.095H161.991L169.567 107.803Z" fill="#89D0FB"/>
<path d="M134.035 106.365L98.2407 92.9362L108.95 124.095L134.035 106.365Z" fill="#62BDF3"/>
<path d="M98.2407 92.9361L124.533 63.0433L134.035 106.365L98.2407 92.9361Z" fill="#3797DB"/>
<path d="M148.221 78.0831L124.533 63.0433L134.036 106.365L148.221 78.0831Z" fill="#89D0FB"/>
<path d="M105.649 57.1912L124.533 63.0432L105.649 84.4534V57.1912Z" fill="#62BDF3"/>
<path d="M124.533 63.0433L151.536 58.7198L148.22 78.0831L124.533 63.0433Z" fill="#89D0FB"/>
<path d="M105.649 57.1913L124.533 63.0434L117.53 50.8708L105.649 57.1913Z" fill="#3797DB"/>
<path d="M140.717 39.0953L145.119 51.897L117.53 50.8707L140.717 39.0953Z" fill="#3797DB"/>
<path d="M74.024 123.911H193.785C194.992 123.911 195.971 124.889 195.971 126.095V135.347C195.971 136.553 194.992 137.531 193.785 137.531H74.024C72.8169 137.531 71.8384 136.553 71.8384 135.347V126.095C71.8384 124.889 72.8169 123.911 74.024 123.911Z" fill="#3797DB"/>
<path d="M157.161 91.5252C157.161 91.5252 164.02 87.6872 160.82 82.4789C160.82 82.4789 158.259 79.2802 155.515 78.4576C155.515 78.4576 156.978 86.2253 155.515 86.4075C154.051 86.5896 154.509 77.635 154.509 77.635C154.509 77.635 147.284 74.1625 144.448 74.4374C144.448 74.4374 148.929 82.0184 147.466 81.8385C146.003 81.6586 140.973 73.9803 140.973 73.9803C140.973 73.9803 133.564 72.6089 132.375 76.9957C131.186 81.3825 133.107 83.5753 134.205 83.8492C135.304 84.123 142.345 84.0325 142.162 84.9456C141.978 85.8587 137.223 87.3217 134.574 86.4991C134.574 86.4991 137.501 93.718 141.342 93.3525C145.183 92.9871 146.372 90.611 148.75 90.4288C151.129 90.2466 152.866 90.8814 151.677 91.5252C150.488 92.169 146.467 91.7345 144.542 93.3661C142.617 94.9977 141.067 96.0025 144.634 96.7334C148.201 97.4644 154.6 97.0084 155.883 94.2668L156.043 93.9273C156.005 94.0469 155.951 94.161 155.883 94.2668C156.542 94.6504 157.53 96.4845 158.215 97.8876C158.313 98.1252 158.466 98.4533 158.693 98.898C158.775 99.0745 158.842 99.225 158.892 99.337C160.176 102.472 159.504 107.954 159.504 107.954L160.266 108.159C161.955 102.69 158.992 98.1953 158.992 98.1953C157.066 94.6323 157.161 91.5252 157.161 91.5252Z" fill="#9ED16F"/>
<path d="M200.746 67.0794C199.178 61.2975 189.413 63.1045 189.413 63.1045C189.413 63.1045 182.783 73.2223 180.853 73.4633C178.924 73.7043 184.832 63.703 184.832 63.703C181.094 63.3421 171.571 67.919 171.571 67.919C171.571 67.919 172.173 79.7238 170.244 79.4828C168.316 79.2418 170.244 69.003 170.244 69.003C166.627 70.0869 163.252 74.3029 163.252 74.3029C159.032 81.1699 168.074 86.2288 168.074 86.2288C168.074 86.2288 168.195 90.3248 165.663 95.0216C165.663 95.0216 161.759 100.946 163.984 108.157L164.989 107.888C164.989 107.888 164.111 100.733 165.768 96.5898C165.836 96.4371 165.934 96.2164 166.058 95.9483C166.359 95.3588 166.563 94.93 166.691 94.6097C167.597 92.7597 168.895 90.3485 169.762 89.8428C169.673 89.7016 169.602 89.5495 169.551 89.3902L169.762 89.8428C171.448 93.4613 179.89 94.0621 184.585 93.0981C189.28 92.134 187.238 90.8091 184.706 88.6592C182.174 86.5094 176.869 87.0751 175.306 86.2322C173.744 85.3892 176.03 84.5463 179.165 84.7861C182.299 85.026 183.867 88.1591 188.93 88.6411C193.993 89.1231 197.851 79.6073 197.851 79.6073C194.355 80.6913 188.086 78.7632 187.845 77.5593C187.604 76.3554 196.886 76.4753 198.334 76.1132C199.781 75.7512 202.313 72.8613 200.746 67.0794Z" fill="#9ED16F"/>
<path d="M185.48 106.215C185.48 110.341 184.037 114.337 181.401 117.512C178.765 120.688 175.102 122.844 171.044 123.607C170.319 123.745 169.585 123.835 168.848 123.878C168.491 123.899 168.131 123.91 167.77 123.91C165.444 123.911 163.141 123.453 160.992 122.564C158.843 121.675 156.891 120.371 155.246 118.728C153.601 117.085 152.296 115.134 151.406 112.987C150.516 110.84 150.058 108.539 150.057 106.215H185.48Z" fill="#62BDF3"/>
<path d="M149.475 106.101H185.885V106.644H149.475V106.101Z" fill="#96A65F"/>
<path d="M55.8574 124.869L57.5164 131.851L60.001 131.837L60.0928 124.869H55.8574Z" fill="#EFAC7F"/>
<path d="M76.7607 125.167L81.482 131.852L83.3223 129.49L80.4809 124.248L76.7607 125.167Z" fill="#EFAC7F"/>
<path d="M64.4874 33.1198C63.6301 32.6321 62.6018 32.5789 61.8827 32.6219C62.0673 32.4307 62.432 32.3605 62.432 32.3605C61.9858 32.2949 60.9903 32.7362 60.9903 32.7362C54.7868 30.3488 53.8128 39.4742 53.9431 41.5946C54.0733 43.7151 51.8582 44.4064 48.6307 46.0776C42.4736 49.265 41.9323 53.5319 41.9323 53.5319C41.981 53.5602 42.0308 53.593 42.084 53.6292C42.3898 53.1121 43.0183 52.1413 43.5483 51.9942C43.529 52.0417 42.922 53.3316 42.6956 54.0705C44.5075 55.452 47.9105 58.5104 50.283 60.6795C50.2728 60.2563 50.2898 59.6544 50.4449 59.3364L50.7326 61.1004C51.9998 62.2613 52.8763 63.0805 52.8763 63.0805C52.72 61.3663 60.6314 52.3257 64.7592 49.6158C65.7648 48.1369 66.1181 45.5266 66.1487 45.3161C65.9743 47.3867 65.6198 48.5477 65.3039 49.2017C68.7964 45.9939 66.7613 34.4108 64.4874 33.1198Z" fill="#5E2E0D"/>
<path d="M64.5125 49.7527C64.534 49.7617 62.5206 50.8061 61.002 50.392C59.5774 50.0039 58.6465 48.1584 58.6658 48.1539C59.2693 48.0351 59.4437 47.2057 59.4302 43.646L59.7031 43.7003L64.2894 44.6055C64.2894 44.6055 64.1853 46.047 64.1819 47.406C64.183 48.5488 64.2521 49.6305 64.5125 49.7527Z" fill="#EFAC7F"/>
<path d="M64.293 44.6079C64.293 44.6079 64.1888 46.0494 64.1854 47.4083C61.6192 47.3359 60.2626 44.996 59.7065 43.7004L64.293 44.6079Z" fill="#D68D5D"/>
<path d="M59.2326 43.2015C59.2326 43.2015 57.8872 41.0732 57.5645 39.2628C57.338 37.9661 57.9948 33.1618 62.8269 33.8531C63.8004 33.9881 64.731 34.3395 65.5504 34.8816C66.5991 35.59 68.1132 37.1186 66.4202 41.3108L65.9808 42.7274L59.2326 43.2015Z" fill="#5E2E0D"/>
<path d="M82.5723 127.658L80.1409 127.733L77.5102 127.813C77.5102 127.813 71.4312 121.051 68.0225 110.212C67.9421 109.96 67.8583 109.705 67.7699 109.447C65.9037 104.016 62.0352 97.187 59.9968 91.0102C59.6729 90.0269 59.3807 89.1014 59.1202 88.2245C59.0342 87.9439 58.9534 87.6678 58.8779 87.3962C57.3763 82.1812 56.9414 78.7573 56.5405 75.0992L71.2624 75.2123C71.2624 75.2123 73.6349 100.198 82.5723 127.658Z" fill="#45258F"/>
<path d="M69.198 66.7659C69.1606 73.7642 70.2263 76.7672 70.2263 76.7672C70.2263 76.7672 63.923 79.9659 56.433 77.6113C56.3447 77.583 50.6575 76.2852 50.6575 76.2852C50.782 76.0023 52.7151 71.3066 52.8374 71.043C54.4229 67.6485 54.381 66.0486 54.5678 65.0053C54.9166 63.0569 54.9234 61.0451 54.7502 59.142C54.4553 56.0199 53.8483 52.9351 52.9382 49.9339C54.9767 49.47 56.8905 48.6542 59.015 47.8587C59.5042 48.4663 60.9979 49.1034 62.2991 49.0728C63.7905 49.04 64.2752 48.4018 64.1971 47.7048C65.7825 48.5897 67.0565 49.4247 67.0565 49.4247C68.4076 51.7703 71.1481 54.0468 71.3463 57.645C71.3803 58.5298 69.1991 66.5691 69.198 66.7659Z" fill="#E7F1FD"/>
<path d="M77.7453 56.3687C75.5846 53.8454 69.9858 48.3758 64.208 47.7048L69.1908 57.4096C69.1908 57.4096 69.4716 59.0729 70.9472 60.0415C74.5642 62.4176 79.162 63.4654 79.162 63.4654C79.162 63.4654 82.2751 62.1076 86.532 58.9926C87.8671 58.0138 90.2158 54.2833 90.2158 54.2833L89.5817 52.1663C89.5817 52.1663 85.5966 54.3931 84.1731 55.0346C83.3611 55.4012 81.4937 56.2793 80.1767 56.8925C79.7698 57.0829 79.3117 57.1347 78.8726 57.04C78.4335 56.9454 78.0375 56.7096 77.7453 56.3687Z" fill="#9ED16F"/>
<path d="M65.1499 45.8933C65.1499 45.8933 59.0778 45.994 59.0733 42.2148C59.0688 38.4356 58.2806 35.9034 62.1592 35.6793C66.0378 35.4553 66.7908 36.8968 67.1 38.1584C67.4092 39.42 66.7297 45.7699 65.1499 45.8933Z" fill="#EFAC7F"/>
<path d="M62.8828 40.8278C62.9011 40.936 62.884 41.0472 62.8342 41.1449C62.7844 41.2426 62.7044 41.3217 62.6062 41.3705C62.5079 41.4193 62.3966 41.4352 62.2886 41.4159C62.1806 41.3965 62.0817 41.3429 62.0066 41.263C61.9314 41.1831 61.8839 41.0812 61.8712 40.9722C61.8584 40.8633 61.881 40.7531 61.9357 40.658C61.9904 40.5629 62.0742 40.4879 62.1748 40.4441C62.2754 40.4003 62.3874 40.3901 62.4943 40.4148C62.5926 40.4376 62.6819 40.489 62.7511 40.5625C62.8202 40.636 62.8661 40.7283 62.8828 40.8278Z" fill="#333333"/>
<path d="M66.0973 40.5504C66.1105 40.6319 66.103 40.7153 66.0755 40.793C66.048 40.8707 66.0014 40.9403 65.9398 40.9955C65.8782 41.0506 65.8036 41.0896 65.7229 41.109C65.6421 41.1283 65.5576 41.1273 65.4771 41.1061C65.3823 41.0831 65.2963 41.033 65.2298 40.9619C65.1634 40.8909 65.1195 40.802 65.1037 40.7065C65.0874 40.6401 65.0852 40.5712 65.097 40.5039C65.1089 40.4367 65.1347 40.3727 65.1727 40.316C65.2107 40.2592 65.2603 40.2109 65.3181 40.1741C65.3759 40.1373 65.4409 40.1127 65.5089 40.102C65.5768 40.0913 65.6464 40.0946 65.7131 40.1118C65.7798 40.1289 65.8424 40.1596 65.8967 40.2018C65.951 40.2439 65.996 40.2968 66.0289 40.3569C66.0617 40.4171 66.0817 40.4833 66.0876 40.5513L66.0973 40.5504Z" fill="#333333"/>
<path d="M63.1216 39.5927C62.9325 39.5615 62.7419 39.5496 62.5518 39.5569C62.3742 39.5631 62.1989 39.5995 62.0311 39.6652C61.8638 39.7304 61.7064 39.8258 61.564 39.9481C61.411 40.0819 61.2642 40.2254 61.124 40.3778C61.1773 40.143 61.2777 39.9286 61.4167 39.7529C61.5576 39.5669 61.7373 39.4291 61.9382 39.3529C62.1374 39.2743 62.3508 39.256 62.5596 39.2998C62.7639 39.3381 62.9575 39.439 63.1216 39.5927Z" fill="#5E2E0D"/>
<path d="M65.189 39.6118C65.4287 39.4197 65.6786 39.2899 65.9153 39.2346C66.1594 39.175 66.3833 39.1914 66.5672 39.2826C66.7539 39.3714 66.8921 39.5372 66.9681 39.7635C67.0477 39.9753 67.0697 40.2361 67.0323 40.5232C66.9429 40.3402 66.8426 40.1686 66.7317 40.0089C66.6271 39.8623 66.495 39.7494 66.3399 39.674C66.1841 39.5987 66.0086 39.5587 65.8188 39.5553C65.616 39.5523 65.4054 39.5712 65.189 39.6118Z" fill="#5E2E0D"/>
<path d="M64.0959 40.9115C64.2199 41.095 64.3317 41.286 64.4306 41.4833C64.5324 41.6806 64.6195 41.8847 64.6912 42.094C64.7409 42.23 64.7671 42.3729 64.7688 42.5169C64.7642 42.589 64.7433 42.6553 64.5973 42.742C64.5014 42.8006 64.3995 42.8492 64.293 42.8868C64.1884 42.9265 64.0806 42.9581 63.9707 42.9812C64.1682 42.8889 64.3566 42.7794 64.5337 42.6541C64.5712 42.6259 64.6053 42.5937 64.6355 42.5581C64.6479 42.518 64.6494 42.4753 64.6399 42.4342C64.6227 42.3311 64.5964 42.2295 64.5611 42.1306C64.4978 41.9275 64.4133 41.7248 64.3335 41.5211C64.2537 41.3174 64.1704 41.1193 64.0959 40.9115Z" fill="#D19369"/>
<path d="M64.9258 35.5866C64.9258 35.5866 63.2622 40.0209 60.7108 40.6783C58.1594 41.3357 57.053 40.6511 57.053 40.6511C57.053 40.6511 57.4165 36.7882 57.8219 34.0772C57.8219 34.0749 63.671 33.4763 64.9258 35.5866Z" fill="#5E2E0D"/>
<path d="M64.5139 35.9463C64.5139 35.9463 65.7595 36.9363 66.0573 37.8992C66.3551 38.8621 66.4967 40.8411 67.0765 40.7755C67.0765 40.7755 68.3289 37.7612 66.9213 36.0572C65.4266 34.249 64.5139 35.9463 64.5139 35.9463Z" fill="#5E2E0D"/>
<path d="M89.5833 52.1618C89.5833 52.1618 90.4395 49.0796 93.831 49.5141C94.2206 49.6363 95.3575 50.09 94.6305 51.3064C94.0949 52.2025 93.8628 51.7397 93.0202 52.9459C92.1777 54.152 91.2627 54.4168 90.2175 54.2788L89.5833 52.1618Z" fill="#EFAC7F"/>
<path d="M57.4325 131.461C57.5352 132.427 57.427 133.404 57.1154 134.324C57.1154 134.324 56.7088 136.175 58.5344 136.209C60.36 136.243 60.8073 136.072 60.6012 134.936C60.3951 133.8 60.001 131.837 60.001 131.837L57.4325 131.461Z" fill="#EFAC7F"/>
<path d="M60.773 137C60.7364 137.022 60.6986 137.043 60.6597 137.061H57.0868C57.0516 137.043 57.0179 137.023 56.986 137C56.7788 136.071 57.1163 134.323 57.1163 134.323C59.1841 136.216 60.4774 134.276 60.4774 134.276C60.8126 135.084 60.773 137 60.773 137Z" fill="#9E322A"/>
<path d="M87.7194 135.122C87.7194 135.122 84.3549 131.388 83.3221 129.49L80.8194 130.771L86.4126 136.02L87.7217 135.848L87.7194 135.122Z" fill="#EFAC7F"/>
<path d="M89.8076 137.061H85.2031C84.7592 136.729 84.3458 135.963 83.8306 134.935C83.5565 134.386 82.9393 134.084 82.3063 133.916V137.024H81.3517L80.4457 133.718C79.8512 132.625 80.3981 131.633 80.8183 130.769C81.3052 130.769 82.6177 131.101 85.1034 133.901C85.9211 134.819 86.8236 135.145 87.7194 135.119C87.7309 135.127 87.743 135.133 87.7556 135.138C89.2561 135.814 89.6808 136.652 89.8076 137.061Z" fill="#9E322A"/>
<path d="M64.1813 47.7048C64.1813 47.7048 67.6919 56.3766 67.7984 58.1315C67.9048 59.8865 68.2117 86.8306 68.2117 86.8306C68.2117 86.8306 68.0045 88.0753 70.3815 87.5525C72.7585 87.0298 73.3779 86.5206 73.3779 86.5206C73.3779 86.5206 71.104 69.9001 71.7245 64.1171C72.3451 58.334 66.9683 48.9076 66.9683 48.9076L64.1813 47.7048Z" fill="#9ED16F"/>
<path d="M80.1416 127.733L77.5109 127.813C77.5109 127.813 71.4319 121.051 68.0233 110.212C67.9429 109.961 67.8591 109.705 67.7707 109.447C65.9044 104.016 62.036 97.1872 59.9976 91.0104C59.6737 90.0271 59.3815 89.1016 59.1211 88.2247C59.035 87.944 58.9542 87.668 58.8787 87.3964L61.0462 85.7535C61.0462 85.7535 67.5544 96.2831 69.569 106.193C71.3187 114.8 78.3274 125.157 80.1416 127.733Z" fill="#2D185D"/>
<path d="M61.2715 107.115C61.3089 111.934 61.0654 123.012 60.4369 127.595H58.1062C56.8175 127.595 56.1811 127.577 56.1811 127.577C54.6047 119.602 53.4835 113.003 52.6704 107.323C52 102.657 51.4054 98.6559 50.9479 95.2162C50.487 91.7504 50.1665 88.8481 50.0522 86.3973C50.034 86.0104 50.0204 85.6347 50.0136 85.2658C50.0069 84.897 50.0046 84.5439 50.0068 84.1977L62.7256 82.9531C62.558 91.4019 61.2511 104.314 61.2715 107.115Z" fill="#45258F"/>
<path d="M58.1055 127.599C56.8167 127.599 56.1803 127.581 56.1803 127.581C54.6039 119.607 53.4828 113.008 52.6697 107.328C51.9993 102.661 51.4048 98.6604 50.9473 95.2206C50.4864 91.7549 50.1659 88.8526 50.0515 86.4018L54.7183 89.1445C54.7183 89.1445 51.7389 90.1946 52.8758 98.1433C54.0128 106.092 56.5234 126.475 58.1055 127.599Z" fill="#2D185D"/>
<path d="M58.7063 86.3135C58.7063 86.3135 57.8106 89.5485 54.7111 89.1355C51.6116 88.7225 47.2041 86.8646 47.2041 86.8646C47.2041 86.8646 48.5291 82.678 50.1756 77.1881C52.1699 70.5372 54.6375 61.9627 55.8016 56.5542C56.1278 55.0391 56.3508 53.773 56.4335 52.8667L59.0053 47.8824C59.0053 47.8824 62.8386 56.4818 63.0459 58.6474C63.2531 60.8131 58.7063 86.3135 58.7063 86.3135Z" fill="#9ED16F"/>
<path d="M55.6112 58.325L59.0085 47.8824C58.9995 47.8824 54.7223 49.1531 52.5706 50.2393C52.5706 50.2393 51.2253 51.9717 50.3929 55.9692C50.3929 55.9692 49.5141 65.5643 51.4778 69.0741C51.4778 69.0741 57.6768 70.3131 67.5947 66.9062V64.6353C67.5947 64.6353 56.7471 65.201 54.5252 65.4613L55.6112 58.325Z" fill="#EFAC7F"/>
<path d="M58.5696 63.1905C58.4303 66.6982 57.6047 73.5132 50.2348 77.1611L50.1759 77.1883C52.1701 70.5373 54.6377 61.9629 55.8019 56.5543C57.1552 58.5763 58.6443 61.2579 58.5696 63.1905Z" fill="#69A037"/>
<path d="M59.0049 47.8824C59.0049 47.8824 52.7142 48.3249 51.1979 51.6967C49.6815 55.0685 49.2002 66.2929 51.1299 69.5901C51.1299 69.5901 53.7843 70.3459 58.4806 69.469L58.6538 69.4362C58.6538 69.4362 60.152 65.7713 58.809 65.0483C58.809 65.0483 54.8455 65.2554 55.2622 63.9473C55.6789 62.6393 59.0049 47.8824 59.0049 47.8824Z" fill="#9ED16F"/>
<path d="M66.4797 65.2396C66.4797 65.2396 67.3437 64.193 67.5283 63.1248C67.7129 62.0567 68.2848 61.2635 69.7762 61.0678C71.2677 60.8721 71.9098 60.8506 71.9052 61.2715C71.9007 61.6924 70.6867 64.6241 68.5464 66.3756C66.4061 68.1272 66.4797 65.2396 66.4797 65.2396Z" fill="#EFAC7F"/>
<path d="M91.6927 52.672C91.745 52.672 91.7964 52.6575 91.841 52.6301L115.25 38.4265C115.282 38.407 115.31 38.3813 115.332 38.351C115.355 38.3206 115.371 38.2861 115.38 38.2496C115.388 38.213 115.39 38.1751 115.384 38.1379C115.379 38.1007 115.366 38.065 115.346 38.0328C115.326 38.0006 115.301 37.9726 115.27 37.9504C115.24 37.9281 115.205 37.9121 115.169 37.9031C115.132 37.8942 115.094 37.8926 115.057 37.8983C115.02 37.9041 114.984 37.9171 114.952 37.9366L91.5432 52.1413C91.4898 52.1739 91.4485 52.2229 91.4257 52.2811C91.4028 52.3392 91.3996 52.4032 91.4166 52.4633C91.4335 52.5234 91.4696 52.5764 91.5195 52.614C91.5693 52.6517 91.6301 52.6721 91.6927 52.672Z" fill="#9E322A"/>
<path d="M94.2637 51.3119C94.2637 51.3119 94.8832 50.4543 94.0134 50.495C93.1437 50.5357 91.1618 51.1037 91.1618 51.1037C91.1618 51.1037 90.4325 53.3667 92.4834 53.1144C92.4834 53.1144 93.0995 51.8222 94.2637 51.3119Z" fill="#EFAC7F"/>
<path d="M125.511 39.6021L123.702 31.7473L129.631 36.8435L125.511 39.6021Z" fill="#3797DB"/>
</svg>
